<svg xmlns="http://www.w3.org/2000/svg" xmlns:xlink="http://www.w3.org/1999/xlink" height="400.666" width="400.667"><defs><radialGradient gradientUnits="userSpaceOnUse" gradientTransform="matrix(2.27144 -2.59519 2.25152 1.97064 -812.722 1043.328)" r="5.643" fy="111.304" fx="442.597" cy="111.304" cx="442.597" id="c" xlink:href="#a"/><linearGradient id="a"><stop offset="0" stop-color="#191919"/><stop offset="1" stop-color="#232323"/></linearGradient><filter id="b" x="-.468" width="1.936" y="-.069" height="1.138" color-interpolation-filters="sRGB"><feGaussianBlur stdDeviation="2.104"/></filter></defs><g fill-rule="evenodd"><path d="M129.286 32.7c-.25 0-.412 1.904-.606 3.894l-4.039 57.036-.748 11.31s-.008.525.153.808c.149.26.433.326.433.326h9.613s.285-.066.433-.326c.161-.283.153-.807.153-.807l-.748-11.31-4.039-57.037c-.194-1.99-.328-3.894-.605-3.894z" filter="url(#b)" transform="translate(-101.655 -15.652) scale(2.3371)"/><g stroke="#333" stroke-width=".375"><path d="M438.568 100.76l-.748 11.31s-.007.525.154.808c.148.26.432.325.432.325h9.614s.284-.065.432-.325c.161-.283.154-.808.154-.808l-.748-11.31-4.645 5.28z" fill="url(#c)" transform="matrix(2.33708 0 0 2.33708 -835.323 -32.313)"/><path d="M200.5 60.769c-.584 0-.962 4.452-1.415 9.102l-9.44 133.3 10.855 12.338 10.854-12.338-9.44-133.3c-.453-4.65-.767-9.102-1.414-9.102z" fill="#fff" stroke-width=".8764049999999999"/></g></g></svg>