<svg xmlns="http://www.w3.org/2000/svg" xmlns:xlink="http://www.w3.org/1999/xlink" width="400.667" height="400.666"><defs><radialGradient xlink:href="#a" id="c" cx="932.325" cy="-199.472" fx="932.325" fy="-199.472" r="73.063" gradientTransform="matrix(-.29976 1.13845 -1.63367 -.43016 702.935 -1333.085)" gradientUnits="userSpaceOnUse"/><linearGradient id="a"><stop offset="0" stop-color="#232323"/><stop offset="1" stop-color="#191919"/></linearGradient><filter id="b" x="-.037" width="1.074" y="-.035" height="1.07" color-interpolation-filters="sRGB"><feGaussianBlur stdDeviation="2.254"/></filter></defs><path d="M778.406-177.345c-.37 0-1.785-.382-2.594-2.374l-10.628-29.038c-29.127 10.238-48.632 37.73-48.672 68.603 0 40.215 32.6 72.815 72.815 72.816 40.215 0 72.815-32.6 72.816-72.816-.036-30.875-19.54-58.37-48.669-68.609l-10.63 29.044c-.81 1.992-2.225 2.374-2.595 2.374h-21.843zm21.633 70.267l.537 1.65-30.272 30.272c-.623-.16-1.243-.329-1.86-.507l4.186-12.928 16.752-16.752a34.812 34.812 0 0010.657-1.735zm-21.43.023a34.81 34.81 0 006.913 1.48l-10.931 10.93zm22.965 4.723l2.72 8.392-21.285 21.285a67.874 67.874 0 01-9.49-1.622zm3.721 11.483l2.717 8.393-9.446 9.445c-3.06.454-6.146.698-9.239.73a68.254 68.254 0 01-2.484-.116zm3.718 11.484l1.212 3.744a67.862 67.862 0 01-6.745 1.79z" filter="url(#b)" transform="matrix(1.11067 0 0 1.11067 -676.185 355.635)"/><path d="M778.406-177.345c-.37 0-1.785-.382-2.594-2.374l-10.628-29.038c-29.127 10.238-48.632 37.73-48.672 68.603 0 40.215 32.6 72.815 72.815 72.816 40.215 0 72.815-32.6 72.816-72.816-.036-30.875-19.54-58.37-48.669-68.609l-10.63 29.044c-.81 1.992-2.225 2.374-2.595 2.374h-21.843zm21.633 70.267l.537 1.65-30.272 30.272c-.623-.16-1.243-.329-1.86-.507l4.186-12.928 16.752-16.752a34.812 34.812 0 0010.657-1.735zm-21.43.023a34.81 34.81 0 006.913 1.48l-10.931 10.93zm22.965 4.723l2.72 8.392-21.285 21.285a67.874 67.874 0 01-9.49-1.622zm3.721 11.483l2.717 8.393-9.446 9.445c-3.06.454-6.146.698-9.239.73a68.254 68.254 0 01-2.484-.116zm3.718 11.484l1.212 3.744a67.862 67.862 0 01-6.745 1.79z" fill="url(#c)" stroke="#2d2d2d" stroke-width=".6" stroke-linejoin="round" transform="matrix(1.11067 0 0 1.11067 -676.185 355.635)"/><g font-weight="400" font-family="arial" letter-spacing="-1.15" word-spacing="0" fill="#fff"><path style="line-height:125%;-inkscape-font-specification:arial" d="M136.878 171.478l7.124-18.55h2.645l7.592 18.55h-2.796l-2.164-5.618h-7.757l-2.037 5.618h-2.607zm5.353-7.617h6.289l-1.936-5.138q-.886-2.34-1.316-3.847-.355 1.785-1 3.543l-2.037 5.442zM154.836 171.478v-18.55h2.454v16.361h9.137v2.19h-11.591zM170.868 171.478v-16.361h-6.111v-2.19h14.704v2.19h-6.138v16.361h-2.455z"/></g><g font-weight="400" font-family="arial" letter-spacing="-1.15" word-spacing="0" text-anchor="middle" fill="#fff"><path style="line-height:81.00000024%;-inkscape-font-specification:arial;text-align:center" d="M131.196 191.834l1.046.264q-.33 1.288-1.186 1.968-.852.674-2.087.674-1.278 0-2.082-.518-.798-.523-1.218-1.51-.415-.986-.415-2.119 0-1.234.469-2.151.474-.922 1.342-1.397.874-.48 1.92-.48 1.186 0 1.995.604.809.604 1.127 1.699l-1.03.243q-.275-.863-.798-1.257-.523-.393-1.316-.393-.91 0-1.526.436-.609.437-.857 1.176-.248.733-.248 1.515 0 1.008.291 1.763.297.75.917 1.122.62.372 1.343.372.878 0 1.488-.507t.825-1.504zM131.942 194.605l3.036-7.905h1.127l3.235 7.905h-1.192l-.922-2.394h-3.305l-.868 2.394h-1.11zm2.281-3.246h2.68l-.825-2.19q-.378-.997-.56-1.638-.152.76-.427 1.51l-.868 2.318zM139.418 194.605V186.7h1.046v6.972h3.893v.933h-4.94zM145.06 194.605V186.7h1.046v7.905h-1.046zM147.176 194.605V186.7h2.966q.906 0 1.45.243.55.237.858.739.312.496.312 1.04 0 .507-.275.955-.275.447-.83.722.717.21 1.1.717.388.507.388 1.197 0 .556-.237 1.036-.232.474-.577.733t-.868.394q-.518.13-1.273.13h-3.014zm1.046-4.583h1.71q.695 0 .997-.092.399-.118.599-.393.204-.275.204-.69 0-.394-.188-.69-.189-.303-.54-.41-.35-.114-1.202-.114h-1.58v2.389zm0 3.65h1.968q.507 0 .712-.037.361-.065.604-.216t.399-.437q.156-.291.156-.669 0-.442-.226-.765-.227-.33-.631-.459-.399-.134-1.154-.134h-1.828v2.717zM153.886 194.605V186.7h3.505q1.057 0 1.607.216.55.21.879.75.329.539.329 1.191 0 .841-.545 1.418t-1.682.734q.415.2.63.393.459.42.869 1.052l1.375 2.151h-1.316l-1.046-1.644q-.458-.712-.755-1.09-.297-.377-.534-.528-.232-.151-.474-.21-.178-.038-.583-.038h-1.213v3.51h-1.046zm1.046-4.416h2.249q.717 0 1.121-.146.405-.15.615-.474.21-.329.21-.712 0-.56-.41-.922-.404-.361-1.283-.361h-2.502v2.615z"/><path style="line-height:81.00000024%;-inkscape-font-specification:arial;text-align:center" d="M160.256 194.605l3.036-7.905h1.127l3.235 7.905h-1.191l-.922-2.394h-3.306l-.868 2.394h-1.11zm2.281-3.246h2.68l-.825-2.19q-.377-.997-.56-1.638-.152.76-.427 1.51l-.868 2.318zM168.967 194.605v-6.972h-2.605v-.933h6.266v.933h-2.615v6.972h-1.046zM173.002 194.605V186.7h5.716v.933h-4.67v2.421h4.373v.928h-4.373v2.69h4.853v.933h-5.899zM179.631 194.605V186.7h2.723q.923 0 1.408.114.68.156 1.16.566.625.528.932 1.353.313.82.313 1.877 0 .9-.21 1.596-.21.695-.54 1.154-.329.452-.722.717-.389.258-.944.393-.55.135-1.267.135h-2.853zm1.047-.933h1.687q.782 0 1.224-.145.448-.146.712-.41.372-.372.577-.998.21-.63.21-1.526 0-1.24-.41-1.903-.404-.669-.986-.895-.42-.162-1.354-.162h-1.66v6.04zM151.377 203.717v-6.972h-2.605v-.933h6.266v.933h-2.615v6.972h-1.046zM154.889 199.867q0-1.968 1.057-3.079 1.057-1.116 2.728-1.116 1.095 0 1.974.523t1.337 1.462q.464.932.464 2.119 0 1.202-.486 2.151-.485.95-1.375 1.44-.89.485-1.92.485-1.115 0-1.994-.54-.88-.538-1.332-1.471-.453-.933-.453-1.974zm1.078.016q0 1.43.766 2.254.771.82 1.93.82 1.181 0 1.942-.83.765-.83.765-2.357 0-.965-.329-1.682-.323-.723-.954-1.116-.625-.4-1.407-.4-1.111 0-1.915.766-.798.76-.798 2.545z"/><path d="M132.362 211.783v.933h-5.225q-.01-.35.113-.674.2-.534.637-1.052.442-.517 1.272-1.197 1.289-1.057 1.742-1.671.453-.62.453-1.17 0-.577-.415-.971-.41-.399-1.074-.399-.7 0-1.121.42-.42.421-.426 1.165l-.998-.102q.103-1.116.771-1.699.67-.587 1.796-.587 1.138 0 1.801.63.663.631.663 1.564 0 .475-.194.933-.194.458-.647.965-.447.507-1.494 1.391-.873.734-1.121.998-.248.259-.41.523h3.877zM132.682 208.817q0-1.402.286-2.254.291-.857.858-1.32.571-.464 1.434-.464.636 0 1.116.258.48.254.793.74.312.479.49 1.175.178.69.178 1.865 0 1.391-.286 2.249-.285.852-.857 1.32-.566.465-1.434.465-1.143 0-1.796-.82-.782-.987-.782-3.214zm.998 0q0 1.947.453 2.594.458.641 1.127.641.668 0 1.121-.647.459-.647.459-2.588 0-1.952-.459-2.593-.453-.642-1.132-.642-.669 0-1.068.566-.501.723-.501 2.67zM138.648 212.716v-1.106h1.106v1.106h-1.106zM140.44 208.817q0-1.402.286-2.254.292-.857.858-1.32.571-.464 1.434-.464.636 0 1.116.258.48.254.793.74.313.479.49 1.175.179.69.179 1.865 0 1.391-.286 2.249-.286.852-.858 1.32-.566.465-1.434.465-1.143 0-1.795-.82-.782-.987-.782-3.214zm.998 0q0 1.947.453 2.594.459.641 1.127.641.669 0 1.122-.647.458-.647.458-2.588 0-1.952-.458-2.593-.453-.642-1.133-.642-.668 0-1.067.566-.502.723-.502 2.67zM145.862 208.817q0-1.402.286-2.254.29-.857.857-1.32.572-.464 1.434-.464.637 0 1.117.258.48.254.792.74.313.479.49 1.175.179.69.179 1.865 0 1.391-.286 2.249-.286.852-.857 1.32-.566.465-1.435.465-1.143 0-1.795-.82-.782-.987-.782-3.214zm.998 0q0 1.947.452 2.594.459.641 1.127.641.669 0 1.122-.647.458-.647.458-2.588 0-1.952-.458-2.593-.453-.642-1.132-.642-.669 0-1.068.566-.501.723-.501 2.67zM151.283 208.817q0-1.402.286-2.254.291-.857.857-1.32.572-.464 1.435-.464.636 0 1.116.258.48.254.792.74.313.479.491 1.175.178.69.178 1.865 0 1.391-.286 2.249-.285.852-.857 1.32-.566.465-1.434.465-1.143 0-1.796-.82-.782-.987-.782-3.214zm.998 0q0 1.947.453 2.594.458.641 1.127.641.668 0 1.121-.647.459-.647.459-2.588 0-1.952-.459-2.593-.453-.642-1.132-.642-.669 0-1.068.566-.501.723-.501 2.67zM159.49 212.716v-7.905h5.332v.933h-4.287v2.448h3.71v.933h-3.71v3.59h-1.046zM165.482 212.716v-7.905h5.716v.933h-4.67v2.42h4.373v.928h-4.373v2.69h4.853v.934h-5.899zM172.133 212.716v-7.905h5.715v.933h-4.67v2.42h4.374v.928h-4.373v2.69h4.853v.934h-5.9zM180.773 212.716v-6.972h-2.604v-.933h6.265v.933h-2.615v6.972h-1.046z" style="line-height:127.99999714%;-inkscape-font-specification:arial;text-align:center"/></g></svg>