<svg xmlns="http://www.w3.org/2000/svg" xmlns:xlink="http://www.w3.org/1999/xlink" width="400.667" height="400.666"><defs><radialGradient gradientTransform="matrix(1.97203 0 0 1.97203 -361.573 26.139)" gradientUnits="userSpaceOnUse" r="2.166" fy="124.899" fx="276.832" cy="124.899" cx="276.832" id="m" xlink:href="#a"/><radialGradient gradientTransform="matrix(1.97203 0 0 1.97203 -329.263 26.14)" gradientUnits="userSpaceOnUse" r="2.166" fy="124.899" fx="276.832" cy="124.899" cx="276.832" id="n" xlink:href="#a"/><radialGradient gradientTransform="matrix(1.97203 0 0 1.97203 -361.573 26.14)" gradientUnits="userSpaceOnUse" r="2.166" fy="124.899" fx="276.832" cy="124.899" cx="276.832" id="o" xlink:href="#a"/><radialGradient gradientTransform="matrix(1.97203 0 0 1.97203 -329.263 26.14)" gradientUnits="userSpaceOnUse" r="2.166" fy="124.899" fx="276.832" cy="124.899" cx="276.832" id="p" xlink:href="#a"/><radialGradient gradientUnits="userSpaceOnUse" gradientTransform="matrix(3.41487 -1.05672 1.0097 3.26295 -781.994 -113.28)" r="22.171" fy="151.697" fx="381.714" cy="151.697" cx="381.714" id="h" xlink:href="#b"/><radialGradient gradientUnits="userSpaceOnUse" gradientTransform="matrix(1.42823 -1.08579 1.04174 1.37029 89.814 73.551)" r="9.743" fy="156.935" fx="334.201" cy="156.935" cx="334.201" id="i" xlink:href="#c"/><radialGradient gradientUnits="userSpaceOnUse" gradientTransform="matrix(1.94643 0 0 1.25637 65.489 -253.334)" r="9.743" fy="148.36" fx="341.579" cy="148.36" cx="341.579" id="j" xlink:href="#d"/><radialGradient gradientTransform="translate(55.5 5.5)" gradientUnits="userSpaceOnUse" r="8.372" fy="145.743" fx="284.118" cy="145.743" cx="284.118" id="l" xlink:href="#f"/><radialGradient gradientTransform="matrix(.80183 -1.06744 .78066 .58641 41.604 606.59)" gradientUnits="userSpaceOnUse" r="137.235" fy="169.186" fx="827.656" cy="169.186" cx="827.656" id="q" xlink:href="#g"/><linearGradient id="g" gradientUnits="userSpaceOnUse" x1="148.108" y1="142.399" x2="163.702" y2="169.408"><stop offset="0" stop-color="#2d2d2d"/><stop offset="1"/></linearGradient><linearGradient id="a"><stop offset="0" stop-color="#7d7d7d"/><stop offset="1" stop-opacity=".984"/></linearGradient><linearGradient id="d"><stop offset="0" stop-color="#5e5e5e"/><stop offset="1" stop-color="#272727"/></linearGradient><linearGradient id="f"><stop offset="0" stop-color="#191919"/><stop offset="1" stop-opacity="0"/></linearGradient><linearGradient id="b"><stop offset="0" stop-color="#242424"/><stop offset="1" stop-color="#4d4d4d"/></linearGradient><linearGradient id="c"><stop offset="0" stop-color="#2d2d2d"/><stop offset="1" stop-color="#0f0f0f"/></linearGradient><linearGradient gradientUnits="userSpaceOnUse" y2="151.244" x2="349.359" y1="151.244" x1="329.876" id="k" xlink:href="#e"/><linearGradient id="e"><stop offset="0" stop-color="#232323"/><stop offset="1" stop-color="#2d2d2d"/></linearGradient></defs><path transform="matrix(1.11067 0 0 1.11067 -676.185 355.635)" d="M670.464-70.883s-30.405 21.037-31.113 38.184c-.638 15.483 27.532 45.917 44.725 44.674 22.014-1.591 41.542-36.896 41.542-36.896-22.588-9.97-42.862-22.886-55.154-45.962z" fill="url(#h)" fill-rule="evenodd" stroke="#000"/><g transform="matrix(2.06046 .83 -.83 2.06046 -595.556 -291.97)"><circle r="6.258" cy="-323.215" cx="-235.853" transform="rotate(147.136)" fill="#252525" stroke="#000" stroke-width=".5"/><path d="M374.111 147.705l.503-3.25 3.024-.559-.026-1.006-3.052-.509-.668-3.113-1.004.026-.503 3.144-3.024.665.026 1.007 3.051.401.668 3.22z"/></g><path d="M749.834-59.412v10.735h-38.97v-10.735c0-10.762 8.723-19.486 19.485-19.486 10.762 0 19.485 8.724 19.485 19.486z" fill="url(#i)" transform="matrix(1.11067 0 0 1.11067 -729.494 406.726)"/><g fill="none" stroke="#000"><path d="M81.341 319.09v14.677" stroke-width=".666402"/><g stroke-width=".3"><path d="M84.532 318.992v14.235M87.673 319.68v13.35M91.404 321.2v13.057M94.692 323.14v15.903M97.441 325.594v15.118M100.082 329.659v12.909" stroke-width=".666405"/></g><g stroke-width=".3"><path d="M78.103 319.062v13.434M74.961 319.992V335M71.23 321.618v15.688M67.942 324.077v14.579M65.193 326.532v12.762M62.552 330.596v13.99" stroke-width=".666405"/></g></g><path d="M749.312-60.215v5.517h-37.927v-5.517c0-10.474 8.49-18.964 18.964-18.964 10.474 0 18.963 8.49 18.963 18.964z" fill="none" stroke="url(#j)" stroke-width=".834" transform="matrix(1.11067 0 0 1.11067 -729.494 406.726)"/><g transform="matrix(2.22135 0 0 2.22135 -672.723 16.697)"><path d="M348.86 151.244a9.242 9.242 0 11-18.484 0 9.242 9.242 0 0118.483 0z" fill="#1a1a1a" stroke="url(#k)"/><circle cx="339.618" cy="151.243" r="7.942" fill="url(#l)" stroke="#000" stroke-width=".859"/></g><g><path d="M837.323-323.389A137.236 137.236 0 00700.09-186.152 137.236 137.236 0 00837.323-48.918 137.236 137.236 0 00974.56-186.152 137.236 137.236 0 00837.323-323.39zm-97.14 109.596l21.754 6.19a78.403 78.403 0 00-3.016 21.45 78.41 78.41 0 003.016 21.452l-21.754 6.19a101.028 101.028 0 01-3.887-27.641 101.028 101.028 0 013.887-27.641zm214.052.096a120.24 120.24 0 013.33 27.545 120.239 120.239 0 01-3.33 27.545l-18.757-4.42a100.948 100.948 0 002.795-23.125 100.948 100.948 0 00-2.795-23.125l18.757-4.42z" fill="url(#q)" stroke="#1a1a1a" stroke-width=".8" stroke-linejoin="round" transform="matrix(1.11067 0 0 1.11067 -729.494 406.726)"/><g fill="none" stroke="#fff"><path d="M200.497 60.722V81.35M282.346 87.315l-12.127 16.691M332.93 156.94l-19.621 6.376M332.93 243.002l-19.621-6.375M282.346 312.627l-12.128-16.692M200.496 339.222V318.59M118.647 312.627l12.126-16.692M68.06 243.002l19.623-6.377M68.06 156.939l19.624 6.375M118.647 87.313l12.128 16.693" stroke-width="3.96953458"/><path d="M217.948 61.82l-1.938 15.35M235.127 65.096l-3.848 14.986M251.758 70.5l-5.696 14.386M267.581 77.945l-7.454 13.56M282.346 87.315l-9.093 12.518M295.82 98.462l-10.591 11.28M307.79 111.21l-11.92 9.863M318.07 125.357l-13.064 8.29M326.494 140.68l-14 6.589M332.931 156.939l-14.715 4.782M332.932 243l-14.715-4.779M326.496 259.26l-14.001-6.585M318.072 274.585l-13.065-8.29M307.793 288.732l-11.923-9.862M295.824 301.48L285.229 290.2M282.35 312.628l-9.097-12.518M267.584 321.999l-7.457-13.56M251.76 329.445l-5.698-14.388M235.13 334.848l-3.85-14.989M217.951 338.126l-1.941-15.354M200.498 339.225l-.001-15.476M183.046 338.126l1.937-15.354M165.868 334.85l3.847-14.99M149.236 329.447l5.695-14.391M133.413 322.002l7.454-13.566M118.648 312.631l9.094-12.524M105.173 301.485l10.592-11.286M93.202 288.738l11.923-9.87M82.922 274.59l13.067-8.298M74.497 259.266l14.004-6.594M68.06 243.008l14.718-4.79M68.056 156.944l14.724 4.777M74.494 140.683l14.008 6.586M82.918 125.358l13.073 8.29M93.197 111.21l11.93 9.863M105.168 98.46l10.6 11.281M118.642 87.313l9.104 12.52M133.407 77.943l7.462 13.562M149.23 70.496l5.705 14.39M165.862 65.091l3.855 14.991M183.04 61.814l1.947 15.357M337.28 173.877l-5.157.985M339.473 191.226l-5.197.328M339.473 208.713l-5.125-.322M337.281 226.062l-5.072-.967M64.048 225.999l15.185-2.968M61.78 208.66l15.436-1.042M61.702 191.172l15.445.903M63.816 173.814l15.212 2.831" stroke-width=".99293898"/></g><g fill="#fff"><path d="M66.53 198.447V201.494h12.13l.52-1.132 7.744-.391-7.744-.393-.52-1.131H67.077z" stroke="#fff" stroke-width=".6552953" stroke-linejoin="round"/><g style="line-height:125%" font-weight="400" font-size="10.866" font-family="sans-serif" letter-spacing="-1.149" word-spacing="0"><path d="M83.357 196.807h-.654v-2.211q0-.25-.024-.483-.02-.233-.094-.372-.08-.15-.23-.226-.149-.077-.43-.077-.275 0-.55.14-.275.135-.55.347.011.08.018.188.007.104.007.208v2.486h-.654v-2.211q0-.257-.024-.487-.02-.233-.094-.372-.08-.15-.23-.222-.149-.077-.43-.077-.268 0-.54.132-.267.132-.535.337v2.9h-.654v-3.884h.654v.432q.306-.254.609-.397.306-.142.65-.142.396 0 .67.166.28.167.415.463.396-.334.723-.48.327-.15.699-.15.64 0 .942.39.306.386.306 1.081v2.521zM87.281 194.836q0 .487-.139.876-.136.39-.369.654-.246.274-.542.414-.296.135-.65.135-.33 0-.577-.08-.247-.076-.487-.208l-.042.18h-.612v-5.41h.654v1.933q.274-.226.584-.368.31-.146.695-.146.689 0 1.085.528.4.529.4 1.492zm-.674.017q0-.695-.23-1.053-.23-.362-.74-.362-.286 0-.578.125-.292.122-.542.317v2.225q.278.125.476.174.202.049.456.049.542 0 .848-.355.31-.358.31-1.12z"/></g><g style="line-height:125%" font-weight="400" font-size="10.398" font-family="sans-serif" letter-spacing="-1.099" word-spacing="0"><path d="M288.863 195.723h-2.88v-.744h.955v-5.804h-.955v-.745h2.88v.745h-.955v5.804h.955v.744zM295.027 195.723h-1.2l-3.458-6.524v6.524h-.906v-7.293h1.503l3.154 5.956v-5.956h.907v7.293zM297.336 195.723h-1.17v-1.396h1.17v1.396zM304.068 195.723h-.97v-3.57h-3.64v3.57h-.969v-7.293h.97v2.86h3.639v-2.86h.97v7.293zM309.335 195.101q0 1.39-.632 2.042-.632.652-1.944.652-.436 0-.852-.064-.412-.059-.813-.171v-.94h.049q.225.087.715.215.49.132.98.132.47 0 .778-.113.308-.112.48-.313.171-.191.245-.46.073-.27.073-.603v-.5q-.416.334-.798.5-.377.162-.965.162-.98 0-1.557-.706-.573-.71-.573-1.998 0-.705.195-1.214.201-.515.544-.887.318-.348.774-.539.455-.195.906-.195.475 0 .793.097.324.094.681.29l.059-.236h.862v4.849zm-.92-.882v-2.982q-.368-.167-.686-.235-.314-.074-.627-.074-.76 0-1.195.51-.436.509-.436 1.479 0 .92.323 1.395.323.476 1.073.476.401 0 .803-.152.406-.157.744-.417z"/></g><path d="M289.35 198.447V201.494h12.13l.52-1.132 7.745-.391-7.745-.393-.52-1.131h-11.582z" stroke="#fff" stroke-width=".6552953" stroke-linejoin="round"/></g><g font-weight="400" font-family="arial" letter-spacing="0" word-spacing="0" fill="#fff"><path d="M193.594 95.096q0-3.756.766-6.038.78-2.297 2.297-3.54 1.531-1.242 3.843-1.242 1.704 0 2.99.693 1.286.68 2.124 1.98.838 1.285 1.314 3.149.477 1.849.477 4.998 0 3.727-.766 6.024-.765 2.283-2.297 3.54-1.516 1.242-3.842 1.242-3.063 0-4.81-2.196-2.096-2.643-2.096-8.61zm2.673 0q0 5.215 1.213 6.949 1.228 1.719 3.02 1.719 1.791 0 3.004-1.734 1.228-1.733 1.228-6.934 0-5.23-1.228-6.948-1.213-1.72-3.033-1.72-1.792 0-2.86 1.517-1.344 1.936-1.344 7.151z" font-size="17.5"/><path d="M267.496 127.336h-2.6v-16.57q-.939.896-2.47 1.791-1.517.896-2.73 1.344v-2.514q2.18-1.025 3.813-2.484 1.633-1.46 2.312-2.832h1.675v21.265zM307.614 165.203v2.5h-13.998q-.03-.94.303-1.806.534-1.43 1.705-2.817 1.184-1.387 3.409-3.207 3.452-2.832 4.666-4.479 1.213-1.661 1.213-3.135 0-1.545-1.112-2.6-1.098-1.069-2.875-1.069-1.878 0-3.005 1.127-1.126 1.127-1.14 3.12l-2.673-.274q.274-2.99 2.065-4.55 1.792-1.575 4.811-1.575 3.048 0 4.825 1.69 1.777 1.69 1.777 4.19 0 1.27-.52 2.498-.52 1.228-1.734 2.586-1.199 1.358-4.001 3.727-2.34 1.965-3.005 2.673-.665.693-1.098 1.401h10.387z" font-size="26.638"/><path d="M193.594 309.756l2.73-.23q.304 1.993 1.402 3.004 1.112.997 2.673.997 1.878 0 3.178-1.416t1.3-3.756q0-2.225-1.257-3.51-1.242-1.286-3.265-1.286-1.257 0-2.268.578-1.011.563-1.589 1.473l-2.441-.317 2.051-10.878h10.531v2.484h-8.45l-1.142 5.692q1.907-1.329 4.002-1.329 2.773 0 4.68 1.921 1.907 1.922 1.907 4.94 0 2.876-1.676 4.97-2.037 2.572-5.561 2.572-2.89 0-4.724-1.618-1.82-1.618-2.08-4.29z" font-size="17.5"/><path d="M266.037 293.87v-5.07h-9.187v-2.384l9.664-13.724h2.124v13.724h2.86v2.383h-2.86v5.071h-2.6zm0-7.454v-9.55l-6.63 9.55h6.63zM293.962 247.913l2.6-.347q.448 2.21 1.517 3.193 1.084.968 2.63.968 1.834 0 3.091-1.271 1.271-1.272 1.271-3.15 0-1.791-1.17-2.947-1.17-1.17-2.976-1.17-.736 0-1.834.29l.289-2.283q.26.028.418.028 1.662 0 2.99-.866 1.33-.867 1.33-2.673 0-1.43-.968-2.369-.968-.939-2.5-.939-1.516 0-2.527.953-1.012.954-1.3 2.86l-2.6-.461q.476-2.615 2.166-4.045 1.69-1.445 4.204-1.445 1.734 0 3.193.751 1.459.737 2.224 2.023.78 1.285.78 2.73 0 1.372-.736 2.5-.737 1.126-2.182 1.79 1.878.434 2.918 1.806 1.04 1.358 1.04 3.41 0 2.773-2.022 4.709-2.022 1.921-5.114 1.921-2.788 0-4.637-1.66-1.835-1.662-2.095-4.306zM141.194 122.078l2.499-.232q.318 1.763 1.213 2.557.896.795 2.297.795 1.199 0 2.095-.55.91-.548 1.488-1.458.577-.925.967-2.485.39-1.56.39-3.178 0-.173-.014-.52-.78 1.242-2.138 2.023-1.343.765-2.918.765-2.63 0-4.45-1.907-1.82-1.906-1.82-5.027 0-3.221 1.893-5.186 1.907-1.964 4.767-1.964 2.066 0 3.77 1.112 1.72 1.112 2.6 3.178.896 2.051.896 5.952 0 4.059-.881 6.471-.881 2.398-2.63 3.655-1.733 1.257-4.073 1.257-2.484 0-4.059-1.373-1.575-1.386-1.892-3.885zm10.646-9.347q0-2.239-1.199-3.553-1.184-1.315-2.86-1.315-1.734 0-3.02 1.416-1.285 1.415-1.285 3.669 0 2.022 1.213 3.294 1.228 1.256 3.02 1.256 1.805 0 2.961-1.256 1.17-1.272 1.17-3.51zM97.721 155.856q-1.618-.592-2.398-1.69-.78-1.098-.78-2.63 0-2.31 1.662-3.885 1.66-1.575 4.42-1.575 2.774 0 4.464 1.618 1.69 1.604 1.69 3.915 0 1.474-.78 2.571-.765 1.084-2.34 1.676 1.95.636 2.961 2.052 1.026 1.415 1.026 3.38 0 2.716-1.921 4.565-1.922 1.85-5.057 1.85-3.134 0-5.056-1.85-1.921-1.864-1.921-4.637 0-2.066 1.04-3.453 1.055-1.401 2.99-1.907zm-.52-4.406q0 1.502.968 2.456.968.953 2.514.953 1.502 0 2.456-.939.968-.953.968-2.325 0-1.43-.997-2.399-.982-.982-2.456-.982-1.488 0-2.47.954-.983.953-.983 2.282zm-.837 9.78q0 1.113.52 2.153.534 1.04 1.574 1.618 1.04.563 2.24.563 1.863 0 3.076-1.199 1.214-1.199 1.214-3.048 0-1.878-1.257-3.106-1.242-1.228-3.12-1.228-1.835 0-3.048 1.213-1.2 1.214-1.2 3.034zM143.11 277.516l-2.586.203q-.347-1.532-.982-2.225-1.055-1.113-2.6-1.113-1.243 0-2.182.694-1.228.896-1.936 2.615-.708 1.719-.737 4.897.94-1.43 2.297-2.124 1.358-.693 2.846-.693 2.6 0 4.42 1.921 1.836 1.907 1.836 4.941 0 1.994-.867 3.713-.853 1.705-2.355 2.615-1.503.91-3.41.91-3.25 0-5.302-2.384-2.051-2.398-2.051-7.888 0-6.14 2.268-8.928 1.98-2.427 5.331-2.427 2.5 0 4.088 1.402 1.604 1.4 1.922 3.871zm-10.618 9.13q0 1.344.563 2.572.578 1.228 1.604 1.878 1.025.636 2.152.636 1.647 0 2.832-1.33 1.184-1.328 1.184-3.61 0-2.197-1.17-3.454-1.17-1.27-2.947-1.27-1.763 0-2.99 1.27-1.228 1.257-1.228 3.309zM94.281 235.475v-2.5h13.71v2.023q-2.023 2.152-4.017 5.72-1.979 3.569-3.062 7.34-.78 2.657-.997 5.821h-2.673q.044-2.499.983-6.038.939-3.54 2.687-6.819 1.762-3.294 3.741-5.547H94.281z" font-size="26.638"/></g></g></svg>