<svg xmlns="http://www.w3.org/2000/svg" xmlns:xlink="http://www.w3.org/1999/xlink" width="400.667" height="400.666"><defs><radialGradient gradientTransform="matrix(1.97203 0 0 1.97203 -361.573 26.139)" gradientUnits="userSpaceOnUse" r="2.166" fy="124.899" fx="276.832" cy="124.899" cx="276.832" id="b" xlink:href="#a"/><radialGradient gradientTransform="matrix(1.97203 0 0 1.97203 -329.263 26.14)" gradientUnits="userSpaceOnUse" r="2.166" fy="124.899" fx="276.832" cy="124.899" cx="276.832" id="c" xlink:href="#a"/><radialGradient gradientTransform="matrix(1.97203 0 0 1.97203 -361.573 26.14)" gradientUnits="userSpaceOnUse" r="2.166" fy="124.899" fx="276.832" cy="124.899" cx="276.832" id="d" xlink:href="#a"/><radialGradient gradientTransform="matrix(1.97203 0 0 1.97203 -329.263 26.14)" gradientUnits="userSpaceOnUse" r="2.166" fy="124.899" fx="276.832" cy="124.899" cx="276.832" id="e" xlink:href="#a"/><linearGradient id="a"><stop offset="0" stop-color="#7d7d7d"/><stop offset="1" stop-opacity=".984"/></linearGradient></defs><g transform="matrix(1.11067 0 0 1.11067 -729.494 406.726)"><circle transform="rotate(162)" cx="-853.867" cy="-81.705" r="101.003"/><g stroke="#fff"><path d="M932.058-216.938l-4.088 1.329" fill-rule="evenodd" stroke-width="1.975"/><path d="M932.883-213.917l-2.861.83" fill="none" stroke-width=".988"/><path d="M935.708-201.74l-4.246.673M936.935-186.157h-4.3M935.71-170.574l-4.247-.673M932.061-155.376l-4.089-1.328M926.08-140.934l-3.83-1.952M917.914-127.607l-3.479-2.527M907.763-115.72l-3.04-3.04M895.878-105.569l-2.527-3.478M882.55-97.401l-1.951-3.831M882.55-97.401l-1.951-3.831M935.708-201.74l-4.246.673M936.935-186.157h-4.3M935.71-170.574l-4.247-.673M932.061-155.376l-4.089-1.328M926.08-140.934l-3.83-1.952M917.914-127.607l-3.479-2.527M907.763-115.72l-3.04-3.04M895.878-105.569l-2.527-3.478M882.55-97.401l-1.951-3.831M882.55-97.401l-1.951-3.831M868.11-91.42l-1.328-4.088" fill-rule="evenodd" stroke-width="1.975"/><path d="M933.708-210.902l-2.886.74M934.437-207.862l-2.907.65M935.071-204.801l-2.926.558M936.05-198.627l-2.956.373M936.392-195.52l-2.965.28M936.638-192.403l-2.973.187M936.785-189.28l-2.977.093M936.785-183.03l-2.977-.093M936.638-179.907l-2.973-.187M936.393-176.79l-2.966-.28M936.05-173.683l-2.956-.373M935.072-167.509l-2.926-.558M934.438-164.447l-2.907-.65M933.708-161.408l-2.885-.74M932.883-158.392l-2.86-.831M930.952-152.447l-2.803-1.009M929.847-149.523l-2.77-1.096M928.65-146.634l-2.733-1.184M927.364-143.785l-2.695-1.269M924.526-138.215l-2.61-1.435M922.977-135.5l-2.564-1.516M921.344-132.834l-2.515-1.597M919.628-130.222l-2.464-1.674M915.953-125.164l-2.354-1.826M913.999-122.724l-2.296-1.9M911.968-120.347l-2.234-1.97M909.865-118.035l-2.172-2.04M905.444-113.615l-2.039-2.171M903.132-111.51l-1.97-2.235M900.755-109.48l-1.899-2.296M898.315-107.526l-1.825-2.354M893.258-103.851l-1.674-2.464M890.645-102.135l-1.596-2.515M887.98-100.501l-1.517-2.565M885.264-98.953l-1.435-2.61M879.694-96.114l-1.268-2.696M876.845-94.828l-1.183-2.734M873.957-93.632l-1.096-2.77M871.033-92.527l-1.009-2.802" fill="none" stroke-width=".988"/><path d="M868.108-91.419l-1.328-4.089" fill-rule="evenodd" stroke-width="1.975"/><path d="M865.088-90.595l-.831-2.86" fill="none" stroke-width=".988"/><path d="M852.91-87.77l-.673-4.246M837.327-86.542v-4.3M821.745-87.768l.672-4.246M806.546-91.416l1.328-4.09M792.105-97.397l1.951-3.83M778.777-105.564l2.527-3.478M766.89-115.715l3.04-3.04M756.74-127.6l3.477-2.527M748.572-140.927l3.83-1.951M748.572-140.927l3.83-1.951M852.91-87.77l-.673-4.246M837.327-86.542v-4.3M821.745-87.768l.672-4.246M806.546-91.416l1.328-4.09M792.105-97.397l1.951-3.83M778.777-105.564l2.527-3.478M766.89-115.715l3.04-3.04M756.74-127.6l3.477-2.527M748.572-140.927l3.83-1.951M748.572-140.927l3.83-1.951M742.59-155.367l4.088-1.329" fill-rule="evenodd" stroke-width="1.975"/><path d="M862.072-89.77l-.74-2.885M859.033-89.04l-.65-2.907M855.971-88.406l-.558-2.926M849.797-87.428l-.373-2.955M846.69-87.085l-.28-2.966M843.573-86.84l-.187-2.973M840.45-86.692l-.093-2.978M834.2-86.692l.093-2.978M831.077-86.84l.187-2.972M827.96-87.085l.28-2.965M824.853-87.428l.374-2.955M818.679-88.406l.558-2.926M815.618-89.04l.65-2.907M812.578-89.77l.74-2.884M809.563-90.594l.83-2.86M803.617-92.526l1.01-2.802M800.693-93.63l1.096-2.77M797.805-94.827l1.183-2.734M794.956-96.113l1.268-2.696M789.385-98.951l1.436-2.61M786.67-100.5l1.516-2.564M784.005-102.133l1.596-2.516M781.392-103.85l1.674-2.463M776.334-107.524l1.826-2.354M773.894-109.479l1.9-2.295M771.517-111.509l1.97-2.234M769.205-113.613l2.04-2.171M764.785-118.033l2.171-2.04M762.68-120.345l2.235-1.97M760.65-122.722l2.296-1.899M758.696-125.162l2.354-1.826M755.021-130.22l2.464-1.674M753.305-132.832l2.515-1.596M751.672-135.497l2.564-1.517M750.123-138.213l2.61-1.435M747.285-143.783l2.695-1.268M745.998-146.632l2.734-1.183M744.802-149.52l2.77-1.097M743.697-152.444l2.803-1.01" fill="none" stroke-width=".988"/><path d="M742.59-155.37l4.088-1.328" fill-rule="evenodd" stroke-width="1.975"/><path d="M741.765-158.39l2.86-.83" fill="none" stroke-width=".988"/><path d="M738.94-170.568l4.246-.672M737.713-186.15h4.299M738.938-201.733l4.246.673M742.586-216.932l4.09 1.329M748.567-231.373l3.831 1.952M756.734-244.7l3.478 2.527M766.885-256.586l3.04 3.04M778.77-266.738l2.527 3.478M792.097-274.906l1.952 3.83M792.097-274.906l1.952 3.83M738.94-170.568l4.246-.672M737.713-186.15h4.299M738.938-201.733l4.246.673M742.586-216.932l4.09 1.329M748.567-231.373l3.831 1.952M756.734-244.7l3.478 2.527M766.885-256.586l3.04 3.04M778.77-266.738l2.527 3.478M792.097-274.906l1.952 3.83M792.097-274.906l1.952 3.83M806.537-280.888l1.329 4.089" fill-rule="evenodd" stroke-width="1.975"/><path d="M740.94-161.405l2.885-.74M740.21-164.445l2.907-.65M739.576-167.506l2.926-.558M737.862-189.278l2.978.094M738.01-192.4l2.973.187M738.255-195.517l2.965.28M738.598-198.624l2.955.373M739.576-204.799l2.926.559M740.21-207.86l2.907.65M740.94-210.9l2.885.741M741.764-213.915l2.86.831M743.696-219.86l2.803 1.009M744.8-222.785l2.77 1.097M745.997-225.673l2.734 1.183M747.283-228.522l2.696 1.269M750.121-234.092l2.61 1.435M751.67-236.807l2.564 1.516M753.304-239.473l2.515 1.596M755.02-242.086l2.464 1.675M758.694-247.143l2.354 1.826M760.649-249.583l2.295 1.899M762.679-251.96l2.234 1.97M764.783-254.272l2.171 2.04M769.203-258.693l2.04 2.172M771.515-260.797l1.97 2.235M773.892-262.827l1.9 2.295M776.332-264.781l1.826 2.353M781.39-268.456l1.674 2.464M784.002-270.172l1.596 2.515M786.668-271.806l1.516 2.564M789.383-273.355l1.435 2.61M794.953-276.193l1.268 2.696M797.802-277.48l1.183 2.735M800.69-278.675l1.097 2.77M803.615-279.78l1.009 2.802" fill="none" stroke-width=".988"/><path d="M806.54-280.888l1.328 4.089" fill-rule="evenodd" stroke-width="1.975"/><path d="M809.56-281.712l.831 2.86" fill="none" stroke-width=".988"/><path d="M821.738-284.538l.672 4.246M837.32-285.765v4.3M852.903-284.54l-.673 4.247M868.102-280.89l-1.329 4.088M882.543-274.91l-1.952 3.83M895.87-266.743l-2.526 3.478M907.757-256.593l-3.04 3.04M917.908-244.707l-3.478 2.527M926.076-231.38l-3.83 1.951M926.076-231.38l-3.83 1.951M821.738-284.538l.672 4.246M837.32-285.765v4.3M852.903-284.54l-.673 4.247M868.102-280.89l-1.329 4.088M882.543-274.91l-1.952 3.83M895.87-266.743l-2.526 3.478M907.757-256.593l-3.04 3.04M917.908-244.707l-3.478 2.527M926.076-231.38l-3.83 1.951M926.076-231.38l-3.83 1.951" fill-rule="evenodd" stroke-width="1.975"/><path d="M812.575-282.537l.741 2.885M815.615-283.267l.65 2.907M818.676-283.901l.558 2.926M824.85-284.88l.374 2.956M827.958-285.222l.28 2.965M831.074-285.468l.187 2.973M834.197-285.615l.093 2.978M840.448-285.615l-.094 2.977M843.57-285.468l-.186 2.973M846.687-285.222l-.28 2.965M849.794-284.88l-.373 2.956M855.969-283.902l-.558 2.926M859.03-283.268l-.65 2.907M862.07-282.538l-.741 2.885M865.085-281.713l-.831 2.86M871.03-279.781l-1.009 2.802M873.955-278.676l-1.097 2.77M876.843-277.48l-1.183 2.734M879.692-276.194l-1.268 2.695M885.262-273.356l-1.435 2.61M887.977-271.807l-1.516 2.564M890.643-270.174l-1.596 2.515M893.256-268.457l-1.675 2.463M898.313-264.783l-1.825 2.354M900.753-262.829l-1.899 2.296M903.13-260.798l-1.97 2.234M905.442-258.694l-2.039 2.171M909.863-254.274l-2.172 2.039M911.967-251.962l-2.235 1.97M913.997-249.585l-2.295 1.899M915.952-247.145l-2.354 1.825M919.626-242.088l-2.464 1.675M921.342-239.475l-2.515 1.596M922.976-236.81l-2.564 1.517M924.525-234.094l-2.61 1.435M927.363-228.524l-2.695 1.268M928.65-225.675l-2.735 1.183M929.846-222.787l-2.77 1.097M930.95-219.863l-2.802 1.01" fill="none" stroke-width=".988"/></g><g font-weight="400" font-size="7.653" font-family="sans-serif" letter-spacing="-1.006" word-spacing="0" fill="#fff"><g style="line-height:125%"><path style="-inkscape-font-specification:sans-serif" d="M926.753-217.47l-1.173.38 1.316 4.049 1.192-.67.213.653-1.186.668-.718.234-1.528-4.702-1.172.38-.197-.603 3.057-.993.196.604zM923.038-211.588q.555-.18.658-.818.1-.634-.255-1.729-.355-1.09-.81-1.548-.457-.452-1.012-.272-.558.181-.658.815-.103.638.251 1.73.356 1.094.813 1.547.455.457 1.013.275zm.185.57q-.892.289-1.59-.266-.702-.55-1.139-1.893-.435-1.34-.192-2.201.24-.856 1.132-1.146.893-.29 1.594.26.699.555 1.134 1.895.437 1.343.196 2.2-.243.86-1.135 1.15zM919.397-215.08l-1.172.38 1.315 4.049 1.193-.67.212.653-1.186.668-.718.234-1.527-4.702-1.173.38-.196-.603 3.056-.993.196.604zM917.365-209.221l-2.819.915-.196-.604 2.16-.702-.422-1.3q-.139.103-.287.18-.147.078-.304.13-.888.288-1.565-.03-.677-.319-.948-1.15-.278-.857.1-1.506.38-.646 1.35-.961.334-.109.701-.165.363-.055.77-.062l.234.722q-.376-.07-.745-.045-.369.026-.75.15-.614.199-.868.639t-.074.994q.18.555.644.762.464.206 1.08.007.287-.094.554-.251.264-.157.519-.389l.866 2.666z"/></g><g style="line-height:125%"><path style="-inkscape-font-specification:sans-serif" d="M930.551-203.095l-1.218.193.666 4.204 1.283-.475.108.679-1.276.474-.745.118-.774-4.883-1.218.193-.1-.627 3.175-.503.1.627zM925.962-197.865q.576-.092.778-.706.198-.61.018-1.747-.18-1.133-.557-1.656-.381-.519-.957-.427-.58.091-.778.702-.202.614-.022 1.747.18 1.137.56 1.656.379.522.958.43zm.094.59q-.927.147-1.53-.51-.607-.654-.828-2.049-.22-1.391.154-2.203.372-.808 1.298-.955.927-.147 1.533.506.604.658.824 2.049.221 1.395-.15 2.203-.375.812-1.301.96zM922.4-201.803l-2.603.412-.1-.628 3.5-.554.1.628q-.356.506-.97 1.36-.617.858-.77 1.102-.295.459-.392.758-.1.303-.056.573.07.439.423.667.35.228.845.15.35-.056.722-.24.369-.183.772-.5l.12.753q-.422.252-.799.406-.376.154-.701.206-.856.135-1.434-.212-.577-.348-.69-1.064-.054-.34.027-.666.077-.323.348-.79.075-.12.488-.712.414-.588 1.17-1.65zM918.323-196.656q.576-.09.777-.705.199-.61.019-1.747-.18-1.133-.557-1.656-.382-.519-.957-.428-.58.092-.778.702-.202.615-.022 1.748.18 1.137.56 1.655.379.523.958.431zm.094.591q-.927.147-1.53-.51-.607-.654-.828-2.049-.22-1.391.154-2.203.372-.808 1.298-.955.927-.147 1.533.506.604.657.824 2.049.221 1.395-.15 2.203-.375.812-1.301.959z"/></g><g style="line-height:125%"><path style="-inkscape-font-specification:sans-serif" d="M932.054-188.302h-1.233v4.256l1.341-.269v.688l-1.334.27h-.755v-4.945h-1.233v-.635h3.214v.635zM926.703-183.855q.583 0 .879-.575.291-.572.291-1.723 0-1.147-.291-1.723-.296-.572-.879-.572-.586 0-.878.572-.295.576-.295 1.723 0 1.15.295 1.723.292.575.878.575zm0 .598q-.938 0-1.43-.744-.498-.74-.498-2.152 0-1.409.497-2.153.493-.74 1.431-.74.938 0 1.435.74.494.744.494 2.153 0 1.412-.494 2.152-.497.744-1.435.744zM923.8-188.302h-2.634v-.635h3.542v.635q-.43.445-1.17 1.192-.743.751-.933.968-.363.407-.505.688-.146.284-.146.556 0 .445.314.725.31.28.811.28.355 0 .751-.123.393-.123.841-.373v.762q-.456.183-.852.277-.396.093-.725.093-.867 0-1.383-.434-.515-.433-.515-1.158 0-.344.13-.654.128-.306.468-.725.093-.108.594-.628.5-.515 1.412-1.446zM920.576-183.358h-2.963v-.635h2.272v-1.368q-.165.056-.33.082-.164.03-.328.03-.934 0-1.48-.512-.545-.512-.545-1.386 0-.9.56-1.401.56-.497 1.58-.497.352 0 .718.06.363.06.751.179v.758q-.336-.183-.695-.272-.358-.09-.758-.09-.647 0-1.024.34-.378.34-.378.923t.378.923q.377.34 1.024.34.302 0 .605-.067.3-.068.613-.21v2.803z"/></g><g style="line-height:125%"><path style="-inkscape-font-specification:sans-serif" d="M931.224-173.456l-1.218-.193-.666 4.204 1.368-.056-.108.68-1.36.056-.745-.118.773-4.883-1.218-.193.1-.627 3.174.502-.1.628zM925.244-169.901q.576.091.957-.431.377-.52.558-1.656.179-1.133-.019-1.747-.202-.61-.778-.702-.58-.092-.957.427-.381.522-.56 1.656-.18 1.136.021 1.747.198.614.778.706zm-.094.59q-.926-.146-1.297-.958-.375-.808-.154-2.204.22-1.391.827-2.048.603-.653 1.53-.507.926.147 1.301.956.371.811.15 2.203-.22 1.395-.823 2.049-.607.656-1.534.51zM921.084-172.66q-.517-.199-.758-.608-.246-.41-.162-.941.13-.816.761-1.173.632-.358 1.666-.194.347.055.704.183.355.124.725.323l-.114.72q-.281-.23-.636-.381-.354-.15-.757-.214-.701-.112-1.11.107-.413.219-.497.747-.077.487.223.814.296.33.905.427l.642.102-.097.613-.672-.107q-.55-.087-.876.085-.326.175-.392.588-.067.425.2.698.263.276.824.365.306.049.667.038.361-.011.804-.085l-.105.664q-.443.051-.822.052-.382 0-.71-.052-.85-.135-1.282-.6-.434-.463-.33-1.12.072-.457.385-.733.312-.272.814-.318zM917.605-171.11q.576.09.957-.432.377-.519.558-1.656.179-1.133-.019-1.747-.202-.61-.778-.702-.58-.092-.957.427-.381.523-.56 1.656-.18 1.136.021 1.747.198.614.778.706zm-.094.59q-.926-.147-1.297-.959-.375-.808-.154-2.203.22-1.392.827-2.049.603-.653 1.53-.507.926.147 1.301.956.371.811.15 2.203-.22 1.395-.823 2.049-.607.656-1.534.51z"/></g><g style="line-height:125%"><path style="-inkscape-font-specification:sans-serif" d="M928.082-158.923l-1.173-.381-1.315 4.048 1.36.159-.213.654-1.352-.157-.718-.233 1.527-4.702-1.172-.381.196-.604 3.056.993-.196.604zM921.62-156.347q.554.18 1.012-.276.454-.454.81-1.548.354-1.092.255-1.729-.104-.635-.659-.815-.558-.181-1.012.272-.458.456-.813 1.547-.355 1.095-.251 1.73.1.637.657.819zm-.186.568q-.892-.29-1.131-1.15-.244-.856.192-2.2.436-1.34 1.138-1.893.698-.552 1.59-.262.892.29 1.136 1.147.24.86-.196 2.2-.436 1.343-1.134 1.895-.703.553-1.595.263zM917.942-159.723q-.479-.277-.654-.719-.178-.443-.012-.955.255-.785.935-1.04.68-.254 1.675.07.335.108.668.29.331.18.665.433l-.225.693q-.242-.271-.569-.476-.326-.204-.714-.33-.675-.22-1.113-.067-.442.151-.607.66-.153.469.092.839.24.373.827.563l.618.201-.191.59-.647-.21q-.53-.172-.879-.054-.35.122-.479.52-.133.41.088.72.217.314.757.49.295.096.653.142.359.045.808.042l-.208.64q-.446-.02-.82-.078-.377-.06-.693-.163-.818-.265-1.173-.793-.356-.524-.15-1.157.143-.44.494-.664.35-.22.855-.187zM915.638-157.768l-2.818-.916.196-.604 2.161.702.423-1.3q-.174.002-.339-.024-.165-.022-.322-.073-.888-.289-1.249-.944-.36-.656-.09-1.487.278-.857.966-1.16.687-.3 1.657.016.334.108.664.278.326.17.659.403l-.235.722q-.263-.279-.576-.475-.314-.196-.694-.32-.615-.2-1.08.008-.463.206-.643.76-.18.555.073.995.254.44.87.64.287.094.596.123.305.029.647-.01l-.866 2.666z"/></g><g style="line-height:125%"><path style="-inkscape-font-specification:sans-serif" d="M922.705-145.06l-1.098-.56-1.933 3.792 1.318.37-.312.612-1.311-.366-.673-.342 2.245-4.405-1.1-.56.29-.566 2.863 1.459-.289.566zM915.919-143.527q.52.264 1.044-.114.519-.377 1.042-1.403.52-1.022.522-1.667-.004-.644-.523-.908-.523-.267-1.042.11-.524.38-1.045 1.401-.523 1.026-.52 1.67 0 .644.522.91zm-.271.532q-.836-.425-.938-1.312-.107-.885.534-2.143.64-1.256 1.42-1.693.776-.435 1.611-.009.836.426.943 1.31.102.887-.538 2.142-.64 1.259-1.416 1.694-.78.437-1.616.011z"/><path style="-inkscape-font-specification:sans-serif" d="M912.137-145.635l3.05-1.788-1.698-.865-1.352 2.653zm-.122.676l-.846-.43 1.65-3.24-.709-.362.285-.56.71.362.597-1.172.67.341-.598 1.172 2.244 1.144-.33.649-3.673 2.096z"/><path style="-inkscape-font-specification:sans-serif" d="M909.028-147.039q.52.265 1.044-.114.519-.377 1.041-1.402.521-1.022.523-1.667-.004-.644-.523-.909-.523-.266-1.042.111-.525.379-1.045 1.401-.523 1.026-.52 1.669-.001.645.522.911zm-.272.533q-.835-.426-.937-1.312-.107-.885.534-2.144.64-1.255 1.42-1.692.775-.435 1.611-.01.836.427.943 1.311.102.887-.538 2.142-.641 1.259-1.416 1.694-.78.437-1.617.011z"/></g><g style="line-height:125%"><path style="-inkscape-font-specification:sans-serif" d="M915.226-132.21l-.998-.724-2.501 3.443 1.243.571-.404.556-1.237-.566-.611-.444 2.906-4-.998-.724.373-.514 2.6 1.889-.373.514zM908.283-131.757q.472.343 1.05.05.571-.29 1.248-1.222.674-.928.776-1.565.098-.636-.374-.978-.475-.345-1.047-.054-.577.292-1.251 1.22-.676.931-.774 1.567-.102.637.372.982zm-.35.484q-.76-.551-.722-1.443.033-.89.863-2.034.828-1.14 1.668-1.449.834-.308 1.592.243.76.551.726 1.442-.038.892-.866 2.031-.83 1.143-1.664 1.452-.84.31-1.598-.242z"/><path style="-inkscape-font-specification:sans-serif" d="M904.878-134.43l3.292-1.29-1.542-1.12-1.75 2.41zm-.227.648l-.768-.557 2.137-2.942-.644-.468.37-.508.643.468.774-1.064.607.441-.773 1.065 2.038 1.48-.429.59-3.955 1.495zM903.034-134.956l-2.397-1.742.373-.514 1.838 1.335.804-1.106q-.166-.051-.314-.127-.15-.072-.284-.169-.756-.55-.896-1.284-.14-.735.373-1.442.53-.729 1.278-.804.745-.073 1.57.527.285.206.546.47.258.261.502.586l-.446.614q-.164-.346-.402-.63-.237-.283-.56-.518-.524-.38-1.029-.326-.505.053-.848.524-.342.472-.237.969.105.497.628.877.245.178.53.301.281.122.619.191l-1.648 2.268z"/></g><g style="line-height:125%"><path style="-inkscape-font-specification:sans-serif" d="M905.829-120.687l-.872-.872-3.01 3.01 1.139.758-.486.486-1.134-.753-.534-.533 3.496-3.496-.872-.872.45-.45 2.272 2.273-.45.45zM898.9-121.326q.413.412 1.029.214.61-.198 1.424-1.012.811-.811 1.012-1.424.195-.613-.217-1.025-.415-.415-1.025-.217-.616.198-1.427 1.01-.814.813-1.01 1.426-.2.613.215 1.028zm-.422.423q-.663-.663-.486-1.538.171-.875 1.17-1.873.996-.997 1.874-1.17.872-.175 1.535.488.663.663.491 1.538-.177.874-1.173 1.87-.999 1-1.87 1.174-.878.174-1.541-.49zM896.951-122.573l-2.095-2.095.449-.45 1.606 1.607.968-.967q-.156-.076-.291-.174-.138-.095-.254-.212-.66-.66-.684-1.408-.024-.748.594-1.366.637-.637 1.388-.595.747.045 1.469.767.248.248.465.55.214.298.404.657l-.536.537q-.109-.368-.299-.685-.19-.317-.473-.6-.457-.457-.964-.483-.508-.027-.92.386-.412.412-.386.92.027.507.484.964.214.214.476.38.259.164.58.286l-1.98 1.981zM893.432-126.795q.412.412 1.028.214.61-.198 1.424-1.012.811-.81 1.012-1.424.195-.613-.217-1.025-.415-.415-1.025-.217-.616.198-1.427 1.01-.814.813-1.01 1.426-.2.613.215 1.028zm-.423.423q-.663-.663-.486-1.538.172-.874 1.17-1.873.997-.996 1.874-1.17.872-.175 1.535.488.663.663.492 1.538-.178.875-1.174 1.87-.998 1-1.87 1.174-.878.174-1.541-.489z"/></g><g style="line-height:125%"><path style="-inkscape-font-specification:sans-serif" d="M894.744-110.776l-.725-.998-3.443 2.502 1.006.927-.556.404-1.002-.92-.444-.611 4-2.906-.725-.998.514-.373 1.89 2.6-.515.373zM888.002-112.491q.342.472.981.372.634-.1 1.565-.777.929-.674 1.223-1.248.289-.575-.054-1.046-.345-.475-.979-.375-.639.1-1.567.774-.93.676-1.22 1.251-.294.574.05 1.049zm-.484.351q-.551-.758-.24-1.595.307-.837 1.45-1.667 1.14-.828 2.033-.863.889-.036 1.44.723.551.759.245 1.596-.312.836-1.452 1.664-1.142.83-2.031.866-.894.035-1.445-.724zM886.271-114.027l-1.742-2.398.514-.373 1.336 1.838 1.106-.804q-.142-.1-.26-.218-.12-.115-.217-.248-.55-.756-.456-1.498.094-.743.801-1.257.729-.529 1.463-.37.732.161 1.331.987.207.284.374.615.165.329.296.714l-.613.445q-.05-.38-.188-.722-.139-.343-.374-.667-.38-.523-.877-.628-.497-.106-.968.237-.472.343-.525.848-.053.505.327 1.028.178.245.41.45.23.203.53.373l-2.268 1.648zM883.998-117.156l-1.742-2.397.514-.374 1.336 1.838 1.106-.804q-.142-.1-.26-.217-.12-.116-.217-.249-.55-.756-.456-1.498.094-.742.801-1.256.729-.53 1.463-.37.732.16 1.331.986.207.284.374.616.164.328.296.713l-.614.446q-.05-.38-.187-.723-.139-.343-.374-.666-.38-.523-.877-.629-.497-.105-.968.237-.472.343-.525.848-.053.506.327 1.029.178.244.41.45.23.202.53.373l-2.268 1.647z"/></g><g style="line-height:125%"><path style="-inkscape-font-specification:sans-serif" d="M882.246-102.721l-.56-1.1-3.792 1.933.849 1.073-.613.313-.845-1.067-.343-.673 4.405-2.244-.56-1.099.566-.288 1.459 2.863-.566.289zM875.855-105.47q.264.52.911.521.642 0 1.667-.522 1.023-.52 1.403-1.042.375-.523.11-1.042-.266-.523-.907-.523-.647-.002-1.67.52-1.025.522-1.4 1.044-.38.521-.114 1.044zm-.533.271q-.426-.835.013-1.612.433-.78 1.692-1.42 1.255-.64 2.143-.535.884.104 1.31.94.425.835-.008 1.614-.439.777-1.694 1.417-1.259.641-2.142.537-.888-.105-1.314-.94zM875.831-109.903q.231.453.676.561.444.106.983-.17.537-.272.715-.695.174-.424-.056-.877-.231-.453-.675-.558-.448-.107-.984.166-.54.275-.714.7-.175.42.055.873zm-2.788-.261l.613-.313q.01.315.078.607.068.288.196.541.34.666.97.79.627.12 1.561-.293-.39-.048-.694-.267-.307-.216-.489-.573-.382-.749-.146-1.414.23-.667 1.013-1.066.766-.39 1.46-.173.693.217 1.076.97.44.862.013 1.654-.43.794-1.685 1.434-1.18.6-2.163.397-.988-.201-1.468-1.144-.129-.253-.21-.535-.082-.285-.125-.615z"/><path style="-inkscape-font-specification:sans-serif" d="M872.343-112.361q.265.52.912.521.642 0 1.667-.522 1.022-.521 1.403-1.042.375-.523.11-1.042-.266-.523-.908-.523-.646-.002-1.669.519-1.025.522-1.4 1.045-.38.521-.115 1.044zm-.532.271q-.426-.836.012-1.613.434-.778 1.693-1.42 1.255-.64 2.143-.534.883.104 1.31.94.425.835-.009 1.614-.438.777-1.693 1.417-1.26.64-2.142.537-.888-.105-1.314-.94z"/></g><g style="line-height:125%"><path style="-inkscape-font-specification:sans-serif" d="M868.502-96.693l-.382-1.173-4.047 1.315.67 1.193-.654.212-.668-1.185-.233-.718 4.702-1.528-.382-1.173.605-.196.993 3.056-.604.197zM862.619-100.408q.18.555.819.658.633.1 1.728-.256 1.091-.354 1.548-.81.453-.457.273-1.011-.182-.558-.815-.659-.639-.103-1.73.252-1.095.356-1.547.813-.457.455-.276 1.013zm-.569.185q-.29-.892.265-1.591.55-.701 1.894-1.138 1.34-.435 2.2-.192.856.24 1.146 1.132.29.892-.26 1.594-.555.699-1.895 1.134-1.343.436-2.2.196-.86-.243-1.15-1.135zM863.29-104.79q.156.483.58.66.421.174.997-.013.572-.186.815-.576.238-.391.08-.875-.156-.483-.578-.656-.426-.176-.999.01-.575.187-.813.578-.24.389-.083.872zm-2.713-.694l.653-.213q-.04.312-.017.611.021.296.109.566.231.71.833.931.601.218 1.589-.044-.378-.11-.644-.373-.27-.262-.393-.642-.26-.8.077-1.42.332-.622 1.167-.894.817-.265 1.468.057.651.323.912 1.126.3.921-.246 1.637-.549.716-1.889 1.152-1.258.408-2.198.054-.944-.354-1.27-1.36-.089-.27-.124-.56-.037-.295-.027-.628zM860.253-106.082l-.916-2.818.604-.196.702 2.16 1.301-.422q-.104-.14-.18-.288-.079-.147-.13-.303-.289-.889.03-1.566.318-.677 1.15-.947.856-.278 1.506.1.646.38.96 1.35.11.334.166.7.055.364.061.77l-.721.235q.07-.376.044-.745-.025-.37-.149-.75-.2-.614-.64-.868t-.994-.074q-.554.18-.761.644-.207.464-.007 1.079.093.288.25.555.157.264.39.518l-2.666.866z"/></g><g style="line-height:125%"><path style="-inkscape-font-specification:sans-serif" d="M854.126-92.895l-.193-1.218-4.204.666.476 1.283-.68.107-.474-1.275-.118-.746 4.883-.773-.193-1.218.628-.1.502 3.175-.627.1zM848.897-97.484q.091.576.706.777.61.199 1.747.019 1.133-.18 1.656-.558.518-.38.427-.956-.092-.58-.702-.778-.615-.202-1.748-.023-1.137.18-1.655.562-.523.377-.431.957zm-.59.093q-.147-.926.51-1.53.653-.606 2.048-.827 1.391-.22 2.204.154.808.372.954 1.298.147.926-.506 1.533-.657.604-2.049.824-1.395.22-2.203-.15-.812-.375-.959-1.302zM848.083-99.443l-.56-3.543.317-.05 5.51 1.177.123.78-5.181-1.11.419 2.647-.628.099zM847.687-105.123q.091.576.706.777.61.199 1.747.019 1.133-.18 1.656-.558.518-.38.427-.956-.092-.58-.702-.778-.615-.202-1.748-.023-1.137.18-1.655.562-.523.377-.431.957zm-.59.093q-.147-.926.51-1.53.653-.606 2.048-.827 1.392-.22 2.204.154.808.372.954 1.298.147.926-.506 1.533-.657.604-2.049.824-1.395.22-2.203-.15-.812-.375-.959-1.302z"/></g><g style="line-height:125%"><path style="-inkscape-font-specification:sans-serif" d="M839.333-91.392v-1.233h-4.256l.269 1.341h-.688l-.269-1.334v-.755h4.944v-1.233h.635v3.214h-.635zM834.886-96.743q0 .583.576.878.572.292 1.722.292 1.148 0 1.723-.292.572-.295.572-.878 0-.587-.572-.878-.575-.295-1.723-.295-1.15 0-1.722.295-.576.291-.576.878zm-.598 0q0-.938.744-1.431.74-.497 2.152-.497 1.41 0 2.153.497.74.493.74 1.431 0 .938-.74 1.435-.744.493-2.153.493-1.412 0-2.152-.493-.744-.497-.744-1.435zM834.39-98.805v-3.587h.32l5.258 2.025v.788l-4.943-1.905v2.679h-.636zM834.39-102.87v-2.964h.635v2.272h1.367q-.056-.164-.082-.328-.03-.165-.03-.33 0-.933.512-1.479t1.387-.546q.9 0 1.4.56.498.561.498 1.582 0 .35-.06.717-.06.363-.18.751h-.758q.183-.336.273-.695.09-.359.09-.758 0-.647-.34-1.024-.34-.378-.923-.378t-.923.378q-.34.377-.34 1.024 0 .302.067.605.067.299.209.613h-2.803z"/></g><g style="line-height:125%"><path style="-inkscape-font-specification:sans-serif" d="M824.487-92.222l.193-1.218-4.204-.666.056 1.367-.679-.107-.057-1.36.118-.746 4.883.774.193-1.218.628.1-.503 3.173-.628-.1zM820.932-98.203q-.09.576.431.958.52.377 1.656.557 1.133.18 1.747-.018.611-.202.702-.778.092-.58-.427-.957-.522-.381-1.655-.561-1.137-.18-1.748.022-.614.198-.706.777zm-.59-.093q.147-.926.958-1.297.809-.376 2.204-.155 1.391.22 2.048.828.654.603.507 1.53-.147.926-.955 1.301-.812.37-2.203.15-1.396-.22-2.05-.823-.656-.608-.51-1.534zM823.94-101.641q-.084.531.152.882.236.348.734.427.498.079.83-.179.333-.261.417-.793.085-.531-.151-.882-.24-.352-.734-.43-.498-.08-.831.182-.332.257-.417.793zm-.435.695q-.195.46-.566.678-.37.214-.843.14-.66-.105-.97-.635-.309-.533-.18-1.353.131-.823.59-1.23.457-.409 1.118-.304.472.075.758.396.287.318.33.813.21-.519.623-.76.413-.245.941-.161.8.127 1.151.685.351.555.207 1.467t-.65 1.335q-.506.42-1.307.292-.527-.083-.845-.444-.317-.36-.357-.92zm-1.221.086q.428.068.71-.16.283-.23.36-.714.075-.48-.122-.788-.197-.31-.625-.379-.428-.067-.711.168-.283.231-.359.711-.076.483.121.79.198.305.626.372zM822.142-105.842q-.09.576.431.958.52.377 1.656.557 1.133.18 1.747-.018.611-.202.702-.778.092-.58-.427-.957-.522-.382-1.655-.561-1.137-.18-1.748.022-.614.198-.706.777zm-.59-.093q.146-.926.958-1.297.809-.376 2.204-.155 1.391.22 2.048.828.654.603.507 1.53-.147.926-.955 1.301-.812.37-2.203.15-1.396-.22-2.05-.823-.656-.608-.51-1.534z"/></g><g style="line-height:125%"><path style="-inkscape-font-specification:sans-serif" d="M809.954-95.364l.381-1.173-4.048-1.315-.158 1.359-.654-.213.156-1.352.233-.717 4.702 1.527.381-1.173.605.197-.993 3.056-.605-.196zM807.379-101.827q-.18.554.276 1.013.453.454 1.548.81 1.09.354 1.728.255.635-.104.815-.659.182-.558-.272-1.012-.456-.458-1.547-.813-1.095-.355-1.73-.251-.637.099-.818.657zm-.57-.185q.29-.892 1.15-1.131.858-.244 2.201.192 1.34.436 1.894 1.138.55.698.261 1.59-.29.892-1.147 1.136-.86.24-2.2-.196-1.343-.436-1.894-1.134-.554-.703-.264-1.595zM810.887-104.753q-.166.512.012.896.179.38.658.536.48.156.849-.047.37-.206.535-.718.167-.511-.011-.895-.181-.385-.658-.54-.48-.156-.849.05-.368.203-.536.718zm-.539.618q-.264.426-.664.582-.4.153-.855.006-.636-.207-.859-.779-.221-.575.035-1.364.257-.792.774-1.123.516-.332 1.152-.125.455.148.687.51.233.359.198.854.29-.48.735-.653.446-.177.955-.012.77.25 1.03.857.26.603-.026 1.481-.285.878-.851 1.217-.565.335-1.336.084-.508-.165-.765-.57-.257-.406-.21-.965zm-1.219-.105q.412.134.727-.047.315-.184.466-.65.15-.462.004-.796-.146-.338-.558-.472-.413-.134-.729.054-.315.184-.465.646-.152.466-.005.8.148.331.56.465zM808.8-107.808l.915-2.818.604.196-.702 2.16 1.3.423q-.002-.173.024-.338.023-.165.074-.322.288-.888.944-1.249.655-.36 1.487-.09.856.278 1.16.966.299.686-.016 1.657-.109.334-.279.664-.169.326-.403.658l-.721-.234q.278-.263.474-.577.196-.313.32-.693.2-.615-.007-1.08-.207-.463-.761-.644-.555-.18-.995.074-.44.254-.64.869-.093.288-.123.596-.028.306.01.648l-2.666-.866z"/></g><g style="line-height:125%"><path style="-inkscape-font-specification:sans-serif" d="M796.092-100.74l.56-1.1-3.793-1.932-.37 1.317-.612-.312.366-1.31.343-.673 4.405 2.244.56-1.098.566.288-1.46 2.863-.565-.288zM794.559-107.527q-.265.52.114 1.043.377.52 1.402 1.042 1.023.521 1.668.523.643-.004.908-.523.266-.523-.111-1.042-.379-.525-1.4-1.045-1.026-.523-1.67-.52-.645-.001-.911.522zm-.533-.272q.426-.835 1.312-.937.885-.107 2.144.534 1.255.64 1.692 1.42.435.775.01 1.611-.426.836-1.311.943-.887.102-2.142-.538-1.259-.641-1.694-1.417-.437-.78-.011-1.616z"/><path style="-inkscape-font-specification:sans-serif" d="M800.017-107.3l-.613-.312q.249-.192.444-.42.196-.227.323-.477.34-.666.071-1.243-.27-.581-1.156-1.096.188.339.19.713.002.375-.181.734-.38.746-1.052.953-.673.202-1.456-.196-.765-.39-.997-1.08-.233-.688.15-1.44.44-.863 1.334-.978.891-.12 2.15.521 1.175.599 1.593 1.516.416.913-.065 1.855-.128.253-.31.487-.183.234-.425.463zm-1.426-2.412q.23-.453.055-.874-.174-.424-.713-.699-.536-.273-.982-.164-.447.103-.677.556-.231.453-.054.879.176.42.712.694.54.274.983.17.445-.11.676-.562zM798.07-114.419q-.265.52.114 1.044.377.52 1.403 1.042 1.022.52 1.667.522.643-.003.908-.523.266-.522-.11-1.042-.38-.524-1.402-1.045-1.025-.522-1.669-.519-.645-.001-.911.521zm-.533-.271q.426-.836 1.313-.938.884-.107 2.143.535 1.255.64 1.692 1.42.436.775.01 1.61-.426.837-1.311.944-.887.102-2.142-.538-1.258-.641-1.694-1.417-.437-.78-.01-1.616z"/></g><g style="line-height:125%"><path style="-inkscape-font-specification:sans-serif" d="M783.24-108.22l.726-.998-3.444-2.502-.57 1.244-.557-.404.567-1.238.443-.61 4 2.906.725-.998.514.373-1.89 2.6-.513-.373zM782.788-115.163q-.342.472-.05 1.049.29.572 1.222 1.248.928.675 1.565.777.636.097.979-.374.345-.475.053-1.047-.292-.577-1.22-1.251-.931-.677-1.567-.774-.637-.102-.982.372zm-.483-.351q.55-.759 1.442-.721.891.033 2.034.863 1.14.828 1.45 1.667.308.834-.244 1.593-.55.759-1.442.726-.891-.038-2.03-.866-1.144-.83-1.452-1.664-.31-.84.242-1.598z"/><path style="-inkscape-font-specification:sans-serif" d="M788.143-114.084l-.556-.404q.276-.151.505-.345.228-.194.393-.421.44-.605.265-1.216-.175-.617-.97-1.265.132.365.075.735-.056.37-.293.696-.492.678-1.188.777-.697.094-1.407-.422-.696-.505-.817-1.221-.122-.717.375-1.4.569-.783 1.47-.757.899.02 2.041.85 1.068.776 1.336 1.747.268.967-.353 1.822-.167.23-.384.433-.217.203-.492.39zm-1.03-2.606q.298-.411.19-.854-.105-.446-.594-.802-.487-.354-.944-.316-.458.032-.756.443-.3.411-.19.86.107.443.594.796.49.356.944.322.457-.038.756-.449zM785.988-120.412l1.742-2.397.513.373-1.335 1.838 1.106.804q.052-.166.127-.314.073-.15.17-.284.549-.756 1.283-.896.735-.14 1.443.373.728.53.804 1.277.072.746-.527 1.571-.207.285-.47.546-.262.258-.587.502l-.614-.446q.346-.164.63-.402.283-.237.518-.56.38-.524.327-1.03-.053-.504-.525-.847-.472-.343-.969-.237-.497.105-.877.628-.177.245-.3.53-.122.281-.192.618l-2.267-1.647z"/></g><g style="line-height:125%"><path style="-inkscape-font-specification:sans-serif" d="M771.718-117.618l.872-.872-3.01-3.01-.758 1.14-.486-.487.753-1.133.534-.534 3.496 3.496.872-.872.449.45-2.273 2.272-.449-.45zM774.453-120.352l.872-.872-3.01-3.01-.758 1.14-.487-.487.753-1.134.534-.533 3.496 3.495.872-.872.45.45-2.273 2.272-.45-.45zM775.092-127.28q-.413.412-.214 1.028.198.61 1.012 1.424.81.811 1.424 1.012.613.196 1.025-.217.415-.414.217-1.025-.198-.615-1.01-1.427-.813-.814-1.426-1.01-.613-.2-1.028.215zm-.423-.423q.663-.663 1.538-.486.874.172 1.873 1.17.996.997 1.17 1.874.175.872-.488 1.535-.663.663-1.538.492-.875-.177-1.87-1.173-1-1-1.174-1.871-.174-.878.489-1.54zM777.826-130.014q-.412.412-.214 1.027.198.61 1.012 1.425.811.81 1.424 1.012.613.195 1.026-.217.414-.415.216-1.025-.198-.616-1.01-1.427-.813-.814-1.426-1.01-.613-.2-1.028.215zm-.423-.423q.664-.664 1.538-.486.875.171 1.874 1.17.996.996 1.17 1.874.175.872-.489 1.535-.663.663-1.538.491-.874-.177-1.87-1.173-1-.999-1.174-1.87-.174-.878.49-1.541z"/></g><g style="line-height:125%"><path style="-inkscape-font-specification:sans-serif" d="M761.807-128.702l.998-.725-2.502-3.443-.927 1.006-.404-.556.921-1.002.61-.444 2.907 4 .997-.725.374.514-2.6 1.889-.374-.514zM764.936-130.975l.998-.725-2.502-3.443-.927 1.006-.405-.556.922-1.002.61-.444 2.906 4 .998-.725.373.514-2.6 1.889-.373-.514zM766.65-137.718q-.47.343-.371.982.1.634.777 1.565.674.928 1.248 1.222.575.29 1.046-.053.475-.345.375-.979-.1-.639-.774-1.567-.676-.931-1.251-1.22-.574-.295-1.05.05zm-.35-.483q.758-.552 1.595-.24.837.306 1.667 1.45.828 1.139.863 2.033.036.888-.723 1.44-.759.55-1.596.244-.836-.311-1.664-1.451-.83-1.143-.866-2.031-.035-.894.724-1.445zM768.187-139.448l2.398-1.742.373.514-1.838 1.335.804 1.107q.1-.142.218-.26.115-.12.248-.217.756-.55 1.498-.456.743.093 1.257.8.529.73.37 1.464-.162.732-.987 1.331-.284.207-.616.374-.328.164-.713.296l-.446-.614q.38-.05.723-.188.343-.138.667-.373.523-.38.628-.877.106-.497-.237-.969-.343-.471-.848-.524-.505-.054-1.028.326-.245.178-.45.41-.203.23-.373.53l-1.648-2.267z"/></g><g style="line-height:125%"><path style="-inkscape-font-specification:sans-serif" d="M753.753-141.2l1.098-.56-1.932-3.792-1.073.848-.312-.612 1.066-.846.673-.342 2.244 4.405 1.1-.56.288.566-2.864 1.459-.288-.566zM757.198-142.956l1.1-.56-1.933-3.792-1.073.849-.313-.613 1.067-.845.673-.343 2.244 4.405 1.099-.56.288.566-2.863 1.46-.289-.567zM760.644-144.712l1.099-.56-1.933-3.792-1.073.85-.312-.614 1.067-.845.672-.343 2.245 4.405 1.098-.56.289.567-2.864 1.459-.288-.567zM763.393-151.103q-.52.265-.522.912 0 .641.523 1.667.52 1.022 1.042 1.402.522.376 1.042.111.522-.266.522-.908.002-.647-.519-1.669-.522-1.025-1.045-1.4-.52-.381-1.043-.115zm-.272-.533q.836-.425 1.613.013.779.434 1.42 1.692.64 1.256.534 2.144-.103.883-.939 1.309-.836.426-1.614-.008-.778-.438-1.417-1.694-.641-1.258-.538-2.142.105-.888.941-1.314z"/></g><g style="line-height:125%"><path style="-inkscape-font-specification:sans-serif" d="M747.74-154.814l1.173-.382-1.316-4.047-1.192.67-.213-.654 1.186-.668.718-.233 1.527 4.702 1.173-.382.197.605-3.057.993-.196-.604zM751.418-156.01l1.173-.38-1.316-4.048-1.192.67-.213-.654 1.186-.668.718-.233 1.527 4.702 1.173-.382.196.605-3.056.993-.196-.604zM755.096-157.204l1.172-.382-1.315-4.047-1.193.67-.212-.654 1.186-.668.717-.233 1.528 4.702 1.173-.382.196.605-3.056.993-.196-.604zM757.128-163.063l2.819-.916.196.604-2.16.702.422 1.301q.139-.104.287-.18.147-.079.304-.13.888-.288 1.565.03.677.318.948 1.15.278.856-.1 1.506-.38.646-1.35.96-.334.11-.701.166-.363.055-.77.061l-.234-.721q.376.07.745.044.369-.025.75-.149.614-.2.868-.64t.074-.994q-.18-.554-.645-.761-.464-.207-1.078-.007-.288.093-.555.25-.264.157-.519.39l-.866-2.666z"/></g><g style="line-height:125%"><path style="-inkscape-font-specification:sans-serif" d="M743.93-169.202l1.219-.193-.666-4.203-1.283.475-.108-.679 1.276-.474.746-.118.773 4.883 1.218-.193.1.627-3.175.503-.1-.628zM747.75-169.807l1.218-.193-.666-4.203-1.283.475-.107-.679 1.275-.474.746-.118.773 4.883 1.218-.193.1.627-3.174.503-.1-.628zM752.083-170.493l2.602-.412.1.627-3.5.555-.1-.628q.356-.506.97-1.36.617-.858.771-1.102.294-.46.39-.758.1-.304.058-.573-.07-.44-.424-.667-.35-.228-.845-.15-.35.056-.722.24-.369.183-.772.5l-.12-.753q.422-.252.799-.406.376-.155.701-.206.856-.136 1.434.212.577.347.69 1.063.054.34-.027.667-.077.322-.348.789-.075.121-.488.713-.414.588-1.17 1.65zM756.159-175.64q-.576.09-.777.705-.199.61-.019 1.747.18 1.133.558 1.656.38.519.956.427.58-.091.778-.702.202-.614.022-1.747-.18-1.137-.56-1.656-.379-.522-.958-.43zm-.094-.591q.927-.147 1.53.51.607.653.828 2.049.22 1.391-.154 2.203-.372.808-1.298.955-.927.147-1.533-.506-.604-.658-.824-2.05-.221-1.394.15-2.202.375-.813 1.301-.96z"/></g><g style="line-height:125%"><path style="-inkscape-font-specification:sans-serif" d="M920.753-231.075l-1.1.56 1.933 3.793 1.073-.85.313.613-1.067.846-.673.343-2.244-4.405-1.099.56-.288-.567 2.863-1.459.289.566zM918.004-224.683q.52-.265.521-.912 0-.641-.522-1.667-.521-1.022-1.042-1.403-.523-.375-1.042-.11-.523.266-.523.908-.002.647.52 1.669.522 1.025 1.044 1.4.521.381 1.044.115zm.271.532q-.835.426-1.612-.012-.78-.434-1.42-1.693-.64-1.255-.535-2.143.104-.883.94-1.309.835-.426 1.614.008.777.438 1.417 1.694.641 1.258.537 2.141-.105.889-.94 1.314zM913.861-227.563l-1.098.56 1.932 3.792 1.073-.849.312.613-1.066.845-.673.343-2.244-4.405-1.099.56-.288-.566 2.863-1.46.288.567zM911.113-221.172q.52-.265.521-.911 0-.642-.522-1.668-.521-1.022-1.042-1.402-.523-.376-1.042-.111-.523.266-.523.908-.002.647.519 1.669.522 1.026 1.045 1.4.521.381 1.044.115zm.271.533q-.836.426-1.613-.013-.778-.434-1.42-1.692-.64-1.256-.534-2.144.104-.883.94-1.309.835-.426 1.614.008.777.439 1.417 1.694.64 1.258.537 2.142-.105.888-.94 1.314z"/></g><g style="line-height:125%"><path style="-inkscape-font-specification:sans-serif" d="M912.698-243.573l-.998.725 2.502 3.443.927-1.006.404.556-.92 1.002-.611.444-2.906-4-.998.725-.373-.514 2.6-1.889.373.514zM910.983-236.83q.472-.343.372-.982-.1-.634-.777-1.565-.674-.928-1.248-1.222-.575-.29-1.047.053-.474.345-.374.98.1.638.774 1.566.676.931 1.251 1.22.574.295 1.049-.05zm.351.484q-.758.55-1.595.24-.837-.307-1.667-1.45-.828-1.14-.863-2.034-.036-.888.723-1.44.759-.55 1.596-.244.836.311 1.664 1.451.83 1.143.866 2.031.035.894-.724 1.446zM907.854-234.557q.472-.343.373-.982-.1-.634-.777-1.565-.674-.928-1.249-1.222-.574-.29-1.046.053-.475.345-.374.98.099.638.773 1.566.677.931 1.252 1.22.574.295 1.048-.05zm.352.484q-.759.55-1.595.24-.837-.307-1.667-1.45-.828-1.14-.864-2.033-.035-.889.723-1.44.76-.552 1.596-.245.836.311 1.665 1.451.83 1.143.866 2.031.035.894-.724 1.446zM906.318-232.827l-2.397 1.742-.374-.514 1.838-1.335-.804-1.107q-.1.142-.217.26-.116.121-.249.218-.756.549-1.498.455-.742-.093-1.256-.8-.53-.73-.37-1.464.16-.731.986-1.331.284-.206.616-.373.328-.165.713-.297l.446.614q-.38.05-.723.188-.343.138-.666.373-.523.38-.629.877-.105.497.237.969.343.471.848.525.506.053 1.029-.327.244-.178.45-.41.202-.23.373-.53l1.647 2.267z"/></g><g style="line-height:125%"><path style="-inkscape-font-specification:sans-serif" d="M902.787-254.657l-.872.872 3.01 3.01.758-1.14.486.487-.753 1.133-.533.534-3.496-3.496-.872.872-.45-.449 2.273-2.272.45.449zM902.148-247.73q.412-.411.214-1.027-.198-.61-1.012-1.424-.811-.812-1.424-1.012-.613-.196-1.025.216-.415.415-.217 1.026.198.615 1.01 1.426.813.814 1.426 1.01.613.2 1.028-.214zm.423.424q-.663.663-1.538.486-.875-.172-1.873-1.17-.997-.997-1.17-1.874-.175-.872.488-1.536.663-.663 1.538-.491.874.177 1.87 1.173 1 .999 1.174 1.871.174.877-.49 1.54zM899.414-244.995q.412-.412.214-1.028-.198-.61-1.012-1.424-.811-.811-1.425-1.012-.613-.195-1.025.217-.415.415-.216 1.025.198.616 1.009 1.427.814.814 1.427 1.01.613.2 1.028-.215zm.422.423q-.663.663-1.537.486-.875-.172-1.874-1.17-.996-.997-1.17-1.874-.175-.872.488-1.535.664-.663 1.538-.492.875.177 1.871 1.174.999.998 1.173 1.87.175.878-.489 1.541zM896.68-242.26q.411-.413.213-1.028-.198-.61-1.012-1.424-.811-.812-1.424-1.012-.613-.196-1.025.216-.415.415-.217 1.025.198.616 1.01 1.427.813.814 1.426 1.01.613.2 1.028-.214zm.422.422q-.663.664-1.538.487-.875-.172-1.873-1.17-.996-.997-1.17-1.874-.175-.872.488-1.536.663-.663 1.538-.491.874.177 1.87 1.173 1 .999 1.174 1.87.174.878-.489 1.541z"/></g><g style="line-height:125%"><path style="-inkscape-font-specification:sans-serif" d="M888.674-261.3l.556.404q-.276.151-.504.345-.23.194-.394.421-.44.605-.265 1.216.175.617.97 1.265-.132-.365-.075-.735.056-.37.293-.696.492-.678 1.188-.777.697-.094 1.407.422.696.505.817 1.221.122.717-.375 1.4-.569.783-1.469.757-.9-.02-2.042-.85-1.067-.776-1.336-1.747-.268-.967.353-1.822.167-.23.384-.433.217-.203.492-.39zm1.03 2.606q-.298.411-.19.854.105.446.595.802.486.354.943.316.458-.032.757-.443.298-.411.19-.86-.108-.443-.594-.796-.49-.356-.945-.322-.457.038-.756.449zM886.4-258.171l.557.404q-.276.15-.505.345-.228.194-.393.42-.44.605-.265 1.217.175.617.97 1.264-.132-.364-.075-.734.056-.37.293-.697.492-.677 1.188-.777.697-.094 1.407.422.696.506.817 1.222.122.716-.375 1.4-.569.783-1.469.757-.9-.02-2.042-.851-1.067-.776-1.336-1.747-.268-.966.353-1.822.167-.23.384-.432.217-.203.492-.391zm1.031 2.606q-.298.41-.19.854.105.446.595.802.486.353.943.316.458-.033.757-.444.298-.41.19-.86-.108-.442-.595-.796-.49-.356-.944-.321-.457.037-.756.449zM888.556-251.843l-1.741 2.397-.514-.373 1.335-1.839-1.106-.803q-.052.166-.127.314-.073.15-.17.284-.548.755-1.283.896-.735.14-1.443-.374-.728-.529-.804-1.277-.072-.745.527-1.57.207-.285.47-.546.262-.258.587-.502l.614.446q-.346.164-.63.402-.283.237-.518.56-.38.524-.327 1.029.054.505.525.848.472.342.969.237.497-.106.877-.629.178-.245.301-.529.121-.281.191-.619l2.267 1.648z"/></g><g style="line-height:125%"><path style="-inkscape-font-specification:sans-serif" d="M876.286-268.407l.613.312q-.25.192-.445.42-.195.227-.323.476-.339.666-.07 1.243.269.582 1.156 1.097-.188-.339-.19-.713-.003-.375.18-.734.38-.746 1.052-.953.674-.202 1.456.196.766.39.998 1.08.232.688-.151 1.44-.44.863-1.333.978-.892.12-2.15-.521-1.176-.599-1.593-1.516-.416-.913.064-1.855.129-.253.311-.487.183-.235.425-.463zm1.426 2.412q-.231.453-.056.874.174.424.714.699.536.273.981.164.447-.103.678-.556.23-.453.053-.879-.175-.42-.711-.694-.54-.275-.983-.17-.446.11-.676.562zM874.53-264.962l.613.312q-.249.192-.444.42-.196.227-.323.477-.34.666-.072 1.243.27.582 1.157 1.097-.188-.34-.19-.714-.002-.374.18-.734.38-.746 1.053-.953.673-.202 1.455.197.766.39.998 1.079.232.688-.151 1.44-.44.863-1.333.978-.891.12-2.15-.52-1.175-.6-1.593-1.517-.416-.912.064-1.854.13-.253.312-.488.182-.234.424-.463zm1.426 2.413q-.23.452-.055.873.174.424.713.7.536.272.982.164.447-.104.677-.557.231-.452.054-.878-.176-.421-.712-.694-.54-.275-.983-.17-.445.109-.676.562zM876.477-257.843q.265-.52-.114-1.044-.377-.519-1.403-1.042-1.022-.52-1.667-.522-.643.004-.908.523-.266.523.11 1.042.38.524 1.402 1.045 1.025.523 1.669.52.645 0 .91-.522zm.533.271q-.426.836-1.313.938-.885.107-2.143-.534-1.255-.64-1.692-1.42-.436-.776-.01-1.611.426-.836 1.31-.943.887-.102 2.143.538 1.258.64 1.694 1.416.437.78.01 1.616z"/></g><g style="line-height:125%"><path style="-inkscape-font-specification:sans-serif" d="M862.939-273.49l.654.213q-.216.228-.374.484-.157.255-.244.522-.23.71.124 1.238.358.533 1.314.903-.239-.306-.3-.675-.06-.37.065-.753.258-.797.89-1.106.633-.305 1.468-.034.818.266 1.155.91.336.643.075 1.447-.299.92-1.163 1.174-.862.258-2.205-.179-1.255-.407-1.81-1.248-.554-.836-.227-1.842.087-.27.23-.53.144-.26.348-.524zm1.785 2.16q-.157.484.083.872.238.391.813.578.573.186.995.01.426-.173.583-.656.157-.483-.085-.876-.24-.389-.811-.574-.576-.188-.998-.014-.423.177-.58.66zM863.661-267.515q.167-.512-.011-.895-.179-.38-.659-.537-.48-.156-.848.047-.37.206-.536.718-.166.512.012.896.181.385.657.54.48.155.85-.05.368-.203.535-.719zm.54-.618q.263-.425.664-.582.4-.153.854-.005.636.206.86.778.221.575-.035 1.364-.258.792-.774 1.124-.516.33-1.152.124-.455-.148-.687-.51-.234-.359-.198-.854-.29.48-.735.653-.447.177-.955.012-.771-.25-1.03-.857-.26-.603.026-1.48.285-.879.85-1.218.565-.335 1.337-.084.508.165.765.57.257.407.21.965zm1.219.105q-.413-.134-.727.047-.315.184-.466.65-.15.462-.004.796.146.338.558.472.412.134.729-.054.315-.184.465-.646.151-.466.005-.8-.148-.331-.56-.465zM865.75-264.46l-.916 2.819-.605-.197.703-2.16-1.301-.423q.002.173-.024.338-.022.166-.073.322-.289.888-.944 1.25-.656.36-1.487.09-.857-.279-1.16-.967-.3-.686.016-1.657.109-.334.279-.663.169-.327.402-.66l.722.235q-.278.263-.474.577-.197.313-.32.694-.2.614.007 1.078.207.465.761.645.555.18.995-.074.44-.254.64-.869.093-.288.122-.596.029-.305-.01-.648l2.666.866z"/></g><g style="line-height:125%"><path style="-inkscape-font-specification:sans-serif" d="M848.961-276.421l.68.107q-.178.26-.294.537-.116.276-.16.553-.116.738.317 1.204.436.47 1.439.686-.284-.264-.402-.62-.117-.355-.054-.754.13-.827.706-1.231.577-.4 1.445-.263.849.134 1.282.718.434.583.302 1.417-.152.956-.966 1.342-.81.39-2.206.168-1.303-.206-1.983-.95-.678-.738-.512-1.783.044-.28.145-.56.101-.279.261-.571zm2.101 1.854q-.08.502.218.847.296.35.894.445.594.094.984-.147.394-.237.473-.739.08-.502-.22-.852-.298-.346-.892-.44-.598-.095-.987.143-.39.24-.47.743zM850.61-270.633q.084-.532-.152-.883-.236-.348-.735-.427-.498-.078-.83.18-.333.26-.417.792-.084.532.152.883.239.352.734.43.498.08.83-.182.333-.258.417-.793zm.435-.695q.194-.461.565-.679.37-.214.843-.139.66.105.97.634.31.534.18 1.353-.13.823-.589 1.231-.458.408-1.119.303-.472-.074-.758-.396-.286-.318-.329-.813-.21.52-.623.76-.414.245-.942.162-.8-.127-1.15-.686-.352-.555-.207-1.466.144-.912.65-1.335.505-.42 1.306-.293.528.084.845.444.318.36.358.92zm1.22-.087q-.428-.068-.71.16-.282.231-.359.715-.076.48.121.787.197.311.625.38.428.067.712-.168.282-.232.358-.712.077-.483-.12-.79-.198-.304-.626-.372zM852.407-266.433q.091-.576-.43-.957-.52-.378-1.657-.558-1.133-.18-1.747.019-.61.202-.702.778-.092.579.427.956.523.382 1.656.561 1.137.18 1.747-.022.614-.198.706-.777zm.59.094q-.146.926-.958 1.297-.808.375-2.203.154-1.392-.22-2.049-.828-.653-.603-.506-1.529.146-.926.955-1.302.812-.37 2.203-.15 1.395.22 2.049.824.656.607.51 1.534z"/></g><g style="line-height:125%"><path style="-inkscape-font-specification:sans-serif" d="M834.697-277.13h.687q-.134.284-.205.575-.071.292-.071.572 0 .747.5 1.14.505.396 1.529.452-.322-.217-.494-.55-.171-.332-.171-.736 0-.837.504-1.326.508-.486 1.386-.486.86 0 1.38.508.519.508.519 1.353 0 .968-.744 1.476-.74.512-2.152.512-1.32 0-2.108-.628-.785-.624-.785-1.681 0-.284.056-.576.056-.291.168-.605zm2.365 1.502q0 .508.347.803.348.3.953.3.602 0 .95-.3.35-.295.35-.803t-.35-.807q-.348-.295-.95-.295-.605 0-.953.295-.347.299-.347.807zM840.16-273.476v3.587h-.322l-5.257-2.025v-.789l4.944 1.906v-2.68h.635zM840.16-269.411v2.963h-.635v-2.272h-1.368q.056.165.082.33.03.164.03.328 0 .934-.512 1.48-.512.545-1.386.545-.901 0-1.402-.56-.497-.56-.497-1.58 0-.352.06-.718.06-.363.18-.751h.758q-.183.336-.273.695-.09.358-.09.758 0 .647.34 1.024.34.378.924.378.583 0 .923-.378.34-.377.34-1.024 0-.302-.068-.605-.067-.3-.209-.613h2.803z"/></g><g style="line-height:125%"><path style="-inkscape-font-specification:sans-serif" d="M820.497-275.599l.679-.108q-.088.302-.113.601-.025.299.02.576.116.738.672 1.047.56.312 1.58.208-.35-.164-.573-.466-.221-.301-.285-.7-.13-.827.291-1.39.426-.558 1.293-.696.85-.134 1.442.286.592.421.725 1.255.15.956-.504 1.575-.65.62-2.046.842-1.303.206-2.18-.29-.872-.494-1.038-1.539-.044-.28-.035-.577.01-.296.072-.624zm2.571 1.114q.08.502.47.739.39.24.987.146.594-.094.89-.444.301-.346.222-.848-.08-.502-.473-.742-.39-.238-.984-.144-.598.095-.895.441-.296.35-.217.852zM826.464-272.845l.562 3.544-.318.05-5.51-1.178-.123-.779 5.181 1.11-.419-2.647.627-.1zM826.86-267.165q-.09-.575-.705-.777-.61-.198-1.747-.018-1.133.18-1.656.557-.518.381-.427.957.092.58.702.778.614.201 1.748.022 1.136-.18 1.655-.561.523-.378.43-.958zm.591-.093q.147.926-.51 1.53-.653.606-2.048.827-1.392.22-2.204-.154-.808-.371-.955-1.298-.146-.926.507-1.533.657-.603 2.048-.824 1.396-.22 2.203.15.813.375.96 1.302z"/></g><g style="line-height:125%"><path style="-inkscape-font-specification:sans-serif" d="M806.712-271.865l.653-.213q-.04.312-.017.611.022.3.109.566.23.71.828.929.603.22 1.594-.042-.373-.107-.64-.37-.265-.264-.39-.647-.259-.796.07-1.418.333-.619 1.168-.89.818-.266 1.469.057.65.323.912 1.126.299.92-.252 1.634-.545.715-1.888 1.152-1.255.407-2.199.054-.939-.351-1.266-1.357-.088-.27-.124-.565-.037-.294-.028-.627zm2.713.697q.157.484.58.657.422.177.998-.01.572-.186.81-.578.243-.389.086-.872-.157-.484-.584-.66-.421-.173-.993.013-.576.187-.816.575-.238.392-.08.875zM811.256-267.504q-.157-.483-.58-.66-.421-.174-.997.014-.572.185-.815.575-.238.392-.081.875.157.483.579.657.426.175.998-.01.576-.188.814-.58.24-.388.082-.87zm2.713.694l-.654.213q.04-.312.018-.611-.022-.296-.11-.566-.23-.71-.833-.931-.6-.218-1.588.044.377.11.643.373.27.262.394.642.26.8-.077 1.42-.332.623-1.167.894-.818.266-1.469-.057-.65-.323-.912-1.126-.299-.92.246-1.636.55-.717 1.89-1.152 1.257-.41 2.198-.055.944.354 1.27 1.36.088.27.124.56.037.295.027.628zM814.293-266.212l.916 2.818-.605.197-.702-2.161-1.3.422q.104.14.18.288.079.147.13.303.288.889-.03 1.566-.319.677-1.15.947-.857.278-1.506-.1-.646-.38-.961-1.35-.109-.334-.165-.7-.055-.364-.062-.77l.722-.235q-.07.377-.045.745.026.37.15.75.2.615.64.868.44.254.994.074t.76-.644q.208-.464.008-1.079-.094-.288-.251-.555-.157-.263-.389-.518l2.666-.866z"/></g><g style="line-height:125%"><path style="-inkscape-font-specification:sans-serif" d="M793.68-266.021l.613-.312q.009.314.078.606t.196.541q.34.666.964.789.629.124 1.567-.291-.385-.048-.69-.266-.303-.218-.487-.578-.38-.746-.152-1.41.232-.664 1.014-1.063.766-.39 1.46-.173.693.217 1.077.97.44.862.007 1.652-.427.792-1.685 1.433-1.176.6-2.163.398-.983-.2-1.463-1.142-.129-.253-.211-.538-.082-.286-.125-.616zm2.79.264q.23.453.674.559.445.108.985-.167.536-.273.71-.697.179-.422-.052-.875-.23-.453-.68-.56-.443-.105-.98.168-.539.275-.714.695-.174.425.057.877zM798.851-262.424q-.23-.453-.676-.562-.444-.105-.983.17-.536.273-.715.695-.174.425.057.877.23.453.674.559.449.106.985-.167.54-.275.713-.699.176-.42-.055-.873zm2.788.261l-.613.312q-.009-.314-.078-.606-.067-.289-.196-.542-.34-.666-.969-.79-.627-.12-1.562.293.39.049.694.267.308.217.49.573.38.75.145 1.415-.23.667-1.013 1.065-.766.39-1.46.173-.693-.217-1.076-.97-.44-.861-.013-1.654.43-.793 1.686-1.433 1.178-.6 2.163-.397.987.201 1.467 1.143.13.253.21.535.082.285.125.616z"/><path style="-inkscape-font-specification:sans-serif" d="M802.339-259.966q-.265-.52-.912-.521-.641 0-1.667.522-1.022.52-1.402 1.042-.376.522-.111 1.042.266.523.908.523.647.002 1.669-.52 1.025-.522 1.4-1.044.381-.521.115-1.044zm.533-.272q.425.836-.013 1.613-.434.779-1.692 1.42-1.256.64-2.144.535-.883-.104-1.309-.94-.426-.835.008-1.614.439-.777 1.694-1.417 1.258-.641 2.142-.538.888.106 1.314.941z"/></g><g style="line-height:125%"><path style="-inkscape-font-specification:sans-serif" d="M781.723-258.21l.556-.404q.058.308.172.586.114.277.279.504.44.605 1.075.628.64.024 1.502-.533-.387.014-.722-.154-.334-.168-.571-.495-.493-.677-.372-1.37.125-.691.836-1.207.695-.505 1.414-.4.72.106 1.216.79.568.783.266 1.63-.298.85-1.44 1.68-1.068.775-2.075.731-1.002-.044-1.623-.9-.167-.229-.293-.498-.126-.269-.22-.588zm2.797-.175q.298.41.753.445.457.038.947-.318.486-.353.592-.8.11-.445-.188-.856-.299-.411-.759-.447-.454-.034-.941.32-.49.355-.598.798-.105.446.194.858zM788.407-258.305l1.742 2.397-.514.374-1.335-1.838-1.107.804q.142.1.26.217.12.116.217.249.55.756.456 1.498-.093.742-.8 1.256-.73.53-1.464.37-.732-.161-1.331-.986-.207-.285-.374-.616-.164-.328-.296-.713l.614-.446q.05.38.188.723.138.343.373.666.38.523.877.629.497.105.968-.238.472-.342.525-.847.054-.506-.326-1.029-.178-.245-.41-.45-.23-.202-.53-.373l2.267-1.647zM790.68-255.177l1.742 2.398-.514.373-1.335-1.838-1.107.804q.142.1.26.218.12.115.217.248.55.756.456 1.498-.093.743-.8 1.257-.73.529-1.464.37-.732-.161-1.331-.987-.207-.284-.374-.615-.164-.329-.296-.714l.614-.445q.05.38.188.722.138.343.373.667.38.523.877.628.497.106.968-.237.472-.343.525-.848.054-.505-.326-1.028-.178-.245-.41-.45-.23-.203-.53-.373l2.267-1.648z"/></g><g style="line-height:125%"><path style="-inkscape-font-specification:sans-serif" d="M771.135-248.625l.486-.486q.106.296.262.552.156.256.354.454.529.529 1.16.452.637-.076 1.4-.76-.38.073-.737-.04-.356-.114-.642-.4-.592-.591-.581-1.294.016-.703.637-1.324.608-.608 1.334-.616.727-.008 1.324.59.684.684.518 1.57-.161.884-1.16 1.883-.933.933-1.934 1.047-.996.113-1.744-.635-.201-.2-.368-.446-.166-.246-.309-.547zm2.735-.61q.36.359.814.322.457-.035.885-.463.426-.425.46-.882.04-.457-.32-.817-.36-.359-.819-.322-.454.037-.88.462-.428.428-.465.883-.034.457.325.816zM777.722-249.764l2.096 2.095-.45.45-1.606-1.607-.967.967q.156.076.29.174.138.095.254.211.66.661.685 1.409.023.748-.595 1.366-.637.637-1.387.595-.748-.045-1.47-.767-.248-.248-.464-.55-.214-.298-.405-.657l.537-.537q.108.368.298.685.19.317.473.6.457.457.965.483.507.026.92-.386.411-.412.385-.92-.026-.507-.484-.964-.214-.214-.475-.38-.26-.164-.582-.286l1.982-1.981zM781.242-245.542q-.413-.413-1.028-.214-.61.198-1.425 1.012-.81.81-1.012 1.424-.195.613.217 1.025.415.415 1.025.217.616-.198 1.427-1.01.814-.813 1.01-1.426.2-.613-.214-1.028zm.422-.423q.664.663.487 1.538-.172.874-1.171 1.873-.996.996-1.873 1.17-.872.175-1.536-.488-.663-.663-.491-1.538.177-.875 1.173-1.87.999-1 1.87-1.174.878-.174 1.541.489z"/></g><g style="line-height:125%"><path style="-inkscape-font-specification:sans-serif" d="M762.177-237.502l.404-.556q.151.276.345.505.194.228.421.393.605.44 1.216.265.617-.175 1.265-.97-.365.132-.735.075-.37-.056-.696-.293-.678-.492-.777-1.188-.094-.697.422-1.407.505-.696 1.221-.817.717-.122 1.4.375.783.569.757 1.469-.02.9-.85 2.042-.776 1.067-1.747 1.336-.967.268-1.822-.353-.23-.167-.433-.384-.203-.217-.39-.492zm2.606-1.03q.411.298.854.19.446-.105.802-.595.354-.486.316-.943-.032-.458-.443-.757-.411-.298-.86-.19-.443.108-.796.595-.356.49-.322.944.038.457.449.756z"/><path style="-inkscape-font-specification:sans-serif" d="M769.79-237.91l-3.292 1.289 1.542 1.12 1.75-2.41zm.227-.65l.768.559-2.138 2.941.644.468-.369.508-.644-.468-.773 1.064-.607-.441.773-1.064-2.038-1.48.428-.59 3.956-1.496zM771.634-237.384l2.397 1.741-.373.514-1.839-1.335-.803 1.106q.166.052.314.127.15.073.284.17.755.548.896 1.283.14.735-.374 1.443-.529.728-1.277.804-.745.072-1.57-.527-.285-.207-.546-.47-.258-.262-.502-.587l.446-.614q.164.346.402.63.237.283.56.518.524.38 1.029.327.505-.053.848-.525.342-.472.237-.969-.106-.497-.629-.877-.245-.178-.529-.301-.281-.121-.619-.19l1.648-2.268z"/></g><g style="line-height:125%"><path style="-inkscape-font-specification:sans-serif" d="M755.07-225.114l.312-.613q.192.25.42.445.227.195.477.323.665.339 1.242.07.582-.269 1.097-1.156-.339.188-.713.19-.375.003-.734-.18-.746-.38-.953-1.052-.202-.674.196-1.456.39-.766 1.08-.998.688-.232 1.44.151.863.44.978 1.333.12.892-.521 2.15-.599 1.176-1.516 1.593-.913.416-1.855-.064-.253-.129-.487-.311-.234-.183-.463-.425zm2.412-1.426q.453.231.874.056.424-.174.699-.714.273-.536.164-.981-.103-.447-.556-.678-.453-.23-.879-.053-.42.175-.694.711-.275.54-.17.983.11.446.562.676z"/><path style="-inkscape-font-specification:sans-serif" d="M762.525-226.709l-3.05 1.789 1.698.865 1.352-2.654zm.122-.676l.846.431-1.65 3.24.708.361-.285.56-.709-.362-.597 1.172-.67-.34.598-1.173-2.244-1.143.33-.65 3.673-2.096z"/><path style="-inkscape-font-specification:sans-serif" d="M765.634-225.305q-.52-.265-1.044.114-.519.377-1.041 1.403-.521 1.022-.523 1.667.004.643.523.908.523.266 1.042-.11.524-.38 1.045-1.402.523-1.025.52-1.669 0-.645-.522-.911zm.271-.533q.836.426.938 1.313.107.885-.534 2.143-.64 1.255-1.42 1.692-.776.436-1.611.01-.836-.426-.943-1.31-.102-.887.538-2.143.64-1.258 1.416-1.694.78-.437 1.616-.01z"/></g><g style="line-height:125%"><path style="-inkscape-font-specification:sans-serif" d="M749.987-211.767l.213-.654q.228.216.484.374.255.157.522.244.71.23 1.238-.124.533-.358.903-1.314-.306.239-.675.3-.37.06-.754-.065-.796-.258-1.105-.89-.305-.633-.034-1.468.266-.818.91-1.154.643-.337 1.447-.076.92.299 1.174 1.163.258.862-.179 2.205-.407 1.255-1.248 1.81-.836.554-1.842.227-.27-.087-.53-.23-.26-.144-.524-.348zm2.16-1.785q.483.157.872-.082.391-.239.578-.814.186-.573.01-.995-.173-.426-.656-.583-.483-.157-.876.085-.389.24-.574.811-.188.576-.014.998.177.423.66.58zM756.713-212.623q.48.278.654.72.178.443.012.954-.255.786-.935 1.04-.68.255-1.675-.068-.334-.109-.668-.292-.33-.178-.665-.432l.225-.693q.242.27.569.475.326.205.714.33.675.22 1.114.068.442-.152.607-.66.152-.469-.093-.84-.24-.372-.827-.563l-.618-.2.192-.59.646.21q.53.172.879.053.35-.122.48-.52.132-.408-.089-.72-.216-.314-.756-.49-.295-.095-.654-.14-.358-.047-.807-.043l.208-.64q.445.02.82.078.377.06.693.162.817.266 1.172.794.356.524.15 1.157-.142.44-.494.664-.35.22-.854.186zM759.017-214.577l2.819.915-.197.605-2.16-.703-.423 1.301q.173-.002.338.024.166.022.322.073.888.289 1.25.944.36.656.09 1.487-.279.857-.967 1.16-.686.3-1.657-.016-.334-.109-.663-.279-.327-.169-.66-.402l.235-.722q.263.278.577.474.313.197.694.32.614.2 1.078-.007.465-.207.645-.761.18-.555-.074-.995-.254-.44-.869-.64-.288-.093-.596-.122-.305-.029-.648.01l.866-2.666z"/></g><g style="line-height:125%"><path style="-inkscape-font-specification:sans-serif" d="M747.056-197.789l.107-.679q.26.177.537.293.276.116.553.16.738.116 1.204-.317.47-.436.686-1.439-.264.284-.62.402-.355.117-.754.054-.827-.13-1.231-.705-.4-.578-.263-1.446.134-.849.718-1.282.583-.434 1.417-.302.956.152 1.342.966.39.81.168 2.206-.206 1.303-.95 1.983-.738.678-1.783.512-.28-.044-.56-.145-.279-.101-.571-.261zm1.854-2.101q.502.08.847-.218.35-.296.445-.894.094-.594-.147-.984-.237-.394-.739-.473-.502-.08-.852.22-.346.298-.44.892-.095.598.143.987.24.39.743.47zM753.564-199.686q.518.199.76.608.245.41.16.94-.129.817-.76 1.174-.632.358-1.666.194-.347-.055-.705-.183-.355-.124-.724-.323l.114-.72q.281.23.636.381.354.15.756.214.702.111 1.111-.107.413-.219.496-.747.078-.487-.222-.814-.296-.33-.905-.427l-.642-.102.097-.613.672.107q.55.087.876-.085.326-.175.392-.588.067-.425-.2-.698-.263-.276-.824-.365-.306-.049-.667-.038-.362.011-.805.085l.106-.664q.443-.051.821-.052.382 0 .711.052.849.135 1.282.6.434.463.33 1.12-.073.457-.385.733-.312.272-.815.318zM757.044-201.235q-.576-.091-.957.43-.378.52-.558 1.657-.18 1.133.019 1.747.202.61.778.702.58.092.956-.427.382-.523.561-1.656.18-1.136-.022-1.747-.198-.614-.777-.706zm.094-.59q.926.146 1.297.958.375.808.154 2.203-.22 1.392-.828 2.049-.603.653-1.529.506-.926-.146-1.302-.955-.37-.811-.15-2.203.22-1.395.824-2.049.607-.656 1.534-.51z"/></g><g style="line-height:125%"><path style="-inkscape-font-specification:sans-serif" d="M746.347-183.524v-.688q.284.134.575.205.292.071.572.071.747 0 1.14-.5.396-.505.452-1.529-.217.322-.55.494-.332.172-.736.172-.837 0-1.326-.505-.486-.508-.486-1.386 0-.86.508-1.38.508-.519 1.353-.519.968 0 1.476.744.512.74.512 2.152 0 1.32-.628 2.108-.624.785-1.681.785-.284 0-.576-.056-.291-.056-.605-.168zm1.502-2.366q.508 0 .803-.347.3-.348.3-.953 0-.602-.3-.95-.295-.35-.803-.35t-.807.35q-.295.348-.295.95 0 .605.295.953.299.347.807.347zM750.842-184.044h2.634v.635h-3.542v-.635q.43-.445 1.17-1.192.743-.751.933-.968.363-.407.505-.687.146-.284.146-.557 0-.445-.314-.725-.31-.28-.811-.28-.355 0-.751.123-.393.123-.841.374v-.763q.456-.183.852-.276.396-.094.725-.094.867 0 1.383.434.515.433.515 1.158 0 .344-.13.654-.128.307-.468.725-.093.109-.594.628-.5.516-1.412 1.446zM754.066-188.988h2.963v.636h-2.272v1.367q.165-.056.33-.082.164-.03.328-.03.934 0 1.48.512.545.512.545 1.386 0 .901-.56 1.402-.56.497-1.58.497-.352 0-.718-.06-.363-.06-.751-.18v-.758q.336.183.695.273.358.09.758.09.647 0 1.024-.34.378-.34.378-.924 0-.583-.378-.923-.377-.34-1.024-.34-.302 0-.605.068-.3.067-.613.209v-2.803z"/></g></g></g></svg>