<svg xmlns="http://www.w3.org/2000/svg" xmlns:xlink="http://www.w3.org/1999/xlink" width="400.667" height="400.666"><defs><linearGradient id="c"><stop offset="0" stop-color="#141414"/><stop offset="1" stop-color="#232323"/></linearGradient><linearGradient xlink:href="#a" id="e" x1="789.327" y1="275.847" x2="789.327" y2="313.49" gradientUnits="userSpaceOnUse" gradientTransform="translate(47.997 -462)"/><linearGradient id="a"><stop offset="0" stop-color="#141414"/><stop offset="1" stop-color="#1e1e1e"/></linearGradient><linearGradient id="b"><stop offset="0" stop-color="#191919"/><stop offset="1" stop-color="#0f0f0f"/></linearGradient><linearGradient xlink:href="#c" id="g" x1="833.044" y1="-133.939" x2="840.604" y2="-144.564" gradientUnits="userSpaceOnUse"/><radialGradient xlink:href="#b" id="f" cx="837.324" cy="-186.153" fx="837.324" fy="-186.153" r="5.53" gradientUnits="userSpaceOnUse" gradientTransform="matrix(.70612 0 0 .69483 246.072 -56.8)"/><filter id="d" x="-.397" width="1.793" y="-.032" height="1.065" color-interpolation-filters="sRGB"><feGaussianBlur stdDeviation="2.324"/></filter></defs><path transform="matrix(1.11068 0 0 1.11068 -676.186 -106.377)" d="M789.326 158.625l-3.59 12.184V271.916a5.33 5.33 0 00-1.738 3.932 5.33 5.33 0 001.738 3.93V317.4a7.03 7.03 0 00-3.44 6.036 7.03 7.03 0 007.03 7.03 7.03 7.03 0 007.031-7.03 7.03 7.03 0 00-3.439-6.034v-37.625a5.33 5.33 0 001.738-3.93 5.33 5.33 0 00-1.738-3.929V170.811l-3.592-12.186z" filter="url(#d)"/><g stroke-width=".75" stroke-linejoin="round"><path d="M200.5 69.805l-3.986 13.53v104.408h7.974V83.338z" fill="#fff" stroke="#2d2d2d" stroke-width=".8330099999999999"/><path d="M833.734-198.172v57.324h7.181v-57.324h-7.181z" fill="url(#e)" stroke="#2d2d2d" transform="matrix(1.11068 0 0 1.11068 -729.496 406.755)"/><path d="M842.654-186.153a5.33 5.33 0 11-10.66 0 5.33 5.33 0 0110.66 0z" fill="url(#f)" stroke="#232323" transform="matrix(1.11068 0 0 1.11068 -729.496 406.755)"/><path d="M844.354-138.564a7.03 7.03 0 01-7.03 7.03 7.03 7.03 0 01-7.03-7.03 7.03 7.03 0 017.03-7.03 7.03 7.03 0 017.03 7.03z" fill="url(#g)" stroke="#2d2d2d" transform="matrix(1.11068 0 0 1.11068 -729.496 406.755)"/></g></svg>