<svg xmlns="http://www.w3.org/2000/svg" width="400.667" height="400.666"><defs><filter id="a" x="-.126" width="1.252" y="-.03" height="1.059" color-interpolation-filters="sRGB"><feGaussianBlur stdDeviation="2.386"/></filter></defs><path d="M824.112-309.618l11.84 22.432v33.344l-2.378 3.1v53.974a11.27 11.27 0 00-7.52 10.615 11.27 11.27 0 007.591 10.64l-19.052 55.104a69.646 69.646 0 0022.732 3.902 69.644 69.644 0 0022.735-3.896l-19.056-55.11a11.27 11.27 0 007.591-10.64 11.271 11.271 0 00-7.52-10.615v-53.973l-2.377-3.101v-33.344l11.84-22.432z" filter="url(#a)" transform="matrix(1.11068 0 0 1.11068 -729.496 406.757)"/><path d="M185.826 62.872l13.15 24.914v37.034l-2.641 3.445v59.946a12.518 12.518 0 00-8.353 11.79 12.518 12.518 0 008.432 11.818l-21.161 61.202a77.352 77.352 0 0025.247 4.334 77.354 77.354 0 0025.252-4.327l-21.165-61.209a12.518 12.518 0 008.432-11.818 12.519 12.519 0 00-8.353-11.79v-59.946l-2.64-3.445V87.786l13.15-24.914z" fill="#fff" stroke="#555" stroke-width=".8330099999999999" stroke-linejoin="round"/></svg>