<svg xmlns="http://www.w3.org/2000/svg" xmlns:xlink="http://www.w3.org/1999/xlink" width="400.667" height="400.666"><defs><radialGradient xlink:href="#a" id="c" cx="829.625" cy="-177.301" fx="829.625" fy="-177.301" r="16.993" gradientTransform="matrix(1.2269 -1.31869 .96689 .89959 -9.113 1094.902)" gradientUnits="userSpaceOnUse"/><radialGradient xlink:href="#a" id="d" cx="789.327" cy="268.249" fx="789.327" fy="268.249" r="5.572" gradientTransform="matrix(1.5711 0 0 1.3583 -402.78 -558.113)" gradientUnits="userSpaceOnUse"/><radialGradient xlink:href="#a" id="e" cx="837.324" cy="-186.153" fx="837.324" fy="-186.153" r="7.154" gradientUnits="userSpaceOnUse"/><linearGradient id="a"><stop offset="0" stop-color="#141414"/><stop offset="1" stop-color="#232323"/></linearGradient><filter id="b" x="-.128" width="1.257" y="-.039" height="1.078" color-interpolation-filters="sRGB"><feGaussianBlur stdDeviation="1.798"/></filter></defs><path transform="matrix(1.11069 0 0 1.11069 -676.194 -106.38)" d="M789.326 200.203c-.837 0-1.43.725-1.43.725l-7.568 26.435 4.346 43.059a7.154 7.154 0 00-2.502 5.426 7.154 7.154 0 001.81 4.742l-11.449 25.473a34.578 34.578 0 0016.793 4.363 34.578 34.578 0 0016.793-4.364l-11.447-25.47a7.154 7.154 0 001.808-4.744 7.154 7.154 0 00-2.5-5.43l4.346-43.057-7.568-26.437s-.595-.72-1.432-.72z" filter="url(#b)"/><g stroke="#232323" stroke-width=".75"><path d="M834.11-186.152l-13.58 30.215a34.578 34.578 0 0016.793 4.363 34.578 34.578 0 0016.793-4.363l-13.58-30.215h-6.426z" fill="url(#c)" stroke-linejoin="round" transform="matrix(1.11069 0 0 1.11069 -729.504 406.758)"/><path d="M200.5 115.983c-.93 0-1.588.805-1.588.805l-8.406 29.362 4.093 40.553h11.803l4.094-40.555-8.406-29.364s-.66-.8-1.59-.8z" fill="#fff" fill-rule="evenodd" stroke-width=".8330175"/><path d="M832.01-198.125l.882 8.736 4.431-.22 4.434.22.88-8.736h-10.626z" fill="url(#d)" fill-rule="evenodd" transform="matrix(1.11069 0 0 1.11069 -729.504 406.758)"/><path d="M844.478-186.153a7.154 7.154 0 01-7.154 7.154 7.154 7.154 0 01-7.154-7.154 7.154 7.154 0 017.154-7.154 7.154 7.154 0 017.154 7.154z" fill="url(#e)" stroke-linejoin="round" transform="matrix(1.11069 0 0 1.11069 -729.504 406.758)"/></g></svg>