<svg xmlns="http://www.w3.org/2000/svg" width="700" height="700" viewBox="0 0 185.208 185.208"><g transform="translate(-155.264 -618.482) scale(.76267)"><ellipse transform="matrix(1.303 0 0 1.03619 -600.838 850.438)" cx="710.547" cy="79.063" rx="65.234" ry="82.031" fill="#1e1e1e"/><g fill="#fff"><path d="M395.834 931.654H410v1.416h-14.167zM399.341 934.604l10.619.37-.025.708-10.618-.37zM399.219 937.197l10.599.741-.05.707-10.599-.741zM399.004 939.784l10.567 1.11-.074.705-10.567-1.11zM398.701 942.363l10.522 1.478-.099.702-10.522-1.479zM394.88 943.965l13.952 2.46-.246 1.395-13.951-2.46zM397.823 947.479l10.393 2.209-.148.693-10.392-2.21zM397.252 950.012l10.309 2.57-.171.687-10.31-2.57zM396.591 952.522l10.213 2.928-.195.681-10.213-2.929zM395.845 955.009l10.105 3.283-.22.674-10.104-3.284zM391.804 955.923l13.313 4.845-.485 1.332-13.312-4.846zM394.092 959.895l9.85 3.98-.264.657-9.852-3.98zM393.09 962.29l9.706 4.322-.289.647-9.706-4.322zM392.003 964.647l9.55 4.658-.311.636-9.55-4.657zM390.836 966.967l9.381 4.988-.332.625-9.382-4.988zM386.698 967.166l12.269 7.083-.709 1.227-12.268-7.084zM388.26 971.474l9.011 5.63-.375.601-9.01-5.63zM386.858 973.659l8.808 5.941-.396.588-8.808-5.942zM385.379 975.791l8.595 6.246-.416.573-8.596-6.246zM383.827 977.873l8.372 6.542-.436.558-8.372-6.541zM379.717 977.35l10.853 9.107-.911 1.085-10.852-9.106zM380.508 981.865l7.896 7.11-.474.526-7.896-7.11zM378.747 983.773l7.643 7.38-.492.51-7.643-7.38zM376.92 985.616l7.38 7.643-.509.492-7.38-7.643zM375.03 987.397l7.11 7.896-.527.474-7.11-7.896zM371.074 986.169l9.106 10.852-1.085.91-9.106-10.852zM371.069 990.752l6.541 8.372-.558.436-6.541-8.372zM369.003 992.325l6.245 8.596-.573.416-6.245-8.596zM366.884 993.823l5.941 8.808-.587.397-5.942-8.809zM364.713 995.249l5.63 9.01-.6.376-5.63-9.011zM361.03 993.352l7.084 12.269-1.227.708-7.083-12.269zM360.23 997.864l4.988 9.382-.626.332-4.988-9.381zM357.922 999.055l4.658 9.55-.637.31-4.658-9.55zM355.575 1000.162l4.321 9.707-.647.288-4.321-9.707zM353.19 1001.19l3.98 9.85-.657.266-3.98-9.851zM349.892 998.682l4.846 13.312-1.332.485-4.845-13.313zM348.32 1002.987l3.283 10.105-.673.219-3.284-10.105zM345.84 1003.759l2.93 10.213-.681.195-2.929-10.213zM343.337 1004.441l2.57 10.31-.687.171-2.57-10.31zM340.81 1005.039l2.209 10.393-.693.147-2.209-10.393z"/><g><path d="M337.998 1001.997l2.46 13.951-1.395.246-2.46-13.951zM335.702 1005.963l1.479 10.522-.702.099-1.478-10.522zM333.126 1006.293l1.111 10.567-.704.074-1.111-10.567zM330.542 1006.53l.741 10.6-.706.05-.742-10.6zM327.95 1006.68l.37 10.619-.708.024-.37-10.618z"/></g><g><path d="M325.708 1003.196v14.167h-1.416v-14.167zM322.759 1006.704l-.371 10.618-.708-.025.37-10.618zM320.165 1006.581l-.741 10.6-.707-.05.741-10.6zM317.579 1006.366l-1.111 10.567-.704-.074 1.11-10.567zM315 1006.063l-1.48 10.522-.7-.099 1.478-10.521z"/></g><g><path d="M313.398 1002.243l-2.46 13.951-1.396-.246 2.46-13.951zM309.884 1005.185l-2.21 10.393-.692-.147 2.209-10.393zM307.35 1004.614l-2.57 10.31-.687-.172 2.57-10.31zM304.84 1003.953l-2.928 10.214-.68-.196 2.928-10.213zM302.353 1003.207l-3.283 10.105-.674-.219 3.284-10.105z"/></g><g><path d="M301.44 999.167l-4.846 13.312-1.331-.485 4.845-13.312zM297.468 1001.454l-3.98 9.851-.657-.265 3.98-9.852zM295.072 1000.451l-4.321 9.707-.647-.288 4.321-9.707zM292.715 999.365l-4.657 9.55-.637-.31 4.658-9.55zM290.395 998.198l-4.988 9.381-.625-.332 4.988-9.381z"/></g><g><path d="M290.197 994.06l-7.084 12.269-1.227-.708 7.084-12.269zM285.888 995.623l-5.63 9.01-.6-.375 5.63-9.01zM283.703 994.22l-5.941 8.809-.587-.397 5.941-8.808zM281.57 992.74l-6.244 8.597-.573-.417 6.245-8.596zM279.489 991.189l-6.542 8.372-.558-.436 6.542-8.372z"/></g><g><path d="M280.012 987.08l-9.107 10.852-1.085-.911 9.106-10.852zM275.497 987.87l-7.11 7.896-.526-.474 7.11-7.896zM273.59 986.11l-7.382 7.642-.51-.492 7.382-7.643zM271.746 984.282l-7.643 7.38-.492-.509 7.643-7.38zM269.965 982.392l-7.896 7.11-.474-.527 7.896-7.11z"/></g><g><path d="M271.194 978.436l-10.853 9.106-.91-1.085 10.852-9.106zM266.61 978.431l-8.372 6.541-.436-.558 8.372-6.541zM265.037 976.365l-8.596 6.245-.416-.573 8.596-6.245zM263.54 974.246l-8.81 5.941-.395-.587 8.808-5.941zM262.114 972.075l-9.01 5.63-.376-.6 9.01-5.63z"/></g><g><path d="M264.01 968.393l-12.268 7.083-.709-1.227 12.269-7.083zM259.498 967.592l-9.382 4.988-.332-.625 9.381-4.989zM258.307 965.284l-9.55 4.658-.31-.637 9.55-4.657zM257.2 962.937l-9.706 4.322-.289-.648 9.707-4.321zM256.173 960.552l-9.851 3.98-.266-.657 9.852-3.98z"/></g><g><path d="M258.68 957.254l-13.312 4.846-.485-1.331 13.313-4.846zM254.375 955.682l-10.105 3.284-.219-.674 10.105-3.283zM253.603 953.203l-10.213 2.929-.195-.681 10.213-2.929zM252.92 950.7l-10.309 2.57-.171-.688 10.31-2.57zM252.323 948.172l-10.392 2.209-.148-.693 10.393-2.209z"/></g><g><path d="M255.365 945.36l-13.951 2.46-.246-1.395 13.951-2.46zM251.399 943.064l-10.522 1.479-.098-.702 10.521-1.478zM251.07 940.489l-10.568 1.11-.074-.704 10.567-1.11zM250.832 937.904l-10.6.741-.049-.706 10.6-.741zM250.682 935.312l-10.618.37-.025-.707 10.618-.371z"/></g><g><path d="M254.166 933.07H240v-1.416h14.167zM250.658 930.12l-10.618-.37.025-.708 10.618.37zM250.781 927.527l-10.599-.741.05-.707 10.599.741zM250.996 924.94l-10.567-1.11.074-.704 10.567 1.11zM251.299 922.362l-10.522-1.48.099-.7 10.522 1.478z"/></g><g><path d="M255.12 920.76l-13.952-2.46.246-1.395 13.951 2.46zM252.177 917.246l-10.393-2.21.148-.692 10.392 2.209zM252.748 914.713l-10.309-2.57.171-.688 10.31 2.57zM253.409 912.203l-10.213-2.929.195-.68 10.213 2.928zM254.155 909.716l-10.105-3.284.22-.673 10.104 3.283z"/></g><g><path d="M258.196 908.801l-13.313-4.845.485-1.331 13.312 4.845zM255.908 904.83l-9.85-3.98.264-.657 9.852 3.98zM256.91 902.434l-9.706-4.321.289-.647 9.706 4.321zM257.997 900.078l-9.55-4.658.311-.637 9.55 4.658zM259.164 897.758l-9.381-4.989.332-.625 9.382 4.988z"/></g><g><path d="M263.302 897.559l-12.269-7.084.709-1.226 12.268 7.083zM261.74 893.25l-9.011-5.63.375-.6 9.01 5.63zM263.142 891.066l-8.808-5.942.396-.587 8.808 5.941zM264.621 888.933l-8.595-6.245.416-.573 8.596 6.245zM266.173 886.851l-8.372-6.541.436-.559 8.372 6.542z"/></g><g><path d="M270.283 887.374l-10.853-9.106.911-1.086 10.852 9.106zM269.492 882.86l-7.896-7.11.474-.526 7.896 7.109zM271.253 880.951l-7.643-7.38.492-.51 7.643 7.38zM273.08 879.108l-7.38-7.643.509-.492 7.38 7.643zM274.97 877.327l-7.11-7.896.527-.474 7.11 7.896z"/></g><g><path d="M278.926 878.556l-9.106-10.853 1.085-.91 9.106 10.852zM278.931 873.973l-6.541-8.373.558-.436 6.541 8.373zM280.997 872.4l-6.245-8.596.573-.417 6.245 8.596zM283.116 870.901l-5.941-8.808.587-.396 5.942 8.808zM285.287 869.476l-5.63-9.01.6-.376 5.63 9.01z"/></g><g><path d="M288.97 871.373l-7.084-12.27 1.227-.708 7.083 12.27zM289.77 866.86l-4.988-9.381.626-.333 4.988 9.381zM292.078 865.67l-4.658-9.55.637-.31 4.658 9.549zM294.425 864.562l-4.321-9.706.647-.288 4.321 9.706zM296.81 863.535l-3.98-9.851.657-.266 3.98 9.852z"/></g><g><path d="M300.108 866.042l-4.846-13.312 1.332-.484 4.845 13.312zM301.68 861.737l-3.283-10.105.673-.218 3.284 10.105zM304.16 860.966l-2.93-10.214.681-.195 2.929 10.213zM306.663 860.283l-2.57-10.31.687-.17 2.57 10.309zM309.19 859.686l-2.209-10.393.693-.148 2.209 10.393z"/></g><g><path d="M312.002 862.727l-2.46-13.951 1.395-.246 2.46 13.951zM314.298 858.76l-1.479-10.52.702-.1 1.478 10.522zM316.874 858.431l-1.111-10.566.704-.075 1.111 10.567zM319.458 858.194l-.741-10.6.706-.049.742 10.6zM322.05 858.044l-.37-10.618.708-.025.37 10.619z"/></g><g><path d="M324.292 861.528v-14.166h1.416v14.166zM327.241 858.02l.371-10.618.708.025-.37 10.618zM329.835 858.143l.741-10.599.707.05-.741 10.599zM332.421 858.358l1.111-10.567.705.074-1.111 10.567zM335 858.661l1.48-10.521.7.098-1.478 10.522z"/></g><g><path d="M336.603 862.481l2.46-13.951 1.395.246-2.46 13.951zM340.117 859.54l2.209-10.393.692.147-2.209 10.393zM342.65 860.11l2.57-10.309.687.172-2.57 10.309zM345.16 860.771l2.928-10.213.68.195-2.928 10.213zM347.647 861.517l3.283-10.104.674.218-3.284 10.105z"/></g><g><path d="M348.56 865.558l4.846-13.312 1.331.484-4.845 13.312zM352.532 863.27l3.98-9.85.657.265-3.98 9.851zM354.928 864.273l4.321-9.706.647.288-4.321 9.706zM357.285 865.36l4.657-9.55.637.31-4.658 9.55zM359.605 866.526l4.988-9.381.625.333-4.988 9.38z"/></g><g><path d="M359.803 870.664l7.084-12.269 1.227.709-7.084 12.268zM364.112 869.101l5.63-9.01.6.375-5.63 9.01zM366.297 870.504l5.941-8.808.587.396-5.941 8.809zM368.43 871.984l6.244-8.596.573.416-6.245 8.596zM370.511 873.536l6.542-8.373.558.436-6.542 8.373z"/></g><g><path d="M369.988 877.645l9.107-10.852 1.085.91-9.106 10.853zM374.503 876.854l7.11-7.896.526.474-7.11 7.896zM376.41 878.615l7.382-7.643.51.492-7.382 7.643zM378.254 880.442l7.643-7.38.492.51-7.643 7.38zM380.035 882.332l7.896-7.11.474.527-7.896 7.11z"/></g><g><path d="M378.807 886.288l10.852-9.106.91 1.086-10.852 9.106zM383.39 886.293l8.372-6.541.436.558-8.372 6.542zM384.963 888.36l8.596-6.246.416.573-8.596 6.245zM386.46 890.479l8.81-5.942.395.587-8.808 5.942zM387.886 892.649l9.011-5.63.375.6-9.01 5.63z"/></g><g><path d="M385.99 896.332l12.268-7.084.709 1.227-12.269 7.084zM390.502 897.133l9.382-4.989.332.626-9.381 4.988zM391.693 899.44l9.55-4.658.31.637-9.55 4.658zM392.8 901.787l9.706-4.321.289.647-9.707 4.321zM393.827 904.172l9.852-3.98.265.657-9.851 3.98z"/></g><g><path d="M391.32 907.47l13.312-4.845.485 1.33-13.313 4.846zM395.625 909.042l10.105-3.283.219.673-10.105 3.284zM396.397 911.521l10.213-2.928.195.68-10.213 2.93zM397.08 914.025l10.309-2.57.171.687-10.31 2.57zM397.677 916.552l10.392-2.209.148.693-10.393 2.21z"/></g><g><path d="M394.635 919.364l13.951-2.46.246 1.396-13.951 2.46zM398.601 921.66l10.522-1.479.098.702-10.521 1.479zM398.93 924.236l10.568-1.11.074.704-10.567 1.11zM399.168 926.82l10.6-.74.049.706-10.6.74zM399.318 929.413l10.618-.371.025.708-10.618.37z"/></g></g><g font-weight="400" font-size="8" font-family="Sans" fill="#fff" text-anchor="end"><g style="-inkscape-font-specification:Sans"><path style="text-align:end" d="M378.95 934.61h2.753v.664H378v-.664c.3-.31.707-.725 1.223-1.246.518-.523.843-.86.976-1.012.253-.283.429-.523.528-.718a1.27 1.27 0 00.152-.582c0-.31-.11-.563-.328-.758-.216-.195-.499-.293-.848-.293-.247 0-.509.043-.785.129a4.736 4.736 0 00-.879.39v-.796a6.27 6.27 0 01.89-.29 3.33 3.33 0 01.759-.097c.604 0 1.085.15 1.445.453.36.302.539.706.539 1.21 0 .24-.046.468-.137.684-.088.214-.251.467-.488.758-.065.076-.272.294-.621.656-.35.36-.841.864-1.477 1.512M385.05 932.505c-.374 0-.67.1-.886.3-.213.201-.32.477-.32.829 0 .351.107.627.32.828.216.2.512.3.887.3s.67-.1.886-.3c.217-.203.325-.48.325-.828 0-.352-.108-.628-.324-.828-.214-.201-.51-.301-.887-.301m-.79-.336c-.338-.083-.602-.241-.792-.473a1.305 1.305 0 01-.282-.847c0-.467.166-.835.497-1.106.333-.27.789-.406 1.367-.406.58 0 1.036.135 1.367.406.33.27.496.64.496 1.106 0 .333-.095.615-.285.847-.188.232-.45.39-.785.473.38.088.676.262.886.52.214.257.32.572.32.945 0 .565-.172.998-.519 1.3-.344.303-.837.454-1.48.454s-1.138-.151-1.485-.454c-.343-.302-.515-.735-.515-1.3 0-.373.107-.688.32-.946.214-.257.51-.43.89-.52m-.288-1.245c0 .302.093.537.28.707.191.169.457.254.798.254.338 0 .603-.085.793-.254.192-.17.289-.405.289-.707 0-.302-.097-.538-.29-.707-.19-.17-.454-.254-.792-.254-.341 0-.607.084-.797.254-.188.169-.281.405-.281.707M388.457 934.282h.824v.992h-.824v-.992M392.691 929.962c-.406 0-.712.2-.918.601-.203.399-.304 1-.304 1.801 0 .8.101 1.4.304 1.8.206.4.512.599.918.599.41 0 .715-.2.918-.598.206-.401.309-1.001.309-1.8 0-.803-.103-1.403-.309-1.802-.203-.4-.509-.601-.918-.601m0-.625c.654 0 1.153.259 1.497.777.346.516.519 1.266.519 2.25 0 .982-.173 1.732-.52 2.25-.343.516-.842.774-1.496.774-.653 0-1.153-.258-1.5-.774-.343-.518-.515-1.268-.515-2.25 0-.984.172-1.734.515-2.25.347-.518.847-.777 1.5-.777"/></g><g style="-inkscape-font-specification:Sans"><path style="text-align:end" d="M379.774 922.468c.386.014.705.128.957.343.255.214.415.506.48.875.1.567-.018 1.04-.353 1.419-.335.38-.862.632-1.58.759a4.055 4.055 0 01-.759.058 5.328 5.328 0 01-.826-.072l-.132-.75c.237.087.49.14.758.16.268.018.541.003.82-.046.488-.086.842-.248 1.062-.485.222-.237.301-.54.236-.906-.06-.339-.225-.582-.497-.73-.27-.15-.616-.188-1.04-.114l-.669.118-.113-.638.7-.124c.383-.067.662-.194.838-.382.175-.19.238-.428.187-.715-.052-.295-.197-.502-.435-.621-.236-.123-.548-.15-.938-.08-.213.037-.437.1-.673.19-.235.088-.49.208-.766.357l-.122-.693c.28-.134.545-.244.795-.33.251-.087.491-.15.72-.19.59-.105 1.08-.053 1.471.156.39.206.626.538.707.994.056.318.012.603-.13.856-.144.25-.377.447-.698.591M383.002 924.418l1.27-.224-.773-4.382-1.333.52-.124-.707 1.324-.52.777-.136.897 5.09 1.27-.225.115.654-3.308.584-.115-.654M387.826 923.234l.812-.143.172.977-.811.143-.173-.977M389.502 918.024l3.05-.538.116.654-2.34.412.25 1.408c.105-.058.213-.106.323-.144.109-.04.22-.07.333-.09.64-.113 1.18-.027 1.616.258.436.285.708.728.813 1.328.11.618.002 1.133-.322 1.544-.325.41-.837.676-1.537.8-.241.042-.491.064-.75.068a5.994 5.994 0 01-.806-.049l-.137-.78a3.074 3.074 0 001.562.109c.444-.078.774-.257.992-.536.218-.28.292-.619.221-1.019-.07-.4-.256-.694-.556-.882-.3-.187-.672-.242-1.116-.164a2.908 2.908 0 00-.61.18 3.334 3.334 0 00-.593.326l-.51-2.885"/></g><g style="-inkscape-font-specification:Sans"><path style="text-align:end" d="M377.224 913.107c.382-.053.716.004 1.002.171.288.167.496.427.624.78.197.54.163 1.026-.1 1.458-.265.431-.74.772-1.425 1.021-.23.084-.476.147-.737.19a5.327 5.327 0 01-.826.071l-.26-.715c.248.045.506.053.773.025.267-.027.534-.09.801-.187.465-.17.785-.39.96-.661.178-.273.204-.584.076-.934-.117-.323-.323-.534-.616-.632-.292-.102-.64-.079-1.044.068l-.638.232-.222-.609.668-.243c.364-.133.617-.306.758-.521.14-.217.16-.463.06-.737-.102-.282-.281-.46-.536-.537-.253-.08-.566-.051-.938.084a3.744 3.744 0 00-.63.304c-.216.129-.447.29-.692.485l-.24-.661a7.68 7.68 0 01.725-.463c.233-.13.458-.234.676-.313.563-.205 1.055-.238 1.476-.1.42.134.71.42.869.855.11.304.117.592.02.866-.098.271-.293.506-.584.703M380.74 914.466l1.212-.44-1.522-4.181-1.221.744-.246-.676 1.214-.741.742-.27 1.767 4.856 1.212-.44.227.624-3.157 1.148-.227-.624M385.287 912.463l.774-.282.34.932-.775.282-.34-.932M388.297 906.948l-.807 3.607 1.872-.681-1.065-2.926m-.43-.575l.933-.34 1.3 3.572.782-.284.224.616-.782.285.47 1.292-.737.269-.47-1.293-2.475.9-.26-.715 1.015-4.302"/></g><g style="-inkscape-font-specification:Sans"><path style="text-align:end" d="M373.087 904.33c.367-.118.706-.12 1.016-.004.313.114.563.334.75.658.288.499.34.983.154 1.454-.185.47-.593.889-1.225 1.253a4.055 4.055 0 01-.693.315c-.247.088-.514.16-.801.214l-.381-.66c.253.002.509-.035.767-.109.258-.073.51-.181.756-.323.428-.247.705-.52.831-.818.128-.3.099-.61-.087-.933-.172-.298-.411-.47-.717-.515-.306-.05-.644.033-1.016.248l-.589.34-.324-.562.616-.355c.336-.194.554-.41.656-.645.1-.238.077-.484-.07-.736-.149-.26-.356-.405-.62-.436-.264-.034-.567.048-.91.246a3.744 3.744 0 00-.567.408c-.19.165-.39.364-.597.598l-.352-.609c.218-.222.43-.416.634-.582.207-.168.41-.31.611-.425.519-.3.998-.419 1.437-.356.437.06.772.29 1.004.692.161.28.218.563.17.85-.05.283-.2.548-.453.793M376.787 905.059l1.116-.644-2.225-3.854-1.074.945-.359-.622 1.067-.941.683-.395 2.584 4.476 1.117-.645.332.575-2.91 1.68-.331-.575M380.915 902.296l.714-.412.496.86-.714.412-.496-.86M384.115 897.964c.368-.12.706-.12 1.017-.005.312.114.562.333.75.658.288.499.339.983.154 1.454-.186.47-.594.888-1.226 1.253a4.055 4.055 0 01-.693.315c-.247.088-.514.16-.8.214l-.382-.66c.254.001.51-.035.767-.109.258-.074.51-.181.756-.323.429-.248.706-.52.831-.818.128-.3.099-.61-.087-.933-.172-.298-.411-.47-.717-.515-.305-.05-.644.033-1.016.248l-.589.34-.324-.562.616-.355c.336-.194.555-.41.656-.645.1-.239.077-.484-.069-.737-.15-.259-.357-.404-.62-.435-.264-.034-.567.048-.91.246a3.744 3.744 0 00-.567.408c-.191.164-.39.364-.598.598l-.351-.61c.217-.221.428-.415.633-.581.207-.168.41-.31.612-.426.518-.3.997-.418 1.436-.355.438.06.772.29 1.004.692.162.28.218.563.17.849-.05.284-.2.549-.453.794"/></g><g style="-inkscape-font-specification:Sans"><path style="text-align:end" d="M367.489 896.406c.34-.18.674-.24 1-.181.328.058.612.231.853.518.37.441.505.91.404 1.405-.1.496-.43.978-.989 1.447-.188.157-.397.3-.628.43-.228.13-.478.247-.752.35l-.49-.583c.25-.043.496-.123.737-.24.241-.118.47-.268.688-.45.38-.319.605-.635.677-.95.074-.318-.01-.619-.248-.904-.221-.263-.487-.39-.796-.383-.31.004-.628.145-.957.421l-.521.437-.417-.497.545-.457c.297-.25.475-.499.534-.749.057-.252-.008-.49-.196-.713-.192-.23-.421-.336-.687-.32-.265.011-.55.144-.853.399a3.744 3.744 0 00-.487.5c-.16.196-.321.426-.485.693l-.452-.539c.176-.256.35-.484.523-.683.175-.201.35-.376.528-.525.46-.385.91-.585 1.353-.6.442-.017.811.152 1.11.508.207.247.312.516.314.806 0 .289-.102.575-.308.86M371.259 896.481l.987-.828-2.86-3.409-.893 1.117-.462-.55.887-1.112.605-.507 3.322 3.958.987-.828.427.509-2.574 2.159-.426-.509M374.845 893.044l.631-.53.638.76-.631.53-.638-.76M377.528 891.22l2.11-1.77.426.51-2.837 2.38-.427-.509c.03-.43.076-1.01.136-1.74.06-.735.093-1.202.098-1.403.01-.38-.008-.677-.058-.89a1.27 1.27 0 00-.258-.544.969.969 0 00-.738-.37c-.291-.01-.57.097-.838.321-.19.16-.362.36-.518.604-.155.241-.295.53-.422.864l-.513-.61a6.27 6.27 0 01.497-.794c.17-.228.342-.415.517-.562.463-.389.93-.583 1.399-.582.47 0 .866.194 1.191.58.154.184.266.388.335.612.07.22.107.519.113.895-.001.1-.02.4-.054.902-.036.5-.09 1.202-.16 2.107"/></g><g style="-inkscape-font-specification:Sans"><path style="text-align:end" d="M360.6 889.575c.304-.238.622-.355.953-.353.333 0 .643.121.93.363.441.37.655.807.642 1.313-.013.506-.254 1.038-.723 1.597a4.055 4.055 0 01-.544.532 5.328 5.328 0 01-.679.476l-.583-.49c.238-.085.466-.207.683-.365.217-.157.417-.345.6-.562.318-.38.485-.73.5-1.053.019-.325-.115-.608-.4-.847-.264-.22-.547-.3-.85-.239-.304.058-.594.252-.87.58l-.437.521-.497-.416.457-.545c.25-.297.382-.574.396-.83.013-.258-.093-.481-.316-.669-.23-.192-.474-.258-.733-.196-.259.058-.516.238-.77.541-.14.166-.27.359-.393.578-.123.22-.243.475-.358.766l-.538-.452c.128-.283.26-.537.396-.764.137-.228.28-.43.43-.608.384-.46.794-.734 1.227-.826.432-.093.826.01 1.18.307.248.208.398.454.45.74.052.284 0 .584-.153.9M364.325 888.994l.829-.988-3.408-2.86-.686 1.255-.551-.462.68-1.249.508-.604 3.959 3.322.829-.988.508.427-2.16 2.573-.508-.426M367.26 884.985l.53-.631.76.638-.53.631-.76-.638M369.237 883.14l.828-.987-3.408-2.86-.686 1.255-.55-.462.68-1.249.507-.604 3.96 3.322.828-.988.509.427-2.16 2.573-.508-.426"/></g><g style="-inkscape-font-specification:Sans"><path style="text-align:end" d="M352.629 884.043c.259-.287.551-.458.878-.513.327-.057.654.008.978.196.499.287.786.681.86 1.182.076.5-.07 1.066-.434 1.697-.122.212-.27.419-.443.62-.17.2-.365.395-.586.586l-.66-.381c.22-.126.423-.285.61-.478.186-.193.35-.412.492-.658.248-.429.351-.803.311-1.124-.039-.324-.22-.578-.542-.764-.298-.172-.59-.202-.879-.088-.289.11-.54.35-.755.723l-.34.588-.562-.324.356-.616c.194-.336.276-.631.245-.886-.032-.256-.175-.457-.427-.603-.26-.15-.511-.172-.756-.067-.245.102-.467.325-.664.667-.109.188-.204.4-.287.638-.083.237-.156.51-.219.816l-.609-.351a7.68 7.68 0 01.258-.821c.095-.25.2-.474.317-.674.3-.52.654-.861 1.066-1.027.409-.167.814-.134 1.215.098.28.161.47.378.572.65.1.27.101.575.005.914M356.197 882.824l.644-1.117-3.853-2.224-.457 1.355-.623-.36.454-1.348.394-.683 4.476 2.584.645-1.117.575.332-1.68 2.91-.575-.332M358.391 878.367l.412-.714.86.496-.412.714-.86-.496M356.767 872.54c-.203.351-.182.717.062 1.095.243.375.713.764 1.407 1.165.693.4 1.263.611 1.712.636.448.021.773-.144.977-.496.204-.354.184-.719-.059-1.094-.244-.379-.713-.768-1.405-1.168-.695-.4-1.266-.612-1.714-.633-.449-.024-.776.14-.98.495m-.541-.313c.327-.566.8-.868 1.42-.907.62-.042 1.357.183 2.21.675.85.491 1.412 1.016 1.688 1.575.275.556.249 1.116-.078 1.682-.327.566-.8.87-1.42.913-.62.038-1.356-.188-2.206-.679-.853-.492-1.416-1.016-1.691-1.571-.276-.56-.25-1.122.077-1.688"/></g><g style="-inkscape-font-specification:Sans"><path style="text-align:end" d="M343.819 879.98c.205-.328.463-.547.775-.658.313-.113.645-.106.998.022.54.197.891.535 1.052 1.015.16.48.117 1.062-.133 1.748-.084.23-.193.459-.329.686-.132.227-.29.453-.476.68l-.715-.261c.194-.162.367-.354.517-.577.15-.222.274-.467.371-.733.17-.465.206-.852.111-1.162-.094-.311-.317-.53-.667-.658-.323-.117-.616-.095-.88.066-.265.159-.472.44-.619.843l-.232.64-.61-.223.244-.668c.132-.364.162-.67.088-.915-.077-.247-.252-.42-.526-.52-.281-.103-.533-.08-.756.066-.224.143-.403.4-.539.772a3.743 3.743 0 00-.171.678c-.04.248-.065.529-.074.842l-.66-.241a7.68 7.68 0 01.11-.853c.051-.262.116-.501.195-.72.205-.562.496-.96.872-1.195.374-.235.779-.274 1.214-.115.304.11.53.29.676.541.145.25.2.55.164.9M343.283 875.112c-.139.382-.055.738.251 1.068.305.327.835.628 1.588.902.752.274 1.35.384 1.797.33.444-.057.736-.276.875-.658.14-.384.058-.74-.247-1.067-.307-.33-.836-.633-1.587-.906-.754-.274-1.353-.383-1.798-.326-.446.054-.74.273-.879.657m-.587-.214c.223-.614.637-.994 1.242-1.14.603-.149 1.367-.055 2.292.282.922.335 1.568.755 1.936 1.257.367.5.44 1.056.216 1.67-.224.615-.637.997-1.24 1.146-.605.145-1.368.05-2.29-.285-.926-.337-1.572-.755-1.939-1.254-.368-.503-.44-1.062-.217-1.676M348.508 873.389l.282-.775.932.34-.282.774-.932-.34M350.205 871.271l-.675-.245c.156-.154.292-.318.408-.492.116-.174.207-.353.274-.537.178-.489.15-.922-.085-1.298-.236-.38-.682-.71-1.34-.99.16.218.256.457.289.715.033.259.002.52-.094.785-.2.548-.523.922-.97 1.123-.449.197-.96.19-1.536-.019-.563-.205-.954-.535-1.173-.992-.219-.457-.227-.962-.026-1.515.23-.633.65-1.028 1.258-1.184.607-.159 1.372-.07 2.297.267.864.314 1.48.771 1.846 1.37.365.596.422 1.24.17 1.933a3.177 3.177 0 01-.261.545 4.31 4.31 0 01-.382.534m-1.786-2.321c.121-.333.103-.637-.054-.913-.156-.279-.433-.49-.83-.635-.393-.143-.74-.158-1.039-.045-.3.11-.51.33-.632.663-.121.333-.102.64.057.919.157.276.432.486.826.629.397.144.744.161 1.042.05.299-.112.509-.335.63-.668"/></g><g style="-inkscape-font-specification:Sans"><path style="text-align:end" d="M334.436 877.507c.146-.358.362-.618.65-.782.288-.166.617-.216.987-.15.566.099.97.371 1.212.816.242.444.3 1.026.173 1.744-.043.24-.111.485-.205.733a5.327 5.327 0 01-.35.751l-.75-.132c.163-.193.3-.412.409-.657.109-.246.188-.508.238-.787.086-.488.055-.875-.093-1.163-.147-.29-.404-.468-.77-.533-.34-.06-.624.013-.856.218-.234.202-.388.515-.463.938l-.118.67-.639-.113.124-.7c.067-.382.043-.688-.073-.917-.118-.23-.32-.37-.608-.42-.295-.053-.539.012-.732.195-.196.18-.328.465-.397.854a3.744 3.744 0 00-.051.697c.003.252.027.533.073.842l-.692-.122a7.678 7.678 0 01-.039-.86c.005-.266.027-.513.067-.741.104-.59.321-1.033.651-1.33.328-.296.72-.404 1.176-.323.318.056.571.194.76.415.185.22.291.506.317.857M333.064 872.807c-.07.4.074.736.433 1.008.357.27.93.474 1.72.613.788.139 1.397.143 1.827.013.428-.134.677-.4.748-.8.07-.403-.072-.739-.43-1.008-.359-.273-.932-.478-1.72-.617-.79-.14-1.398-.142-1.826-.009-.43.13-.681.397-.752.8m-.616-.109c.114-.643.456-1.09 1.026-1.338.568-.252 1.336-.292 2.306-.121.967.17 1.675.471 2.125.902.448.428.616.964.502 1.608-.113.644-.454 1.091-1.022 1.343-.57.249-1.338.288-2.305.117-.97-.17-1.678-.47-2.127-.898-.45-.432-.618-.969-.505-1.613M337.91 870.203l.143-.812.977.172-.143.812-.977-.172M336.895 865.724c-.065.37-.018.678.142.925.16.246.414.399.76.46.346.06.637.003.871-.172.235-.178.385-.452.45-.821.066-.37.018-.678-.142-.925-.162-.249-.415-.403-.759-.464-.346-.06-.637-.002-.872.176-.234.175-.384.45-.45.82m-.468.72c-.14.319-.342.552-.603.699-.26.144-.555.187-.884.13-.459-.082-.793-.309-1.002-.681-.209-.376-.263-.848-.163-1.417.101-.572.313-.997.638-1.276.324-.279.715-.378 1.174-.297.329.058.59.2.786.428.195.225.305.51.329.856.153-.36.375-.62.665-.783.291-.166.62-.216.987-.152.557.098.953.344 1.19.738.239.39.302.903.19 1.537-.112.633-.346 1.094-.704 1.383-.357.286-.814.38-1.37.282a1.433 1.433 0 01-.876-.48c-.217-.255-.336-.578-.357-.967m-1.277.068c.297.052.546.001.745-.154.2-.158.33-.405.388-.74.06-.334.022-.61-.112-.826-.133-.22-.349-.355-.646-.407-.298-.053-.546.001-.747.162-.2.157-.329.403-.387.736-.06.336-.022.613.111.83.134.213.35.346.648.399"/></g><g style="-inkscape-font-specification:Sans"><path style="text-align:end" d="M324.768 876.702c.08-.378.248-.672.504-.883.255-.213.57-.32.945-.32.575 0 1.02.198 1.336.594.315.395.472.958.472 1.687 0 .245-.024.498-.074.758a5.328 5.328 0 01-.215.8h-.761c.127-.218.224-.458.289-.718.065-.26.097-.533.097-.816 0-.495-.097-.871-.293-1.13-.195-.26-.479-.39-.851-.39-.344 0-.612.121-.805.363-.195.24-.293.575-.293 1.004v.68h-.648v-.711c0-.388-.077-.685-.23-.89-.157-.206-.38-.31-.673-.31-.299 0-.528.108-.687.321-.161.211-.242.514-.242.91 0 .216.023.448.07.696.047.247.12.52.219.816h-.703c-.084-.3-.146-.58-.188-.84a4.751 4.751 0 01-.062-.742c0-.599.136-1.073.41-1.422.27-.349.638-.523 1.101-.523.323 0 .597.092.82.277.222.185.376.448.462.789M322.6 872.311c0 .407.2.713.601.918.399.203.999.305 1.801.305.8 0 1.4-.101 1.8-.305.4-.205.598-.511.598-.918 0-.408-.199-.714-.597-.918-.401-.205-1.002-.308-1.801-.308-.802 0-1.402.103-1.8.308-.402.204-.602.51-.602.918m-.625 0c0-.653.259-1.152.777-1.496.516-.346 1.266-.52 2.25-.52.982 0 1.732.174 2.25.52.516.344.773.843.773 1.496 0 .654-.257 1.154-.773 1.5-.518.344-1.268.516-2.25.516-.984 0-1.734-.172-2.25-.516-.518-.346-.777-.846-.777-1.5M326.92 868.905v-.824h.992v.824h-.992M322.08 866.558v-3.75h.336l5.496 2.117v.824l-5.168-1.992v2.8h-.664"/></g><g style="-inkscape-font-specification:Sans"><path style="text-align:end" d="M315.106 877.588c.014-.386.128-.705.343-.957.214-.255.506-.414.875-.48.567-.1 1.04.018 1.419.353.379.335.632.862.758 1.58.043.241.062.494.059.76a5.328 5.328 0 01-.073.825l-.75.132c.088-.237.141-.49.16-.758a3.354 3.354 0 00-.045-.82c-.086-.488-.248-.841-.485-1.061-.238-.223-.54-.302-.906-.237-.339.06-.582.225-.73.497-.15.27-.189.617-.114 1.04l.118.67-.639.112-.123-.7c-.067-.383-.195-.662-.382-.838-.19-.175-.428-.237-.715-.187-.295.052-.502.197-.621.435-.123.236-.15.549-.08.938.037.213.1.438.19.673.088.235.207.49.356.766l-.692.122a7.678 7.678 0 01-.33-.794 4.751 4.751 0 01-.191-.72c-.104-.59-.052-1.08.157-1.472.206-.39.537-.626.994-.707.318-.056.603-.012.856.131.25.144.447.376.59.697M312.208 873.64c.071.4.322.667.752.8.428.13 1.037.127 1.827-.013.787-.138 1.36-.343 1.72-.612.357-.272.5-.608.43-1.008-.072-.403-.321-.67-.749-.8-.43-.133-1.04-.13-1.827.008-.79.14-1.363.345-1.72.617-.36.27-.504.606-.433 1.009m-.615.108c-.114-.644.055-1.18.506-1.608.447-.43 1.156-.732 2.125-.903.967-.17 1.736-.13 2.306.121.568.25.908.696 1.022 1.34.113.643-.054 1.18-.501 1.61-.451.43-1.16.729-2.127.9-.97.17-1.738.131-2.305-.118-.57-.25-.913-.698-1.026-1.342M315.872 869.536l-.144-.812.978-.172.143.812-.977.172M312.915 865.658c.062.35.23.605.504.768.275.16.62.204 1.035.131.413-.073.722-.232.927-.477.203-.247.273-.545.212-.894-.062-.349-.23-.603-.504-.764-.277-.162-.622-.207-1.035-.135-.416.074-.725.234-.927.481-.203.245-.273.541-.212.89m-2.707-1.113l.708-.125a3.143 3.143 0 00-.107.63c-.014.206-.004.407.03.601.09.513.333.875.727 1.086.394.208.944.27 1.651.185a1.554 1.554 0 01-.612-.48 1.614 1.614 0 01-.314-.721c-.101-.577-.006-1.064.287-1.459.29-.397.735-.65 1.338-.756.59-.104 1.094-.013 1.512.273.418.286.678.719.78 1.299.117.664-.047 1.216-.493 1.657-.448.442-1.156.748-2.123.918-.908.16-1.669.072-2.284-.264-.617-.335-.99-.866-1.117-1.591a3.117 3.117 0 01-.046-.6 4.31 4.31 0 01.063-.653"/></g><g style="-inkscape-font-specification:Sans"><path style="text-align:end" d="M305.745 880.138c-.054-.382.004-.716.171-1.002.167-.288.427-.496.78-.624.54-.197 1.026-.163 1.458.101.431.264.771.739 1.02 1.424.085.23.148.476.19.738.044.258.068.533.072.826l-.715.26c.045-.25.053-.507.025-.774a3.354 3.354 0 00-.187-.8c-.17-.466-.39-.786-.662-.961-.272-.178-.583-.204-.933-.076-.323.117-.534.323-.632.616-.102.292-.08.64.068 1.044l.232.639-.61.221-.242-.668c-.133-.364-.307-.617-.521-.758-.218-.14-.463-.16-.737-.06-.282.103-.46.281-.537.536-.08.254-.051.566.084.938.074.203.175.413.304.63.128.216.29.447.485.692l-.661.24a7.672 7.672 0 01-.464-.725 4.757 4.757 0 01-.312-.676c-.205-.562-.239-1.055-.101-1.476.135-.42.42-.71.856-.869.303-.11.592-.117.866-.02.271.098.505.293.703.584M302.206 876.754c.139.382.432.6.88.657.443.054 1.042-.056 1.795-.33.752-.273 1.281-.574 1.588-.902.305-.33.387-.685.248-1.067-.14-.384-.432-.604-.875-.658-.448-.056-1.047.052-1.798.326-.754.274-1.283.576-1.587.906-.307.328-.391.684-.251 1.068m-.587.214c-.224-.615-.151-1.172.218-1.672.366-.502 1.012-.921 1.937-1.258.922-.336 1.686-.43 2.292-.281.602.146 1.015.527 1.238 1.141.224.614.153 1.172-.213 1.674-.37.5-1.016.918-1.938 1.254-.925.337-1.689.432-2.291.285-.605-.148-1.02-.53-1.243-1.143M305.1 872.075l-.281-.774.932-.34.282.775-.932.34M299.679 871.33l-1.06-2.91.624-.228.813 2.232 1.343-.49a2.075 2.075 0 01-.198-.293 1.918 1.918 0 01-.147-.312c-.223-.612-.231-1.157-.026-1.637.205-.479.594-.823 1.167-1.031.59-.215 1.115-.198 1.576.05.46.248.81.706 1.054 1.374.083.23.15.472.198.727.047.251.078.518.092.801l-.745.272a3.074 3.074 0 00-.164-1.558c-.154-.423-.387-.718-.7-.884-.313-.166-.66-.18-1.042-.04-.381.138-.639.372-.771.7-.133.328-.122.704.032 1.127.072.199.166.389.282.57.116.18.257.356.425.528l-2.753 1.002"/></g><g style="-inkscape-font-specification:Sans"><path style="text-align:end" d="M296.969 884.275c-.12-.367-.12-.706-.005-1.016.114-.313.333-.563.658-.75.499-.288.983-.34 1.454-.154.47.185.889.594 1.253 1.225.123.212.227.443.315.693.088.247.16.514.214.801l-.66.381a2.734 2.734 0 00-.109-.767 3.354 3.354 0 00-.323-.756c-.248-.428-.52-.705-.818-.83-.3-.129-.61-.1-.933.087-.298.172-.47.41-.515.717-.05.305.033.643.248 1.015l.34.59-.562.323-.355-.615c-.194-.336-.41-.555-.645-.656-.238-.1-.484-.078-.736.068-.26.15-.405.357-.436.621-.034.264.048.567.246.91.108.187.244.376.408.567.165.19.364.39.598.597l-.61.352a7.678 7.678 0 01-.581-.634 4.751 4.751 0 01-.426-.611c-.3-.519-.418-.998-.355-1.437.06-.437.29-.772.692-1.004.28-.161.563-.218.849-.17.284.05.549.2.794.453M292.896 881.557c.203.352.53.516.98.494.446-.023 1.017-.235 1.712-.636.692-.4 1.161-.788 1.407-1.165.242-.377.262-.742.058-1.094-.204-.354-.53-.519-.976-.496-.45.023-1.022.234-1.714.633-.695.401-1.163.79-1.405 1.168-.246.377-.267.742-.062 1.096m-.541.312c-.327-.566-.352-1.127-.075-1.684.273-.558.836-1.083 1.689-1.575.85-.49 1.586-.716 2.208-.675.618.04 1.09.343 1.418.909.327.566.353 1.128.08 1.686-.277.557-.84 1.08-1.69 1.571-.853.492-1.589.719-2.207.679-.622-.041-1.097-.345-1.423-.91M294.934 876.447l-.412-.714.86-.496.412.714-.86.496M288.98 874.44l3.693.168-.996-1.725-2.696 1.557m-.492.523l-.496-.86 3.291-1.9-.416-.72.569-.329.416.721 1.19-.687.393.68-1.19.687 1.316 2.28-.66.381-4.413-.253"/></g><g style="-inkscape-font-specification:Sans"><path style="text-align:end" d="M289.044 889.873c-.18-.34-.241-.674-.181-1 .058-.327.23-.612.518-.853.441-.37.91-.504 1.405-.404.496.101.978.43 1.447.99.157.187.3.396.43.627.13.228.247.479.35.752l-.583.49a2.734 2.734 0 00-.24-.737 3.354 3.354 0 00-.45-.688c-.319-.379-.635-.605-.95-.676-.318-.074-.619.008-.904.248-.264.22-.391.486-.383.795.004.31.145.628.42.958l.438.52-.497.417-.457-.545c-.25-.297-.5-.475-.75-.534-.251-.057-.489.008-.712.196-.23.192-.336.421-.32.687.011.265.144.55.399.853.139.166.305.328.5.487.195.16.426.321.693.485l-.539.452a7.678 7.678 0 01-.683-.523 4.751 4.751 0 01-.525-.528c-.385-.459-.585-.91-.6-1.353-.017-.441.152-.811.507-1.109.248-.208.517-.312.807-.315.288 0 .575.102.86.308M284.561 887.904c.261.31.612.416 1.051.316.436-.1.961-.409 1.576-.924.612-.514 1.007-.978 1.183-1.391.173-.414.13-.776-.132-1.087-.263-.314-.612-.42-1.048-.32-.44.1-.965.408-1.578.922-.614.515-1.008.98-1.18 1.394-.178.413-.134.776.128 1.09m-.478.401c-.42-.5-.543-1.05-.367-1.645.173-.597.636-1.212 1.39-1.845.752-.63 1.438-.98 2.058-1.048.616-.068 1.134.148 1.554.649.42.5.544 1.05.371 1.646-.176.597-.64 1.21-1.392 1.841-.754.633-1.439.984-2.055 1.052-.62.067-1.14-.149-1.56-.65M285.681 882.517l-.53-.631.76-.638.53.631-.76.638M280.859 880.118c-.181-.34-.242-.674-.182-1 .059-.328.231-.612.519-.853.44-.37.909-.504 1.405-.404.496.1.978.43 1.446.99.158.187.301.396.43.627.13.228.247.478.35.752l-.583.49a2.734 2.734 0 00-.24-.737 3.354 3.354 0 00-.45-.688c-.318-.38-.635-.605-.95-.677-.317-.074-.618.01-.904.249-.263.22-.39.486-.383.795.005.31.145.628.421.957l.437.521-.497.417-.457-.545c-.249-.297-.499-.475-.749-.534-.251-.057-.49.008-.713.196-.229.192-.336.421-.32.687.012.265.145.55.4.853.138.165.305.328.5.487.195.16.426.321.692.485l-.538.452a7.678 7.678 0 01-.684-.523 4.751 4.751 0 01-.525-.528c-.385-.459-.585-.91-.6-1.353-.016-.441.153-.811.508-1.109.247-.208.516-.313.807-.315.288 0 .575.102.86.308"/></g><g style="-inkscape-font-specification:Sans"><path style="text-align:end" d="M282.213 896.763c-.238-.305-.355-.623-.353-.954 0-.333.121-.643.362-.93.37-.44.808-.655 1.314-.642.506.013 1.038.254 1.596.723.188.157.366.339.533.544.168.202.326.428.476.68l-.49.583a2.733 2.733 0 00-.365-.684 3.354 3.354 0 00-.562-.6c-.38-.317-.73-.484-1.053-.5-.326-.018-.608.115-.847.4-.221.264-.3.547-.239.85.058.304.252.594.58.87l.521.437-.416.497-.545-.457c-.297-.25-.574-.381-.83-.396-.259-.013-.481.093-.669.316-.192.23-.258.474-.196.733.058.26.238.516.541.77.166.14.358.27.578.394.22.123.475.242.766.357l-.452.538a7.678 7.678 0 01-.764-.396 4.751 4.751 0 01-.608-.429c-.46-.385-.734-.794-.826-1.228-.093-.432.01-.825.307-1.18.208-.248.454-.398.74-.45.284-.051.584 0 .9.154M277.456 895.601c.31.261.674.304 1.09.13.411-.175.875-.57 1.39-1.184.514-.613.822-1.138.924-1.576.099-.437-.007-.786-.319-1.048-.313-.262-.675-.306-1.087-.132-.415.175-.88.569-1.394 1.181-.515.615-.822 1.14-.921 1.578-.102.438.003.788.317 1.051m-.402.479c-.5-.42-.716-.94-.647-1.557.067-.618.416-1.304 1.049-2.058.63-.752 1.246-1.215 1.844-1.39.595-.174 1.142-.05 1.643.37.5.42.718.939.652 1.556-.07.618-.42 1.303-1.051 2.055-.633.754-1.247 1.219-1.841 1.393-.599.174-1.148.051-1.65-.37M277.623 890.102l-.631-.53.638-.76.631.53-.638.76M275.362 887.777l-2.11-1.77.428-.51 2.836 2.381-.426.509c-.429.045-1.008.1-1.738.168a32.4 32.4 0 00-1.398.148c-.376.055-.665.125-.866.211a1.27 1.27 0 00-.491.348.969.969 0 00-.236.792c.04.288.194.545.461.769.19.16.418.294.684.406.265.11.573.198.925.266l-.512.61a6.27 6.27 0 01-.868-.35 3.33 3.33 0 01-.644-.413c-.463-.389-.735-.814-.816-1.276-.08-.463.041-.887.366-1.274.154-.184.335-.33.544-.436.205-.107.492-.196.861-.267.098-.016.398-.05.898-.103.498-.051 1.199-.121 2.102-.21"/></g><g style="-inkscape-font-specification:Sans"><path style="text-align:end" d="M276.68 904.733c-.286-.258-.457-.55-.512-.877-.057-.328.008-.654.195-.98.288-.498.682-.784 1.183-.86.5-.074 1.066.07 1.697.435.212.122.419.27.62.443.2.17.395.365.586.587l-.381.66a2.734 2.734 0 00-.478-.61 3.354 3.354 0 00-.658-.493c-.429-.248-.804-.351-1.125-.31-.323.038-.577.219-.764.541-.171.298-.2.59-.087.879.11.289.35.54.723.755l.588.34-.324.562-.616-.356c-.336-.194-.631-.276-.886-.245-.256.032-.458.175-.603.427-.15.26-.172.511-.067.756.102.245.325.467.667.665.188.108.4.203.638.286.237.083.51.156.816.22l-.351.608a7.678 7.678 0 01-.822-.257 4.751 4.751 0 01-.674-.317c-.518-.3-.86-.655-1.026-1.067-.167-.409-.134-.814.098-1.215.161-.28.378-.47.65-.572.27-.1.575-.1.914-.005M271.794 904.416c.352.203.717.182 1.096-.062.375-.244.763-.713 1.164-1.408.4-.692.612-1.263.637-1.711.021-.448-.144-.774-.496-.977-.354-.204-.719-.185-1.094.059-.379.244-.768.712-1.168 1.405-.4.694-.612 1.266-.633 1.714-.024.448.14.775.494.98m-.312.54c-.566-.326-.869-.8-.907-1.42-.042-.62.183-1.356.675-2.209.49-.85 1.016-1.413 1.575-1.689.555-.274 1.116-.248 1.682.079.566.327.87.8.913 1.42.038.62-.188 1.356-.679 2.206-.492.852-1.016 1.416-1.571 1.69-.56.276-1.122.25-1.688-.076M271.005 898.97l-.714-.411.496-.86.714.413-.496.859M268.845 897.345l-1.117-.645-2.224 3.854 1.355.457-.36.623-1.348-.454-.683-.395 2.584-4.475-1.117-.645.332-.575 2.91 1.68-.332.575"/></g><g style="-inkscape-font-specification:Sans"><path style="text-align:end" d="M272.617 913.544c-.327-.205-.546-.464-.657-.776-.113-.313-.106-.645.022-.998.197-.54.535-.891 1.015-1.052.48-.16 1.062-.116 1.747.133.23.084.46.193.687.329.226.132.453.29.68.476l-.261.715a2.734 2.734 0 00-.577-.517 3.354 3.354 0 00-.734-.371c-.465-.17-.852-.206-1.16-.11-.312.094-.532.316-.659.666-.117.323-.095.616.066.88.159.266.44.472.843.619l.64.232-.223.61-.668-.243c-.364-.133-.67-.163-.915-.089-.247.077-.42.252-.52.526-.103.282-.08.534.066.756.143.224.4.403.772.539.203.074.429.13.677.171.249.041.53.066.842.074l-.24.66a7.678 7.678 0 01-.853-.11 4.751 4.751 0 01-.72-.195c-.562-.205-.96-.496-1.195-.872-.235-.374-.274-.779-.115-1.214.11-.304.29-.529.541-.676.25-.145.55-.2.9-.163M267.75 914.08c.382.138.738.054 1.068-.252.327-.305.628-.834.902-1.588.274-.751.384-1.35.33-1.797-.057-.444-.276-.736-.658-.875-.384-.14-.74-.057-1.067.248-.33.306-.633.835-.906 1.586-.274.754-.383 1.353-.326 1.798.054.446.273.74.657.88m-.214.586c-.614-.223-.994-.637-1.14-1.242-.149-.603-.055-1.367.281-2.292.336-.922.755-1.568 1.258-1.936.5-.367 1.056-.439 1.67-.215.615.223.996.636 1.146 1.24.145.604.05 1.368-.285 2.29-.337.925-.755 1.571-1.255 1.938-.502.369-1.06.441-1.675.217M266.027 908.854l-.775-.281.34-.933.774.282-.34.932M260.57 911.466c.382.139.738.055 1.068-.251.327-.305.628-.835.903-1.588.273-.752.383-1.35.33-1.797-.058-.445-.277-.736-.659-.875-.384-.14-.74-.058-1.067.247-.33.307-.633.836-.906 1.587-.274.754-.383 1.353-.326 1.798.054.446.273.74.657.879m-.214.587c-.614-.223-.994-.637-1.14-1.242-.149-.603-.055-1.367.282-2.292.335-.922.755-1.568 1.257-1.937.5-.366 1.056-.438 1.67-.215.615.224.997.637 1.146 1.24.145.605.05 1.368-.285 2.29-.337.926-.755 1.572-1.254 1.939-.503.368-1.062.44-1.676.217"/></g><g style="-inkscape-font-specification:Sans"><path style="text-align:end" d="M272.26 920.78l-2.711-.478.115-.654 3.647.643-.115.654c-.35.253-.823.591-1.42 1.015-.602.425-.981.7-1.138.827-.298.235-.513.44-.644.616a1.27 1.27 0 00-.251.546.969.969 0 00.191.804c.179.23.44.375.784.435.244.043.509.047.796.01.284-.037.595-.115.933-.232l-.138.785a6.27 6.27 0 01-.928.13 3.33 3.33 0 01-.763-.036c-.595-.105-1.043-.337-1.345-.697-.301-.36-.408-.789-.32-1.286.041-.236.126-.453.253-.65.124-.195.329-.415.613-.661.077-.063.319-.243.725-.539.406-.293.978-.704 1.717-1.232M267.985 919.475l-.125.708a3.142 3.142 0 00-.555-.316 2.519 2.519 0 00-.576-.177c-.512-.09-.934.012-1.264.308-.333.299-.58.796-.743 1.492.188-.195.406-.33.655-.408a1.65 1.65 0 01.79-.044c.574.101.999.355 1.273.76.272.408.355.913.249 1.516-.104.59-.362 1.032-.774 1.327-.411.295-.907.391-1.486.29-.665-.118-1.126-.462-1.385-1.034-.262-.57-.307-1.34-.136-2.31.16-.904.502-1.59 1.029-2.055.523-.463 1.147-.63 1.873-.502.195.034.39.088.582.162.194.074.391.168.593.283m-1.976 2.162c-.349-.061-.645.01-.89.212-.247.202-.407.511-.48.927-.073.413-.028.757.135 1.031.16.277.414.446.763.508.349.061.647-.01.895-.215.244-.203.403-.511.476-.924.073-.415.03-.76-.131-1.035-.163-.274-.419-.442-.768-.504M262.84 919.452l-.811-.143.172-.977.812.143-.173.977M260.46 918.148l-.124.708a3.142 3.142 0 00-.555-.316 2.519 2.519 0 00-.576-.177c-.513-.09-.934.012-1.264.309-.333.298-.58.795-.743 1.49.187-.194.406-.33.655-.407a1.65 1.65 0 01.789-.044c.574.102.999.355 1.274.76.272.408.355.913.248 1.516-.104.59-.361 1.032-.773 1.327-.412.295-.907.392-1.487.29-.664-.118-1.126-.462-1.385-1.034-.261-.57-.307-1.34-.136-2.309.16-.905.503-1.59 1.029-2.056.523-.463 1.148-.63 1.874-.502.194.034.389.088.582.162.193.074.39.168.592.283m-1.975 2.162c-.35-.061-.646.01-.89.212-.248.203-.408.512-.481.927-.073.413-.028.757.135 1.031.16.277.415.446.764.508.348.061.647-.01.894-.215.245-.203.404-.51.476-.924.074-.415.03-.76-.13-1.034-.164-.275-.42-.443-.768-.505"/></g><g style="-inkscape-font-specification:Sans"><path style="text-align:end" d="M271.05 930.114h-2.753v-.664H272v.664c-.3.31-.707.725-1.223 1.246-.518.524-.843.86-.976 1.012-.253.284-.429.523-.527.719a1.27 1.27 0 00-.153.582c0 .31.11.562.328.757.216.196.499.293.848.293.247 0 .509-.043.785-.128.274-.086.567-.217.879-.391V935a6.27 6.27 0 01-.89.289 3.324 3.324 0 01-.758.098c-.605 0-1.086-.151-1.446-.454-.36-.302-.539-.705-.539-1.21 0-.24.046-.468.137-.684.088-.214.251-.466.488-.758.065-.075.272-.294.621-.656.35-.36.841-.863 1.477-1.512M266.613 929.571v.719a3.142 3.142 0 00-.601-.215 2.519 2.519 0 00-.598-.074c-.52 0-.918.174-1.191.523-.276.352-.434.884-.473 1.598.151-.224.343-.396.574-.516.232-.12.489-.18.77-.18.583 0 1.045.176 1.387.528.338.354.507.837.507 1.45 0 .598-.177 1.079-.53 1.44-.355.363-.826.544-1.415.544-.674 0-1.189-.26-1.543-.778-.357-.515-.535-1.265-.535-2.25 0-.92.219-1.653.656-2.203.435-.547 1.021-.82 1.758-.82.198 0 .398.02.602.058.203.04.414.098.632.176m-1.57 2.473c-.354 0-.634.12-.84.363-.208.242-.312.574-.312.996 0 .42.104.75.312.992.206.245.486.368.84.368s.635-.123.844-.368c.206-.242.308-.573.308-.992 0-.422-.102-.754-.308-.996-.209-.242-.49-.363-.844-.363M261.543 930.442h-.824v-.992h.824v.992M257.309 932.22c.375 0 .67-.1.886-.301.214-.2.32-.477.32-.828 0-.352-.106-.628-.32-.828-.216-.201-.511-.301-.886-.301s-.67.1-.887.3c-.216.204-.324.48-.324.829 0 .351.108.627.324.828.213.2.509.3.887.3m.789.336c.338.084.603.241.793.473.187.232.28.514.28.848 0 .466-.164.834-.495 1.105-.333.271-.79.407-1.367.407-.581 0-1.037-.136-1.368-.407-.33-.27-.496-.64-.496-1.105 0-.334.095-.616.286-.848.187-.232.449-.39.785-.473-.38-.088-.676-.261-.887-.519-.214-.258-.32-.573-.32-.945 0-.565.173-1 .52-1.301.343-.302.836-.453 1.48-.453.643 0 1.138.15 1.484.453.344.302.516.736.516 1.3 0 .373-.107.688-.32.946-.214.258-.511.43-.891.52m.289 1.246c0-.303-.094-.538-.281-.707-.19-.17-.456-.254-.797-.254-.339 0-.603.084-.793.254-.193.169-.29.404-.29.707 0 .302.097.537.29.707.19.169.454.254.793.254.34 0 .606-.085.797-.254.187-.17.28-.405.28-.707"/></g><g style="-inkscape-font-specification:Sans"><path style="text-align:end" d="M271.48 939.516l-2.712.479-.115-.654 3.647-.643.115.654c-.241.357-.57.837-.988 1.44-.42.605-.681.993-.786 1.165-.2.323-.33.59-.394.8a1.27 1.27 0 00-.05.599.969.969 0 00.455.69c.247.154.542.201.886.14.244-.042.494-.13.75-.263.255-.132.521-.31.799-.537l.138.785a6.27 6.27 0 01-.827.44c-.26.111-.504.187-.73.227-.594.105-1.095.04-1.501-.195-.407-.235-.654-.602-.741-1.1a1.742 1.742 0 01.015-.696c.05-.226.167-.503.35-.831.05-.086.217-.337.497-.754.282-.415.679-.997 1.192-1.746M267.016 939.752l.125.708a3.142 3.142 0 00-.63-.107 2.519 2.519 0 00-.602.03c-.513.091-.873.332-1.082.723-.21.394-.274.946-.188 1.656.11-.247.268-.45.476-.608a1.65 1.65 0 01.726-.31c.575-.102 1.06-.009 1.458.278.395.29.645.736.751 1.339.104.59.013 1.094-.272 1.512-.286.418-.72.678-1.299.78-.664.117-1.215-.049-1.654-.498-.441-.445-.747-1.153-.918-2.122-.16-.906-.072-1.667.264-2.284.333-.614.863-.985 1.588-1.113.195-.035.396-.05.603-.047.207.003.425.024.654.063m-1.117 2.708c-.35.062-.604.23-.764.504-.163.274-.208.62-.135 1.035.073.413.233.72.48.923.245.205.542.277.89.216.35-.062.605-.231.768-.509.16-.274.204-.617.132-1.03-.074-.416-.233-.725-.477-.928-.248-.202-.546-.272-.894-.21M262.174 941.49l-.812.144-.172-.977.811-.144.173.978M260.702 946.665l-3.693.65-.058-.33 1.13-5.78.812-.143-1.064 5.435 2.758-.486.115.654"/></g><g style="-inkscape-font-specification:Sans"><path style="text-align:end" d="M273.535 948.701l-2.587.942-.227-.624 3.48-1.266.226.624c-.175.393-.416.923-.722 1.589a32.42 32.42 0 00-.572 1.285c-.14.353-.223.638-.25.855-.027.221-.009.42.056.6a.969.969 0 00.568.6c.27.109.569.104.897-.015.232-.085.463-.215.693-.39.228-.174.459-.397.693-.668l.272.75c-.255.228-.5.42-.738.575a3.324 3.324 0 01-.679.351c-.567.207-1.072.23-1.513.069-.44-.161-.748-.479-.92-.954a1.742 1.742 0 01-.106-.689c.01-.23.077-.524.2-.879.035-.093.155-.37.359-.829.205-.457.495-1.099.87-1.926M269.18 949.709l.246.675a3.142 3.142 0 00-.64.004 2.519 2.519 0 00-.586.135c-.49.178-.803.478-.94.9-.14.424-.106.978.102 1.662.065-.262.186-.489.363-.68a1.65 1.65 0 01.662-.433c.548-.2 1.042-.192 1.483.021.44.217.764.613.973 1.189.205.562.203 1.074-.006 1.536-.21.461-.59.792-1.143.994-.634.23-1.206.163-1.716-.203-.512-.363-.936-1.006-1.273-1.931-.314-.864-.36-1.63-.136-2.295.221-.663.678-1.12 1.37-1.372.187-.068.382-.118.586-.15a4.31 4.31 0 01.655-.052m-.63 2.86c-.333.122-.554.331-.665.63-.113.298-.097.646.047 1.042.143.394.354.67.633.825.277.16.582.18.915.058.333-.12.555-.332.667-.633.11-.298.094-.644-.05-1.038-.144-.397-.354-.674-.63-.83-.279-.157-.584-.175-.917-.054M264.713 952.262l-.774.281-.34-.932.775-.282.34.933M261.408 955.846c.333-.12.556-.33.669-.63.11-.297.093-.645-.051-1.041-.143-.394-.354-.67-.63-.83-.28-.157-.585-.174-.918-.053-.333.12-.554.33-.665.628-.112.302-.096.65.047 1.043.145.397.356.673.635.83.276.157.58.175.913.053m-.626 2.86l-.246-.676c.218.02.43.02.639-.004.205-.022.4-.066.587-.134.49-.178.803-.48.943-.905.136-.423.101-.976-.105-1.658a1.554 1.554 0 01-.366.686c-.176.195-.394.34-.656.435-.55.2-1.046.19-1.486-.029-.442-.216-.768-.612-.977-1.187-.205-.562-.203-1.074.006-1.536.21-.461.59-.792 1.143-.994.634-.23 1.207-.164 1.719.198.512.365.936 1.009 1.272 1.931.315.867.36 1.632.137 2.295-.223.666-.681 1.125-1.374 1.377-.186.068-.38.118-.581.15a4.31 4.31 0 01-.655.05"/></g><g style="-inkscape-font-specification:Sans"><path style="text-align:end" d="M277.155 957.39l-2.385 1.377-.332-.575 3.207-1.852.332.575c-.105.418-.25.982-.436 1.69-.187.713-.3 1.168-.34 1.365-.077.372-.11.668-.097.886.01.222.064.416.159.58a.969.969 0 00.663.493c.285.06.578.004.88-.17.215-.124.42-.292.616-.505.194-.21.382-.47.566-.777l.398.69a6.27 6.27 0 01-.627.695 3.33 3.33 0 01-.607.464c-.523.302-1.016.412-1.478.33-.463-.082-.82-.341-1.073-.779a1.742 1.742 0 01-.223-.66c-.03-.23-.015-.53.044-.9.019-.099.089-.392.21-.88.122-.485.297-1.168.523-2.047M273.04 959.138l.36.623a3.142 3.142 0 00-.629.115c-.2.058-.385.136-.555.234-.45.26-.707.61-.77 1.05-.063.442.067.982.39 1.62.019-.27.099-.515.24-.735.14-.22.332-.4.576-.54.505-.292.993-.37 1.465-.237.47.138.858.472 1.164 1.002.3.518.386 1.023.26 1.513-.125.491-.443.883-.953 1.178-.584.337-1.159.37-1.724.098-.567-.268-1.097-.829-1.589-1.681-.46-.796-.637-1.541-.533-2.236.103-.691.474-1.22 1.112-1.59.171-.098.355-.182.55-.25a4.31 4.31 0 01.636-.164m-.123 2.927c-.307.177-.49.422-.546.734-.06.314.016.654.227 1.02.21.362.465.597.767.702.3.11.604.076.91-.102.308-.177.49-.423.548-.74.057-.312-.02-.65-.229-1.013-.21-.365-.466-.601-.765-.708-.302-.106-.606-.07-.912.107M269.085 962.428l-.714.412-.496-.86.714-.411.496.859M269.292 967.897l-2.682 1.549-.333-.576 2.057-1.187-.715-1.238c-.08.09-.164.173-.254.246a1.92 1.92 0 01-.282.199c-.564.325-1.1.429-1.608.31-.507-.119-.913-.442-1.218-.97-.314-.544-.389-1.064-.225-1.562.165-.495.555-.92 1.171-1.276.212-.122.439-.229.68-.32.24-.09.498-.167.775-.23l.396.686a3.074 3.074 0 00-1.505.432c-.39.225-.64.506-.75.843-.109.336-.062.68.141 1.033.203.351.478.564.824.638.347.074.715-.002 1.105-.227.183-.106.354-.232.513-.378.157-.145.305-.314.445-.51l1.465 2.538"/></g><g style="-inkscape-font-specification:Sans"><path style="text-align:end" d="M282.227 965.318l-2.11 1.77-.426-.509 2.837-2.38.427.509c-.03.43-.076 1.01-.136 1.74-.06.734-.093 1.202-.098 1.403-.01.38.009.676.058.89.05.216.135.398.258.543.199.238.445.36.738.37.291.01.57-.096.838-.32.19-.16.362-.36.518-.604.155-.242.295-.53.423-.864l.512.61a6.27 6.27 0 01-.497.794 3.33 3.33 0 01-.517.562c-.463.388-.93.582-1.399.582-.47 0-.866-.194-1.191-.581a1.742 1.742 0 01-.335-.612c-.07-.22-.107-.518-.113-.894.002-.1.02-.4.054-.902.036-.5.09-1.202.16-2.107M278.48 967.754l.461.55c-.212.056-.411.13-.599.223a2.519 2.519 0 00-.505.327c-.4.335-.591.724-.576 1.167.014.447.236.956.664 1.528a1.535 1.535 0 01.109-.764c.1-.241.258-.452.474-.633.447-.375.914-.537 1.401-.487.487.054.927.315 1.32.784.386.459.559.94.52 1.445-.038.505-.283.947-.734 1.325-.517.434-1.077.566-1.682.397-.604-.166-1.223-.626-1.856-1.38-.59-.704-.895-1.407-.913-2.11-.019-.698.254-1.284.819-1.758.152-.127.318-.241.498-.342.181-.1.38-.19.598-.272m.387 2.904c-.272.228-.408.5-.41.818-.004.32.13.64.4.964.27.321.563.507.878.56.315.054.608-.032.88-.26.27-.227.407-.502.41-.823.001-.318-.132-.637-.402-.958-.271-.324-.563-.512-.876-.565-.316-.052-.609.036-.88.264M275.155 971.68l-.631.53-.638-.76.631-.53.638.76M274.212 977.892l-.475-3.665-1.526 1.28 2.001 2.385m.6.394l-.76.638-2.442-2.912-.638.535-.422-.503.638-.535-.884-1.053.601-.505.884 1.054 2.017-1.693.49.584.517 4.39"/></g><g style="-inkscape-font-specification:Sans"><path style="text-align:end" d="M288.6 972.245l-1.77 2.11-.509-.428 2.38-2.836.51.426c.044.43.1 1.008.168 1.738.068.733.117 1.2.147 1.398.055.376.126.665.212.866.086.205.202.369.348.491.237.2.5.278.791.236.289-.04.545-.194.77-.461.158-.19.294-.418.405-.684.11-.265.199-.573.266-.925l.61.512a6.27 6.27 0 01-.35.869 3.324 3.324 0 01-.413.643c-.388.463-.814.735-1.276.816-.462.08-.887-.04-1.274-.366a1.742 1.742 0 01-.436-.544c-.107-.205-.195-.492-.267-.86-.016-.1-.05-.399-.103-.899-.051-.498-.12-1.199-.209-2.102M285.332 975.295l.55.462a3.142 3.142 0 00-.55.323c-.17.123-.316.26-.442.41-.335.399-.456.815-.365 1.249.092.437.399.9.92 1.389a1.535 1.535 0 01-.026-.771 1.65 1.65 0 01.357-.705c.375-.447.807-.688 1.296-.724.489-.031.967.15 1.436.543.46.385.713.83.763 1.333.05.504-.115.982-.493 1.433-.434.516-.963.744-1.587.682-.625-.058-1.314-.404-2.068-1.036-.704-.591-1.126-1.231-1.266-1.92-.14-.684.028-1.309.502-1.873.127-.152.27-.293.431-.423.16-.13.341-.255.542-.372m.885 2.792c-.228.272-.315.564-.262.877.052.315.239.609.562.88.321.27.642.402.961.398.32 0 .594-.136.821-.407.228-.271.315-.566.261-.883-.053-.313-.24-.604-.561-.874-.324-.27-.644-.406-.962-.404-.32.004-.593.142-.82.413M282.74 979.739l-.53.631-.76-.637.53-.632.76.638M281.215 984.905c-.305.237-.622.355-.954.352-.332 0-.642-.121-.93-.362-.44-.37-.654-.808-.641-1.314.013-.505.254-1.038.722-1.596.158-.188.339-.365.544-.533.202-.167.428-.326.68-.475l.583.49a2.733 2.733 0 00-.683.364 3.354 3.354 0 00-.6.563c-.318.379-.485.73-.501 1.053-.018.325.116.607.401.846.263.221.547.301.85.24.304-.059.593-.252.87-.581l.437-.521.496.417-.457.544c-.25.298-.381.574-.396.83-.012.259.093.482.317.669.23.193.473.258.732.197.26-.058.516-.239.77-.542.14-.166.27-.358.394-.578.123-.22.242-.475.357-.766l.539.452c-.129.283-.261.538-.396.764-.138.228-.28.431-.43.609-.385.459-.794.734-1.228.825-.432.094-.825-.009-1.18-.307a1.246 1.246 0 01-.45-.74c-.05-.283 0-.584.154-.9"/></g><g style="-inkscape-font-specification:Sans"><path style="text-align:end" d="M296.079 977.96l-1.377 2.384-.575-.332 1.851-3.207.575.332c.119.415.275.975.468 1.682.194.71.323 1.161.388 1.352.12.36.239.633.359.816.12.187.263.328.428.423a.969.969 0 00.82.095c.277-.09.503-.286.677-.588.124-.214.218-.462.281-.744.063-.28.096-.599.102-.957l.69.399a6.27 6.27 0 01-.195.915c-.082.272-.18.507-.295.706-.302.523-.673.864-1.115 1.025-.441.16-.88.114-1.318-.139a1.742 1.742 0 01-.524-.46c-.14-.184-.278-.45-.412-.802a26.123 26.123 0 01-.258-.866c-.136-.482-.327-1.16-.57-2.035M293.39 981.531l.622.36c-.18.124-.342.262-.487.413a2.519 2.519 0 00-.363.48c-.26.451-.308.883-.142 1.294.166.415.549.817 1.147 1.208a1.535 1.535 0 01-.16-.755 1.65 1.65 0 01.23-.756c.291-.505.675-.818 1.15-.938.476-.116.979-.02 1.509.285.518.3.846.693.982 1.181.137.488.058.986-.236 1.496-.338.584-.82.9-1.445.948-.625.05-1.364-.17-2.216-.662-.796-.46-1.323-1.016-1.58-1.67-.256-.65-.2-1.294.168-1.932.1-.172.217-.335.352-.492a4.31 4.31 0 01.469-.46m1.356 2.596c-.177.307-.212.61-.105.91.105.3.34.557.706.768.363.21.701.285 1.015.225.315-.055.561-.237.738-.543.177-.307.212-.612.104-.915-.107-.299-.342-.553-.705-.763-.365-.21-.704-.288-1.017-.23-.314.059-.56.242-.736.548M291.609 986.358l-.412.713-.86-.496.413-.714.859.497M289.711 988.988l-1.377 2.385-.575-.332 1.852-3.207.575.332c.119.414.275.975.468 1.682.194.71.323 1.16.388 1.351.12.36.239.633.358.816.121.187.264.328.428.423a.969.969 0 00.82.095c.278-.09.504-.285.678-.588.124-.214.218-.462.281-.744.062-.28.096-.599.101-.956l.69.398a6.27 6.27 0 01-.195.916c-.081.271-.18.506-.294.705-.302.523-.674.865-1.115 1.025-.441.16-.88.114-1.318-.139a1.742 1.742 0 01-.524-.46c-.14-.183-.278-.45-.412-.802a26.143 26.143 0 01-.258-.866 493.2 493.2 0 01-.57-2.034"/></g><g style="-inkscape-font-specification:Sans"><path style="text-align:end" d="M304.436 982.289l-.942 2.588-.624-.227 1.266-3.48.624.227c.19.387.44.912.753 1.575.315.666.52 1.087.617 1.264.18.334.345.581.495.741.151.163.316.277.495.342.291.106.566.09.824-.049.258-.136.446-.368.565-.696.085-.233.134-.493.148-.782a4.743 4.743 0 00-.067-.96l.75.273c.01.342 0 .654-.034.936-.033.281-.089.53-.167.745-.207.568-.514.97-.92 1.203-.407.235-.848.266-1.323.093a1.742 1.742 0 01-.595-.362c-.17-.157-.352-.396-.545-.718a26.143 26.143 0 01-.405-.809c-.218-.45-.523-1.085-.915-1.904M302.408 986.273l.675.246a3.142 3.142 0 00-.407.492 2.519 2.519 0 00-.274.536c-.179.49-.15.922.084 1.299.236.38.682.71 1.34.99a1.535 1.535 0 01-.289-.716 1.65 1.65 0 01.095-.784c.2-.549.523-.923.97-1.123.448-.197.96-.191 1.535.018.563.205.954.536 1.173.993.219.456.228.961.026 1.514-.23.634-.65 1.029-1.258 1.184-.606.159-1.372.07-2.297-.267-.864-.314-1.48-.77-1.846-1.37-.365-.595-.422-1.24-.17-1.932.068-.186.155-.368.261-.545a4.31 4.31 0 01.382-.535m1.786 2.321c-.12.333-.103.638.054.914.157.278.433.49.83.634.394.144.74.159 1.039.046.3-.11.511-.33.632-.664.121-.333.102-.639-.056-.918-.158-.276-.433-.486-.827-.63-.397-.144-.744-.16-1.042-.05-.299.113-.509.336-.63.668M301.492 991.336l-.282.774-.932-.34.282-.774.932.34M300.266 993.745l-.44 1.211 4.18 1.522.215-1.414.676.246-.213 1.407-.27.741-4.856-1.767-.44 1.21-.625-.226 1.15-3.157.623.227"/></g><g style="-inkscape-font-specification:Sans"><path style="text-align:end" d="M313.418 985.101l-.478 2.712-.654-.115.643-3.647.654.116c.253.348.591.822 1.015 1.42.425.601.7.98.826 1.137.236.298.441.513.617.645.177.134.36.218.546.25a.969.969 0 00.804-.19c.23-.18.375-.441.435-.785.043-.243.046-.509.01-.795a4.742 4.742 0 00-.232-.934l.784.139c.071.335.114.644.13.927a3.33 3.33 0 01-.035.763c-.105.595-.337 1.043-.697 1.345-.36.301-.789.408-1.286.32a1.742 1.742 0 01-.65-.253c-.195-.124-.415-.328-.661-.612-.063-.078-.243-.32-.539-.726-.293-.406-.704-.978-1.232-1.717M312.113 989.377l.708.125a3.14 3.14 0 00-.317.555 2.519 2.519 0 00-.176.576c-.09.513.012.934.308 1.264.298.333.796.58 1.492.743a1.535 1.535 0 01-.409-.655 1.65 1.65 0 01-.043-.79c.101-.574.355-.998.76-1.273.408-.272.913-.355 1.516-.249.59.104 1.032.362 1.327.774.295.411.391.907.29 1.487-.118.664-.463 1.125-1.034 1.384-.57.262-1.34.307-2.31.136-.904-.16-1.59-.502-2.055-1.028-.463-.524-.63-1.148-.502-1.874.034-.195.088-.389.162-.582.073-.193.168-.391.283-.593m2.162 1.976c-.061.349.01.645.212.89.202.247.511.408.927.48.413.074.756.029 1.031-.135.277-.16.446-.414.508-.763.061-.349-.01-.647-.216-.895-.202-.244-.51-.403-.923-.476-.416-.073-.76-.03-1.035.131-.274.163-.442.42-.504.768M312.09 994.522l-.143.811-.977-.172.143-.812.977.173M315.61 999.442c.07-.4-.074-.736-.434-1.009-.357-.269-.93-.473-1.72-.612-.787-.14-1.396-.143-1.826-.013-.429.133-.678.4-.748.8-.071.403.072.739.429 1.008.359.272.932.478 1.72.617.79.139 1.399.142 1.827.009.43-.13.68-.397.751-.8m.616.108c-.114.644-.455 1.09-1.025 1.339-.568.251-1.337.292-2.306.12-.967-.17-1.676-.47-2.126-.902-.448-.428-.615-.964-.502-1.607.114-.644.454-1.092 1.022-1.343.57-.249 1.339-.288 2.306-.117.969.17 1.678.47 2.126.898.45.431.618.969.505 1.612"/></g><g style="-inkscape-font-specification:Sans"><path style="text-align:end" d="M322.752 986.311v2.754h-.664v-3.703h.664c.31.3.725.707 1.246 1.223.523.518.86.844 1.012.976.284.253.523.429.719.528.197.101.391.152.582.152.31 0 .562-.11.757-.328.196-.216.293-.499.293-.848 0-.247-.043-.509-.129-.785a4.736 4.736 0 00-.39-.879h.797c.127.318.224.615.289.89.065.277.097.53.097.759 0 .604-.15 1.086-.453 1.445-.302.36-.705.539-1.21.539-.24 0-.468-.046-.684-.137-.214-.088-.466-.251-.758-.488a26.152 26.152 0 01-.656-.621c-.36-.35-.864-.841-1.512-1.477M324.857 992.413c0-.375-.1-.67-.3-.887-.2-.213-.477-.32-.828-.32-.352 0-.628.107-.829.32-.2.216-.3.512-.3.887s.1.67.3.887c.204.216.48.324.829.324.351 0 .627-.108.828-.324.2-.214.3-.51.3-.887m.336-.79c.084-.338.241-.602.473-.792.232-.188.514-.281.848-.281.466 0 .834.165 1.105.496.271.333.406.789.406 1.367 0 .58-.135 1.036-.406 1.367-.27.33-.64.496-1.105.496-.334 0-.616-.095-.848-.285-.232-.187-.39-.45-.473-.785-.088.38-.261.676-.52.887-.257.213-.572.32-.944.32-.566 0-1-.173-1.301-.52-.302-.343-.453-.837-.453-1.48s.15-1.138.453-1.484c.302-.344.735-.516 1.3-.516.373 0 .688.107.946.32.258.214.43.51.52.89m1.245-.288c-.302 0-.537.093-.707.281-.169.19-.253.456-.253.797 0 .338.084.603.253.793.17.193.405.289.707.289.303 0 .538-.096.707-.29.17-.19.254-.454.254-.792 0-.341-.084-.607-.254-.797-.169-.187-.404-.281-.707-.281M323.08 995.82v.823h-.992v-.824h.992M322.209 998.39h.719a3.142 3.142 0 00-.215.601c-.05.203-.074.402-.074.598 0 .52.174.918.523 1.191.352.276.884.434 1.598.473a1.534 1.534 0 01-.516-.575 1.65 1.65 0 01-.18-.769c0-.583.176-1.046.528-1.387.354-.338.837-.508 1.449-.508.599 0 1.08.178 1.441.532.362.354.543.825.543 1.414 0 .674-.259 1.189-.777 1.543-.516.356-1.266.535-2.25.535-.92 0-1.654-.219-2.203-.656-.547-.435-.82-1.021-.82-1.758 0-.198.02-.399.058-.602a4.31 4.31 0 01.176-.633m2.473 1.57c0 .355.12.635.363.84.242.209.574.313.996.313.42 0 .75-.104.992-.312.245-.206.367-.486.367-.84s-.122-.636-.367-.844c-.242-.206-.573-.309-.992-.309-.422 0-.754.103-.996.309-.242.208-.363.49-.363.844"/></g><g style="-inkscape-font-specification:Sans"><path style="text-align:end" d="M332.154 985.882l.478 2.712-.653.115-.644-3.646.654-.116c.358.241.837.57 1.44.988.605.42.994.681 1.166.786.323.2.59.331.8.395.212.065.412.082.599.049a.969.969 0 00.69-.455c.154-.247.201-.542.14-.886a2.645 2.645 0 00-.263-.75 4.737 4.737 0 00-.537-.798l.785-.139c.18.29.327.567.439.827.112.26.188.504.228.73.105.594.04 1.095-.195 1.501-.236.407-.602.654-1.1.742a1.75 1.75 0 01-.696-.016c-.226-.05-.503-.167-.831-.35-.086-.05-.337-.217-.755-.497-.414-.282-.996-.679-1.745-1.192M335.287 991.525c-.065-.369-.215-.643-.45-.82-.234-.176-.525-.233-.871-.172-.346.06-.6.214-.76.459-.16.248-.207.556-.142.925.065.37.215.643.45.821.238.178.528.237.872.176.346-.061.6-.216.76-.463.16-.245.207-.554.141-.926m.194-.835c.023-.348.133-.636.328-.863.196-.225.458-.366.786-.424.459-.081.85.018 1.175.296.324.282.537.707.637 1.276.101.572.047 1.044-.163 1.417-.209.373-.543.6-1.002.68a1.293 1.293 0 01-.884-.133c-.261-.144-.462-.375-.602-.691-.021.39-.14.71-.358.963-.217.255-.508.415-.875.48-.557.098-1.014.003-1.371-.286-.358-.286-.592-.746-.704-1.38-.111-.633-.049-1.146.189-1.54.238-.39.635-.635 1.191-.733.367-.065.696-.015.987.151.29.166.513.428.666.787m1.177-.501c-.297.052-.513.186-.647.4-.134.216-.171.493-.112.828.059.334.188.58.388.737.2.16.449.215.746.162.298-.052.513-.188.646-.407.134-.217.171-.492.113-.825-.06-.336-.19-.583-.389-.74-.2-.156-.447-.208-.745-.155M334.128 995.188l.144.812-.978.172-.143-.811.977-.173M336.614 999.05c-.065-.37-.215-.643-.45-.821-.235-.176-.525-.233-.871-.172-.347.061-.6.214-.76.46-.16.247-.208.556-.142.925.065.37.215.643.45.821.237.178.528.236.872.175.346-.06.599-.215.759-.463.16-.245.208-.553.142-.925m.194-.836c.023-.347.132-.635.328-.863.195-.224.457-.366.786-.424.459-.08.85.018 1.174.297.325.281.538.706.638 1.276.1.572.047 1.044-.163 1.417-.21.372-.543.6-1.002.68a1.293 1.293 0 01-.885-.133c-.26-.145-.461-.375-.601-.692-.022.39-.14.711-.358.964a1.433 1.433 0 01-.875.48c-.557.098-1.014.002-1.372-.286-.357-.286-.591-.746-.703-1.38-.112-.633-.049-1.147.189-1.54.237-.391.634-.636 1.191-.734.367-.064.696-.014.987.152.29.165.513.427.666.786m1.177-.5c-.298.052-.513.185-.648.4-.133.216-.17.492-.111.828.059.333.188.579.387.737.2.16.45.214.747.162.297-.053.513-.188.646-.408.134-.216.171-.491.112-.825-.059-.336-.188-.583-.388-.74-.2-.156-.448-.207-.745-.155"/></g><g style="-inkscape-font-specification:Sans"><path style="text-align:end" d="M341.34 983.827l.941 2.587-.624.228-1.266-3.48.624-.227c.393.175.923.416 1.589.722.669.308 1.097.499 1.284.572.354.14.639.224.856.25.22.027.42.009.6-.056a.97.97 0 00.6-.568c.109-.27.104-.568-.016-.896a2.643 2.643 0 00-.39-.694 4.737 4.737 0 00-.667-.692l.749-.273c.229.255.42.5.576.738.156.237.273.463.351.679.207.567.23 1.072.069 1.513-.161.44-.48.748-.954.92a1.748 1.748 0 01-.689.106c-.23-.01-.524-.077-.88-.2-.092-.035-.369-.155-.828-.359a502.3 502.3 0 01-1.926-.87M345.405 988.84c-.129-.352-.324-.596-.586-.73-.262-.132-.558-.138-.888-.018-.33.12-.553.315-.669.584-.114.272-.107.584.02.936.13.353.324.596.587.73.265.134.561.141.889.022.33-.12.553-.316.667-.588.116-.27.109-.581-.02-.936m.045-.856c-.037-.347.02-.65.173-.907.154-.256.387-.44.7-.554.439-.16.841-.13 1.21.088.368.22.65.602.848 1.146.2.545.228 1.02.086 1.423-.141.404-.43.685-.869.844a1.293 1.293 0 01-.894.023c-.282-.097-.52-.29-.713-.577.047.388-.014.725-.184 1.011-.17.29-.43.497-.78.625-.53.193-.997.178-1.4-.044-.4-.22-.711-.631-.931-1.236-.22-.604-.248-1.121-.082-1.55.166-.426.515-.736 1.046-.93.35-.127.682-.134.998-.021.315.112.58.332.792.659m1.072-.698c-.283.103-.473.272-.568.506-.094.237-.082.515.034.836.116.318.286.537.51.658.225.123.48.133.763.03.284-.104.473-.274.566-.514.094-.236.083-.514-.033-.832-.117-.32-.287-.54-.511-.662-.223-.118-.477-.125-.76-.022M344.9 992.649l.281.774-.932.34-.282-.775.932-.34M350.25 993.2l1.283 3.523-.316.115-5.889-.11-.281-.774 5.537.105-.958-2.632.624-.227"/></g><g style="-inkscape-font-specification:Sans"><path style="text-align:end" d="M350.028 980.207l1.377 2.385-.575.332-1.852-3.207.575-.332c.418.105.982.25 1.69.436.713.187 1.168.3 1.365.34.372.077.668.11.886.097a1.27 1.27 0 00.58-.159.97.97 0 00.493-.663c.06-.285.004-.578-.17-.88a2.644 2.644 0 00-.505-.616 4.734 4.734 0 00-.777-.566l.69-.398c.269.211.5.42.695.627.195.206.35.409.464.607.302.523.412 1.016.33 1.478-.082.463-.342.82-.78 1.073a1.75 1.75 0 01-.66.223c-.229.03-.529.016-.9-.044-.098-.018-.39-.088-.879-.21-.486-.122-1.168-.296-2.047-.523M354.902 984.439c-.188-.325-.422-.53-.704-.618-.28-.084-.573-.039-.877.137-.305.176-.49.406-.557.691-.066.288-.005.594.183.919.187.325.422.53.703.617.284.086.577.041.88-.133.304-.176.49-.407.555-.695.067-.285.006-.591-.183-.918m-.104-.851c-.097-.335-.093-.643.013-.923.107-.279.305-.501.594-.668.403-.233.805-.274 1.205-.123.401.153.746.48 1.035.98.29.504.401.966.332 1.388-.069.422-.305.75-.71.982-.288.167-.58.226-.876.177-.294-.046-.562-.194-.802-.443.114.373.112.716-.006 1.027a1.433 1.433 0 01-.659.75c-.49.283-.951.35-1.386.2-.434-.146-.811-.498-1.133-1.055-.321-.557-.438-1.06-.35-1.512.09-.449.38-.814.87-1.097.322-.186.648-.251.978-.195.33.056.628.227.895.512m.935-.874c-.262.151-.419.35-.472.597-.051.25.008.522.179.817.169.293.374.48.616.56.243.082.495.048.757-.103s.418-.352.468-.604c.051-.25-.008-.52-.177-.814-.17-.295-.377-.483-.618-.563-.24-.078-.491-.04-.753.11M355.066 988.277l.412.714-.86.496-.411-.713.859-.497M359.17 990.91c-.177-.307-.422-.49-.736-.55-.313-.056-.652.02-1.017.232-.363.21-.6.464-.709.765-.105.302-.07.606.108.912.177.307.422.489.734.546.316.058.656-.018 1.02-.227.364-.211.6-.468.706-.77.106-.298.071-.601-.106-.908m2.925.12l-.623.36a3.143 3.143 0 00-.114-.629 2.486 2.486 0 00-.235-.555c-.26-.45-.612-.708-1.054-.771-.441-.061-.98.07-1.615.39.273.02.52.101.74.242.221.14.402.33.54.571.294.507.37.997.23 1.469-.135.472-.468.861-.998 1.167-.52.3-1.024.387-1.514.26-.49-.125-.883-.443-1.178-.952-.337-.584-.371-1.16-.103-1.727.27-.568.83-1.097 1.68-1.588.8-.461 1.545-.639 2.237-.533.694.104 1.226.475 1.595 1.113.098.172.181.354.248.547.067.196.122.408.164.636"/></g><g style="-inkscape-font-specification:Sans"><path style="text-align:end" d="M357.956 975.135l1.77 2.11-.509.426-2.38-2.837.509-.427c.43.03 1.01.076 1.74.136.734.06 1.202.093 1.403.098.38.01.676-.008.89-.058a1.27 1.27 0 00.543-.258c.238-.199.36-.445.37-.738.01-.291-.096-.57-.32-.838a2.645 2.645 0 00-.604-.518 4.736 4.736 0 00-.864-.423l.61-.512c.302.162.567.327.794.497.227.17.415.342.562.517.388.463.582.93.582 1.399 0 .47-.194.866-.581 1.191a1.742 1.742 0 01-.612.335c-.22.07-.518.107-.894.113-.1-.001-.4-.02-.902-.054-.5-.036-1.202-.09-2.107-.16M363.49 978.455c-.24-.287-.507-.449-.8-.486-.29-.034-.57.061-.84.287-.27.226-.412.486-.429.778-.014.294.099.585.34.873.241.287.508.449.8.486.295.035.576-.06.843-.284.27-.226.412-.487.426-.781.017-.293-.097-.583-.34-.873m-.25-.82c-.153-.313-.202-.617-.147-.911.057-.293.213-.546.469-.76.357-.3.745-.41 1.165-.331.422.081.819.343 1.19.786.374.445.563.881.568 1.308.005.428-.17.791-.528 1.091a1.293 1.293 0 01-.833.326c-.298.006-.587-.093-.866-.297.176.348.234.686.172 1.013-.06.33-.233.614-.519.853-.432.363-.876.51-1.33.438-.452-.069-.885-.35-1.299-.843-.413-.492-.616-.969-.607-1.428.01-.458.232-.868.665-1.231.286-.24.596-.36.93-.362.335-.003.659.114.97.348m.77-1.023c-.232.195-.352.418-.361.67-.008.255.098.513.317.774.218.26.453.407.705.444.253.04.496-.039.727-.233.231-.194.35-.42.356-.676.007-.254-.098-.511-.315-.77-.22-.262-.455-.41-.707-.448-.25-.034-.491.045-.722.24M364.319 982.207l.53.631-.76.638-.53-.631.76-.638M369.668 981.053l1.991 2.373-.508.427-1.527-1.82-1.095.92c.103.062.199.132.287.208.09.074.17.155.244.243.419.499.614 1.008.585 1.529-.03.52-.277.977-.744 1.368-.48.404-.98.568-1.499.493-.516-.077-1.003-.387-1.46-.932a4.647 4.647 0 01-.434-.615c-.13-.22-.25-.46-.36-.721l.607-.51a3.075 3.075 0 00.686 1.407c.29.345.61.543.96.592.351.049.682-.057.993-.318.311-.261.473-.569.486-.923.012-.353-.126-.703-.416-1.048a2.908 2.908 0 00-.46-.44 3.334 3.334 0 00-.58-.35l2.244-1.883"/></g><g style="-inkscape-font-specification:Sans"><path style="text-align:end" d="M364.882 968.762l2.11 1.77-.427.509-2.837-2.38.427-.509a152.6 152.6 0 011.738-.169c.733-.068 1.2-.117 1.398-.147.376-.055.665-.126.866-.212a1.27 1.27 0 00.491-.348.969.969 0 00.236-.791c-.04-.289-.194-.545-.461-.77a2.645 2.645 0 00-.685-.405 4.736 4.736 0 00-.924-.266l.512-.61c.326.106.615.223.868.35.254.128.468.266.644.413.463.388.734.814.816 1.276.08.462-.041.887-.366 1.274a1.742 1.742 0 01-.544.436c-.205.107-.492.196-.861.267-.099.016-.398.05-.898.103-.498.051-1.199.12-2.103.21M370.91 971.071c-.287-.24-.578-.354-.873-.34-.292.017-.551.16-.777.43-.226.268-.322.549-.287.84.036.292.198.559.486.8.287.24.578.354.872.34.296-.017.557-.16.78-.427.227-.269.321-.55.285-.842-.035-.291-.197-.558-.486-.8m-.389-.765c-.205-.282-.307-.572-.303-.872.005-.298.115-.575.33-.83.299-.357.662-.533 1.09-.528.43.007.865.196 1.308.567.445.374.707.77.786 1.19.08.42-.03.81-.33 1.166-.214.256-.469.41-.763.466-.293.057-.595.01-.906-.142.235.312.35.634.346.968-.003.334-.123.644-.363.93-.363.432-.774.653-1.234.662-.457.01-.932-.191-1.425-.604-.493-.414-.775-.848-.846-1.302-.07-.452.078-.895.441-1.328.24-.285.524-.458.853-.518.33-.06.668-.002 1.016.175m.58-1.14c-.194.23-.274.471-.24.722.038.252.187.487.448.706.26.218.516.323.77.316.257-.006.482-.125.677-.356.194-.232.271-.474.233-.728-.037-.251-.185-.486-.445-.704-.26-.22-.519-.325-.773-.318-.253.01-.476.13-.67.361M372.377 974.622l.631.53-.638.76-.631-.53.638-.76M378.658 974.472l-3.528 1.104 1.526 1.28 2.002-2.384m.283-.66l.76.638-2.443 2.912.637.534-.422.503-.637-.535-.884 1.054-.601-.505.884-1.053-2.017-1.693.49-.583 4.233-1.272"/></g><g style="-inkscape-font-specification:Sans"><path style="text-align:end" d="M370.597 961.284l2.385 1.377-.332.575-3.207-1.852.332-.575c.415-.119.975-.275 1.682-.468a32.4 32.4 0 001.352-.388c.36-.12.632-.239.816-.358a1.27 1.27 0 00.423-.428.969.969 0 00.095-.82c-.09-.278-.286-.504-.588-.678a2.645 2.645 0 00-.745-.281 4.736 4.736 0 00-.956-.101l.398-.69c.34.048.645.113.916.195.272.081.507.18.705.294.524.302.865.674 1.026 1.115.16.441.114.88-.14 1.318-.119.208-.272.382-.46.524-.183.14-.45.278-.801.412-.094.033-.383.119-.866.258-.482.136-1.16.327-2.035.57M376.934 962.511c-.325-.187-.63-.248-.918-.183-.285.067-.516.253-.692.557-.175.305-.22.597-.136.877.087.282.293.517.617.704.325.188.631.249.919.183.288-.068.52-.253.694-.555.176-.304.22-.597.134-.88-.085-.28-.29-.514-.618-.703m-.515-.685c-.252-.242-.402-.51-.45-.806a1.305 1.305 0 01.18-.875c.233-.404.56-.64.982-.71.424-.067.886.043 1.387.332.503.29.83.636.981 1.036.151.4.11.802-.123 1.205-.167.289-.39.486-.67.592-.28.107-.585.112-.917.017.285.266.454.564.508.893.056.33-.009.656-.195.979-.283.49-.65.778-1.1.866-.45.09-.952-.026-1.51-.347-.556-.322-.91-.7-1.058-1.135-.147-.433-.079-.895.204-1.384.186-.323.436-.542.75-.659.314-.116.657-.118 1.03-.004m.374-1.224c-.152.261-.188.512-.11.753.08.241.267.448.563.618.293.17.564.228.813.177.252-.05.453-.206.604-.468.151-.262.186-.514.103-.757-.08-.242-.266-.447-.56-.616-.295-.17-.567-.23-.816-.179-.247.053-.446.21-.597.472M378.995 965.753l.714.412-.496.86-.714-.412.496-.86M384.348 966.358c.286.259.457.551.512.878.057.328-.008.654-.195.979-.288.498-.682.785-1.182.86-.5.075-1.067-.07-1.698-.435a4.055 4.055 0 01-.62-.443c-.199-.17-.394-.365-.585-.586l.38-.66c.126.22.286.423.479.61.192.186.412.35.658.493.428.247.803.35 1.124.31.323-.039.578-.22.764-.542.172-.297.201-.59.088-.878-.11-.29-.351-.541-.723-.756l-.589-.34.324-.561.616.355c.336.194.632.276.887.246.256-.033.457-.175.603-.428.15-.26.172-.51.066-.755-.102-.246-.324-.467-.667-.665a3.745 3.745 0 00-.637-.287 6.342 6.342 0 00-.817-.219l.352-.609c.3.078.575.164.82.258.25.095.474.201.675.317.519.3.86.655 1.026 1.066.167.41.134.814-.097 1.216-.162.28-.378.47-.65.572-.271.099-.576.1-.914.004"/></g><g style="-inkscape-font-specification:Sans"><path style="text-align:end" d="M374.927 952.926l2.588.942-.228.624-3.48-1.266.228-.624c.387-.19.912-.44 1.575-.753.666-.315 1.087-.52 1.264-.617.334-.18.581-.345.741-.495a1.27 1.27 0 00.342-.495.969.969 0 00-.049-.824c-.136-.257-.368-.446-.696-.565a2.645 2.645 0 00-.782-.148 4.742 4.742 0 00-.96.067l.273-.749c.342-.011.654 0 .936.033.281.033.53.089.745.167.568.207.969.514 1.203.92.235.407.266.848.093 1.323a1.742 1.742 0 01-.363.595c-.156.17-.395.352-.718.546-.087.048-.356.183-.808.404-.45.218-1.085.523-1.904.915M381.38 953.035c-.352-.129-.664-.135-.936-.02-.269.114-.464.337-.584.668-.12.33-.114.626.018.887.134.263.378.458.73.586.353.129.665.135.936.021.273-.117.469-.34.588-.667.12-.33.113-.627-.021-.89-.132-.26-.376-.456-.73-.585m-.627-.586c-.29-.194-.484-.432-.584-.715a1.305 1.305 0 01.026-.893c.16-.438.44-.728.844-.87.406-.14.88-.111 1.424.087.546.198.928.482 1.146.85.218.367.247.77.088 1.208-.114.313-.3.546-.558.699-.255.153-.555.212-.9.175.328.213.546.477.656.792.113.315.105.648-.022.998-.194.53-.505.879-.933 1.044-.427.166-.942.14-1.547-.08-.604-.22-1.017-.532-1.24-.934-.22-.401-.232-.868-.039-1.399.127-.35.335-.609.624-.778.29-.17.627-.23 1.015-.184m.154-1.27c-.103.284-.095.538.023.76.12.225.341.395.662.512.318.116.595.127.832.033.239-.093.41-.282.513-.566.104-.284.094-.538-.03-.763-.12-.224-.34-.394-.658-.51-.32-.117-.599-.128-.835-.034-.235.095-.403.284-.507.568M383.973 955.87l.775.282-.34.932-.774-.282.34-.932M386.893 957.282l2.588.942-.227.624-3.48-1.267.227-.624c.388-.189.913-.44 1.575-.753.666-.314 1.088-.52 1.264-.616.334-.18.582-.346.741-.495a1.27 1.27 0 00.343-.495.969.969 0 00-.05-.825c-.136-.257-.368-.445-.696-.565a2.645 2.645 0 00-.782-.147 4.742 4.742 0 00-.96.066l.273-.749c.342-.01.654 0 .936.033.282.034.53.09.746.168.567.206.968.513 1.203.92.234.407.265.847.092 1.322a1.742 1.742 0 01-.362.596c-.156.17-.396.352-.718.545-.087.049-.357.183-.808.404-.451.219-1.086.524-1.905.916"/></g><g style="-inkscape-font-specification:Sans"><path style="text-align:end" d="M377.74 943.944l2.711.478-.115.654-3.647-.643.115-.654c.35-.253.823-.591 1.42-1.014a32.4 32.4 0 001.138-.827c.298-.236.513-.441.644-.616a1.27 1.27 0 00.252-.547.969.969 0 00-.192-.803c-.179-.23-.44-.376-.784-.436a2.645 2.645 0 00-.796-.01 4.736 4.736 0 00-.933.232l.138-.784a6.27 6.27 0 01.928-.13c.283-.016.537-.005.763.035.595.105 1.043.337 1.345.697.301.36.408.789.32 1.286a1.742 1.742 0 01-.253.65c-.124.195-.329.415-.613.661-.077.063-.319.243-.725.539-.406.293-.978.704-1.717 1.232M384.114 942.93c-.37-.065-.678-.017-.926.143-.245.16-.398.413-.46.76-.06.346-.003.636.173.87.178.236.451.386.82.45.37.066.678.018.926-.141.248-.163.403-.416.463-.76.061-.346.003-.637-.175-.872-.176-.234-.45-.384-.821-.45m-.72-.468c-.318-.14-.55-.341-.698-.603a1.305 1.305 0 01-.13-.883c.081-.46.308-.794.68-1.003.376-.209.848-.263 1.418-.163.572.101.997.314 1.276.638.278.324.377.716.296 1.175-.058.328-.2.59-.428.785-.225.196-.51.305-.855.33.359.152.62.374.783.665.165.29.216.62.151.986-.098.557-.344.954-.737 1.191-.391.238-.903.301-1.537.19-.633-.112-1.094-.347-1.383-.705-.286-.357-.38-.814-.282-1.37.065-.367.225-.659.48-.876.255-.216.577-.335.967-.357m-.068-1.277c-.053.298-.001.546.154.745.158.2.405.33.74.389.334.058.609.021.826-.113.219-.133.355-.348.407-.646.052-.297-.002-.546-.162-.746-.158-.2-.403-.33-.737-.388-.336-.06-.612-.022-.829.112-.214.134-.347.35-.4.647M387.16 945.272l.811.143-.172.977-.812-.143.173-.977M389.745 946.061l1.27.224.772-4.382-1.43.034.125-.708 1.423-.035.777.137-.898 5.09 1.27.224-.116.654-3.308-.584.115-.654"/></g></g></g></svg>