<svg xmlns="http://www.w3.org/2000/svg" xmlns:xlink="http://www.w3.org/1999/xlink" width="400.667" height="400.666"><defs><linearGradient id="a"><stop offset="0" stop-color="#969696"/><stop offset="1"/></linearGradient><linearGradient id="b"><stop offset="0" stop-color="#bcb8ae"/><stop offset="1" stop-color="#5f5a4f"/></linearGradient><linearGradient id="c"><stop offset="0" stop-color="#7d7d7d"/><stop offset="1" stop-opacity=".984"/></linearGradient><linearGradient id="d"><stop offset="0" stop-color="#ff3506"/><stop offset=".5" stop-color="#c22500"/><stop offset="1" stop-color="#ff3506"/></linearGradient><linearGradient id="e"><stop offset="0" stop-color="#5e5e5e"/><stop offset="1" stop-color="#272727"/></linearGradient><linearGradient id="f"><stop offset="0" stop-color="#191919"/><stop offset="1" stop-opacity="0"/></linearGradient><linearGradient id="g"><stop offset="0" stop-color="#9fa5d3"/><stop offset="1" stop-color="#5c6994"/></linearGradient><linearGradient id="h"><stop offset="0" stop-color="#5d4625"/><stop offset="1" stop-color="#af814b"/></linearGradient><linearGradient id="i"><stop offset="0" stop-color="#373737" stop-opacity=".369"/><stop offset="1" stop-color="#e1e1e1" stop-opacity=".235"/></linearGradient><linearGradient id="j"><stop offset="0" stop-color="#4b4b4b"/><stop offset=".567" stop-color="#7d7d7d"/><stop offset="1" stop-color="#4b4b4b"/></linearGradient><linearGradient id="k"><stop offset="0" stop-color="#c0ba08"/><stop offset=".5" stop-color="#f8f35c"/><stop offset="1" stop-color="#bfba09"/></linearGradient><linearGradient id="l"><stop offset="0" stop-color="#404040"/><stop offset=".5" stop-color="#505050"/><stop offset="1" stop-color="#404040"/></linearGradient><linearGradient id="m"><stop offset="0" stop-color="#191919"/><stop offset="1" stop-color="#2d2d2d"/></linearGradient><linearGradient id="n"><stop offset="0" stop-color="#4c4c4c"/><stop offset="1" stop-opacity="0"/></linearGradient><linearGradient id="o"><stop offset="0" stop-color="#202020"/><stop offset="1" stop-color="#5d5d5d"/></linearGradient><linearGradient id="p"><stop offset="0" stop-color="#e3e4f3"/><stop offset="1" stop-color="#8491b4"/></linearGradient><linearGradient id="q"><stop offset="0" stop-color="#987440"/><stop offset="1" stop-color="#d5bb9b"/></linearGradient><linearGradient xlink:href="#p" id="s" gradientUnits="userSpaceOnUse" x1="282.666" y1="92.274" x2="282.666" y2="25.104"/><linearGradient xlink:href="#q" id="t" gradientUnits="userSpaceOnUse" gradientTransform="matrix(1 0 0 -1 0 184.548)" x1="282.666" y1="92.274" x2="282.666" y2="25.104"/><filter id="r" x="-.01" width="1.02" y="-.015" height="1.03" color-interpolation-filters="sRGB"><feGaussianBlur stdDeviation=".946"/></filter></defs><path d="M-420.362-62.272c-62.083 0-112.41 34.34-112.41 76.702 0 42.36 50.327 76.703 112.41 76.703 62.082 0 112.41-34.342 112.41-76.703 0-42.362-50.328-76.702-112.41-76.702z" transform="matrix(1.11067 0 0 1.11067 667.603 183.945)" stroke="#000" stroke-width=".75" filter="url(#r)"/><path d="M350.185 92.274H215.147c0-37.29 30.23-67.519 67.519-67.519 37.29 0 67.519 30.23 67.519 67.519z" fill="url(#s)" transform="matrix(1.84913 0 0 1.26173 -321.97 83.547)"/><path d="M350.185 92.274H215.147c0 37.29 30.23 67.519 67.519 67.519 37.29 0 67.519-30.23 67.519-67.519z" fill="url(#t)" transform="matrix(1.84913 0 0 1.26173 -321.97 83.547)"/><path d="M305.814 245.84a87.13 87.13 0 002.57-2.887h-42.468v2.888h39.898zM95.623 245.84a87.13 87.13 0 01-2.57-2.887h42.467v2.888H95.623zM75.923 198.027a31.221 31.221 0 000 3.887H325.4c.089-1.305.073-2.6 0-3.887H75.923z" fill="#fff"/><path d="M187.323 165.206v2.887h26.791v-2.887h-26.791z"/><g style="line-height:125%" font-weight="400" font-size="12.637" font-family="FreeSans" letter-spacing="-.4" word-spacing="0" fill="#fff"><path d="M230.066 220.326h-1.819v-.722q1.182-.15 1.541-.413.36-.264.626-1.204h.672v8.13h-1.02v-5.79zM233.646 222.184q0-1.02.174-1.8t.44-1.216q.267-.447.638-.722.37-.275.707-.367.347-.092.73-.092 2.688 0 2.688 4.266 0 2.007-.695 3.073-.684 1.055-1.993 1.055-1.321 0-2.005-1.066-.684-1.078-.684-3.13zm4.334-.023q0-3.28-1.645-3.28-1.646 0-1.646 3.315 0 3.348 1.622 3.348.858 0 1.263-.826.406-.825.406-2.557z" style="-inkscape-font-specification:FreeSans"/></g><g style="line-height:125%" font-weight="400" font-size="12.637" font-family="FreeSans" letter-spacing="-.4" word-spacing="0" fill="#fff"><path d="M253.61 243.022q.08-2.821 2.683-2.821 1.158 0 1.88.665.723.665.723 1.72 0 1.513-1.72 2.454l-1.147.619q-.745.401-1.066.78-.321.378-.401.894h4.277v.998h-5.413q.07-1.342.54-2.064.47-.734 1.742-1.457l1.055-.596q1.101-.63 1.101-1.605 0-.654-.459-1.09-.458-.435-1.146-.435-1.525 0-1.64 1.938h-1.01zM259.55 244.398q0-1.021.172-1.8.172-.78.435-1.216.264-.447.631-.723.367-.275.7-.367.344-.091.722-.091 2.66 0 2.66 4.265 0 2.007-.688 3.074-.676 1.055-1.972 1.055-1.307 0-1.984-1.067-.676-1.078-.676-3.13zm4.288-.023q0-3.28-1.628-3.28t-1.628 3.314q0 3.349 1.605 3.349.849 0 1.25-.826t.401-2.557z" style="-inkscape-font-specification:FreeSans"/></g><g style="line-height:125%" font-weight="400" font-size="12.637" font-family="FreeSans" letter-spacing="-.4" word-spacing="0"><path style="-inkscape-font-specification:FreeSans" d="M234.428 175.9h-1.8v-.723q1.17-.149 1.525-.413t.62-1.204h.664v8.13h-1.009v-5.79zM237.971 177.757q0-1.02.172-1.8t.436-1.216q.264-.447.63-.722.368-.275.7-.367.344-.092.723-.092 2.66 0 2.66 4.266 0 2.007-.688 3.073-.676 1.055-1.972 1.055-1.307 0-1.984-1.066-.677-1.078-.677-3.13zm4.29-.023q0-3.28-1.63-3.28-1.628 0-1.628 3.315 0 3.348 1.606 3.348.848 0 1.25-.826.401-.825.401-2.557z"/></g><g style="line-height:125%" font-weight="400" font-size="12.637" font-family="FreeSans" letter-spacing="-.4" word-spacing="0"><path style="-inkscape-font-specification:FreeSans" d="M232.07 154.167q.08-2.82 2.684-2.82 1.158 0 1.88.664.723.665.723 1.72 0 1.514-1.72 2.455l-1.147.619q-.746.401-1.067.78-.32.378-.401.894h4.277v.998h-5.412q.068-1.342.539-2.064.47-.734 1.743-1.457l1.055-.596q1.1-.63 1.1-1.606 0-.653-.458-1.089-.459-.436-1.147-.436-1.525 0-1.64 1.938h-1.009zM238.01 155.543q0-1.02.172-1.8t.436-1.216q.264-.447.63-.722.367-.275.7-.367.344-.092.722-.092 2.66 0 2.66 4.266 0 2.007-.687 3.074-.677 1.055-1.973 1.055-1.307 0-1.983-1.067-.677-1.078-.677-3.13zm4.289-.022q0-3.28-1.629-3.28-1.628 0-1.628 3.314 0 3.349 1.606 3.349.848 0 1.25-.826.4-.826.4-2.557z"/></g><path d="M175.314 220.74v2.887h50.809v-2.887h-50.809zM320.566 223.627c.41-.951.748-1.922 1.11-2.887h-81.043v2.887h79.933zM149.423 242.953v2.888h102.59v-2.888h-102.59z" fill="#fff"/><path d="M171.774 154.1v2.887H229.663v-2.888H171.774zM171.774 176.313v2.887H229.663v-2.887H171.774zM187.323 187.42v2.887h26.791v-2.887h-26.791z"/><path d="M201.295 199.435l-.577.536v1.167l65.398 71.302c1.034-.435 2.103-.835 3.117-1.29l-67.938-71.715z" fill="#fff"/><path d="M201.022 199.244l-.304.727v.857l105.137 44.967a87.139 87.139 0 002.417-2.716l-107.25-43.835z" fill="#fff"/><g style="line-height:125%" font-weight="400" font-size="12.637" font-family="FreeSans" letter-spacing="-.4" word-spacing="0" fill="#fff"><path style="-inkscape-font-specification:FreeSans" d="M164.233 220.326h-1.82v-.722q1.183-.15 1.542-.413.359-.264.625-1.204h.673v8.13h-1.02v-5.79zM167.813 222.184q0-1.02.174-1.8t.44-1.216q.267-.447.637-.722.371-.275.707-.367.348-.092.73-.092 2.688 0 2.688 4.266 0 2.007-.695 3.073-.683 1.055-1.993 1.055-1.32 0-2.004-1.066-.684-1.078-.684-3.13zm4.334-.023q0-3.28-1.646-3.28-1.645 0-1.645 3.315 0 3.348 1.622 3.348.858 0 1.263-.826.406-.825.406-2.557z"/></g><g style="line-height:125%" font-weight="400" font-size="12.637" font-family="FreeSans" letter-spacing="-.4" word-spacing="0" fill="#fff"><path style="-inkscape-font-specification:FreeSans" d="M136.75 243.022q.08-2.821 2.683-2.821 1.158 0 1.88.665.723.665.723 1.72 0 1.513-1.72 2.454l-1.147.619q-.745.401-1.066.78-.321.378-.402.894h4.278v.998h-5.413q.069-1.342.539-2.064.47-.734 1.743-1.457l1.055-.596q1.1-.63 1.1-1.605 0-.654-.458-1.09-.459-.435-1.147-.435-1.525 0-1.64 1.938h-1.008zM142.69 244.398q0-1.021.171-1.8.172-.78.436-1.216.264-.447.63-.723.368-.275.7-.367.344-.091.723-.091 2.66 0 2.66 4.265 0 2.007-.688 3.074-.676 1.055-1.972 1.055-1.307 0-1.984-1.067-.677-1.078-.677-3.13zm4.288-.023q0-3.28-1.628-3.28-1.629 0-1.629 3.314 0 3.349 1.606 3.349.848 0 1.25-.826.401-.826.401-2.557z"/></g><g style="line-height:125%" font-weight="400" font-size="12.637" font-family="FreeSans" letter-spacing="-.4" word-spacing="0"><path d="M160.686 175.9h-1.8v-.723q1.169-.149 1.525-.413.355-.264.619-1.204h.665v8.13h-1.01v-5.79zM164.229 177.757q0-1.02.172-1.8t.436-1.216q.263-.447.63-.722.367-.275.7-.367.344-.092.722-.092 2.66 0 2.66 4.266 0 2.007-.687 3.073-.677 1.055-1.973 1.055-1.307 0-1.983-1.066-.677-1.078-.677-3.13zm4.289-.023q0-3.28-1.629-3.28-1.628 0-1.628 3.315 0 3.348 1.605 3.348.849 0 1.25-.826.402-.825.402-2.557z" style="-inkscape-font-specification:FreeSans"/></g><g style="line-height:125%" font-weight="400" font-size="12.637" font-family="FreeSans" letter-spacing="-.4" word-spacing="0"><path d="M158.29 154.167q.08-2.82 2.683-2.82 1.158 0 1.88.664.723.665.723 1.72 0 1.514-1.72 2.455l-1.147.619q-.746.401-1.067.78-.32.378-.401.894h4.277v.998h-5.412q.068-1.342.539-2.064.47-.734 1.743-1.457l1.055-.596q1.1-.63 1.1-1.606 0-.653-.458-1.089-.459-.436-1.147-.436-1.525 0-1.64 1.938h-1.009zM164.23 155.543q0-1.02.171-1.8.172-.78.436-1.216.264-.447.63-.722.367-.275.7-.367.344-.092.722-.092 2.66 0 2.66 4.266 0 2.007-.687 3.074-.677 1.055-1.973 1.055-1.307 0-1.983-1.067-.677-1.078-.677-3.13zm4.288-.022q0-3.28-1.629-3.28-1.628 0-1.628 3.314 0 3.349 1.606 3.349.848 0 1.25-.826.4-.826.4-2.557z" style="-inkscape-font-specification:FreeSans"/></g><path d="M80.87 223.627c-.41-.951-.747-1.922-1.109-2.887h81.042v2.887H80.871zM200.141 199.435l.577.536v1.167l-65.397 71.302c-1.035-.435-2.104-.835-3.118-1.29l67.938-71.715z" fill="#fff"/><path d="M200.414 199.244l.304.727v.857L95.582 245.795a87.139 87.139 0 01-2.417-2.716l107.25-43.835z" fill="#fff"/><path d="M200.718 114.781c-68.953 0-124.851 38.14-124.851 85.19s55.897 85.192 124.85 85.192c68.954 0 124.852-38.143 124.852-85.192 0-47.05-55.898-85.19-124.851-85.19z" fill="none" stroke="#000" stroke-width=".8330025000000001"/></svg>