<svg xmlns="http://www.w3.org/2000/svg" xmlns:xlink="http://www.w3.org/1999/xlink" height="400.666" width="400.667"><defs><linearGradient id="a"><stop offset="0" stop-color="#969696"/><stop offset="1"/></linearGradient><linearGradient id="b"><stop offset="0" stop-color="#bcb8ae"/><stop offset="1" stop-color="#5f5a4f"/></linearGradient><linearGradient id="i"><stop offset="0" stop-color="#4b4b4b"/><stop offset=".567" stop-color="#7d7d7d"/><stop offset="1" stop-color="#4b4b4b"/></linearGradient><linearGradient id="c"><stop offset="0" stop-color="#7d7d7d"/><stop offset="1" stop-opacity=".984"/></linearGradient><linearGradient id="j"><stop offset="0" stop-color="#404040"/><stop offset=".5" stop-color="#505050"/><stop offset="1" stop-color="#404040"/></linearGradient><linearGradient id="d"><stop offset="0" stop-color="#ff3506"/><stop offset=".5" stop-color="#c22500"/><stop offset="1" stop-color="#ff3506"/></linearGradient><linearGradient id="e"><stop offset="0" stop-color="#5e5e5e"/><stop offset="1" stop-color="#272727"/></linearGradient><linearGradient id="f"><stop offset="0" stop-color="#191919"/><stop offset="1" stop-opacity="0"/></linearGradient><linearGradient id="g"><stop offset="0" stop-color="#9fa5d3"/><stop offset="1" stop-color="#5c6994"/></linearGradient><linearGradient id="h"><stop offset="0" stop-color="#5d4625"/><stop offset="1" stop-color="#af814b"/></linearGradient><linearGradient y2="-176.404" x2="592.073" y1="-176.404" x1="463.909" gradientTransform="matrix(-1 0 0 1 1055.983 0)" gradientUnits="userSpaceOnUse" id="l" xlink:href="#d"/><linearGradient gradientUnits="userSpaceOnUse" y2="-176.404" x2="592.073" y1="-176.404" x1="463.909" id="o" xlink:href="#d"/><linearGradient y2="-159.008" x2="548.709" y1="-159.008" x1="507.272" gradientUnits="userSpaceOnUse" id="n" xlink:href="#j"/><linearGradient xlink:href="#d" id="m" gradientUnits="userSpaceOnUse" x1="463.909" y1="-176.404" x2="592.073" y2="-176.404"/><filter height="1.195" y="-.097" width="1.087" x="-.043" id="k" color-interpolation-filters="sRGB"><feGaussianBlur stdDeviation="2.315"/></filter></defs><g filter="url(#k)" transform="matrix(1.11067 0 0 1.11067 -385.923 406.726)"><path d="M509.534-189.574v3.422c0 3.335.9 6.455 2.45 9.152-.58-.026-2.793 1.132-4.708 1.477a23.23 23.23 0 01-2.254-6.801H463.91v-7.25h45.625zM546.448-189.574v3.422c0 3.335-.9 6.455-2.449 9.152.58-.026 2.792 1.132 4.707 1.477a23.23 23.23 0 002.254-6.801h41.113v-7.25h-45.625z"/><path d="M525.408-183.762v15.867a18.476 18.476 0 01-13.57-9.332c-2.166.746-2.62.876-4.567 1.703a23.27 23.27 0 0016.575 12.29v29.177h8.289v-29.178a23.27 23.27 0 0016.574-12.289c-1.946-.827-2.4-.957-4.567-1.703a18.476 18.476 0 01-13.57 9.332v-15.867z"/><path d="M527.99-191.074a4.923 4.923 0 10.002 9.846 4.923 4.923 0 00-.003-9.846z"/></g><g stroke="#000" stroke-width=".5"><path d="M509.534-189.574v3.422c0 3.335.9 6.455 2.45 9.152-.58-.026-2.793 1.132-4.708 1.477a23.23 23.23 0 01-2.254-6.801H463.91v-7.25h45.625z" fill="url(#l)" transform="matrix(1.11067 0 0 1.11067 -385.923 406.726)"/><path d="M546.448-189.574v3.422c0 3.335-.9 6.455-2.449 9.152.58-.026 2.792 1.132 4.707 1.477a23.23 23.23 0 002.254-6.801h41.113v-7.25h-45.625z" fill="url(#m)" transform="matrix(1.11067 0 0 1.11067 -385.923 406.726)"/><path d="M525.408-183.762v15.867a18.476 18.476 0 01-13.57-9.332c-2.166.746-2.62.876-4.567 1.703a23.27 23.27 0 0016.575 12.29v29.177h8.289v-29.178a23.27 23.27 0 0016.574-12.289c-1.946-.827-2.4-.957-4.567-1.703a18.476 18.476 0 01-13.57 9.332v-15.867z" fill="url(#n)" transform="matrix(1.11067 0 0 1.11067 -385.923 406.726)"/><path d="M527.99-191.074a4.923 4.923 0 10.002 9.846 4.923 4.923 0 00-.003-9.846z" fill="url(#o)" transform="matrix(1.11067 0 0 1.11067 -385.923 406.726)"/></g></svg>