<svg xmlns="http://www.w3.org/2000/svg" xmlns:xlink="http://www.w3.org/1999/xlink" height="400.666" width="400.667"><defs><linearGradient id="a"><stop offset="0" stop-color="#969696"/><stop offset="1"/></linearGradient><linearGradient id="b"><stop offset="0" stop-color="#bcb8ae"/><stop offset="1" stop-color="#5f5a4f"/></linearGradient><linearGradient id="c"><stop offset="0" stop-color="#7d7d7d"/><stop offset="1" stop-opacity=".984"/></linearGradient><linearGradient id="d"><stop offset="0" stop-color="#ff3506"/><stop offset=".5" stop-color="#c22500"/><stop offset="1" stop-color="#ff3506"/></linearGradient><linearGradient id="e"><stop offset="0" stop-color="#5e5e5e"/><stop offset="1" stop-color="#272727"/></linearGradient><linearGradient id="f"><stop offset="0" stop-color="#191919"/><stop offset="1" stop-opacity="0"/></linearGradient><linearGradient id="g"><stop offset="0" stop-color="#9fa5d3"/><stop offset="1" stop-color="#5c6994"/></linearGradient><linearGradient id="h"><stop offset="0" stop-color="#5d4625"/><stop offset="1" stop-color="#af814b"/></linearGradient><radialGradient xlink:href="#c" id="j" gradientUnits="userSpaceOnUse" gradientTransform="translate(-26.073 -296.663) scale(1.77552)" cx="276.832" cy="124.899" fx="276.832" fy="124.899" r="2.166"/><radialGradient xlink:href="#c" id="k" gradientUnits="userSpaceOnUse" gradientTransform="translate(3.017 -296.662) scale(1.77552)" cx="276.832" cy="124.899" fx="276.832" fy="124.899" r="2.166"/><radialGradient xlink:href="#c" id="l" gradientUnits="userSpaceOnUse" gradientTransform="translate(-26.074 -296.662) scale(1.77552)" cx="276.832" cy="124.899" fx="276.832" fy="124.899" r="2.166"/><radialGradient xlink:href="#c" id="m" gradientUnits="userSpaceOnUse" gradientTransform="translate(3.017 -296.662) scale(1.77552)" cx="276.832" cy="124.899" fx="276.832" fy="124.899" r="2.166"/><filter height="1.044" y="-.022" width="1.19" x="-.095" id="i" color-interpolation-filters="sRGB"><feGaussianBlur stdDeviation=".9"/></filter></defs><path d="M577.393-227c20.587 23.071 33.109 53.494 33.109 86.848 0 0 .325 2.341 5.562 2.341 5.238 0 5.561-2.341 5.561-2.341 0-32.734-11.116-62.865-29.766-86.848h-14.466z" transform="matrix(1.05935 .33374 -.33374 1.05935 -373.317 157.397)" filter="url(#i)"/><path d="M314.1 109.62c14.11 31.312 17.221 67.719 6.09 103.052 0 0-.437 2.59 5.112 4.338 5.548 1.748 6.672-.626 6.672-.626 10.924-34.676 9.204-70.305-2.548-101.935L314.1 109.62z" fill="#e22d03" stroke="#000" stroke-width=".555335"/><g font-weight="400" font-family="sans-serif" letter-spacing="0" word-spacing="0"><path style="line-height:125%" d="M333.347 169.798c-1.17-.044-2.13.557-2.881 1.805-.747 1.243-1.162 2.932-1.243 5.07-.08 2.139.205 3.857.856 5.152.654 1.295 1.566 1.963 2.737 2.007 1.167.044 2.124-.553 2.87-1.795.747-1.248 1.162-2.94 1.243-5.072.08-2.139-.205-3.854-.856-5.15-.65-1.3-1.56-1.973-2.726-2.017zm-.076 1.944c.622.023 1.096.497 1.424 1.419.33.922.467 2.167.408 3.735-.06 1.561-.29 2.788-.69 3.682-.395.895-.904 1.331-1.526 1.308-.621-.024-1.098-.497-1.431-1.42-.33-.922-.465-2.162-.406-3.724.06-1.567.288-2.799.687-3.693.401-.895.913-1.331 1.534-1.307z"/><path d="M328.808 184.6l7.666 1.33-.264 1.518-5.86-1.016-.682 3.93 5.289.918-.264 1.519-5.289-.917-1.105 6.37-1.805-.313 2.314-13.34zM326.462 199.16l7.55 1.876-.371 1.497-5.773-1.435-.963 3.872 5.21 1.295-.371 1.496-5.21-1.295-1.56 6.275-1.777-.442 3.265-13.139z" font-size="16.721"/></g></svg>