<svg xmlns:osb="http://www.openswatchbook.org/uri/2009/osb" xmlns="http://www.w3.org/2000/svg" xmlns:xlink="http://www.w3.org/1999/xlink" width="400.667" height="400.666"><defs><linearGradient osb:paint="gradient" id="a"><stop offset="0" stop-color="#2d2d2d"/><stop offset="1"/></linearGradient><linearGradient y2="187.362" x2="191.429" y1="109.998" x1="106.397" gradientUnits="userSpaceOnUse" id="b" xlink:href="#a" gradientTransform="matrix(.60261 0 0 .60261 168.746 146.734)"/></defs><path d="M352.974 259.64c0 38.036-30.834 68.87-68.87 68.87s-68.87-30.834-68.87-68.87c0-38.035 30.834-68.87 68.87-68.87s68.87 30.835 68.87 68.87z" fill="url(#b)" fill-rule="evenodd" transform="matrix(2.22135 0 0 2.22135 -430.593 -376.782)"/><path d="M200.555 92.027l-.056-27.046" fill="none" stroke="#951c00" stroke-width="3.4253217000000005"/><path d="M219.104 93.633l4.622-26.531M210.13 87.867l1.909-22.341M190.47 87.907l-2-22.333M171.128 91.41l-5.847-21.647M152.67 98.155l-9.508-20.28M135.655 107.999l-12.89-18.33M120.568 120.611l-15.878-15.813M108.017 135.75l-18.381-12.815M98.247 152.806l-20.32-9.425M91.58 171.292L69.9 165.531M88.158 190.647l-22.346-1.91M88.199 210.306l-22.339 2M91.659 229.657l-21.617 5.84M98.474 248.09l-20.318 9.525M108.305 265.104l-18.36 12.911M120.93 280.173l-.018.017M120.912 280.19l-15.838 15.903M136.037 292.753l-12.839 18.416M153.09 302.526l-9.426 20.322M171.575 309.195l-5.76 21.675M190.93 312.618l-1.91 22.346M210.588 312.578l2 22.338M229.928 309.075l5.85 21.653M248.386 302.331l9.51 20.284M265.4 292.49l12.913 18.362M280.455 279.847l.018.018M280.473 279.865l15.896 15.83M293.018 264.727l18.412 12.836M302.808 247.686l20.337 9.433M309.52 229.212l21.64 5.751M312.9 209.847l22.347 1.909M312.86 190.188l22.339-2M309.36 170.847l21.654-5.85M302.617 152.388l20.282-9.508M292.758 135.387l18.34-12.898M280.165 120.285l15.813-15.878M265.026 107.734l12.815-18.38M247.972 97.96l9.424-20.318M229.486 91.29l5.759-21.67M181.537 93.806l-4.749-26.613M163.336 98.705l-9.287-25.354M146.281 106.728l-13.564-23.383M130.822 117.516L113.408 96.85M117.516 130.879l-20.739-17.33M106.77 146.37L83.328 132.9M98.842 163.47l-25.395-9.184M93.986 181.684l-26.638-4.64M92.284 200.468l-27.053.055M94.064 219.244l-26.62 4.75M98.996 237.437l-25.36 9.289M106.98 254.512l-23.375 13.56M117.805 269.95l-20.671 17.416M131.165 283.255l-17.332 20.742M146.668 293.979l-13.487 23.47M163.754 301.93l-9.185 25.398M181.967 306.789l-4.635 26.604M200.75 308.457l.056 27.052M219.526 306.712l4.744 26.585M237.72 301.78l9.288 25.36M254.773 293.758l13.583 23.415M270.232 282.972l17.417 20.67M283.538 269.611l20.742 17.332M294.3 254.13l23.43 13.464M302.213 237.022l25.398 9.185M307.071 218.809l26.64 4.64M308.775 200.026l27.052-.055M306.996 181.25l26.619-4.75M302.066 163.056l25.357-9.288M294.067 145.988l23.389-13.567M283.259 130.54l20.667-17.414M269.898 117.232l17.324-20.731M254.395 106.507l13.468-23.438M237.308 98.554l9.183-25.392" fill="none" stroke="#fff" stroke-width="3.4253217000000005"/><path style="-inkscape-font-specification:Arial" d="M190.75 120.62l-.05-24.525 3.33-.007 12.92 19.229-.04-19.255 3.112-.007.05 24.525-3.329.006-12.92-19.245.039 19.272-3.112.006M210.452 288.528l-3.062.262c-.143-1.227-.475-2.237-.998-3.03-.533-.782-1.357-1.42-2.472-1.912-1.114-.482-2.368-.724-3.762-.727-1.238-.002-2.331.179-3.28.545-.949.366-1.653.867-2.111 1.501-.47.646-.705 1.348-.707 2.107-.002.77.22 1.439.665 2.009.445.58 1.18 1.067 2.205 1.46.658.257 2.112.656 4.364 1.196 2.252.551 3.829 1.067 4.731 1.549 1.17.616 2.044 1.376 2.622 2.28.567.916.85 1.937.847 3.063-.002 1.238-.356 2.392-1.061 3.461-.705 1.08-1.733 1.898-3.083 2.453-1.35.555-2.851.83-4.502.827-1.818-.004-3.418-.302-4.8-.896-1.392-.583-2.461-1.444-3.206-2.583-.745-1.14-1.144-2.428-1.197-3.867l3.112-.228c.165 1.55.731 2.723 1.7 3.517.957.794 2.378 1.192 4.263 1.196 1.963.005 3.397-.355 4.302-1.078.893-.712 1.341-1.576 1.343-2.59.002-.882-.314-1.607-.949-2.177-.623-.57-2.25-1.159-4.881-1.767-2.642-.596-4.453-1.118-5.434-1.567-1.426-.66-2.478-1.499-3.156-2.515-.679-1.005-1.016-2.166-1.014-3.482.002-1.305.379-2.536 1.129-3.695.75-1.147 1.827-2.042 3.234-2.686 1.395-.633 2.968-.948 4.72-.944 2.219.004 4.08.331 5.585.981 1.493.65 2.667 1.623 3.523 2.918.845 1.307 1.288 2.78 1.33 4.42M121.302 191.15l-24.537-6.457.006 3.329 16.084 3.698c1.685.398 3.359.74 5.021 1.026-2.62.63-4.13 1.001-4.531 1.114l-16.552 4.7.009 3.915 12.42 3.488c3.08.875 5.975 1.505 8.686 1.89-1.55.315-3.328.726-5.334 1.232l-15.75 3.88.006 3.262 24.51-6.776-.006-3.128-18.697-5.13c-1.562-.433-2.522-.687-2.879-.764 1.126-.26 2.085-.501 2.876-.726l18.676-5.24-.007-3.313M305.181 190.597l-24.524.05.036 17.732 2.894-.006-.03-14.488 7.512-.015.028 13.567 2.877-.007-.028-13.567 8.348-.018.03 15.056 2.895-.006-.038-18.302" font-weight="400" font-size="30" font-family="Arial" fill="#fff"/><path style="-inkscape-font-specification:'Arial Narrow Bold'" d="M236.123 121.812l2.19.826c-1.078 2.838-.774 4.741.914 5.711.912.524 1.922.594 3.03.21 1.114-.392 2.024-1.201 2.73-2.429.663-1.155.89-2.26.681-3.318-.21-1.056-.76-1.841-1.654-2.355-.38-.218-.9-.397-1.564-.538l1.46-2.007.296.206c.983.566 1.956.722 2.917.47.961-.252 1.732-.883 2.313-1.894.534-.93.705-1.822.512-2.677-.188-.864-.652-1.51-1.392-1.934-.767-.441-1.588-.517-2.463-.227-.86.286-1.708.987-2.542 2.105l-1.74-1.577c1.227-1.551 2.532-2.506 3.914-2.865 1.383-.358 2.7-.176 3.955.545 1.318.757 2.157 1.887 2.518 3.39.36 1.505.115 2.996-.735 4.477-.52.902-1.177 1.587-1.973 2.053a4.848 4.848 0 01-2.58.697c.547.554.913 1.16 1.098 1.82.186.658.21 1.41.072 2.256-.137.845-.453 1.696-.945 2.554-1.048 1.823-2.443 3.008-4.186 3.555-1.738.538-3.356.377-4.854-.484-1.39-.799-2.277-1.981-2.662-3.547-.385-1.565-.155-3.24.69-5.024M287.492 156.031l-1.34-1.876c.907-.779 1.47-1.479 1.688-2.098.322-.897.266-1.72-.167-2.467-.674-1.161-1.935-1.675-3.783-1.542-1.592.118-3.606.877-6.043 2.278 1.131-.042 2.118.156 2.961.593.853.432 1.504 1.035 1.953 1.81.747 1.287.812 2.748.195 4.381-.603 1.637-1.881 3.023-3.835 4.156-1.324.768-2.667 1.222-4.03 1.362-1.347.145-2.497-.013-3.45-.471a5.035 5.035 0 01-2.219-2.052c-.95-1.639-.995-3.418-.135-5.337.86-1.919 3.015-3.878 6.463-5.879 3.827-2.22 6.867-3.255 9.12-3.105 2.26.144 3.885 1.067 4.872 2.768.716 1.234.89 2.51.525 3.83-.352 1.323-1.277 2.54-2.775 3.649m-13.26-3.193c-1.431.83-2.388 1.837-2.87 3.019-.472 1.177-.45 2.21.067 3.102.455.783 1.269 1.243 2.444 1.38 1.18.146 2.485-.196 3.917-1.026 1.404-.815 2.316-1.753 2.735-2.815.42-1.061.373-2.033-.139-2.915-.501-.865-1.327-1.396-2.478-1.596-1.136-.195-2.361.089-3.676.851" font-weight="700" font-size="28" font-family="Arial Narrow" fill="#fff"/><path style="-inkscape-font-specification:'Arial Narrow Bold'" d="M273.305 234.322l1.07-1.86 14.418 8.285c-.257-.716-.443-1.587-.557-2.61-.105-1.02-.118-1.908-.04-2.666l2.187 1.257c0 1.36.198 2.672.597 3.938.394 1.274.901 2.302 1.523 3.082l-.694 1.207-18.504-10.633m-6.16 15.756l-2.176-1.25 5.743-9.993c.894.48 1.727 1.31 2.5 2.49.766 1.187 1.465 2.949 2.096 5.284.73 2.727 1.41 4.628 2.04 5.704.638 1.08 1.364 1.854 2.177 2.322.939.539 1.86.7 2.765.485.908-.203 1.593-.707 2.055-1.511.496-.864.585-1.755.266-2.674-.32-.919-1.074-1.72-2.264-2.404l1.337-1.774c1.691 1.15 2.733 2.412 3.125 3.786.396 1.387.187 2.788-.627 4.205-.886 1.542-2.075 2.408-3.567 2.599-1.496.199-2.907-.082-4.23-.843-1.174-.674-2.123-1.632-2.848-2.874-.716-1.236-1.473-3.237-2.27-6.002-.495-1.757-.854-2.916-1.077-3.48a8.254 8.254 0 00-.784-1.486l-4.262 7.416" font-weight="700" font-size="26" font-family="Arial Narrow" fill="#fff"/><path style="-inkscape-font-specification:'Arial Narrow Bold'" d="M247.401 265.468l2-1.16 8.985 15.491c.146-.806.441-1.718.887-2.734.45-1.008.916-1.844 1.397-2.508l1.363 2.35a14.004 14.004 0 00-1.564 3.994c-.318 1.4-.398 2.632-.239 3.695l-1.297.752-11.532-19.88m-2.07 8.132l-1.968 1.43c-.893-1.167-1.803-1.896-2.73-2.188-.932-.278-1.776-.198-2.533.24-.945.55-1.51 1.454-1.692 2.715-.178 1.27.17 2.658 1.042 4.161.82 1.414 1.788 2.315 2.903 2.703 1.112.402 2.167.313 3.167-.267a3.57 3.57 0 001.404-1.5c.329-.636.471-1.345.427-2.126l2.05-.792 4.32 11.087-8.064 4.677-1.347-2.323 6.47-3.753-2.21-5.83c-.483 1.387-1.264 2.394-2.345 3.02-1.36.79-2.876.893-4.549.311-1.677-.567-3.085-1.833-4.223-3.795-1.123-1.936-1.583-3.89-1.379-5.861.2-1.958 1.147-3.427 2.84-4.41 1.405-.814 2.875-1.017 4.412-.609 1.532.423 2.868 1.46 4.005 3.11M159.727 272.582l1.346-2.342 10.763 6.184c-.518.963-1.412 1.86-2.681 2.692-1.28.825-3.176 1.578-5.692 2.257-2.936.786-4.984 1.518-6.142 2.197-1.164.688-1.997 1.47-2.5 2.345-.581 1.011-.755 2.004-.523 2.978.219.977.761 1.715 1.628 2.213.93.534 1.889.63 2.879.286.99-.344 1.853-1.156 2.59-2.438l1.909 1.44c-1.239 1.821-2.598 2.943-4.077 3.366-1.494.426-3.003.2-4.528-.676-1.66-.954-2.594-2.234-2.799-3.84-.214-1.613.088-3.132.908-4.557.726-1.264 1.757-2.286 3.094-3.066 1.332-.772 3.487-1.587 6.465-2.444 1.891-.534 3.14-.921 3.746-1.161a8.888 8.888 0 001.602-.844l-7.988-4.59m-8.266-7.865l2.004 1.151-8.923 15.528c.772-.277 1.709-.477 2.812-.6 1.098-.113 2.054-.128 2.87-.043l-1.354 2.355c-1.464 0-2.877.214-4.24.643-1.373.424-2.479.97-3.32 1.64l-1.3-.747 11.451-19.927M129.562 241.92l2.337-1.355 6.228 10.737c-.93.576-2.152.906-3.667.99-1.52.076-3.54-.22-6.058-.89-2.936-.788-5.076-1.177-6.418-1.168-1.352.013-2.464.274-3.338.78-1.008.585-1.655 1.358-1.94 2.318-.3.956-.2 1.866.302 2.73.538.928 1.321 1.49 2.35 1.687 1.03.198 2.183-.074 3.461-.816l.935 2.202c-1.984.958-3.722 1.25-5.214.876-1.507-.378-2.701-1.327-3.584-2.849-.96-1.657-1.129-3.232-.503-4.726.62-1.503 1.642-2.667 3.064-3.492 1.26-.731 2.665-1.1 4.213-1.108 1.539-.002 3.812.37 6.82 1.115 1.905.484 3.18.773 3.825.868.64.087 1.243.11 1.81.07l-4.623-7.968m-2.575-9.824l-4.741 2.75 4.082 7.036-2.229 1.293-17.131.028-.94-1.62 12.83-7.443-1.277-2.201 2.228-1.293 1.277 2.201 4.741-2.75 1.16 2m-6.97 4.042l-8.927 5.178 11.873-.1-2.945-5.078M119.27 170.09l.827-2.19c2.838 1.079 4.742.774 5.712-.914.523-.911.594-1.921.21-3.03-.392-1.114-1.202-2.023-2.43-2.729-1.155-.663-2.26-.89-3.317-.682-1.057.21-1.842.761-2.355 1.654-.218.38-.398.9-.539 1.564l-2.006-1.46.206-.295c.565-.984.722-1.956.47-2.917-.253-.962-.884-1.733-1.895-2.313-.93-.535-1.822-.705-2.677-.512-.864.187-1.509.651-1.934 1.391-.44.767-.516 1.588-.227 2.463.286.86.988 1.708 2.105 2.542l-1.577 1.741c-1.551-1.227-2.506-2.532-2.864-3.915-.358-1.382-.177-2.7.544-3.955.757-1.318 1.887-2.157 3.391-2.517 1.504-.36 2.996-.116 4.476.735.902.519 1.587 1.176 2.054 1.972.472.788.704 1.648.696 2.58.554-.546 1.16-.912 1.82-1.098.659-.185 1.41-.21 2.256-.072.845.138 1.697.453 2.554.946 1.823 1.047 3.008 2.443 3.555 4.186.538 1.737.377 3.355-.484 4.854-.799 1.39-1.98 2.277-3.546 2.662-1.566.384-3.24.154-5.024-.69m2.724-15.272c-3.33-1.913-5.596-3.81-6.797-5.689-1.196-1.887-1.291-3.707-.285-5.458.892-1.552 2.29-2.376 4.193-2.47 2.301-.119 5.297.883 8.988 3.004 3.313 1.903 5.574 3.797 6.784 5.68 1.202 1.88 1.297 3.699.285 5.459-.892 1.552-2.381 2.389-4.468 2.51-2.081.113-4.981-.9-8.7-3.036m1.175-2.044c3.222 1.851 5.56 2.787 7.014 2.806 1.45.004 2.452-.476 3.007-1.442.524-.911.407-1.993-.35-3.244-.758-1.252-2.734-2.796-5.93-4.632-3.23-1.856-5.57-2.787-7.02-2.792-1.445-.013-2.45.471-3.015 1.455-.519.903-.4 1.98.358 3.231.763 1.243 2.741 2.782 5.936 4.618M146.047 132.606l1.811-1.483c1.918 2.353 3.72 3.04 5.403 2.064.91-.527 1.475-1.367 1.698-2.519.217-1.16-.03-2.353-.74-3.578-.669-1.152-1.513-1.902-2.532-2.25-1.02-.347-1.975-.262-2.867.255-.378.22-.794.581-1.248 1.085l-1.008-2.267.326-.153c.982-.57 1.604-1.333 1.866-2.292.262-.958.101-1.941-.484-2.95-.538-.927-1.225-1.521-2.063-1.782-.842-.27-1.632-.19-2.37.238-.766.444-1.242 1.117-1.428 2.02-.183.888.002 1.973.552 3.254l-2.236.72c-.73-1.84-.905-3.447-.524-4.824.381-1.376 1.198-2.427 2.45-3.153 1.314-.762 2.712-.924 4.195-.484 1.482.44 2.652 1.398 3.508 2.874.522.9.787 1.812.793 2.736a4.843 4.843 0 01-.687 2.582c.753-.196 1.461-.21 2.125-.041.663.168 1.326.524 1.99 1.066.663.541 1.243 1.24 1.739 2.095 1.055 1.82 1.384 3.62.986 5.403-.403 1.774-1.352 3.095-2.846 3.962-1.387.804-2.855.981-4.403.532-1.548-.45-2.884-1.486-4.006-3.11m12.642-7.333l1.81-1.483c1.919 2.353 3.72 3.04 5.404 2.064.909-.527 1.475-1.367 1.697-2.519.217-1.16-.03-2.353-.74-3.578-.668-1.152-1.512-1.902-2.532-2.25-1.02-.347-1.975-.262-2.866.255-.379.22-.795.581-1.248 1.085l-1.009-2.267.327-.153c.981-.57 1.603-1.333 1.865-2.292.263-.958.101-1.941-.484-2.95-.538-.927-1.225-1.521-2.062-1.782-.842-.27-1.633-.19-2.371.238-.765.444-1.241 1.117-1.428 2.02-.183.888.002 1.973.552 3.254l-2.236.72c-.73-1.84-.904-3.447-.523-4.824.38-1.376 1.197-2.427 2.449-3.153 1.314-.762 2.713-.924 4.195-.484 1.483.44 2.652 1.398 3.509 2.874.522.9.786 1.812.792 2.736a4.842 4.842 0 01-.686 2.582c.753-.196 1.46-.21 2.124-.041.663.169 1.327.524 1.99 1.066.663.541 1.243 1.24 1.74 2.095 1.054 1.82 1.383 3.62.985 5.403-.403 1.774-1.351 3.095-2.846 3.962-1.387.804-2.854.981-4.403.532-1.548-.45-2.883-1.486-4.005-3.11" font-weight="700" font-size="28" font-family="Arial Narrow" fill="#fff"/></svg>