<svg xmlns="http://www.w3.org/2000/svg" xmlns:xlink="http://www.w3.org/1999/xlink" width="400.667" height="400.666"><defs><radialGradient gradientTransform="translate(92.313 2.02)" gradientUnits="userSpaceOnUse" r="6.508" fy="31.473" fx="-22.804" cy="31.473" cx="-22.804" id="b" xlink:href="#a"/><radialGradient gradientTransform="translate(92.313 2.02)" gradientUnits="userSpaceOnUse" r="6.508" fy="31.473" fx="-22.804" cy="31.473" cx="-22.804" id="c" xlink:href="#a"/><radialGradient gradientTransform="translate(92.313 2.02)" gradientUnits="userSpaceOnUse" r="6.508" fy="31.473" fx="-22.804" cy="31.473" cx="-22.804" id="d" xlink:href="#a"/><radialGradient gradientTransform="translate(92.313 2.02)" gradientUnits="userSpaceOnUse" r="6.508" fy="31.473" fx="-22.804" cy="31.473" cx="-22.804" id="e" xlink:href="#a"/><linearGradient id="a"><stop offset="0" stop-color="#bcb8ae"/><stop offset="1" stop-color="#5f5a4f"/></linearGradient></defs><g transform="matrix(2.22135 0 0 2.22135 -86.69 -5.559)"><circle r="6.258" cy="33.492" cx="69.508" fill="url(#b)" stroke="#000" stroke-width=".5"/><path d="M71.277 29.628l-2.186 2.457-2.843-1.172-.525.86 2.288 2.083-1.128 2.977.858.523 2.128-2.367 2.901 1.082.524-.86-2.345-1.992 1.186-3.068z"/></g><g transform="matrix(2.22135 0 0 -2.22135 -86.69 405.5)"><circle r="6.258" cy="33.492" cx="69.508" fill="url(#c)" stroke="#000" stroke-width=".5"/><path d="M71.277 29.628l-2.186 2.457-2.843-1.172-.525.86 2.288 2.083-1.128 2.977.858.523 2.128-2.367 2.901 1.082.524-.86-2.345-1.992 1.186-3.068z"/></g><g transform="matrix(-2.22135 0 0 2.22135 487.688 -5.559)"><circle r="6.258" cy="33.492" cx="69.508" fill="url(#d)" stroke="#000" stroke-width=".5"/><path d="M71.277 29.628l-2.186 2.457-2.843-1.172-.525.86 2.288 2.083-1.128 2.977.858.523 2.128-2.367 2.901 1.082.524-.86-2.345-1.992 1.186-3.068z"/></g><g transform="matrix(-2.22135 0 0 -2.22135 487.688 405.5)"><circle r="6.258" cy="33.492" cx="69.508" fill="url(#e)" stroke="#000" stroke-width=".5"/><path d="M71.277 29.628l-2.186 2.457-2.843-1.172-.525.86 2.288 2.083-1.128 2.977.858.523 2.128-2.367 2.901 1.082.524-.86-2.345-1.992 1.186-3.068z"/></g></svg>