<svg xmlns="http://www.w3.org/2000/svg" xmlns:xlink="http://www.w3.org/1999/xlink" width="400.667" height="400.666"><defs><linearGradient id="a"><stop offset="0" stop-color="#969696"/><stop offset="1"/></linearGradient><linearGradient id="b"><stop offset="0" stop-color="#7d7d7d"/><stop offset="1" stop-opacity=".984"/></linearGradient><linearGradient id="c"><stop offset="0" stop-color="#5e5e5e"/><stop offset="1" stop-color="#272727"/></linearGradient><linearGradient xlink:href="#d" id="j" gradientUnits="userSpaceOnUse" x1="329.876" y1="151.244" x2="349.359" y2="151.244"/><linearGradient id="d"><stop offset="0" stop-color="#202020"/><stop offset="1" stop-color="#5d5d5d"/></linearGradient><linearGradient id="e"><stop offset="0" stop-color="#191919"/><stop offset="1" stop-opacity="0"/></linearGradient><linearGradient id="f" gradientUnits="userSpaceOnUse" x1="148.108" y1="142.399" x2="163.702" y2="169.408"><stop offset="0" stop-color="#2d2d2d"/><stop offset="1"/></linearGradient><linearGradient xlink:href="#g" id="m" gradientUnits="userSpaceOnUse" x1="78.168" y1="98.292" x2="65.099" y2="100.546" gradientTransform="rotate(6.166 129.288 92.274)"/><linearGradient id="g"><stop offset="0" stop-color="red"/><stop offset="1" stop-color="#7c0000"/></linearGradient><radialGradient xlink:href="#b" id="n" gradientUnits="userSpaceOnUse" gradientTransform="matrix(1.97203 0 0 1.97203 -361.573 26.139)" cx="276.832" cy="124.899" fx="276.832" fy="124.899" r="2.166"/><radialGradient xlink:href="#b" id="o" gradientUnits="userSpaceOnUse" gradientTransform="matrix(1.97203 0 0 1.97203 -329.263 26.14)" cx="276.832" cy="124.899" fx="276.832" fy="124.899" r="2.166"/><radialGradient xlink:href="#b" id="p" gradientUnits="userSpaceOnUse" gradientTransform="matrix(1.97203 0 0 1.97203 -361.573 26.14)" cx="276.832" cy="124.899" fx="276.832" fy="124.899" r="2.166"/><radialGradient xlink:href="#b" id="q" gradientUnits="userSpaceOnUse" gradientTransform="matrix(1.97203 0 0 1.97203 -329.263 26.14)" cx="276.832" cy="124.899" fx="276.832" fy="124.899" r="2.166"/><radialGradient xlink:href="#c" id="h" gradientUnits="userSpaceOnUse" gradientTransform="matrix(1.5863 -1.20596 1.15703 1.52194 -382.061 479.574)" cx="334.201" cy="156.935" fx="334.201" fy="156.935" r="9.743"/><radialGradient xlink:href="#c" id="i" gradientUnits="userSpaceOnUse" gradientTransform="matrix(2.16185 0 0 1.39542 -409.078 116.511)" cx="341.579" cy="148.36" fx="341.579" fy="148.36" r="9.743"/><radialGradient xlink:href="#e" id="k" gradientUnits="userSpaceOnUse" gradientTransform="translate(55.5 5.5)" cx="284.118" cy="145.743" fx="284.118" fy="145.743" r="8.372"/><radialGradient xlink:href="#f" id="l" gradientUnits="userSpaceOnUse" gradientTransform="matrix(-.36935 1.3264 -1.70624 -.47513 249.02 -48.04)" cx="102.208" cy="62.268" fx="102.208" fy="62.268" r="68.25"/></defs><path d="M292.114 311.187l15.805-15.805 35.479 35.479-15.805 15.805z"/><path d="M351.006 331.896v6.296h-43.284v-6.296c0-11.953 9.69-21.643 21.643-21.643 11.952 0 21.641 9.69 21.641 21.643z" fill="url(#h)"/><path d="M329.021 310.248v6.135" fill="none" stroke="#000" stroke-width=".666"/><g fill="none" stroke="#000" stroke-width=".3"><path d="M332.212 310.15v6.135M335.353 310.837v6.135M339.084 312.358v6.136M342.372 314.297v6.136M345.121 316.751v6.136M347.762 320.816v6.136" stroke-width=".666405"/></g><g fill="none" stroke="#000" stroke-width=".3"><path d="M325.782 310.22v7.003M322.641 311.15v6.76M318.91 312.775v6.657M315.622 315.235v6.135M312.873 317.69v6.135M310.232 321.754v6.135" stroke-width=".666405"/></g><path d="M350.427 331.003v6.128h-42.125v-6.128c0-11.632 9.43-21.062 21.063-21.062s21.062 9.43 21.062 21.062z" fill="none" stroke="url(#i)" stroke-width=".927"/><g transform="matrix(2.22135 0 0 2.22135 -425.044 1.329)"><circle r="9.242" cy="151.244" cx="339.617" fill="#1a1a1a" stroke="url(#j)"/><circle r="7.942" cy="151.243" cx="339.618" fill="url(#k)" stroke="#000" stroke-width=".859"/></g><g transform="matrix(2.22135 0 0 2.22135 -86.687 -5.001)"><circle cx="129.286" cy="92.274" r="68.25" fill="url(#l)" fill-rule="evenodd"/><path d="M90.212 126.486L78.144 137.34a68.226 68.226 0 0051.142 23.16 68.226 68.226 0 0029.114-6.615l-6.518-14.822a52 52 0 01-22.596 5.212 52 52 0 01-39.074-17.789z" fill="#fff"/><path d="M178.551 113.66l-6.358-2.823c-9.032 20.944-32.27 32.67-54.963 26.614-20.45-5.457-34.674-23.964-34.695-45.129l-6.925.005c.024 24.3 16.368 45.562 39.846 51.828 26.039 6.95 52.71-6.482 63.095-30.496z" fill="#fc0"/><path d="M172.47 60.346l-5.627 4.09c13.603 18.307 12.114 44.293-4.494 60.902-14.966 14.966-38.109 18.008-56.438 7.426l-3.465 5.996c21.045 12.15 47.634 8.653 64.817-8.53 19.056-19.056 20.79-48.867 5.207-69.884z" fill="green"/><path d="M65.21 92.615v-.692h13.856v.692z" fill="#fff"/><path d="M133.86 145.777l.305 3.578M147.773 142.688l1.237 3.37M106.16 140.738l-1.546 3.24M95.528 134.033l-2.256 2.793M119.873 145.14l-.629 3.535" fill="none" stroke="#000" stroke-width="1.1"/><path d="M90.42 129.375l-2.064 1.983M100.79 137.827l-1.511 2.431M112.808 143.418l-.87 2.727M126.947 145.957l-.116 2.86M140.864 144.747l.626 2.793" fill="none" stroke="#000" stroke-width=".8"/><g font-weight="700" font-size="14" font-family="Sans" fill="#fff"><path style="-inkscape-font-specification:'Andale Mono Bold'" d="M146.677 56.716l-1.999 2.96h1.999v-2.96m-.303-1.501h2.027v4.46h1.008v1.322h-1.008v1.288h-1.724v-1.288h-3.135v-1.563l2.832-4.22M154.31 58.743c0-.884-.083-1.506-.25-1.866-.164-.363-.442-.545-.834-.545-.391 0-.67.182-.838.545-.167.36-.25.982-.25 1.866 0 .893.083 1.523.25 1.89.167.365.447.549.838.549.389 0 .667-.184.834-.55.167-.366.25-.996.25-1.89m1.824.015c0 1.171-.252 2.076-.758 2.713-.505.635-1.221.952-2.15.952-.931 0-1.65-.317-2.154-.952-.506-.637-.758-1.542-.758-2.713 0-1.175.252-2.08.758-2.714.505-.637 1.223-.956 2.154-.956.929 0 1.645.319 2.15.956.506.635.758 1.54.758 2.714"/></g><g font-weight="700" font-size="14" font-family="Sans" fill="#fff"><path style="-inkscape-font-specification:'Andale Mono Bold'" d="M161.6 78.697c-.319 0-.559.105-.72.313-.158.205-.236.515-.236.928 0 .414.078.725.236.933.161.205.401.308.72.308.322 0 .562-.103.72-.308.161-.208.242-.52.242-.933 0-.413-.081-.723-.242-.928-.158-.208-.398-.313-.72-.313m2.254-3.395v1.307a4.607 4.607 0 00-.847-.313 3.06 3.06 0 00-.777-.104c-.543 0-.966.152-1.27.455-.302.3-.48.746-.53 1.34.209-.155.435-.27.678-.346.243-.079.508-.118.795-.118.723 0 1.306.211 1.748.634.445.424.667.978.667 1.663 0 .757-.247 1.365-.743 1.823-.496.455-1.16.682-1.994.682-.919 0-1.63-.31-2.136-.928-.502-.622-.753-1.503-.753-2.643 0-1.168.294-2.085.881-2.751.59-.67 1.399-1.004 2.425-1.004a5.804 5.804 0 011.856.303M169.296 78.645c0-.884-.084-1.506-.251-1.866-.164-.363-.442-.544-.834-.544-.391 0-.67.181-.838.544-.167.36-.251.982-.251 1.866 0 .894.084 1.524.251 1.89.167.366.447.55.838.55.389 0 .666-.184.834-.55.167-.366.25-.996.25-1.89m1.824.014c0 1.172-.253 2.076-.758 2.714-.505.635-1.222.952-2.15.952-.931 0-1.65-.317-2.155-.952-.505-.638-.757-1.542-.757-2.714 0-1.174.252-2.079.757-2.713.506-.638 1.224-.957 2.155-.957.928 0 1.645.32 2.15.957.505.634.758 1.539.758 2.713"/></g><g font-weight="700" font-size="14" font-family="Sans" fill="#fff"><path style="-inkscape-font-specification:'Andale Mono Bold'" d="M162.332 105.612c-.341 0-.603.093-.786.28-.183.186-.275.452-.275.8 0 .347.092.614.275.8.183.183.445.275.786.275.338 0 .597-.092.776-.275.18-.186.27-.453.27-.8 0-.35-.09-.618-.27-.8-.18-.187-.438-.28-.776-.28m-1.33-.602c-.43-.13-.754-.328-.972-.596-.218-.269-.326-.603-.326-1.004 0-.597.222-1.052.667-1.364.445-.313 1.099-.469 1.96-.469.856 0 1.507.156 1.952.469.445.31.668.764.668 1.364 0 .4-.11.735-.332 1.004-.218.268-.541.467-.97.596.48.133.84.35 1.084.65.246.296.37.672.37 1.126 0 .701-.234 1.232-.702 1.591-.464.357-1.154.536-2.07.536-.918 0-1.612-.179-2.083-.536-.467-.36-.7-.89-.7-1.59 0-.455.12-.831.364-1.128.246-.3.61-.516 1.09-.649m.425-1.416c0 .281.078.498.232.65.158.15.382.227.673.226.284 0 .503-.075.658-.227.155-.151.232-.368.232-.649 0-.28-.077-.495-.232-.644-.155-.151-.374-.227-.658-.227-.29 0-.515.076-.673.227-.154.152-.232.367-.232.644M170.16 105.233c0-.884-.084-1.506-.251-1.866-.164-.363-.442-.545-.834-.545-.391 0-.67.182-.838.545-.167.36-.25.982-.25 1.866 0 .893.083 1.523.25 1.89.168.366.447.549.838.549.389 0 .667-.183.834-.55.167-.366.251-.996.251-1.889m1.823.014c0 1.171-.252 2.076-.757 2.714-.506.634-1.222.952-2.15.952-.932 0-1.65-.318-2.155-.952-.505-.638-.758-1.543-.758-2.714 0-1.174.253-2.079.758-2.713.505-.638 1.223-.957 2.154-.957.929 0 1.645.319 2.15.957.506.634.758 1.539.758 2.713"/></g><g font-weight="700" font-size="14" font-family="Sans" fill="#fff"><path style="-inkscape-font-specification:'Andale Mono Bold'" d="M138.489 127.993h1.61v-4.57l-1.653.341v-1.24l1.643-.342h1.734v5.811h1.61v1.26h-4.944v-1.26M148.557 125.71c0-.884-.084-1.506-.251-1.866-.164-.363-.442-.544-.834-.544-.391 0-.67.181-.838.544-.167.36-.25.982-.25 1.866 0 .894.083 1.524.25 1.89.168.366.447.55.838.55.389 0 .667-.184.834-.55.167-.366.25-.996.25-1.89m1.824.015c0 1.17-.252 2.075-.758 2.713-.505.635-1.221.952-2.15.952-.93 0-1.65-.317-2.154-.952-.506-.638-.758-1.542-.758-2.713 0-1.175.252-2.08.758-2.714.505-.638 1.223-.957 2.154-.957.929 0 1.645.32 2.15.957.506.635.758 1.54.758 2.714M155.3 125.71c0-.884-.083-1.506-.25-1.866-.164-.363-.442-.544-.834-.544-.391 0-.67.181-.838.544-.167.36-.251.982-.251 1.866 0 .894.084 1.524.251 1.89.167.366.447.55.838.55.389 0 .666-.184.834-.55.167-.366.25-.996.25-1.89m1.824.015c0 1.17-.253 2.075-.758 2.713-.505.635-1.222.952-2.15.952-.931 0-1.65-.317-2.155-.952-.505-.638-.757-1.542-.757-2.713 0-1.175.252-2.08.757-2.714.506-.638 1.224-.957 2.155-.957.928 0 1.645.32 2.15.957.505.635.758 1.54.758 2.714"/></g><g font-weight="700" font-size="14" font-family="Sans" fill="#fff"><path style="-inkscape-font-specification:'Andale Mono Bold'" d="M112.633 131.893h1.61v-4.57l-1.653.341v-1.24l1.643-.342h1.734v5.811h1.61v1.26h-4.944v-1.26M121.034 131.812h3.111v1.34h-5.138v-1.34l2.58-2.277c.231-.209.402-.412.512-.611a1.26 1.26 0 00.166-.62c0-.332-.112-.599-.336-.801-.221-.202-.516-.303-.886-.303-.284 0-.595.061-.933.185-.337.12-.699.3-1.084.54v-1.554c.41-.136.816-.238 1.217-.308a6.612 6.612 0 011.18-.109c.845 0 1.502.187 1.97.56.47.372.705.891.705 1.557 0 .385-.1.745-.299 1.08-.198.331-.617.777-1.255 1.335l-1.51 1.326M129.444 129.61c0-.884-.083-1.506-.25-1.866-.165-.363-.443-.544-.834-.544-.392 0-.67.181-.838.544-.168.36-.251.982-.251 1.866 0 .894.083 1.524.25 1.89.168.366.447.55.839.55.388 0 .666-.184.833-.55.168-.366.251-.996.251-1.89m1.824.015c0 1.17-.253 2.075-.758 2.713-.505.635-1.222.952-2.15.952-.931 0-1.65-.317-2.155-.952-.505-.638-.758-1.542-.758-2.713 0-1.175.253-2.08.758-2.714.505-.638 1.224-.957 2.155-.957.928 0 1.645.32 2.15.957.505.635.758 1.54.758 2.714"/></g><g font-weight="700" font-size="14" font-family="Sans" fill="#fff"><path style="-inkscape-font-specification:'Andale Mono Bold'" d="M94 118.533h1.611v-4.57l-1.653.341v-1.24l1.644-.341h1.733v5.81h1.61v1.26h-4.944v-1.26M103.179 114.224l-1.999 2.96h1.999v-2.96m-.303-1.501h2.027v4.46h1.008v1.322h-1.008v1.288h-1.724v-1.288h-3.135v-1.563l2.832-4.22M110.813 116.25c0-.883-.084-1.505-.251-1.865-.164-.363-.442-.545-.834-.545-.391 0-.67.182-.838.545-.167.36-.25.982-.25 1.866 0 .893.083 1.523.25 1.89.167.366.447.549.838.549.389 0 .666-.183.834-.55.167-.366.25-.996.25-1.89m1.824.015c0 1.171-.253 2.076-.758 2.714-.505.634-1.222.951-2.15.951-.931 0-1.65-.317-2.154-.951-.506-.638-.758-1.543-.758-2.714 0-1.174.252-2.079.758-2.714.505-.637 1.223-.956 2.154-.956.928 0 1.645.319 2.15.956.505.635.758 1.54.758 2.714"/></g><g font-weight="700" font-size="14" font-family="Sans" fill="#fff"><path style="-inkscape-font-specification:'Andale Mono Bold'" d="M85.949 94.588h1.61v-4.57l-1.653.34v-1.24l1.644-.34h1.733v5.81h1.61v1.26h-4.944v-1.26M95.065 92.357c-.319 0-.559.105-.72.313-.158.205-.236.515-.236.928 0 .414.078.725.236.933.161.205.401.308.72.308.322 0 .562-.103.72-.308.161-.208.241-.52.241-.933 0-.413-.08-.723-.241-.928-.158-.208-.398-.313-.72-.313m2.254-3.395v1.307a4.607 4.607 0 00-.847-.313 3.06 3.06 0 00-.777-.104c-.543 0-.966.152-1.27.455-.302.3-.48.747-.53 1.34.209-.155.435-.27.678-.346.243-.079.508-.118.795-.118.723 0 1.306.211 1.748.635.445.423.667.977.667 1.662 0 .758-.247 1.365-.743 1.823-.496.455-1.16.682-1.994.682-.919 0-1.63-.31-2.136-.928-.502-.622-.753-1.503-.753-2.643 0-1.168.294-2.085.881-2.751.59-.67 1.399-1.004 2.425-1.004a5.803 5.803 0 011.856.303M102.76 92.305c0-.884-.083-1.506-.25-1.866-.164-.363-.442-.544-.834-.544-.391 0-.67.181-.838.544-.167.36-.251.982-.251 1.866 0 .894.084 1.524.251 1.89.167.366.447.55.838.55.389 0 .666-.184.834-.55.167-.366.25-.996.25-1.89m1.824.015c0 1.17-.253 2.075-.758 2.713-.505.635-1.222.952-2.15.952-.931 0-1.65-.317-2.155-.952-.505-.638-.757-1.542-.757-2.713 0-1.175.252-2.08.757-2.714.506-.638 1.224-.957 2.155-.957.928 0 1.645.32 2.15.957.505.635.758 1.54.758 2.714"/></g><g font-weight="700" font-size="14" font-family="Sans" fill="#fff"><path style="-inkscape-font-specification:'Andale Mono Bold'" d="M88.27 79.822h1.61v-4.57l-1.652.341v-1.24l1.643-.342h1.733v5.811h1.61v1.26H88.27v-1.26M97.254 77.918c-.341 0-.603.094-.786.28-.183.186-.275.453-.275.8 0 .347.092.614.275.8.183.184.445.275.786.275.338 0 .597-.091.777-.275.18-.186.27-.453.27-.8 0-.35-.09-.617-.27-.8-.18-.186-.44-.28-.777-.28m-1.33-.601c-.43-.13-.754-.328-.972-.597-.217-.268-.326-.603-.326-1.004 0-.596.222-1.051.667-1.364.446-.312 1.1-.468 1.961-.468.856 0 1.506.156 1.951.468.445.31.668.764.668 1.364 0 .401-.11.736-.332 1.004-.217.269-.541.468-.97.597.48.133.84.349 1.084.649.246.297.37.672.37 1.127 0 .7-.234 1.231-.701 1.591-.465.357-1.154.535-2.07.535-.919 0-1.613-.178-2.084-.535-.467-.36-.7-.89-.7-1.591 0-.455.121-.83.364-1.127.246-.3.61-.516 1.09-.649m.425-1.416c0 .281.078.497.233.649.157.151.382.227.672.227.284 0 .504-.076.658-.227.155-.152.232-.368.232-.649s-.077-.496-.232-.644c-.154-.152-.374-.227-.658-.227-.29 0-.515.075-.672.227-.155.151-.233.366-.233.644M105.082 77.54c0-.884-.084-1.506-.25-1.866-.165-.363-.443-.545-.834-.545-.392 0-.671.182-.839.545-.167.36-.25.982-.25 1.866 0 .893.083 1.523.25 1.89.168.365.447.548.839.548.388 0 .666-.183.833-.549.167-.366.251-.996.251-1.89m1.823.015c0 1.171-.252 2.076-.757 2.713-.505.635-1.222.952-2.15.952-.932 0-1.65-.317-2.155-.952-.505-.637-.758-1.542-.758-2.713 0-1.175.253-2.08.758-2.714.505-.638 1.223-.956 2.155-.956.928 0 1.645.318 2.15.956.505.635.757 1.54.757 2.714"/></g><g font-weight="700" font-size="14" font-family="Sans" fill="#fff"><path style="-inkscape-font-specification:'Andale Mono Bold'" d="M98.255 66.18h3.111v1.34h-5.138v-1.34l2.581-2.278c.23-.208.401-.412.512-.61a1.26 1.26 0 00.165-.621c0-.332-.112-.598-.336-.8-.22-.203-.516-.304-.885-.304-.285 0-.596.062-.933.185-.338.12-.7.3-1.085.54v-1.553c.41-.136.816-.239 1.217-.308a6.613 6.613 0 011.18-.109c.845 0 1.502.186 1.97.559.47.372.705.892.705 1.558 0 .385-.1.745-.298 1.08-.2.331-.618.776-1.255 1.335l-1.51 1.326M106.666 63.978c0-.884-.084-1.506-.251-1.866-.164-.363-.442-.545-.834-.545-.391 0-.67.182-.838.545-.167.36-.251.982-.251 1.866 0 .893.084 1.523.251 1.89.167.366.447.549.838.549.389 0 .666-.183.834-.55.167-.366.25-.996.25-1.89m1.824.015c0 1.171-.253 2.076-.758 2.714-.505.634-1.222.952-2.15.952-.931 0-1.65-.318-2.155-.952-.505-.638-.757-1.543-.757-2.714 0-1.174.252-2.079.757-2.713.506-.638 1.224-.957 2.155-.957.928 0 1.645.319 2.15.957.505.634.758 1.539.758 2.713M113.41 63.978c0-.884-.084-1.506-.252-1.866-.164-.363-.442-.545-.833-.545-.392 0-.671.182-.838.545-.168.36-.251.982-.251 1.866 0 .893.083 1.523.25 1.89.168.366.447.549.839.549.388 0 .666-.183.833-.55.168-.366.251-.996.251-1.89m1.824.015c0 1.171-.253 2.076-.758 2.714-.505.634-1.222.952-2.15.952-.931 0-1.65-.318-2.155-.952-.505-.638-.758-1.543-.758-2.714 0-1.174.253-2.079.758-2.713.505-.638 1.224-.957 2.155-.957.928 0 1.645.319 2.15.957.505.634.758 1.539.758 2.713"/></g><g font-weight="700" font-family="Arial" letter-spacing="-.33" word-spacing="0" text-anchor="middle" fill="#fff"><path style="line-height:125%;-inkscape-font-specification:'Arial Bold';text-align:center" d="M116.455 87.882h-1.211l-.481-1.253h-2.204l-.455 1.253h-1.18l2.146-5.513h1.177l2.208 5.513zm-2.05-2.181l-.76-2.046-.744 2.046h1.504zM116.7 87.882v-5.513h1.113v5.513H116.7zM118.544 87.882v-5.513h2.342q.884 0 1.283.15.402.147.643.527.24.38.24.868 0 .62-.364 1.027-.365.402-1.09.508.36.21.593.462.237.252.636.895l.673 1.076h-1.331l-.805-1.2q-.429-.643-.587-.809-.158-.169-.334-.229-.177-.064-.56-.064h-.226v2.302h-1.113zm1.113-3.182h.823q.801 0 1-.067.2-.068.313-.234.112-.165.112-.413 0-.279-.15-.448-.147-.173-.417-.218-.136-.019-.813-.019h-.868v1.4zM123.493 86.088l1.083-.105q.098.545.395.8.301.256.809.256.537 0 .808-.225.275-.23.275-.534 0-.196-.117-.331-.113-.14-.399-.241-.195-.068-.89-.24-.896-.222-1.257-.546-.507-.455-.507-1.11 0-.42.236-.785.241-.369.689-.56.45-.192 1.086-.192 1.038 0 1.561.455.526.455.553 1.214l-1.113.05q-.072-.426-.309-.61-.233-.188-.703-.188-.485 0-.76.2-.176.127-.176.342 0 .195.165.334.21.177 1.023.369.812.192 1.2.398.39.203.609.56.222.354.222.877 0 .474-.264.887-.263.414-.744.617-.481.2-1.2.2-1.045 0-1.605-.482-.56-.485-.67-1.41zM128.59 87.882v-5.513h1.786q1.015 0 1.323.082.474.125.794.542.32.414.32 1.072 0 .507-.185.853-.184.346-.47.546-.282.195-.575.26-.399.078-1.155.078h-.725v2.08h-1.113zm1.113-4.58v1.564h.609q.658 0 .88-.087.222-.086.346-.27.128-.185.128-.43 0-.3-.177-.496-.177-.195-.448-.244-.199-.038-.8-.038h-.538zM133.404 87.882v-5.513h4.087v.932h-2.974v1.223h2.768v.928h-2.768v1.5h3.08v.93h-4.193zM138.218 87.882v-5.513h4.088v.932h-2.975v1.223h2.768v.928h-2.768v1.5h3.08v.93h-4.193zM143.029 82.369h2.034q.688 0 1.05.105.484.143.83.508.346.364.527.895.18.526.18 1.3 0 .681-.169 1.174-.207.602-.59.974-.29.282-.782.44-.369.117-.986.117h-2.094v-5.513zm1.113.932v3.652h.83q.467 0 .674-.053.27-.068.447-.23.181-.161.294-.53.113-.372.113-1.011 0-.64-.113-.982-.113-.342-.316-.534-.203-.191-.515-.259-.233-.053-.914-.053h-.5z"/></g><g style="line-height:125%;-inkscape-font-specification:Arial;text-align:center" font-weight="700" font-size="7.697" font-family="Arial" letter-spacing="-.603" word-spacing="0" text-anchor="middle" fill="#fff"><path style="-inkscape-font-specification:'Arial Bold'" d="M117.5 116.829v-5.51h1.113v2.447l2.247-2.446h1.496l-2.074 2.145 2.187 3.364h-1.44l-1.514-2.586-.902.921v1.665h-1.112z"/><path style="-inkscape-font-specification:'Arial Bold'" d="M122.456 116.829v-5.51h1.082l2.255 3.68v-3.68h1.034v5.51h-1.117l-2.22-3.593v3.593h-1.034zM127.178 114.108q0-.842.252-1.413.188-.42.511-.755.327-.335.714-.496.515-.218 1.188-.218 1.217 0 1.946.755.733.755.733 2.1 0 1.335-.725 2.09-.725.752-1.94.752-1.228 0-1.953-.748-.726-.752-.726-2.067zm1.146-.038q0 .936.433 1.421.432.481 1.097.481t1.09-.477q.428-.481.428-1.44 0-.947-.417-1.413-.413-.466-1.101-.466t-1.109.474q-.42.47-.42 1.42zM134.024 116.829v-4.577h-1.635v-.932h4.378v.932h-1.63v4.577h-1.113zM136.589 115.036l1.082-.105q.098.545.395.8.3.256.808.256.537 0 .808-.225.274-.23.274-.534 0-.195-.116-.33-.113-.14-.399-.241-.195-.068-.89-.24-.895-.223-1.255-.546-.508-.454-.508-1.108 0-.421.237-.786.24-.368.688-.56.45-.191 1.086-.191 1.037 0 1.56.454.525.455.552 1.214l-1.113.049q-.071-.425-.308-.609-.233-.188-.703-.188-.484 0-.759.2-.176.127-.176.341 0 .196.165.335.21.177 1.022.368.812.192 1.2.399.39.203.608.56.222.353.222.875 0 .474-.263.887-.264.413-.745.616-.48.2-1.198.2-1.045 0-1.605-.481-.56-.485-.669-1.41z"/></g><g style="line-height:125%;-inkscape-font-specification:Arial;text-align:center" font-weight="700" font-size="8.18" font-family="Arial" letter-spacing="-.641" word-spacing="0" text-anchor="middle" fill="#fff"><path d="M120.858 63.512v-4.14h1.341q.763 0 .994.062.356.094.596.407.24.31.24.805 0 .381-.138.64-.139.26-.353.41-.212.147-.432.195-.3.06-.867.06h-.545v1.561h-.836zm.836-3.44v1.175h.457q.494 0 .661-.065.167-.065.26-.203.096-.138.096-.322 0-.226-.133-.373-.133-.146-.336-.183-.15-.028-.601-.028h-.404zM124.27 63.512v-4.14h1.76q.664 0 .963.113.302.11.483.396.18.285.18.652 0 .466-.273.77-.274.303-.819.382.271.158.446.347.178.19.477.673l.506.807h-1l-.604-.9q-.322-.484-.44-.608-.12-.127-.252-.172-.133-.048-.42-.048h-.17v1.728h-.836zm.837-2.389h.618q.602 0 .751-.05.15-.052.235-.176.085-.124.085-.31 0-.21-.113-.337-.11-.13-.314-.163-.102-.014-.61-.014h-.652v1.05zM127.995 63.512v-4.14h3.07v.7h-2.234v.918h2.078v.698h-2.078v1.127h2.312v.697h-3.148zM131.193 62.165l.813-.079q.074.41.297.602.226.192.607.192.404 0 .607-.17.206-.172.206-.4 0-.148-.087-.25-.085-.104-.3-.18-.146-.05-.669-.18-.672-.167-.943-.41-.381-.342-.381-.833 0-.317.178-.59.18-.277.516-.421.34-.144.817-.144.779 0 1.172.341.395.342.415.912l-.836.037q-.054-.319-.232-.457-.175-.141-.528-.141-.364 0-.57.15-.133.095-.133.256 0 .147.124.252.158.132.768.276.61.144.901.3.294.152.458.42.166.266.166.658 0 .356-.197.667-.198.31-.56.463-.361.15-.9.15-.785 0-1.206-.362-.421-.364-.503-1.059zM134.603 62.165l.814-.079q.073.41.296.602.226.192.607.192.404 0 .607-.17.207-.172.207-.4 0-.148-.088-.25-.085-.104-.3-.18-.146-.05-.669-.18-.672-.167-.943-.41-.381-.342-.381-.833 0-.317.178-.59.18-.277.517-.421.339-.144.816-.144.78 0 1.172.341.395.342.415.912l-.836.037q-.054-.319-.232-.457-.175-.141-.528-.141-.364 0-.57.15-.133.095-.133.256 0 .147.124.252.159.132.769.276.61.144.9.3.294.152.458.42.167.266.167.658 0 .356-.198.667-.198.31-.56.463-.36.15-.9.15-.785 0-1.206-.362-.42-.364-.503-1.059zM128.544 69.296h-.91l-.361-.94h-1.655l-.342.94h-.887l1.613-4.14h.884l1.658 4.14zm-1.54-1.638l-.57-1.536-.56 1.536h1.13zM128.57 69.296V65.19h.837v3.408h2.078v.698h-2.914zM132.133 69.296v-3.44h-1.228v-.7h3.29v.7h-1.226v3.44h-.836z" style="line-height:100%;-inkscape-font-specification:'Arial Bold'"/></g><g style="line-height:125%;-inkscape-font-specification:Arial;text-align:center" font-weight="700" font-size="5.784" font-family="Arial" letter-spacing="-.453" word-spacing="0" text-anchor="middle" fill="#fff"><path d="M120.303 33.961v-3.44h-1.228v-.7h3.29v.7h-1.226v3.44h-.836zM122.443 33.961v-4.14h3.07v.7h-2.234v.919h2.078v.697h-2.078v1.127h2.313v.697h-3.15zM125.842 33.961v-4.14h1.25l.752 2.824.743-2.824h1.254v4.14h-.777v-3.258l-.822 3.258h-.805l-.819-3.258v3.258h-.776zM130.224 33.961v-4.14h1.341q.762 0 .994.063.356.093.596.406.24.31.24.805 0 .381-.138.641-.139.26-.353.41-.212.146-.433.194-.299.06-.866.06h-.546v1.561h-.835zm.835-3.44v1.176h.458q.494 0 .66-.065.167-.065.26-.204.097-.138.097-.322 0-.226-.133-.372-.133-.147-.336-.184-.15-.028-.602-.028h-.404zM138.483 32.44l.81.256q-.186.678-.62 1.008-.433.328-1.1.328-.824 0-1.355-.562-.53-.565-.53-1.542 0-1.033.533-1.604.534-.573 1.404-.573.76 0 1.234.449.282.265.423.762l-.827.198q-.074-.322-.308-.508-.232-.187-.565-.187-.46 0-.748.33-.285.331-.285 1.071 0 .785.282 1.118.282.334.734.334.334 0 .574-.212.24-.212.344-.667z" style="-inkscape-font-specification:'Arial Bold'"/></g><path d="M135.293 30.734a.719.719 0 01-.718.719.719.719 0 01-.719-.719.719.719 0 01.719-.719.719.719 0 01.719.719z" fill="none" stroke="#fff" stroke-width=".5"/><path d="M131.064 38.059q0 .537-.097.962-.097.422-.303.694-.211.276-.542.42-.331.139-.817.139-.476 0-.813-.143-.337-.142-.545-.422-.212-.28-.306-.694-.094-.417-.094-.953 0-.554.097-.962.097-.408.308-.69.212-.28.548-.42.337-.14.805-.14.488 0 .82.145.33.143.542.428.208.28.302.691.095.408.095.945zm-1.105 0q0-.77-.151-1.096-.152-.328-.503-.328-.35 0-.502.328-.151.325-.151 1.102 0 .756.154 1.09.154.334.5.334.345 0 .499-.334.154-.334.154-1.096z" font-weight="700" font-size="5.846" font-family="Sans" letter-spacing="0" word-spacing="0" text-anchor="middle" fill="#fff"/><path d="M134.834 38.834l-2.162-.265.1-.816 2.162.265-.1.816zM126.256 38.578l-1.508.202.2 1.494-.776.103-.2-1.493-1.508.201-.1-.758 1.507-.202-.2-1.494.776-.103.2 1.494 1.507-.202.102.758z" font-weight="700" font-size="12" font-family="Sans" letter-spacing="0" word-spacing="0" text-anchor="middle" fill="#fff"/><g style="line-height:125%;-inkscape-font-specification:'Sans Bold';text-align:center" font-weight="700" font-size="5.846" font-family="Sans" letter-spacing="0" word-spacing="0" text-anchor="middle" fill="#fff"><path d="M117.193 39.765q.165.082.284.217.119.135.183.393.073.29.02.571-.05.28-.243.52-.189.233-.48.407-.29.17-.74.282-.512.128-.9.14-.386.012-.64-.03l-.227-.906.108-.027q.274.085.63.107.358.022.632-.047.161-.04.343-.112.181-.075.29-.196.084-.095.12-.207.037-.115-.01-.3-.045-.18-.152-.257-.108-.079-.254-.086-.147-.01-.339.035-.192.042-.356.083l-.227.057-.184-.737.235-.059q.216-.054.379-.11.162-.055.266-.134.109-.083.148-.184.039-.104-.004-.273-.03-.124-.113-.183-.083-.062-.191-.082-.12-.022-.272-.002-.15.02-.256.046-.26.066-.542.233-.282.165-.525.406l-.102.025-.225-.894q.205-.148.574-.33.369-.183.77-.284.39-.097.702-.102.31-.007.53.059.26.078.42.244.16.166.224.427.086.343-.059.668-.146.322-.476.484l.01.039q.146-.016.319.002.172.019.33.097zM121.568 38.53q.13.52.14.956.008.434-.125.747-.138.32-.424.539-.287.216-.758.334-.462.116-.824.06-.361-.057-.631-.278-.273-.22-.465-.598-.193-.382-.323-.902-.135-.537-.14-.957-.006-.42.13-.745.137-.323.43-.54.293-.218.747-.332.473-.118.83-.058.356.058.63.284.27.22.462.596.19.373.32.894zm-1.072.268q-.187-.747-.413-1.026-.227-.282-.567-.196-.34.085-.408.44-.067.353.122 1.106.184.734.414 1.02.231.286.566.202.335-.084.403-.445.069-.361-.117-1.1z"/></g><g style="line-height:125%;-inkscape-font-specification:'Sans Bold';text-align:center" font-weight="700" font-size="5.846" font-family="Sans" letter-spacing="0" word-spacing="0" text-anchor="middle" fill="#fff"><path d="M139.935 39.176q.1.154.134.331.033.177-.042.432-.085.287-.274.502-.186.215-.475.323-.28.105-.62.105-.336-.002-.78-.133-.506-.15-.846-.338-.338-.186-.536-.352l.266-.895.107.032q.193.212.488.412.297.202.568.282.159.047.352.078.194.028.349-.021.121-.039.21-.117.09-.08.144-.264.053-.178 0-.298-.054-.123-.176-.203-.12-.084-.309-.143-.187-.061-.348-.11l-.225-.066.216-.728.233.07q.213.063.382.098.168.035.298.02.135-.017.22-.084.087-.07.137-.236.036-.123-.005-.216-.04-.095-.123-.167-.092-.081-.232-.14-.14-.06-.244-.091-.258-.077-.585-.076-.327-.001-.659.082l-.101-.03.262-.884q.252-.024.662.009.41.03.808.147.385.115.655.27.27.151.426.32.185.2.237.424.053.224-.023.481-.101.34-.391.545-.29.203-.657.175l-.011.038q.134.06.273.164.139.104.235.252zM144.33 40.34q-.154.515-.368.895-.213.377-.487.579-.281.205-.64.248-.357.04-.822-.098-.457-.136-.74-.369-.281-.233-.401-.56-.123-.328-.096-.752.028-.426.181-.94.158-.531.367-.895.21-.364.492-.575.282-.208.645-.246.363-.038.811.095.468.14.744.373.277.23.398.565.12.327.094.748-.026.418-.179.933zm-1.06-.314q.22-.739.167-1.094-.051-.357-.388-.457-.337-.1-.575.171-.238.27-.459 1.014-.215.725-.162 1.089.052.364.384.462.33.098.573-.178.243-.276.46-1.007z"/></g><path d="M129.285 40.818c-.314 0-.627.012-.941.018l.097 2.514c-.728.014-1.455.042-2.181.09l-.098-2.514c-.647.04-1.292.11-1.937.176l.296 2.482c-.723.073-1.446.159-2.166.264l-.298-2.48c-.63.09-1.256.19-1.881.302l.496 2.455c-.716.13-1.429.28-2.139.441l-.498-2.464c-.637.14-1.27.296-1.902.46l.697 2.428c-.345.092-.69.18-1.033.28 1.363 4.37 2.718 8.749 4.084 13.117a35.169 35.169 0 0118.808 0c1.366-4.368 2.722-8.746 4.084-13.117-.359-.105-.72-.198-1.082-.293l.698-2.438a51.936 51.936 0 00-1.844-.45l-.5 2.48a48.945 48.945 0 00-2.139-.444l.498-2.469a52.503 52.503 0 00-1.877-.299l-.298 2.493a48.99 48.99 0 00-2.168-.266l.3-2.494a54.346 54.346 0 00-1.916-.15l-.101 2.501a48.914 48.914 0 00-2.184-.091l.102-2.504c-.326-.008-.65-.027-.977-.028z" fill="#fff"/><g style="line-height:125%;-inkscape-font-specification:Arial;text-align:center" font-weight="400" font-size="6.712" font-family="Arial" letter-spacing="-1.113" word-spacing="0" text-anchor="middle"><path d="M128.435 51.446h-.59v-3.759q-.213.203-.56.406-.345.204-.62.305v-.57q.495-.233.865-.564.37-.33.525-.642h.38v4.824zM128.836 49.077q0-.852.173-1.37.177-.521.522-.803.347-.282.871-.282.387 0 .679.157.291.154.481.45.19.291.299.714.108.42.108 1.134 0 .845-.174 1.366-.174.518-.521.803-.344.282-.872.282-.695 0-1.091-.498-.475-.6-.475-1.953zm.606 0q0 1.183.275 1.576.279.39.685.39.407 0 .682-.393.278-.394.278-1.573 0-1.187-.278-1.577-.275-.39-.688-.39-.407 0-.65.344-.304.44-.304 1.623z"/></g><path d="M120.894 49.894q-.384-.07-.6-.286-.217-.216-.276-.558-.088-.517.223-.933.312-.415.929-.52.62-.107 1.06.19.439.294.527.811.057.33-.076.605-.13.272-.46.464.461.068.741.346.284.277.359.717.104.607-.255 1.094-.36.487-1.06.606-.701.12-1.202-.22-.5-.343-.607-.963-.079-.462.101-.812.182-.354.596-.54zm-.285-.965q.058.336.31.512.253.176.6.117.335-.057.512-.304.18-.25.128-.557-.055-.32-.314-.498-.258-.182-.587-.126-.333.057-.516.308-.183.25-.133.548zm.187 2.219q.042.248.198.461.16.212.414.302.254.086.522.04.417-.071.643-.385.225-.315.155-.728-.072-.42-.4-.647-.325-.227-.745-.155-.41.07-.635.387-.222.318-.152.725z" font-weight="400" font-size="6.712" font-family="Arial" letter-spacing="-1.113" word-spacing="0" text-anchor="middle"/><g style="line-height:125%;-inkscape-font-specification:Arial;text-align:center" font-weight="400" font-size="6.712" font-family="Arial" letter-spacing="-1.113" word-spacing="0" text-anchor="middle"><path d="M136.02 52.393l-.58-.109.69-3.695q-.246.16-.625.297-.376.136-.665.186l.105-.56q.529-.139.954-.396.425-.257.633-.535l.374.07-.886 4.742zM139.565 52.479l-.104.557-3.121-.583q.032-.211.143-.39.178-.297.497-.558.322-.26.894-.573.888-.487 1.227-.804.34-.32.402-.648.064-.345-.14-.627-.2-.284-.597-.358-.418-.078-.717.126-.298.205-.384.649l-.585-.173q.186-.655.65-.929.466-.276 1.139-.15.68.127 1.005.578.326.45.222 1.008-.053.283-.22.536-.167.252-.494.504-.324.253-1.048.664-.604.34-.782.471-.177.127-.303.267l2.316.433z"/></g><path d="M132.768 57.273l1.368-13.751M125.97 57.257L124.665 43.5M120.525 58.208l-3.442-13.383M129.286 43.324V46m0 6.608v4.508M120.469 44.125l.482 2.632m1.19 6.5l.812 4.434M138.63 44.224l-.511 2.627m-1.261 6.487l-.86 4.424" fill="none" stroke="#000" stroke-width=".5"/><path d="M147.961 152.243l-2.856 1.021-.267-.747.902-.322-.808-2.262-.903.323-.25-.699q.208-.074.389-.164.18-.094.285-.2.124-.125.158-.267.033-.141-.017-.318l.951-.34 1.267 3.543.882-.315.267.747zM151.7 149.795l-.584.208.357.998-1.055.377-.356-.997-2.072.74-.29-.81 1.115-3.199 1.124-.402.898 2.512.583-.209.28.782zm-1.918-.196l-.552-1.546-.692 1.99 1.244-.444zM154.958 147.327q.193.54.248 1.003.055.46-.055.808-.113.354-.394.617-.283.26-.772.435-.48.172-.87.15-.39-.023-.701-.23-.314-.206-.557-.588-.245-.386-.438-.926-.2-.558-.249-1.004-.05-.445.062-.806.112-.358.4-.62.29-.262.76-.43.492-.176.878-.148.384.024.7.235.31.207.553.587.242.377.435.917zm-1.112.398q-.278-.776-.547-1.05-.27-.275-.624-.149-.353.126-.388.511-.035.382.245 1.164.272.762.547 1.042.276.281.623.157.348-.125.383-.516.035-.392-.24-1.16zM86.936 138.651l-2.324-1.95.51-.608.735.616 1.544-1.84-.734-.616.477-.567q.168.14.338.252.172.108.316.145.17.044.31.001.14-.042.266-.175l.774.65-2.42 2.882.718.602-.51.608zM91.037 140.437q-.388.463-1.03.425-.64-.035-1.328-.612-.385-.323-.594-.634-.21-.311-.272-.603-.062-.287.007-.544.07-.255.25-.468.22-.262.54-.335.325-.074.829.09l.011-.014q-.186-.395-.15-.728.036-.332.272-.613.347-.413.952-.356.605.058 1.22.574.645.542.807 1.089.167.546-.168.946-.208.248-.525.312-.318.065-.75-.067l-.011.014q.249.444.228.825-.021.381-.288.699zm.385-2.419q.149-.177.1-.398-.048-.22-.275-.41-.084-.07-.19-.124-.104-.051-.21-.072-.101-.017-.2.01-.098.027-.167.108-.116.138-.103.28.015.144.127.37.042.083.12.22.08.135.198.322.214-.036.345-.097.131-.061.255-.209zm-1.311 1.709q.141-.168.13-.325-.012-.158-.18-.49-.047-.1-.151-.274-.104-.175-.173-.297-.177.007-.37.069-.187.062-.322.223-.204.243-.153.533.056.29.336.525.075.063.193.126.12.061.232.076.13.016.242-.013.112-.03.216-.153zM94.71 142.21q-.368.44-.74.721-.37.28-.725.36-.363.082-.732-.03-.367-.112-.765-.446-.39-.328-.568-.676-.178-.349-.156-.72.02-.375.227-.779.21-.406.578-.845.38-.454.741-.721.36-.268.727-.354.366-.084.737.033.372.118.756.44.4.335.57.682.173.344.15.723-.022.372-.227.774-.203.399-.572.838zm-.904-.76q.53-.63.63-1 .102-.374-.186-.615-.287-.241-.637-.077-.348.163-.881.799-.52.619-.624.998-.103.38.18.617.283.238.638.07.356-.167.88-.791zM115.692 153.595l-2.987-.533.14-.781.943.168.422-2.364-.943-.169.13-.73q.217.039.42.05.202.008.346-.031.17-.047.269-.153.1-.107.144-.285l.994.178-.661 3.704.922.165-.14.78zM120.171 152.823q-.061.345-.242.626-.18.281-.445.448-.283.179-.626.238-.34.06-.769-.016-.402-.072-.717-.24-.31-.17-.507-.437-.228-.308-.299-.742-.071-.434.03-1.002.105-.589.322-1.021.217-.433.586-.73.354-.284.856-.386.505-.102 1.154.014.22.039.476.115.256.077.331.106l-.157.88-.114-.02q-.074-.054-.261-.137-.183-.085-.43-.129-.576-.103-.948.122-.372.225-.528.718.256-.097.526-.135.274-.041.571.012.262.046.473.146.215.1.384.267.218.219.315.54.098.321.02.763zm-1.487.432q.111-.086.19-.214.082-.131.125-.372.039-.219 0-.368-.037-.153-.133-.257-.093-.103-.235-.16-.142-.059-.298-.087-.132-.023-.282-.02-.15.005-.277.029-.005.03-.021.098-.016.069-.034.174-.066.37-.037.623.033.25.133.399.068.108.174.173.106.063.239.086.099.018.227-.006.128-.023.228-.098zM124.206 152.805q-.1.565-.283.995-.181.426-.449.673-.274.251-.65.34-.374.084-.885-.007-.501-.09-.83-.303-.327-.213-.494-.547-.17-.334-.19-.787-.022-.456.08-1.021.103-.583.282-.994.179-.412.454-.67.275-.254.656-.338.38-.084.874.004.513.092.834.307.322.212.49.552.168.334.19.784.022.448-.079 1.012zm-1.163-.207q.145-.811.047-1.182-.097-.374-.467-.44t-.59.25q-.22.315-.367 1.132-.142.796-.042 1.177.1.38.463.445t.588-.258q.225-.322.368-1.124z" style="line-height:125%;-inkscape-font-specification:'sans-serif Bold'" font-weight="700" font-family="sans-serif" letter-spacing="-.45" word-spacing="0"/><g font-weight="700" font-family="sans-serif" letter-spacing="-.35" word-spacing="0" fill="#fff"><path style="line-height:125%;-inkscape-font-specification:'sans-serif Bold'" d="M135.154 133.54l-1.397.252.652 3.607-1.153.209-.652-3.607-1.397.252-.156-.865 3.946-.713.157.865zM140.287 136.337l-1.192.215-.473-.848-1.658.3-.146.96-1.162.21.844-4.77 1.327-.24 2.46 4.173zm-2.092-1.402l-.84-1.505-.26 1.703 1.1-.198zM143.917 134.23q.12.66-.367 1.176-.485.512-1.446.686-.555.1-.987.08-.43-.026-.817-.11l-.194-1.073.127-.023q.408.221.878.295.472.072.88-.001.105-.02.273-.068.168-.05.269-.11.122-.079.191-.175.073-.097.044-.256-.026-.147-.172-.23-.142-.085-.393-.1-.263-.013-.554-.014-.29-.004-.55-.04-.598-.08-.904-.348-.303-.27-.387-.736-.113-.625.374-1.12.49-.497 1.37-.656.442-.08.887-.07.447.005.786.077l.186 1.03-.123.023q-.31-.168-.729-.24-.417-.077-.825-.004-.144.026-.285.073-.137.044-.26.122-.109.066-.176.174-.068.106-.047.223.032.177.185.249.152.068.541.079l.49.013q.237.007.513.044.544.075.84.323.298.244.382.706z"/></g><g fill="#fff"><path d="M193.372 91.582v1.385h-17.319v-1.385zM192.462 103.044l-.127.718-13.64-2.405.127-.718zM190.022 71.812l.428 1.317-16.472 5.352-.428-1.317zM180.726 54.045l.814 1.12-14.011 10.18-.815-1.12zM166.394 40.02l1.121.814-10.18 14.012-1.12-.815zM189.744 113.543l-.473 1.302-16.275-5.924.474-1.302zM178.824 132.939l-.89 1.06-13.268-11.132.89-1.061zM161.929 147.43l-1.2.692-8.66-14.999 1.2-.692zM80.637 134l-.891-1.062 13.267-11.132.89 1.061zM69.3 114.845l-.474-1.302 16.274-5.924.474 1.302zM65.198 92.967v-1.385h17.319v1.385z"/><path d="M65.198 92.967v-1.385h17.319v1.385zM68.826 71.006l.474-1.302 16.274 5.924-.474 1.302zM79.746 51.61l.89-1.06 13.268 11.132-.89 1.061zM184.969 124.002l-.365.632-11.995-6.926.365-.631zM170.76 141.133l-.56.47-8.902-10.61.558-.47zM73.968 124.634l-.365-.632 11.995-6.925.365.631zM66.236 103.762l-.126-.718 13.64-2.405.126.718zM147.994 142.609l-.685.25-1.184-3.253.685-.25zM129.65 145.972h-.729v-3.461h.73zM111.263 142.858l-.685-.249 1.184-3.253.685.25zM95.05 133.644l-.56-.47 2.225-2.65.56.468zM192.526 81.89l.114.72-13.68 2.166-.114-.72zM186.222 62.855l.33.65-12.34 6.288-.331-.65zM174.344 46.7l.516.517-9.794 9.793-.516-.515zM139.293 145.037l-1.365.24-1.207-6.844 1.365-.24zM120.643 145.278l-1.364-.241 1.207-6.845 1.364.241zM103.036 139.125l-1.2-.693 3.476-6.019 1.2.693zM88.596 127.322l-.891-1.061 5.324-4.468.89 1.062zM66.051 81.828l.24-1.364 17.057 3.007-.24 1.365zM73.437 60.83l.693-1.199 15 8.66-.694 1.2zM65.412 87.052l.063-.726 13.798 1.207-.064.727zM67.289 76.04l.189-.704 13.378 3.584-.189.705zM71.05 65.521l.308-.66 12.553 5.853-.308.66zM76.58 55.815l.419-.598 11.345 7.945-.418.597z"/></g><path d="M63.626 92.042l.042 2.571 12.218-.196.38-.639c1.597-.14 5.157-.378 6.426-.757-1.269-.38-4.833-.513-6.447-.549l-.4-.626z" fill="url(#m)"/><path d="M164.898 43.287l-4.071 5.601a53.693 53.693 0 0122.152 43.386 53.693 53.693 0 01-7.284 26.901l5.985 3.47a60.636 60.636 0 008.243-30.371 60.636 60.636 0 00-25.025-48.987z" fill="#fff"/></g></svg>