<svg xmlns="http://www.w3.org/2000/svg" width="700" height="700" viewBox="0 0 185.208 185.208"><path d="M92.599 7.948c-46.755 0-84.657 37.902-84.657 84.656 0 46.755 37.902 84.657 84.657 84.657 46.754 0 84.656-37.902 84.656-84.657 0-46.754-37.902-84.656-84.656-84.656zm61.585 73.812a62.497 62.497 0 010 21.712l-22.546-3.98c.802-4.548.8-9.203 0-13.752-.002-.008.001-.016 0-.024l22.546-3.956z" fill="#1e1e1e"/><g fill="#fff"><path d="M91.828 22.446h1.525v11.44h-1.525zM50.73 36.295l1.235-.897 6.724 9.256-1.234.896zM25.623 71.655l.471-1.451 10.88 3.535-.47 1.45zM26.094 115.02l-.471-1.451 10.88-3.535.471 1.45zM51.964 149.825l-1.234-.896 6.725-9.255 1.234.896zM93.353 162.778h-1.525v-11.44h1.525zM134.45 148.93l-1.235.896-6.724-9.255 1.234-.897zM159.558 113.569l-.472 1.45-10.88-3.535.472-1.45zM159.086 70.204l.471 1.45-10.88 3.536-.471-1.45zM133.215 35.398l1.234.897-6.724 9.255-1.234-.897z"/><g><path d="M83.418 23.048l.757-.096.955 7.567-.756.095zM74.771 24.745l.74-.19 1.896 7.388-.739.19zM66.406 27.514l.709-.281 2.807 7.09-.709.282zM58.453 31.309l.668-.367 3.675 6.683-.669.367zM44.28 41.725l.556-.522 5.221 5.56-.556.521zM38.283 48.18l.486-.587 5.877 4.862-.486.587zM33.143 55.338l.408-.644 6.44 4.086-.409.644zM28.94 63.082l.325-.69 6.9 3.247-.324.69zM23.595 79.839l.143-.75 7.492 1.43-.143.75zM22.539 88.587l.048-.762 7.611.48-.047.76zM22.587 97.398l-.048-.76 7.611-.48.048.761zM23.738 106.135l-.143-.75 7.492-1.429.143.75z"/><g><path d="M29.264 122.832l-.324-.69 6.9-3.247.325.69zM33.551 130.53l-.408-.643 6.44-4.087.408.644zM38.77 137.631l-.487-.587 5.877-4.862.486.588zM44.836 144.022l-.556-.522 5.22-5.56.557.522z"/></g><g><path d="M59.121 154.283l-.668-.368 3.674-6.683.668.367zM67.115 157.99l-.71-.28 2.808-7.091.71.28zM75.51 160.669l-.74-.19 1.898-7.387.738.19zM84.174 162.272l-.756-.095.956-7.567.756.096z"/></g><g><path d="M101.762 162.176l-.757.096-.956-7.567.757-.095zM110.41 160.479l-.74.19-1.896-7.388.738-.19zM118.774 157.71l-.709.28-2.807-7.09.709-.281zM126.727 153.915l-.669.368-3.674-6.684.668-.367z"/></g><g><path d="M140.9 143.5l-.556.522-5.221-5.56.556-.522zM146.896 137.044l-.486.587-5.876-4.861.486-.588zM152.037 129.887l-.409.644-6.44-4.087.41-.644zM156.24 122.142l-.325.69-6.9-3.247.324-.69z"/></g><g><path d="M161.584 105.385l-.143.75-7.491-1.43.143-.749zM162.642 96.637l-.048.761-7.612-.479.048-.761zM162.593 87.826l.048.76-7.611.48-.048-.762zM161.441 79.09l.143.749-7.491 1.43-.143-.75z"/></g><g><path d="M155.916 62.392l.324.69-6.9 3.247-.325-.69zM151.629 54.693l.408.644-6.439 4.087-.409-.644zM146.41 47.593l.487.588-5.877 4.861-.486-.588zM140.344 41.203l.556.522-5.221 5.56-.556-.523z"/></g><g><path d="M126.058 30.942l.669.367-3.675 6.683-.668-.367zM118.065 27.233l.71.28-2.808 7.092-.71-.28zM109.67 24.556l.739.19-1.897 7.387-.739-.19zM101.006 22.952l.756.096-.955 7.566-.757-.095z"/></g></g><g font-weight="400" font-size="12" font-family="Sans"><g style="-inkscape-font-specification:Sans"><path style="-inkscape-font-specification:'Andale Mono Bold';text-align:center" d="M94.128 41.643c0-1.251-.118-2.131-.355-2.64-.232-.515-.626-.772-1.18-.772-.554 0-.95.257-1.186.771-.237.51-.355 1.39-.355 2.641 0 1.265.118 2.156.355 2.675.237.518.632.777 1.186.777.55 0 .943-.259 1.18-.777.237-.519.355-1.41.355-2.675m2.581.02c0 1.658-.357 2.939-1.072 3.841-.715.899-1.73 1.348-3.044 1.348-1.318 0-2.335-.45-3.05-1.348-.715-.902-1.072-2.183-1.072-3.84 0-1.663.357-2.943 1.072-3.841.715-.903 1.732-1.355 3.05-1.355 1.314 0 2.329.452 3.044 1.355.715.898 1.072 2.178 1.072 3.84" font-weight="700" font-size="18" text-anchor="middle"/></g><g style="-inkscape-font-specification:Sans"><path style="-inkscape-font-specification:'Andale Mono Bold';text-align:center" d="M89.218 138.085h6.415v1.897h-4.357v1.548c.197-.053.393-.094.59-.12.201-.032.409-.047.623-.047 1.22 0 2.17.306 2.85.918.679.608 1.018 1.457 1.018 2.547 0 1.082-.37 1.928-1.113 2.54-.737.613-1.763.92-3.076.92a8.873 8.873 0 01-3.345-.664v-2.032a8.147 8.147 0 001.548.704c.492.157.954.235 1.388.235.625 0 1.117-.152 1.474-.456.362-.308.543-.724.543-1.247 0-.527-.18-.943-.543-1.247-.357-.303-.849-.455-1.474-.455-.371 0-.767.049-1.187.147-.42.094-.871.241-1.354.442v-5.63" font-weight="700" font-size="18" text-anchor="middle"/></g><g style="-inkscape-font-specification:Sans"><path d="M121.829 131.515l-2.829 4.19h2.829v-4.19m-.43-2.125h2.87v6.314h1.427v1.87h-1.427v1.824h-2.44v-1.824h-4.438v-2.212l4.009-5.972" style="-inkscape-font-specification:'Andale Mono Bold';text-align:center" font-weight="700" font-size="18" text-anchor="middle"/></g><g style="-inkscape-font-specification:Sans"><path d="M63.6 134.263c-.452 0-.792.148-1.02.443-.223.29-.335.728-.335 1.313 0 .586.112 1.026.335 1.32.228.291.568.437 1.02.437.455 0 .795-.146 1.018-.436.228-.295.342-.735.342-1.32 0-.586-.114-1.024-.342-1.314-.223-.295-.563-.443-1.019-.443m3.191-4.806v1.85a6.52 6.52 0 00-1.2-.442 4.33 4.33 0 00-1.1-.148c-.768 0-1.367.215-1.796.644-.429.424-.679 1.057-.75 1.897.295-.22.614-.382.958-.49a3.63 3.63 0 011.126-.167c1.024 0 1.848.3 2.474.898.63.599.945 1.383.945 2.353 0 1.072-.35 1.933-1.052 2.58-.702.644-1.643.966-2.823.966-1.3 0-2.308-.438-3.023-1.314-.71-.88-1.065-2.127-1.065-3.74 0-1.654.415-2.952 1.246-3.895.836-.947 1.98-1.421 3.432-1.421.46 0 .908.036 1.341.107a8.22 8.22 0 011.287.322" style="-inkscape-font-specification:'Andale Mono Bold';text-align:center" font-weight="700" font-size="18" text-anchor="middle"/></g><g style="-inkscape-font-specification:Sans"><path d="M143.579 107.79c.675.174 1.186.478 1.535.912.353.429.53.976.53 1.642 0 .992-.38 1.747-1.14 2.266-.76.514-1.868.77-3.325.77-.514 0-1.03-.042-1.548-.127a9.75 9.75 0 01-1.529-.368v-1.991c.483.241.961.424 1.435.55.478.12.947.18 1.407.18.684 0 1.207-.118 1.569-.355.366-.237.55-.576.55-1.019 0-.456-.188-.8-.563-1.032-.371-.237-.921-.355-1.65-.355h-1.032V107.2h1.086c.648 0 1.13-.1 1.448-.301.317-.206.476-.517.476-.932 0-.384-.154-.682-.462-.892-.309-.21-.745-.315-1.308-.315-.415 0-.835.047-1.26.141a6.882 6.882 0 00-1.267.416v-1.89c.51-.144 1.015-.25 1.515-.322.5-.072.992-.108 1.475-.108 1.3 0 2.272.215 2.916.644.648.424.972 1.066.972 1.924 0 .585-.154 1.065-.463 1.44-.308.372-.764.633-1.367.785" style="-inkscape-font-specification:'Andale Mono Bold';text-align:center" font-weight="700" font-size="18" text-anchor="middle"/></g><g style="-inkscape-font-specification:Sans"><path d="M39.537 103.373h7.54v1.454l-3.9 8.554h-2.514l3.693-8.111h-4.82v-1.897" style="-inkscape-font-specification:'Andale Mono Bold';text-align:center" font-weight="700" font-size="18" text-anchor="middle"/></g><g><g style="-inkscape-font-specification:Sans"><path d="M141.24 78.532h4.403v1.897h-7.273v-1.897l3.654-3.224c.326-.295.567-.583.724-.865.156-.281.234-.574.234-.878 0-.47-.158-.847-.476-1.133-.313-.286-.73-.429-1.253-.429-.402 0-.843.087-1.32.262a8.02 8.02 0 00-1.536.764V70.83c.581-.192 1.155-.337 1.723-.436a9.357 9.357 0 011.669-.154c1.198 0 2.127.264 2.789.791.665.528.998 1.263.998 2.206a2.94 2.94 0 01-.422 1.528c-.282.47-.874 1.1-1.776 1.89l-2.139 1.877" style="-inkscape-font-specification:'Andale Mono Bold';text-align:center" font-weight="700" font-size="18" text-anchor="middle"/></g><g style="-inkscape-font-specification:Sans"><path d="M43.478 75.757c-.483 0-.853.132-1.113.395-.259.264-.388.642-.388 1.133 0 .492.13.87.388 1.133.26.26.63.389 1.113.389.478 0 .845-.13 1.1-.389.254-.264.381-.641.381-1.133 0-.496-.127-.873-.382-1.133-.254-.263-.62-.395-1.099-.395m-1.884-.851c-.607-.184-1.065-.465-1.374-.845-.308-.38-.462-.853-.462-1.421 0-.845.315-1.488.945-1.93.63-.443 1.555-.664 2.775-.664 1.211 0 2.132.221 2.762.663.63.438.945 1.082.945 1.931 0 .568-.156 1.041-.47 1.421-.308.38-.766.661-1.373.845.679.187 1.19.493 1.535.918.348.42.522.952.522 1.595 0 .992-.33 1.743-.992 2.253-.657.505-1.633.757-2.929.757-1.3 0-2.283-.252-2.95-.757-.66-.51-.991-1.26-.991-2.253 0-.643.172-1.175.516-1.595.348-.425.862-.73 1.541-.918m.604-2.005c0 .398.11.704.328.919.224.214.541.322.952.322.402 0 .713-.108.932-.322.219-.215.328-.52.328-.919 0-.397-.11-.701-.328-.911-.22-.215-.53-.322-.932-.322-.411 0-.728.107-.952.322-.219.214-.328.518-.328.911" style="-inkscape-font-specification:'Andale Mono Bold';text-align:center" font-weight="700" font-size="18" text-anchor="middle"/></g></g><g><g style="-inkscape-font-specification:Sans"><path d="M118.698 52.93h2.28v-6.47l-2.34.483v-1.756l2.326-.483h2.453v8.225h2.28v1.783h-6.999V52.93" style="-inkscape-font-specification:'Andale Mono Bold';text-align:center" font-weight="700" font-size="18" text-anchor="middle"/></g><g style="-inkscape-font-specification:Sans"><path d="M60.147 54.297v-1.85c.411.192.805.337 1.18.435.375.094.746.141 1.113.141.768 0 1.367-.212 1.796-.637.43-.429.682-1.063.758-1.903a3.413 3.413 0 01-.972.502 3.606 3.606 0 01-1.12.168c-1.023 0-1.85-.297-2.48-.892-.626-.598-.938-1.385-.938-2.36 0-1.076.348-1.939 1.045-2.587.702-.648 1.64-.972 2.816-.972 1.304 0 2.314.44 3.03 1.321.714.88 1.072 2.125 1.072 3.734 0 1.653-.418 2.953-1.254 3.9-.835.944-1.981 1.415-3.438 1.415a8.19 8.19 0 01-1.348-.107 7.627 7.627 0 01-1.26-.308m3.184-4.82c.452 0 .791-.145 1.019-.436.228-.295.342-.735.342-1.32 0-.581-.114-1.02-.342-1.314-.228-.295-.567-.442-1.019-.442-.451 0-.79.147-1.019.442-.228.295-.342.733-.342 1.314 0 .585.114 1.025.342 1.32.228.29.568.436 1.02.436" style="-inkscape-font-specification:'Andale Mono Bold';text-align:center" font-weight="700" font-size="18" text-anchor="middle"/></g></g></g><path d="M157.77 91.085l-2.645 1.525 2.646 1.526H177.266v-3.05H158.01z"/><g style="-inkscape-font-specification:Sans" font-weight="400" font-size="8" font-family="Sans"><path d="M74.218 39.905l.935-.305-1.052-3.226-.95.535-.17-.521.945-.533.572-.187 1.221 3.748.935-.305.157.482-2.436.793-.157-.481M78.248 35.015c-.3.075-.49.28-.568.615-.076.333-.04.796.108 1.389.148.592.335 1.017.56 1.276.225.257.488.347.789.272.302-.076.492-.28.568-.612.078-.335.043-.798-.105-1.39-.148-.593-.336-1.018-.562-1.275-.224-.259-.488-.35-.79-.275m-.116-.462c.484-.121.9-.022 1.25.298.353.317.62.84.802 1.568.182.727.193 1.314.032 1.761-.158.445-.48.728-.963.85-.484.12-.902.022-1.253-.295-.35-.32-.617-.843-.798-1.57-.183-.727-.195-1.314-.036-1.76.16-.447.483-.731.966-.852M82.325 34.145c-.305.054-.508.245-.61.574-.1.326-.096.79.01 1.393.107.6.263 1.038.468 1.312.208.272.464.38.77.327.306-.055.51-.245.61-.571.1-.329.098-.793-.008-1.393-.107-.603-.263-1.04-.47-1.312-.207-.274-.463-.384-.77-.33m-.083-.47c.49-.086.9.043 1.227.386.328.341.558.881.689 1.62.13.738.1 1.324-.092 1.76-.19.432-.53.692-1.02.78-.492.086-.901-.041-1.23-.383-.327-.343-.556-.884-.686-1.62-.13-.74-.101-1.326.089-1.76.19-.434.532-.695 1.023-.782M99.728 33.266l2.532.356-.071.502-1.935-.273-.183 1.298 1.747.246-.07.502L100 35.65l-.296 2.103-.596-.083.62-4.405M103.497 33.841l2.753.577-.104.495-2.163-.453-.27 1.289 2.073.434-.104.496-2.073-.434-.33 1.577 2.215.464-.104.496-2.805-.588.912-4.353M107.569 34.748l2.706.767-.138.487-2.127-.603-.36 1.267 2.039.578-.139.487-2.037-.578-.44 1.551 2.178.618-.138.487-2.757-.782 1.213-4.28M110.98 35.727l3.542 1.271-.17.477-1.487-.534-1.331 3.71-.57-.204 1.332-3.71-1.486-.533.17-.477"/></g></g><g color="#000"><path style="marker:none" d="M83.057 109.119l-.476.81 19.567 19.567c-1.172.3-2.361.553-3.551.74l-17.59-17.566-1.572 2.74 15.23 15.23a38.687 38.687 0 01-4.29 0l-12.513-12.512-1.597 2.74 9.176 9.176a38.09 38.09 0 0020.044-1.549l-17.399-17.374a19.043 19.043 0 01-5.029-2.002zm2.384 20.925c-.477-.09-.958-.177-1.43-.286.473.11.953.195 1.43.286zm16.683-20.925c-.675.39-1.367.724-2.073 1.024l6.292 6.292zm-5.315 2.073a19.078 19.078 0 01-3.86.477l15.586 15.587a38.15 38.15 0 002.86-1.478zM74.692 123.61l-1.168 2.026a38.198 38.198 0 006.006 2.789zm4.838 4.815z" overflow="visible" fill="#1e1e1e"/><path style="marker:none" d="M82.58 109.929l-1.572 2.74 17.589 17.566c1.19-.186 2.38-.44 3.551-.739zm17.47.214c-1.054.447-2.14.8-3.24 1.05l14.585 14.585c.087-.049.176-.093.263-.143l-5.315-9.2zm-11.964.978l17.399 17.374a37.15 37.15 0 003.05-1.24L92.948 111.67c-1.63.028-3.266-.16-4.862-.548zm-8.651 4.29l-1.573 2.717 12.512 12.512a38.74 38.74 0 004.29 0zm-3.17 5.458l-1.573 2.74 4.838 4.815a38.064 38.064 0 005.91 1.62z" overflow="visible" fill="#fff"/></g></svg>