<svg xmlns="http://www.w3.org/2000/svg" width="700" height="700" viewBox="0 0 185.208 185.208"><defs><filter id="a" x="-.12" width="1.239" y="-.12" height="1.241"><feGaussianBlur stdDeviation="4.988"/></filter></defs><path style="marker:none" d="M391.875 883.378c-27.614 0-50 22.386-50 50 0 18.498 10.067 34.664 25 43.312l12.5-21.656a25 25 0 0025 0l12.5 21.656c14.947-8.645 25-24.804 25-43.312 0-27.614-22.386-50-50-50zm-22.062 94.875zm44.125 0c-.497.244-.998.492-1.5.719.505-.229 1.003-.475 1.5-.72zm-1.5.719zm-3.063 1.25c-.305.114-.6.235-.906.343.304-.107.604-.23.906-.343zm-28.75 1.875zm22.5 0zm-19.312.625c.364.059.727.136 1.093.187-.368-.052-.726-.127-1.093-.187zm16.125 0c-.409.067-.81.13-1.22.187.409-.056.815-.122 1.22-.187z" color="#000" overflow="visible" fill-opacity=".392" filter="url(#a)" enable-background="accumulate" transform="translate(-206.268 -619.078) scale(.76267)"/><path style="marker:none" d="M92.607 54.472c-21.061 0-38.134 17.073-38.134 38.134 0 14.108 7.677 26.437 19.067 33.033l9.533-16.517a19.067 19.067 0 0019.067 0l9.533 16.517c11.4-6.593 19.067-18.918 19.067-33.033 0-21.06-17.073-38.134-38.133-38.134zM75.78 126.831zm33.653 0c-.379.186-.76.375-1.144.548.385-.174.766-.362 1.144-.548zm-1.144.548zm-2.336.953c-.232.087-.457.18-.69.262.231-.081.46-.176.69-.262zm-21.926 1.43zm17.16 0zm-14.73.477c.278.045.555.104.835.143-.281-.04-.554-.097-.834-.143zm12.299 0c-.312.051-.618.1-.93.143.311-.043.62-.093.93-.143z" color="#000" overflow="visible" fill="#1e1e1e" enable-background="accumulate"/><path d="M88.79 21.938l3.432 5.934v34.225l-.762 1.311v27.123h2.288V63.408l-.763-1.31V27.871l3.432-5.934h-4.195z" fill="#fff" stroke="#323232" stroke-width=".22880099999999998"/><g style="-inkscape-font-specification:Sans" font-weight="400" font-size="16" font-family="Sans" fill="#fff" text-anchor="middle"><path style="-inkscape-font-specification:'Andale Mono';text-align:center" d="M102.34 71.547l-1.632 4.427h3.27l-1.638-4.427m-.68-1.185h1.365l3.39 8.895h-1.25l-.81-2.282h-4.01l-.811 2.282h-1.27l3.397-8.895M107.709 70.362h1.203v7.882h4.332v1.013h-5.535v-8.895M111.6 70.362h7.525v1.012h-3.158v7.883h-1.21v-7.883H111.6v-1.012"/></g><g style="-inkscape-font-specification:Sans" font-weight="400" font-size="6" font-family="Sans" fill="#fff" text-anchor="middle"><path style="text-align:center" d="M62.254 83.477v.476a1.592 1.592 0 00-.487-.317 1.433 1.433 0 00-.547-.105c-.381 0-.673.117-.876.35-.203.233-.304.57-.304 1.01 0 .44.101.777.304 1.01.203.233.495.35.876.35.194 0 .376-.036.547-.106.173-.07.336-.175.487-.317v.471a1.838 1.838 0 01-1.06.322c-.506 0-.904-.154-1.194-.462-.29-.31-.436-.732-.436-1.267 0-.536.145-.959.436-1.267.29-.31.688-.465 1.193-.465.2 0 .387.027.563.08.177.053.344.132.498.237M64.071 83.665l-.612 1.66h1.226l-.614-1.66m-.255-.445h.512l1.271 3.336h-.469l-.304-.855h-1.504l-.303.855h-.476l1.273-3.336M66.084 83.22h.452v2.957h1.624v.38h-2.076V83.22M68.631 83.22h.452v3.336h-.452V83.22M70.432 84.963v1.223h.724c.243 0 .423-.05.539-.15.117-.101.176-.256.176-.463 0-.208-.059-.362-.176-.46-.116-.1-.296-.15-.539-.15h-.724m0-1.372v1.006h.668c.22 0 .385-.041.492-.123.109-.083.163-.21.163-.38 0-.168-.054-.294-.163-.377-.107-.084-.271-.126-.492-.126h-.668m-.451-.37h1.153c.344 0 .61.071.795.214.187.143.28.346.28.61 0 .204-.048.366-.143.487a.64.64 0 01-.42.226.871.871 0 01.516.3c.123.15.185.338.185.564 0 .298-.101.529-.304.69-.202.163-.49.244-.864.244H69.98V83.22M74.7 84.992c.097.033.19.103.282.21.092.108.184.255.277.443l.458.911h-.485l-.427-.855c-.11-.224-.217-.372-.322-.445-.103-.073-.243-.11-.422-.11h-.492v1.41h-.45V83.22h1.018c.381 0 .666.08.853.24.188.159.282.4.282.721 0 .21-.05.385-.147.523a.75.75 0 01-.425.288m-1.13-1.4v1.184h.567c.217 0 .381-.05.492-.15.111-.101.167-.25.167-.445s-.056-.342-.167-.44c-.11-.1-.275-.15-.492-.15h-.568"/><path style="text-align:center" d="M77.227 83.665l-.612 1.66h1.227l-.615-1.66m-.255-.445h.512l1.271 3.336h-.469l-.304-.855H76.48l-.304.855h-.476l1.273-3.336M78.42 83.22h2.822v.38h-1.184v2.956h-.453V83.6H78.42v-.38M81.68 83.22h2.11v.38h-1.658v.988h1.588v.38h-1.588v1.209h1.698v.38h-2.15V83.22M85.027 83.591v2.595h.546c.46 0 .796-.105 1.01-.313.214-.209.321-.538.321-.988 0-.447-.107-.774-.321-.98-.214-.21-.55-.314-1.01-.314h-.546m-.451-.37h.927c.647 0 1.121.134 1.424.404.302.268.453.688.453 1.26 0 .575-.152.997-.456 1.267-.304.27-.777.404-1.42.404h-.928V83.22M70.265 88.94h2.822v.38h-1.184v2.956h-.454V89.32h-1.184v-.38M74.879 89.247a.946.946 0 00-.782.366c-.192.244-.289.577-.289.999 0 .42.097.752.289.996a.946.946 0 00.782.367.934.934 0 00.777-.367c.192-.244.289-.576.289-.996 0-.422-.097-.755-.289-.999a.934.934 0 00-.777-.366m0-.367c.467 0 .841.157 1.121.472.28.312.42.733.42 1.26 0 .526-.14.946-.42 1.26-.28.313-.654.47-1.121.47-.47 0-.845-.157-1.126-.47-.28-.313-.42-.733-.42-1.26s.14-.948.42-1.26c.281-.315.657-.472 1.126-.472M60.002 97.617h1.575v.38H59.46v-.38c.172-.178.405-.415.7-.713.296-.3.482-.492.558-.579.145-.162.245-.3.302-.41a.726.726 0 00.087-.334.554.554 0 00-.188-.433.695.695 0 00-.485-.168c-.141 0-.29.025-.449.074-.156.049-.324.123-.502.223v-.456c.181-.073.351-.128.509-.165.158-.037.302-.056.433-.056.346 0 .622.087.827.26a.859.859 0 01.309.692.996.996 0 01-.079.391 1.86 1.86 0 01-.279.434c-.037.043-.156.168-.355.375-.2.206-.481.494-.845.865M63.492 94.958c-.232 0-.407.114-.525.344-.116.228-.174.571-.174 1.03 0 .457.058.8.174 1.03.118.228.293.342.525.342.234 0 .41-.114.525-.342.118-.23.177-.573.177-1.03 0-.459-.059-.802-.177-1.03-.116-.23-.29-.344-.525-.344m0-.358c.374 0 .66.148.856.445.198.295.297.724.297 1.287 0 .561-.099.99-.297 1.287-.197.295-.482.442-.856.442s-.66-.147-.858-.442c-.196-.297-.295-.726-.295-1.287 0-.563.099-.992.295-1.287.198-.297.484-.445.858-.445M67.863 94.958c-.233 0-.408.114-.525.344-.116.228-.175.571-.175 1.03 0 .457.059.8.175 1.03.117.228.292.342.525.342.234 0 .409-.114.525-.342.118-.23.176-.573.176-1.03 0-.459-.059-.802-.176-1.03-.116-.23-.291-.344-.525-.344m0-.358c.374 0 .659.148.856.445.198.295.297.724.297 1.287 0 .561-.1.99-.297 1.287-.197.295-.482.442-.856.442s-.66-.147-.858-.442c-.197-.297-.295-.726-.295-1.287 0-.563.098-.992.295-1.287.198-.297.484-.445.858-.445M70.776 94.958c-.232 0-.407.114-.525.344-.116.228-.174.571-.174 1.03 0 .457.058.8.174 1.03.118.228.293.342.525.342.234 0 .41-.114.526-.342.117-.23.176-.573.176-1.03 0-.459-.059-.802-.176-1.03-.117-.23-.292-.344-.526-.344m0-.358c.374 0 .66.148.856.445.198.295.297.724.297 1.287 0 .561-.099.99-.297 1.287-.196.295-.482.442-.856.442-.373 0-.66-.147-.858-.442-.196-.297-.295-.726-.295-1.287 0-.563.099-.992.295-1.287.199-.297.485-.445.858-.445M73.69 94.958c-.232 0-.407.114-.525.344-.116.228-.174.571-.174 1.03 0 .457.058.8.174 1.03.118.228.293.342.525.342.234 0 .409-.114.525-.342.118-.23.177-.573.177-1.03 0-.459-.06-.802-.177-1.03-.116-.23-.291-.344-.525-.344m0-.358c.374 0 .66.148.856.445.198.295.297.724.297 1.287 0 .561-.099.99-.297 1.287-.197.295-.482.442-.856.442s-.66-.147-.858-.442c-.197-.297-.295-.726-.295-1.287 0-.563.098-.992.295-1.287.198-.297.484-.445.858-.445M77.055 94.66h1.917v.38h-1.466v.984h1.323v.38h-1.323v1.593h-.45V94.66M79.692 94.66H81.8v.38h-1.658v.988h1.589v.38h-1.589v1.209h1.698v.38h-2.15V94.66M82.587 94.66h2.11v.38h-1.658v.988h1.588v.38H83.04v1.209h1.698v.38h-2.15V94.66M85.02 94.66h2.823v.38h-1.185v2.957h-.453V95.04H85.02v-.38"/></g></svg>