<svg xmlns="http://www.w3.org/2000/svg" height="400.666" width="400.667"><defs><linearGradient id="a"><stop offset="0" stop-color="#969696"/><stop offset="1"/></linearGradient><linearGradient id="b"><stop offset="0" stop-color="#bcb8ae"/><stop offset="1" stop-color="#5f5a4f"/></linearGradient><linearGradient id="c"><stop offset="0" stop-color="#7d7d7d"/><stop offset="1" stop-opacity=".984"/></linearGradient><linearGradient id="d"><stop offset="0" stop-color="#ff3506"/><stop offset=".5" stop-color="#c22500"/><stop offset="1" stop-color="#ff3506"/></linearGradient><linearGradient id="e"><stop offset="0" stop-color="#5e5e5e"/><stop offset="1" stop-color="#272727"/></linearGradient><linearGradient id="f"><stop offset="0" stop-color="#191919"/><stop offset="1" stop-opacity="0"/></linearGradient><linearGradient id="g"><stop offset="0" stop-color="#9fa5d3"/><stop offset="1" stop-color="#5c6994"/></linearGradient><linearGradient id="h"><stop offset="0" stop-color="#5d4625"/><stop offset="1" stop-color="#af814b"/></linearGradient><linearGradient id="i"><stop offset="0" stop-color="#373737" stop-opacity=".369"/><stop offset="1" stop-color="#e1e1e1" stop-opacity=".235"/></linearGradient><linearGradient id="j"><stop offset="0" stop-color="#4b4b4b"/><stop offset=".567" stop-color="#7d7d7d"/><stop offset="1" stop-color="#4b4b4b"/></linearGradient><linearGradient id="k"><stop offset="0" stop-color="#c0ba08"/><stop offset=".5" stop-color="#f8f35c"/><stop offset="1" stop-color="#bfba09"/></linearGradient><linearGradient id="l"><stop offset="0" stop-color="#404040"/><stop offset=".5" stop-color="#505050"/><stop offset="1" stop-color="#404040"/></linearGradient><linearGradient id="m"><stop offset="0" stop-color="#191919"/><stop offset="1" stop-color="#2d2d2d"/></linearGradient><linearGradient id="n"><stop offset="0" stop-color="#4c4c4c"/><stop offset="1" stop-opacity="0"/></linearGradient><linearGradient id="o"><stop offset="0" stop-color="#202020"/><stop offset="1" stop-color="#5d5d5d"/></linearGradient><linearGradient id="p"><stop offset="0" stop-color="#e3e4f3"/><stop offset="1" stop-color="#8491b4"/></linearGradient><linearGradient id="q"><stop offset="0" stop-color="#987440"/><stop offset="1" stop-color="#d5bb9b"/></linearGradient><filter height="1.03" y="-.015" width="1.02" x="-.01" id="r" color-interpolation-filters="sRGB"><feGaussianBlur stdDeviation=".622"/></filter></defs><g filter="url(#r)" transform="matrix(1.11067 0 0 1.11067 -332.614 355.635)"><g transform="rotate(-45)"><rect ry="0" y="237.802" x="436.008" height="5" width="5"/><rect width="5" height="5" x="442.619" y="244.413" ry="0"/><rect ry="0" y="251.025" x="449.231" height="5" width="5"/><rect width="5" height="5" x="455.842" y="257.636" ry="0"/><rect ry="0" y="264.248" x="462.454" height="5" width="5"/><rect width="5" height="5" x="469.065" y="270.859" ry="0"/><rect width="5" height="5" x="429.397" y="231.19" ry="0"/><rect ry="0" y="224.579" x="422.785" height="5" width="5"/><rect width="5" height="5" x="416.174" y="217.967" ry="0"/><rect ry="0" y="211.356" x="409.562" height="5" width="5"/><rect width="5" height="5" x="402.951" y="204.745" ry="0"/><rect width="5" height="5" x="429.397" y="244.413" ry="0"/><rect ry="0" y="251.025" x="422.785" height="5" width="5"/><rect width="5" height="5" x="416.174" y="257.636" ry="0"/><rect ry="0" y="264.248" x="409.562" height="5" width="5"/><rect width="5" height="5" x="402.951" y="270.859" ry="0"/><rect width="5" height="5" x="442.619" y="231.19" ry="0"/><rect ry="0" y="224.579" x="449.231" height="5" width="5"/><rect width="5" height="5" x="455.842" y="217.967" ry="0"/><rect ry="0" y="211.356" x="462.454" height="5" width="5"/><rect width="5" height="5" x="469.065" y="204.745" ry="0"/></g></g><g transform="scale(1.11067) rotate(-45 236.777 521.59)" fill="#fff"><rect width="5" height="5" x="436.008" y="237.802" ry="0"/><rect ry="0" y="244.413" x="442.619" height="5" width="5"/><rect width="5" height="5" x="449.231" y="251.025" ry="0"/><rect ry="0" y="257.636" x="455.842" height="5" width="5"/><rect width="5" height="5" x="462.454" y="264.248" ry="0"/><rect ry="0" y="270.859" x="469.065" height="5" width="5"/><rect ry="0" y="231.19" x="429.397" height="5" width="5"/><rect width="5" height="5" x="422.785" y="224.579" ry="0"/><rect ry="0" y="217.967" x="416.174" height="5" width="5"/><rect width="5" height="5" x="409.562" y="211.356" ry="0"/><rect ry="0" y="204.745" x="402.951" height="5" width="5"/><rect ry="0" y="244.413" x="429.397" height="5" width="5"/><rect width="5" height="5" x="422.785" y="251.025" ry="0"/><rect ry="0" y="257.636" x="416.174" height="5" width="5"/><rect width="5" height="5" x="409.562" y="264.248" ry="0"/><rect ry="0" y="270.859" x="402.951" height="5" width="5"/><rect ry="0" y="231.19" x="442.619" height="5" width="5"/><rect width="5" height="5" x="449.231" y="224.579" ry="0"/><rect ry="0" y="217.967" x="455.842" height="5" width="5"/><rect width="5" height="5" x="462.454" y="211.356" ry="0"/><rect ry="0" y="204.745" x="469.065" height="5" width="5"/></g></svg>