<svg xmlns="http://www.w3.org/2000/svg" xmlns:xlink="http://www.w3.org/1999/xlink" width="400.667" height="400.666"><defs><radialGradient gradientUnits="userSpaceOnUse" gradientTransform="matrix(.71411 -.5429 .52087 .68514 21.311 218.605)" r="9.743" fy="156.935" fx="334.201" cy="156.935" cx="334.201" id="h" xlink:href="#a"/><radialGradient gradientUnits="userSpaceOnUse" gradientTransform="matrix(.97322 0 0 .62819 9.149 55.162)" r="9.743" fy="148.36" fx="341.579" cy="148.36" cx="341.579" id="i" xlink:href="#a"/><radialGradient gradientTransform="translate(55.5 5.5)" gradientUnits="userSpaceOnUse" r="8.372" fy="145.743" fx="284.118" cy="145.743" cx="284.118" id="k" xlink:href="#b"/><radialGradient gradientUnits="userSpaceOnUse" gradientTransform="matrix(.71411 -.5429 .52087 .68514 -97.113 383.234)" r="9.743" fy="156.935" fx="334.201" cy="156.935" cx="334.201" id="d" xlink:href="#a"/><radialGradient gradientUnits="userSpaceOnUse" gradientTransform="matrix(.97322 0 0 .62819 -109.275 219.792)" r="9.743" fy="148.36" fx="341.579" cy="148.36" cx="341.579" id="e" xlink:href="#a"/><radialGradient gradientTransform="translate(-60.963 173.439)" gradientUnits="userSpaceOnUse" r="8.372" fy="145.743" fx="284.118" cy="145.743" cx="284.118" id="g" xlink:href="#b"/><linearGradient id="a"><stop offset="0" stop-color="#5e5e5e"/><stop offset="1" stop-color="#272727"/></linearGradient><linearGradient id="c"><stop offset="0" stop-color="#202020"/><stop offset="1" stop-color="#5d5d5d"/></linearGradient><linearGradient id="b"><stop offset="0" stop-color="#191919"/><stop offset="1" stop-opacity="0"/></linearGradient><linearGradient xlink:href="#c" id="f" gradientUnits="userSpaceOnUse" gradientTransform="translate(-116.463 167.939)" x1="329.876" y1="151.244" x2="349.359" y2="151.244"/><linearGradient xlink:href="#c" id="j" gradientUnits="userSpaceOnUse" x1="329.876" y1="151.244" x2="349.359" y2="151.244"/></defs><path d="M392.258 29.597V40.04a6.078 6.078 0 01-6.091 6.092 6.078 6.078 0 01-6.092-6.092V29.597c7.113-.429 7.405.159 12.183 0z" transform="matrix(1.47333 1.66245 -1.66246 1.47331 -431.948 -376.782)" stroke="#000" stroke-width=".5"/><path d="M232.897 316.753v2.834h-19.485v-2.834c0-5.381 4.362-9.743 9.743-9.743 5.38 0 9.742 4.362 9.742 9.743z" fill="url(#d)" transform="matrix(2.22137 0 0 2.22135 -431.948 -376.782)"/><path d="M223 307.007v2.762M224.437 306.963v2.762M225.85 307.272l.001 2.762M227.53 307.957v2.762M229.01 308.83v2.762M230.248 309.935v2.762M231.437 311.765v2.762M221.542 306.994v3.153M220.128 307.413v3.044M218.449 308.145v2.997M216.968 309.252v2.762M215.73 310.357v2.762M214.542 312.187v2.762" fill="none" stroke="#000" stroke-width=".3" transform="matrix(2.22137 0 0 2.22135 -431.948 -376.782)"/><path d="M232.637 316.35v2.76h-18.964v-2.76a9.482 9.482 0 1118.964 0z" fill="none" stroke="url(#e)" stroke-width=".417" transform="matrix(2.22137 0 0 2.22135 -431.948 -376.782)"/><path d="M232.397 319.183a9.242 9.242 0 01-9.242 9.241 9.242 9.242 0 01-9.242-9.241 9.242 9.242 0 019.242-9.242 9.242 9.242 0 019.242 9.242z" fill="#1a1a1a" stroke="url(#f)" transform="matrix(2.22137 0 0 2.22135 -431.948 -376.782)"/><path d="M231.097 319.182a7.942 7.942 0 01-7.942 7.942 7.942 7.942 0 01-7.942-7.942 7.942 7.942 0 017.942-7.942 7.942 7.942 0 017.942 7.942z" fill="url(#g)" stroke="#000" stroke-width=".859" transform="matrix(2.22137 0 0 2.22135 -431.948 -376.782)"/><g style="line-height:125%" font-weight="400" font-size="6.485" font-family="sans-serif" letter-spacing="0" word-spacing="0" fill="#fff"><path d="M57.27 334.312q0 .612-.287 1.21-.282.597-.795 1.012-.563.45-1.316.704-.745.253-1.8.253-1.133 0-2.04-.211-.9-.211-1.836-.626v-1.745h.098q.795.662 1.836 1.02 1.041.36 1.955.36 1.295 0 2.012-.486.725-.486.725-1.294 0-.697-.345-1.027-.338-.331-1.034-.514-.527-.14-1.147-.232-.611-.092-1.3-.232-1.394-.296-2.069-1.006-.668-.718-.668-1.864 0-1.316 1.111-2.153 1.112-.844 2.821-.844 1.104 0 2.026.211.921.211 1.632.52v1.647h-.099q-.598-.507-1.575-.837-.971-.338-1.991-.338-1.118 0-1.8.464-.676.465-.676 1.196 0 .654.338 1.027.337.373 1.188.57.45.098 1.28.24.83.14 1.407.288 1.168.309 1.76.935.59.626.59 1.752zM66.922 326.827l-3.686 5.88v4.594h-1.393v-4.445l-3.7-6.029h1.54l2.864 4.685 2.89-4.685h1.485zM77.698 337.301h-1.392v-9.025l-2.913 6.141h-.83l-2.89-6.14v9.024H68.37v-10.474h1.9l2.792 5.832 2.701-5.832h1.934v10.474z"/></g><g><path d="M304.35 318.932l17.36 15.385a13.502 13.502 0 0019.101-1.153 13.502 13.502 0 00-1.152-19.101L322.3 298.679c-8.92 8.92-12.497 10.81-17.95 20.253z" stroke="#000" stroke-width="1.110675"/><path d="M351.321 152.124v2.834h-19.485v-2.834c0-5.381 4.362-9.743 9.743-9.743 5.38 0 9.742 4.362 9.742 9.743z" fill="url(#h)" transform="matrix(2.22135 0 0 2.22135 -421.145 -11.083)"/><path d="M337.277 305.188v6.135" fill="none" stroke="#000" stroke-width=".666405"/><g fill="none" stroke="#000" stroke-width=".3"><path d="M340.468 305.09v6.135M343.61 305.777v6.135M347.34 307.298v6.136M350.628 309.237l.001 6.136M353.377 311.691v6.136M356.018 315.756v6.136" stroke-width=".666405"/></g><g fill="none" stroke="#000" stroke-width=".3"><path d="M334.039 305.16v7.003M330.897 306.09v6.76M327.167 307.715v6.657M323.878 310.175v6.135M321.13 312.629l-.001 6.136M318.488 316.694v6.135" stroke-width=".666405"/></g><path d="M351.06 151.722v2.758h-18.963v-2.758a9.482 9.482 0 1118.964 0z" fill="none" stroke="url(#i)" stroke-width=".417" transform="matrix(2.22135 0 0 2.22135 -421.145 -11.083)"/><g transform="matrix(2.22135 0 0 2.22135 -416.788 -3.731)"><circle cx="339.617" cy="151.244" r="9.242" fill="#1a1a1a" stroke="url(#j)"/><circle cx="339.618" cy="151.243" r="7.942" fill="url(#k)" stroke="#000" stroke-width=".859"/></g><g style="line-height:125%" font-weight="400" font-size="6.485" font-family="sans-serif" letter-spacing="0" word-spacing="0" fill="#fff"><path d="M330.967 337.287h-1.393v-5.128h-5.226v5.128h-1.393v-10.474h1.393v4.108h5.226v-4.108h1.393v10.474zM342.637 332.06q0 1.428-.626 2.589-.62 1.16-1.653 1.8-.718.444-1.604.64-.88.198-2.322.198h-2.644v-10.474h2.616q1.534 0 2.434.225.908.218 1.534.605 1.069.668 1.667 1.78.598 1.111.598 2.637zm-1.456-.022q0-1.23-.43-2.075-.429-.844-1.28-1.33-.619-.351-1.315-.485-.697-.14-1.667-.14h-1.309v8.082h1.309q1.006 0 1.751-.148.753-.147 1.379-.548.78-.5 1.168-1.316.394-.816.394-2.04zM353.638 336.513q-.858.394-1.878.69-1.013.288-1.963.288-1.223 0-2.243-.338-1.02-.337-1.738-1.013-.724-.682-1.118-1.702-.394-1.027-.394-2.399 0-2.511 1.463-3.96 1.47-1.456 4.03-1.456.894 0 1.822.218.936.211 2.012.725v1.653h-.126q-.219-.17-.634-.444-.415-.274-.816-.457-.485-.218-1.104-.359-.612-.147-1.393-.147-1.758 0-2.785 1.132-1.02 1.126-1.02 3.053 0 2.033 1.069 3.166 1.07 1.125 2.912 1.125.675 0 1.344-.134.675-.133 1.181-.344v-2.568h-2.806v-1.224h4.185v4.495z"/></g></g></svg>