<svg xmlns="http://www.w3.org/2000/svg" xmlns:xlink="http://www.w3.org/1999/xlink" width="400.667" height="400.666"><defs><radialGradient gradientTransform="matrix(1.65143 0 0 1.65143 -84.144 -60.124)" gradientUnits="userSpaceOnUse" r="72.726" fy="92.274" fx="129.286" cy="92.274" cx="129.286" id="b" xlink:href="#a"/><linearGradient id="a"><stop offset="0" stop-color="#969696"/><stop offset="1"/></linearGradient></defs><path d="M129.362 20.036c-39.888 0-72.224 32.336-72.224 72.224 0 39.89 32.335 72.226 72.224 72.227 39.89 0 72.227-32.337 72.227-72.227-.001-39.889-32.338-72.225-72.227-72.224zm0 7.828c35.566 0 64.398 28.83 64.399 64.396 0 35.567-28.832 64.4-64.399 64.399-35.566 0-64.397-28.833-64.396-64.399 0-35.565 28.831-64.396 64.396-64.396z" fill="url(#b)" stroke="#000" stroke-width=".5" transform="matrix(2.22135 0 0 2.22135 -86.858 -4.972)"/></svg>