<svg xmlns:osb="http://www.openswatchbook.org/uri/2009/osb" xmlns="http://www.w3.org/2000/svg" xmlns:xlink="http://www.w3.org/1999/xlink" width="958" height="832"><defs><linearGradient id="ab"><stop offset="0" stop-color="#497677"/><stop offset=".451" stop-color="#91bbbc" stop-opacity=".804"/><stop offset="1" stop-color="#89b6b7"/></linearGradient><linearGradient id="aa"><stop offset="0" stop-color="#765b34"/><stop offset="1" stop-color="#45351f"/></linearGradient><linearGradient id="Z"><stop offset="0" stop-color="#919105"/><stop offset=".565" stop-color="#ffff19"/><stop offset="1" stop-color="#929204"/></linearGradient><linearGradient id="t"><stop offset="0" stop-color="#141414"/><stop offset="1" stop-color="#232323"/></linearGradient><linearGradient id="m"><stop offset="0" stop-color="#232323"/><stop offset="1" stop-color="#2d2d2d"/></linearGradient><linearGradient id="k"><stop offset="0" stop-color="#2d2d2d"/><stop offset="1" stop-color="#0f0f0f"/></linearGradient><linearGradient id="w"><stop offset="0" stop-color="#191919"/><stop offset="1" stop-color="#0f0f0f"/></linearGradient><linearGradient id="v"><stop offset="0" stop-color="#141414"/><stop offset="1" stop-color="#1e1e1e"/></linearGradient><linearGradient id="y"><stop offset="0" stop-color="#191919"/><stop offset="1" stop-color="#232323"/></linearGradient><linearGradient id="Y" gradientUnits="userSpaceOnUse" x1="148.108" y1="142.399" x2="163.702" y2="169.408"><stop offset="0" stop-color="#2d2d2d"/><stop offset="1"/></linearGradient><linearGradient id="f" gradientUnits="userSpaceOnUse" x1="148.108" y1="142.399" x2="163.702" y2="169.408"><stop offset="0" stop-color="#2d2d2d"/><stop offset="1" stop-color="#0f0f0f"/></linearGradient><linearGradient id="z"><stop offset="0" stop-color="#141414"/><stop offset="1" stop-color="#232323"/></linearGradient><linearGradient id="s" gradientUnits="userSpaceOnUse" x1="148.108" y1="142.399" x2="163.702" y2="169.408"><stop offset="0" stop-color="#2d2d2d"/><stop offset="1"/></linearGradient><linearGradient id="x"><stop offset="0" stop-color="#232323"/><stop offset="1" stop-color="#191919"/></linearGradient><linearGradient id="u"><stop offset="0"/><stop offset="1" stop-color="#191919"/></linearGradient><linearGradient id="N"><stop offset="0" stop-color="#ff3506"/><stop offset=".5" stop-color="#c22500"/><stop offset="1" stop-color="#ff3506"/></linearGradient><linearGradient id="O"><stop offset="0" stop-color="#404040"/><stop offset=".5" stop-color="#505050"/><stop offset="1" stop-color="#404040"/></linearGradient><linearGradient id="q"><stop offset="0" stop-color="#0f0f0f"/><stop offset=".545" stop-color="#646464"/><stop offset="1" stop-color="#0f0f0f"/></linearGradient><linearGradient id="l"><stop offset="0" stop-color="#5e5e5e"/><stop offset="1" stop-color="#272727"/></linearGradient><linearGradient id="W"><stop offset="0" stop-color="red"/><stop offset="1" stop-color="#7c0000"/></linearGradient><linearGradient id="R"><stop offset="0" stop-color="#4c4c4c"/><stop offset="1" stop-opacity="0"/></linearGradient><linearGradient id="o"><stop offset="0" stop-color="#202020"/><stop offset="1" stop-color="#5d5d5d"/></linearGradient><linearGradient id="r"><stop offset="0" stop-color="#dcdcdc"/><stop offset=".639" stop-color="#5a5a5a"/><stop offset="1" stop-color="#050505"/></linearGradient><linearGradient id="p"><stop offset="0" stop-color="#302f2e"/><stop offset="1" stop-color="#c4c4c4"/></linearGradient><linearGradient id="j"><stop offset="0" stop-color="#282828"/><stop offset="1" stop-color="#5b5a58"/></linearGradient><linearGradient id="A"><stop offset="0" stop-color="#7d7d7d"/><stop offset="1" stop-opacity=".984"/></linearGradient><linearGradient id="P"><stop offset="0" stop-color="#373737" stop-opacity=".369"/><stop offset="1" stop-color="#e1e1e1" stop-opacity=".235"/></linearGradient><linearGradient id="n"><stop offset="0" stop-color="#191919"/><stop offset="1" stop-opacity="0"/></linearGradient><linearGradient id="g"><stop offset="0" stop-color="#bcb8ae"/><stop offset="1" stop-color="#5f5a4f"/></linearGradient><linearGradient id="X"><stop offset="0" stop-color="#5b574c"/><stop offset="1" stop-color="#57544b" stop-opacity="0"/></linearGradient><linearGradient id="Q"><stop offset="0" stop-color="#191919"/><stop offset="1" stop-color="#2d2d2d"/></linearGradient><linearGradient id="d"><stop offset="0" stop-color="#242424"/><stop offset="1" stop-color="#4d4d4d"/></linearGradient><linearGradient id="e"><stop offset="0" stop-color="#969696"/><stop offset="1"/></linearGradient><linearGradient id="c"><stop offset="0" stop-color="#7f818c"/><stop offset="1" stop-color="#d4d4d5"/></linearGradient><linearGradient id="b"><stop offset="0" stop-color="#373737"/><stop offset="1"/></linearGradient><linearGradient id="T"><stop offset="0" stop-color="#987440"/><stop offset="1" stop-color="#d5bb9b"/></linearGradient><linearGradient id="S"><stop offset="0" stop-color="#e3e4f3"/><stop offset="1" stop-color="#8491b4"/></linearGradient><linearGradient id="i"><stop offset="0" stop-color="#2c2727"/><stop offset=".515" stop-color="#4b423f"/><stop offset="1" stop-color="#342e2d"/></linearGradient><linearGradient y2="187.362" x2="191.429" y1="109.998" x1="106.397" gradientUnits="userSpaceOnUse" id="aQ" xlink:href="#a" gradientTransform="matrix(.60261 0 0 .60261 168.746 146.734)"/><linearGradient osb:paint="gradient" id="a"><stop offset="0" stop-color="#2d2d2d"/><stop offset="1"/></linearGradient><linearGradient y2="169.408" x2="163.702" y1="142.399" x1="148.108" gradientUnits="userSpaceOnUse" id="h"><stop offset="0" stop-color="#2d2d2d"/><stop offset="1"/></linearGradient><linearGradient gradientTransform="matrix(2 0 0 2 -40.844 -394.45)" gradientUnits="userSpaceOnUse" y2="266.706" x2="161.411" y1="255.706" x1="161.411" id="bg" xlink:href="#i"/><linearGradient gradientTransform="matrix(2 0 0 2 -40.844 -394.45)" gradientUnits="userSpaceOnUse" y2="267.247" x2="171.954" y1="255.518" x1="153.198" id="bh" xlink:href="#j"/><linearGradient gradientUnits="userSpaceOnUse" y2="151.244" x2="349.359" y1="151.244" x1="329.876" id="bM" xlink:href="#m"/><linearGradient gradientTransform="translate(-116.463 167.939)" gradientUnits="userSpaceOnUse" y2="151.244" x2="349.359" y1="151.244" x1="329.876" id="aV" xlink:href="#o"/><linearGradient gradientUnits="userSpaceOnUse" y2="151.244" x2="349.359" y1="151.244" x1="329.876" id="aZ" xlink:href="#o"/><linearGradient gradientUnits="userSpaceOnUse" y2="306.006" x2="182.67" y1="222.214" x1="99.359" id="bp" xlink:href="#p" gradientTransform="matrix(2 0 0 2 -40.81 -370.7)"/><linearGradient gradientTransform="matrix(2 0 0 2 -40.219 -370.7)" gradientUnits="userSpaceOnUse" y2="295.489" x2="129.286" y1="273.845" x1="129.286" id="bi" xlink:href="#q"/><linearGradient xlink:href="#v" id="bG" x1="789.327" y1="275.847" x2="789.327" y2="313.49" gradientUnits="userSpaceOnUse" gradientTransform="translate(47.997 -462)"/><linearGradient xlink:href="#y" id="aI" gradientUnits="userSpaceOnUse" gradientTransform="matrix(1.28163 0 0 .99933 -174.297 -461.836)" x1="789.327" y1="290.616" x2="789.327" y2="326.74"/><linearGradient xlink:href="#y" id="aK" x1="830.764" y1="-137.189" x2="840.947" y2="-134.126" gradientUnits="userSpaceOnUse"/><linearGradient xlink:href="#y" id="aJ" x1="830.47" y1="-186.153" x2="881.389" y2="-189.512" gradientUnits="userSpaceOnUse"/><linearGradient xlink:href="#z" id="bI" x1="833.044" y1="-133.939" x2="840.604" y2="-144.564" gradientUnits="userSpaceOnUse"/><linearGradient id="B"><stop offset="0" stop-color="#b6b0ac"/><stop offset="1" stop-color="#746f6c"/></linearGradient><linearGradient id="C"><stop offset="0" stop-color="#bcb8ae"/><stop offset="1" stop-color="#312f2f"/></linearGradient><linearGradient id="D"><stop offset="0" stop-color="#bcb8ae"/><stop offset="1" stop-color="#302f2d"/></linearGradient><linearGradient id="E"><stop offset="0"/><stop offset="1" stop-color="#2a2a2a"/></linearGradient><linearGradient id="F"><stop offset="0" stop-color="#292927"/><stop offset="1" stop-color="#21211f"/></linearGradient><linearGradient xlink:href="#G" id="ar" x1="474.871" y1="-5.846" x2="480.969" y2="2.181" gradientUnits="userSpaceOnUse" gradientTransform="translate(-47.997)"/><linearGradient id="G"><stop offset="0" stop-color="#dcdbdb"/><stop offset="1"/></linearGradient><linearGradient xlink:href="#H" id="as" x1="179.692" y1="-12.457" x2="179.692" y2="6.526" gradientUnits="userSpaceOnUse"/><linearGradient id="H"><stop offset="0" stop-color="#0f0f0f"/><stop offset=".213" stop-color="#414141"/><stop offset=".921" stop-color="#424042"/><stop offset="1" stop-color="#141414"/></linearGradient><linearGradient id="I"><stop offset="0"/><stop offset="1" stop-color="#454545"/></linearGradient><linearGradient id="J"><stop offset="0" stop-color="#393839"/><stop offset="1" stop-color="#2b292b"/></linearGradient><linearGradient xlink:href="#K" id="aw" x1="357.334" y1="-17.75" x2="357.334" y2="13.629" gradientUnits="userSpaceOnUse" gradientTransform="translate(-47.601 -.073)"/><linearGradient id="K"><stop offset="0" stop-color="#0a0a0a"/><stop offset="1" stop-color="#181818"/></linearGradient><linearGradient gradientTransform="translate(-47.601 14.891)" xlink:href="#L" id="ax" x1="280.188" y1="-5.375" x2="280.375" y2="-17.75" gradientUnits="userSpaceOnUse"/><linearGradient id="L"><stop offset="0" stop-color="#441f1d"/><stop offset="1" stop-color="#372821"/></linearGradient><linearGradient gradientTransform="matrix(1 0 0 1 3.228 -.073)" xlink:href="#L" id="ay" x1="280.188" y1="-5.375" x2="280.375" y2="-17.75" gradientUnits="userSpaceOnUse"/><linearGradient gradientTransform="matrix(1 0 0 1 3.228 14.891)" xlink:href="#L" id="az" x1="280.188" y1="-5.375" x2="280.375" y2="-17.75" gradientUnits="userSpaceOnUse"/><linearGradient gradientTransform="translate(54.322 -.073)" xlink:href="#L" id="aA" x1="280.188" y1="-5.375" x2="280.375" y2="-17.75" gradientUnits="userSpaceOnUse"/><linearGradient gradientTransform="translate(54.322 14.891)" xlink:href="#L" id="aB" x1="280.188" y1="-5.375" x2="280.375" y2="-17.75" gradientUnits="userSpaceOnUse"/><linearGradient gradientTransform="matrix(1 0 0 1 105.15 -.073)" xlink:href="#L" id="aC" x1="280.188" y1="-5.375" x2="280.375" y2="-17.75" gradientUnits="userSpaceOnUse"/><linearGradient gradientTransform="matrix(1 0 0 1 105.15 14.891)" xlink:href="#L" id="aD" x1="280.188" y1="-5.375" x2="280.375" y2="-17.75" gradientUnits="userSpaceOnUse"/><linearGradient xlink:href="#L" id="aE" x1="280.188" y1="-5.375" x2="280.375" y2="-17.75" gradientUnits="userSpaceOnUse" gradientTransform="translate(-47.601 -.073)"/><linearGradient xlink:href="#M" id="aF" x1="654.288" y1="-64.763" x2="654.288" y2="401.893" gradientUnits="userSpaceOnUse" gradientTransform="matrix(-2.00007 0 0 2 1780.06 -325.488)"/><linearGradient id="M"><stop offset="0" stop-opacity=".392"/><stop offset=".259" stop-color="#222324" stop-opacity=".294"/><stop offset="1" stop-color="#76787b" stop-opacity="0"/></linearGradient><linearGradient xlink:href="#N" id="cp" x1="463.909" y1="-176.404" x2="592.073" y2="-176.404" gradientUnits="userSpaceOnUse"/><linearGradient xlink:href="#O" id="co" gradientUnits="userSpaceOnUse" x1="507.272" y1="-159.008" x2="548.709" y2="-159.008"/><linearGradient xlink:href="#P" id="cq" gradientUnits="userSpaceOnUse" gradientTransform="matrix(2 0 0 2 -40.219 -370.7)" x1="284.105" y1="26.684" x2="284.105" y2="56.184"/><linearGradient xlink:href="#o" id="cy" gradientUnits="userSpaceOnUse" x1="329.876" y1="151.244" x2="349.359" y2="151.244"/><linearGradient xlink:href="#Q" id="cr" gradientUnits="userSpaceOnUse" gradientTransform="matrix(2 0 0 2 -40.22 -370.7)" x1="284.105" y1="160.637" x2="284.105" y2="138.363"/><linearGradient xlink:href="#R" id="cs" gradientUnits="userSpaceOnUse" gradientTransform="matrix(2 0 0 2 -40.22 -370.7)" x1="272.138" y1="134.424" x2="272.138" y2="165"/><linearGradient xlink:href="#S" id="bY" gradientUnits="userSpaceOnUse" x1="282.666" y1="92.274" x2="282.666" y2="25.104"/><linearGradient xlink:href="#T" id="bZ" gradientUnits="userSpaceOnUse" gradientTransform="matrix(1 0 0 -1 0 184.548)" x1="282.666" y1="92.274" x2="282.666" y2="25.104"/><linearGradient xlink:href="#U" id="bS" gradientUnits="userSpaceOnUse" gradientTransform="matrix(2 0 0 2 -37.342 -370.7)" x1="282.666" y1="92.274" x2="282.666" y2="25.104"/><linearGradient id="U"><stop offset="0" stop-color="#9fa5d3"/><stop offset="1" stop-color="#5c6994"/></linearGradient><linearGradient xlink:href="#V" id="bT" gradientUnits="userSpaceOnUse" gradientTransform="matrix(2 0 0 -2 -37.342 -1.604)" x1="282.666" y1="92.274" x2="282.666" y2="25.104"/><linearGradient id="V"><stop offset="0" stop-color="#5d4625"/><stop offset="1" stop-color="#af814b"/></linearGradient><linearGradient xlink:href="#o" id="cR" gradientUnits="userSpaceOnUse" x1="329.876" y1="151.244" x2="349.359" y2="151.244"/><linearGradient xlink:href="#W" id="cI" gradientUnits="userSpaceOnUse" x1="78.168" y1="98.292" x2="65.099" y2="100.546" gradientTransform="rotate(6.166 129.288 92.274)"/><linearGradient xlink:href="#S" id="bV" gradientUnits="userSpaceOnUse" x1="282.666" y1="92.274" x2="282.666" y2="25.104"/><linearGradient xlink:href="#T" id="bW" gradientUnits="userSpaceOnUse" gradientTransform="matrix(1 0 0 -1 0 184.548)" x1="282.666" y1="92.274" x2="282.666" y2="25.104"/><linearGradient xlink:href="#Z" id="cD" x1="479.991" y1="-147.778" x2="479.991" y2="-134.278" gradientUnits="userSpaceOnUse"/><linearGradient xlink:href="#aa" id="cC" x1="552.798" y1="-140.153" x2="649.359" y2="-96.274" gradientUnits="userSpaceOnUse" gradientTransform="translate(0 .125)"/><linearGradient xlink:href="#Z" id="cF" gradientUnits="userSpaceOnUse" x1="479.991" y1="-147.778" x2="479.991" y2="-134.278" gradientTransform="rotate(-90 479.991 -140.153)"/><linearGradient xlink:href="#ab" id="cE" x1="415.509" y1="-314.27" x2="479.991" y2="-207.143" gradientUnits="userSpaceOnUse"/><radialGradient gradientUnits="userSpaceOnUse" gradientTransform="matrix(4.79237 -.005 .00465 4.44776 -403.119 -1005.713)" r="64.548" fy="259.691" fx="129.436" cy="259.691" cx="129.436" id="bn" xlink:href="#b"/><radialGradient gradientUnits="userSpaceOnUse" gradientTransform="matrix(2 0 0 1.25854 -40.219 -159.581)" r="39.875" fy="284.733" fx="129.188" cy="284.733" cx="129.188" id="bj" xlink:href="#c"/><radialGradient gradientUnits="userSpaceOnUse" gradientTransform="matrix(3.41487 -1.05672 1.0097 3.26295 -781.994 -113.28)" r="22.171" fy="151.697" fx="381.714" cy="151.697" cx="381.714" id="bJ" xlink:href="#d"/><radialGradient gradientTransform="matrix(1.65143 0 0 1.65143 225.448 107.256)" gradientUnits="userSpaceOnUse" r="72.726" fy="92.274" fx="129.286" cy="92.274" cx="129.286" id="aL" xlink:href="#e"/><radialGradient gradientTransform="matrix(.49239 .87038 -.87029 .49233 428.14 -241.905)" gradientUnits="userSpaceOnUse" r="68.25" fy="246.206" fx="421.536" cy="246.206" cx="421.536" id="aG" xlink:href="#f"/><radialGradient gradientTransform="translate(92.313 2.02)" gradientUnits="userSpaceOnUse" r="6.508" fy="31.473" fx="-22.804" cy="31.473" cx="-22.804" id="aM" xlink:href="#g"/><radialGradient gradientTransform="translate(92.313 2.02)" gradientUnits="userSpaceOnUse" r="6.508" fy="31.473" fx="-22.804" cy="31.473" cx="-22.804" id="aN" xlink:href="#g"/><radialGradient gradientTransform="translate(92.313 2.02)" gradientUnits="userSpaceOnUse" r="6.508" fy="31.473" fx="-22.804" cy="31.473" cx="-22.804" id="aO" xlink:href="#g"/><radialGradient gradientTransform="translate(92.313 2.02)" gradientUnits="userSpaceOnUse" r="6.508" fy="31.473" fx="-22.804" cy="31.473" cx="-22.804" id="aP" xlink:href="#g"/><radialGradient gradientTransform="matrix(.31614 1.97485 -2.59073 .41474 792.024 -181.698)" gradientUnits="userSpaceOnUse" r="48.173" fy="250.335" fx="99.441" cy="250.335" cx="99.441" id="bf" xlink:href="#h"/><radialGradient gradientUnits="userSpaceOnUse" gradientTransform="matrix(1.42823 -1.08579 1.04174 1.37029 89.814 73.551)" r="9.743" fy="156.935" fx="334.201" cy="156.935" cx="334.201" id="bK" xlink:href="#k"/><radialGradient gradientUnits="userSpaceOnUse" gradientTransform="matrix(1.94643 0 0 1.25637 65.489 -253.334)" r="9.743" fy="148.36" fx="341.579" cy="148.36" cx="341.579" id="bL" xlink:href="#l"/><radialGradient gradientTransform="translate(55.5 5.5)" gradientUnits="userSpaceOnUse" r="8.372" fy="145.743" fx="284.118" cy="145.743" cx="284.118" id="bN" xlink:href="#n"/><radialGradient gradientUnits="userSpaceOnUse" gradientTransform="matrix(.71411 -.5429 .52087 .68514 -97.113 383.234)" r="9.743" fy="156.935" fx="334.201" cy="156.935" cx="334.201" id="aT" xlink:href="#l"/><radialGradient gradientUnits="userSpaceOnUse" gradientTransform="matrix(.97322 0 0 .62819 -109.275 219.792)" r="9.743" fy="148.36" fx="341.579" cy="148.36" cx="341.579" id="aU" xlink:href="#l"/><radialGradient gradientTransform="translate(-60.963 173.439)" gradientUnits="userSpaceOnUse" r="8.372" fy="145.743" fx="284.118" cy="145.743" cx="284.118" id="aW" xlink:href="#n"/><radialGradient gradientUnits="userSpaceOnUse" gradientTransform="matrix(.71411 -.5429 .52087 .68514 21.311 218.605)" r="9.743" fy="156.935" fx="334.201" cy="156.935" cx="334.201" id="aX" xlink:href="#l"/><radialGradient gradientUnits="userSpaceOnUse" gradientTransform="matrix(.97322 0 0 .62819 9.149 55.162)" r="9.743" fy="148.36" fx="341.579" cy="148.36" cx="341.579" id="aY" xlink:href="#l"/><radialGradient gradientTransform="translate(55.5 5.5)" gradientUnits="userSpaceOnUse" r="8.372" fy="145.743" fx="284.118" cy="145.743" cx="284.118" id="ba" xlink:href="#n"/><radialGradient gradientUnits="userSpaceOnUse" gradientTransform="matrix(.5251 1.91836 -1.34683 .36867 367.444 -288.52)" r="10.322" fy="196.618" fx="214.651" cy="196.618" cx="214.651" id="bl" xlink:href="#r"/><radialGradient gradientTransform="matrix(1.65143 0 0 1.65143 225.448 107.256)" gradientUnits="userSpaceOnUse" r="72.726" fy="92.274" fx="129.286" cy="92.274" cx="129.286" id="bb" xlink:href="#e"/><radialGradient gradientTransform="translate(92.313 2.02)" gradientUnits="userSpaceOnUse" r="6.508" fy="31.473" fx="-22.804" cy="31.473" cx="-22.804" id="bc" xlink:href="#g"/><radialGradient gradientTransform="translate(92.313 2.02)" gradientUnits="userSpaceOnUse" r="6.508" fy="31.473" fx="-22.804" cy="31.473" cx="-22.804" id="bd" xlink:href="#g"/><radialGradient gradientTransform="matrix(1.65143 0 0 1.65143 225.448 107.256)" gradientUnits="userSpaceOnUse" r="72.726" fy="92.274" fx="129.286" cy="92.274" cx="129.286" id="br" xlink:href="#e"/><radialGradient gradientTransform="translate(92.313 2.02)" gradientUnits="userSpaceOnUse" r="6.508" fy="31.473" fx="-22.804" cy="31.473" cx="-22.804" id="bs" xlink:href="#g"/><radialGradient gradientTransform="translate(92.313 2.02)" gradientUnits="userSpaceOnUse" r="6.508" fy="31.473" fx="-22.804" cy="31.473" cx="-22.804" id="bt" xlink:href="#g"/><radialGradient gradientTransform="translate(92.313 2.02)" gradientUnits="userSpaceOnUse" r="6.508" fy="31.473" fx="-22.804" cy="31.473" cx="-22.804" id="bu" xlink:href="#g"/><radialGradient gradientTransform="translate(92.313 2.02)" gradientUnits="userSpaceOnUse" r="6.508" fy="31.473" fx="-22.804" cy="31.473" cx="-22.804" id="bv" xlink:href="#g"/><radialGradient gradientTransform="matrix(1.65143 0 0 1.65143 225.448 107.256)" gradientUnits="userSpaceOnUse" r="72.726" fy="92.274" fx="129.286" cy="92.274" cx="129.286" id="bO" xlink:href="#e"/><radialGradient gradientTransform="translate(92.313 2.02)" gradientUnits="userSpaceOnUse" r="6.508" fy="31.473" fx="-22.804" cy="31.473" cx="-22.804" id="bP" xlink:href="#g"/><radialGradient gradientTransform="translate(92.313 2.02)" gradientUnits="userSpaceOnUse" r="6.508" fy="31.473" fx="-22.804" cy="31.473" cx="-22.804" id="bQ" xlink:href="#g"/><radialGradient gradientTransform="translate(92.313 2.02)" gradientUnits="userSpaceOnUse" r="6.508" fy="31.473" fx="-22.804" cy="31.473" cx="-22.804" id="bR" xlink:href="#g"/><radialGradient gradientTransform="matrix(.80183 -1.06744 .78066 .58641 41.604 606.59)" gradientUnits="userSpaceOnUse" r="137.235" fy="169.186" fx="827.656" cy="169.186" cx="827.656" id="bw" xlink:href="#s"/><radialGradient xlink:href="#t" id="bC" cx="829.625" cy="-177.301" fx="829.625" fy="-177.301" r="16.993" gradientTransform="matrix(1.2269 -1.31869 .96689 .89959 -9.113 1094.902)" gradientUnits="userSpaceOnUse"/><radialGradient xlink:href="#u" id="bA" cx="837.324" cy="-186.153" fx="837.324" fy="-186.153" r="7.354" gradientUnits="userSpaceOnUse" gradientTransform="matrix(1.24639 0 0 1.39662 -206.306 73.833)"/><radialGradient xlink:href="#t" id="bD" cx="789.327" cy="268.249" fx="789.327" fy="268.249" r="5.572" gradientTransform="matrix(1.5711 0 0 1.3583 -402.78 -558.113)" gradientUnits="userSpaceOnUse"/><radialGradient xlink:href="#t" id="bE" cx="837.324" cy="-186.153" fx="837.324" fy="-186.153" r="7.154" gradientUnits="userSpaceOnUse"/><radialGradient xlink:href="#w" id="bH" cx="837.324" cy="-186.153" fx="837.324" fy="-186.153" r="5.53" gradientUnits="userSpaceOnUse" gradientTransform="matrix(.70612 0 0 .69483 246.072 -56.8)"/><radialGradient xlink:href="#x" id="bz" cx="932.325" cy="-199.472" fx="932.325" fy="-199.472" r="73.063" gradientTransform="matrix(-.29976 1.13845 -1.63367 -.43016 702.935 -1333.085)" gradientUnits="userSpaceOnUse"/><radialGradient xlink:href="#y" id="cK" cx="442.597" cy="111.304" fx="442.597" fy="111.304" r="5.643" gradientTransform="matrix(2.27144 -2.59519 2.25152 1.97064 -812.722 1043.328)" gradientUnits="userSpaceOnUse"/><radialGradient xlink:href="#A" id="ca" gradientUnits="userSpaceOnUse" gradientTransform="translate(-26.073 -296.663) scale(1.77552)" cx="276.832" cy="124.899" fx="276.832" fy="124.899" r="2.166"/><radialGradient xlink:href="#A" id="cb" gradientUnits="userSpaceOnUse" gradientTransform="translate(3.017 -296.662) scale(1.77552)" cx="276.832" cy="124.899" fx="276.832" fy="124.899" r="2.166"/><radialGradient xlink:href="#A" id="cc" gradientUnits="userSpaceOnUse" gradientTransform="translate(-26.074 -296.662) scale(1.77552)" cx="276.832" cy="124.899" fx="276.832" fy="124.899" r="2.166"/><radialGradient xlink:href="#A" id="cd" gradientUnits="userSpaceOnUse" gradientTransform="translate(3.017 -296.662) scale(1.77552)" cx="276.832" cy="124.899" fx="276.832" fy="124.899" r="2.166"/><radialGradient xlink:href="#B" id="ac" cx="20" cy="20.049" fx="20" fy="20.049" r="8.14" gradientTransform="matrix(1 0 0 .99998 0 0)" gradientUnits="userSpaceOnUse"/><radialGradient xlink:href="#C" id="ad" cx="-22.804" cy="31.473" fx="-22.804" fy="31.473" r="6.508" gradientUnits="userSpaceOnUse" gradientTransform="matrix(1.53653 0 0 1.5365 55.04 -28.358)"/><radialGradient xlink:href="#D" id="ae" cx="-22.804" cy="31.473" fx="-22.804" fy="31.473" r="6.508" gradientUnits="userSpaceOnUse" gradientTransform="matrix(.66316 -.86288 .73111 .5619 12.113 -17.362)"/><radialGradient xlink:href="#C" id="af" cx="-22.804" cy="31.473" fx="-22.804" fy="31.473" r="6.508" gradientUnits="userSpaceOnUse" gradientTransform="matrix(1.53653 0 0 1.5365 55.04 -28.358)"/><radialGradient xlink:href="#D" id="ag" cx="-22.804" cy="31.473" fx="-22.804" fy="31.473" r="6.508" gradientUnits="userSpaceOnUse" gradientTransform="matrix(.66316 -.86288 .73111 .5619 12.113 -17.362)"/><radialGradient xlink:href="#C" id="ah" cx="-22.804" cy="31.473" fx="-22.804" fy="31.473" r="6.508" gradientUnits="userSpaceOnUse" gradientTransform="matrix(1.53653 0 0 1.5365 55.04 -28.358)"/><radialGradient xlink:href="#D" id="ai" cx="-22.804" cy="31.473" fx="-22.804" fy="31.473" r="6.508" gradientUnits="userSpaceOnUse" gradientTransform="matrix(.66316 -.86288 .73111 .5619 12.113 -17.362)"/><radialGradient xlink:href="#C" id="aj" cx="-22.804" cy="31.473" fx="-22.804" fy="31.473" r="6.508" gradientUnits="userSpaceOnUse" gradientTransform="matrix(1.53653 0 0 1.5365 55.04 -28.358)"/><radialGradient xlink:href="#D" id="ak" cx="-22.804" cy="31.473" fx="-22.804" fy="31.473" r="6.508" gradientUnits="userSpaceOnUse" gradientTransform="matrix(.66316 -.86288 .73111 .5619 12.113 -17.362)"/><radialGradient xlink:href="#C" id="al" cx="-22.804" cy="31.473" fx="-22.804" fy="31.473" r="6.508" gradientUnits="userSpaceOnUse" gradientTransform="matrix(1.53653 0 0 1.5365 55.04 -28.358)"/><radialGradient xlink:href="#D" id="am" cx="-22.804" cy="31.473" fx="-22.804" fy="31.473" r="6.508" gradientUnits="userSpaceOnUse" gradientTransform="matrix(.66316 -.86288 .73111 .5619 12.113 -17.362)"/><radialGradient xlink:href="#C" id="an" cx="-22.804" cy="31.473" fx="-22.804" fy="31.473" r="6.508" gradientUnits="userSpaceOnUse" gradientTransform="matrix(1.53653 0 0 1.5365 55.04 -28.358)"/><radialGradient xlink:href="#D" id="ao" cx="-22.804" cy="31.473" fx="-22.804" fy="31.473" r="6.508" gradientUnits="userSpaceOnUse" gradientTransform="matrix(.66316 -.86288 .73111 .5619 12.113 -17.362)"/><radialGradient xlink:href="#E" id="ap" cx="478.161" cy="-1.291" fx="478.161" fy="-1.291" r="10.086" gradientUnits="userSpaceOnUse" gradientTransform="matrix(.8818 -.02691 .02647 .8673 8.556 12.697)"/><radialGradient xlink:href="#F" id="aq" cx="478.211" cy="-1.291" fx="478.211" fy="-1.291" r="4.664" gradientTransform="matrix(.53311 -.44889 .55257 .65624 175.987 214.219)" gradientUnits="userSpaceOnUse"/><radialGradient xlink:href="#I" id="at" cx="120.766" cy="37.882" fx="120.766" fy="37.882" r="45.086" gradientTransform="matrix(.00406 .85163 -3.45022 .01647 263.968 -113.52)" gradientUnits="userSpaceOnUse"/><radialGradient xlink:href="#J" id="au" cx="138.609" cy="-2.95" fx="138.609" fy="-2.95" r="3.341" gradientUnits="userSpaceOnUse"/><radialGradient xlink:href="#J" id="av" cx="138.609" cy="-2.95" fx="138.609" fy="-2.95" r="3.341" gradientUnits="userSpaceOnUse"/><radialGradient xlink:href="#A" id="cj" cx="276.832" cy="124.899" fx="276.832" fy="124.899" r="2.166" gradientUnits="userSpaceOnUse" gradientTransform="translate(21.924 -342.663) scale(1.77552)"/><radialGradient xlink:href="#A" id="ck" cx="276.832" cy="124.899" fx="276.832" fy="124.899" r="2.166" gradientUnits="userSpaceOnUse" gradientTransform="translate(51.014 -342.662) scale(1.77552)"/><radialGradient xlink:href="#A" id="cl" cx="276.832" cy="124.899" fx="276.832" fy="124.899" r="2.166" gradientUnits="userSpaceOnUse" gradientTransform="translate(21.923 -342.662) scale(1.77552)"/><radialGradient xlink:href="#A" id="cm" cx="276.832" cy="124.899" fx="276.832" fy="124.899" r="2.166" gradientUnits="userSpaceOnUse" gradientTransform="translate(51.014 -342.662) scale(1.77552)"/><radialGradient xlink:href="#l" id="cw" cx="334.201" cy="156.935" fx="334.201" fy="156.935" r="9.743" gradientTransform="matrix(1.28234 -.97488 .93533 1.23032 -46.924 39.192)" gradientUnits="userSpaceOnUse"/><radialGradient xlink:href="#l" id="cx" cx="341.579" cy="148.36" fx="341.579" fy="148.36" r="9.743" gradientTransform="matrix(1.74762 0 0 1.12804 -68.764 -254.303)" gradientUnits="userSpaceOnUse"/><radialGradient xlink:href="#n" id="cz" cx="284.118" cy="145.743" fx="284.118" fy="145.743" r="8.372" gradientUnits="userSpaceOnUse" gradientTransform="translate(55.5 5.5)"/><radialGradient xlink:href="#e" id="cA" cx="129.286" cy="92.274" fx="129.286" fy="92.274" r="72.726" gradientUnits="userSpaceOnUse" gradientTransform="matrix(3.30287 0 0 3.30287 100.976 -490.92)"/><radialGradient xlink:href="#g" id="ct" cx="-22.804" cy="31.473" fx="-22.804" fy="31.473" r="6.508" gradientUnits="userSpaceOnUse" gradientTransform="translate(92.313 2.02)"/><radialGradient xlink:href="#g" id="cu" cx="-22.804" cy="31.473" fx="-22.804" fy="31.473" r="6.508" gradientUnits="userSpaceOnUse" gradientTransform="translate(92.313 2.02)"/><radialGradient xlink:href="#g" id="cv" cx="-22.804" cy="31.473" fx="-22.804" fy="31.473" r="6.508" gradientUnits="userSpaceOnUse" gradientTransform="translate(92.313 2.02)"/><radialGradient r="2.166" fy="124.899" fx="276.832" cy="124.899" cx="276.832" gradientTransform="translate(-26.073 -296.663) scale(1.77552)" gradientUnits="userSpaceOnUse" id="ce" xlink:href="#A"/><radialGradient r="2.166" fy="124.899" fx="276.832" cy="124.899" cx="276.832" gradientTransform="translate(3.017 -296.662) scale(1.77552)" gradientUnits="userSpaceOnUse" id="cf" xlink:href="#A"/><radialGradient r="2.166" fy="124.899" fx="276.832" cy="124.899" cx="276.832" gradientTransform="translate(-26.074 -296.662) scale(1.77552)" gradientUnits="userSpaceOnUse" id="cg" xlink:href="#A"/><radialGradient r="2.166" fy="124.899" fx="276.832" cy="124.899" cx="276.832" gradientTransform="translate(3.017 -296.662) scale(1.77552)" gradientUnits="userSpaceOnUse" id="ch" xlink:href="#A"/><radialGradient xlink:href="#A" id="cL" gradientUnits="userSpaceOnUse" gradientTransform="translate(21.924 -342.663) scale(1.77552)" cx="276.832" cy="124.899" fx="276.832" fy="124.899" r="2.166"/><radialGradient xlink:href="#A" id="cM" gradientUnits="userSpaceOnUse" gradientTransform="translate(51.014 -342.662) scale(1.77552)" cx="276.832" cy="124.899" fx="276.832" fy="124.899" r="2.166"/><radialGradient xlink:href="#A" id="cN" gradientUnits="userSpaceOnUse" gradientTransform="translate(21.923 -342.662) scale(1.77552)" cx="276.832" cy="124.899" fx="276.832" fy="124.899" r="2.166"/><radialGradient xlink:href="#A" id="cO" gradientUnits="userSpaceOnUse" gradientTransform="translate(51.014 -342.662) scale(1.77552)" cx="276.832" cy="124.899" fx="276.832" fy="124.899" r="2.166"/><radialGradient xlink:href="#l" id="cP" gradientUnits="userSpaceOnUse" gradientTransform="matrix(1.42823 -1.08579 1.04174 1.37029 3.477 65.59)" cx="334.201" cy="156.935" fx="334.201" fy="156.935" r="9.743"/><radialGradient xlink:href="#l" id="cQ" gradientUnits="userSpaceOnUse" gradientTransform="matrix(1.94643 0 0 1.25637 -20.848 -261.296)" cx="341.579" cy="148.36" fx="341.579" fy="148.36" r="9.743"/><radialGradient xlink:href="#n" id="cS" gradientUnits="userSpaceOnUse" gradientTransform="translate(55.5 5.5)" cx="284.118" cy="145.743" fx="284.118" fy="145.743" r="8.372"/><radialGradient xlink:href="#e" id="cT" gradientUnits="userSpaceOnUse" gradientTransform="matrix(3.30287 0 0 3.30287 100.976 -490.92)" cx="129.286" cy="92.274" fx="129.286" fy="92.274" r="72.726"/><radialGradient xlink:href="#g" id="cU" gradientUnits="userSpaceOnUse" gradientTransform="translate(92.313 2.02)" cx="-22.804" cy="31.473" fx="-22.804" fy="31.473" r="6.508"/><radialGradient xlink:href="#g" id="cV" gradientUnits="userSpaceOnUse" gradientTransform="translate(92.313 2.02)" cx="-22.804" cy="31.473" fx="-22.804" fy="31.473" r="6.508"/><radialGradient xlink:href="#g" id="cW" gradientUnits="userSpaceOnUse" gradientTransform="translate(92.313 2.02)" cx="-22.804" cy="31.473" fx="-22.804" fy="31.473" r="6.508"/><radialGradient xlink:href="#X" id="cG" gradientUnits="userSpaceOnUse" cx="-22.804" cy="31.473" fx="-22.804" fy="31.473" r="6.159"/><radialGradient xlink:href="#Y" id="cH" gradientUnits="userSpaceOnUse" gradientTransform="matrix(-.36935 1.3264 -1.70624 -.47513 249.02 -48.04)" cx="102.208" cy="62.268" fx="102.208" fy="62.268" r="68.25"/><radialGradient xlink:href="#g" id="cB" gradientUnits="userSpaceOnUse" gradientTransform="translate(92.313 2.02)" cx="-22.804" cy="31.473" fx="-22.804" fy="31.473" r="6.508"/><filter height="1.138" y="-.069" width="1.936" x="-.468" id="cJ" color-interpolation-filters="sRGB"><feGaussianBlur stdDeviation="2.104"/></filter><filter height="1.114" y="-.057" width="1.127" x="-.064" id="be" color-interpolation-filters="sRGB"><feGaussianBlur stdDeviation="1.497"/></filter><filter height="1.162" y="-.081" width="1.235" x="-.117" id="bk" color-interpolation-filters="sRGB"><feGaussianBlur stdDeviation=".954"/></filter><filter height="1.748" y="-.374" width="1.033" x="-.016" id="bq" color-interpolation-filters="sRGB"><feGaussianBlur stdDeviation=".916"/></filter><filter height="1.748" y="-.374" width="1.033" x="-.016" id="bo" color-interpolation-filters="sRGB"><feGaussianBlur stdDeviation=".916"/></filter><filter height="1.484" y="-.242" width="1.12" x="-.06" id="bm" color-interpolation-filters="sRGB"><feGaussianBlur stdDeviation="4.452"/></filter><filter height="1.09" y="-.045" width="2.275" x="-.638" id="aS" color-interpolation-filters="sRGB"><feGaussianBlur stdDeviation="1.704"/></filter><filter height="1.067" y="-.034" width="1.572" x="-.286" id="aR" color-interpolation-filters="sRGB"><feGaussianBlur stdDeviation="1.314"/></filter><filter id="by" x="-.037" width="1.074" y="-.035" height="1.07" color-interpolation-filters="sRGB"><feGaussianBlur stdDeviation="2.254"/></filter><filter id="bx" x="-.126" width="1.252" y="-.03" height="1.059" color-interpolation-filters="sRGB"><feGaussianBlur stdDeviation="2.386"/></filter><filter id="bB" x="-.128" width="1.257" y="-.039" height="1.078" color-interpolation-filters="sRGB"><feGaussianBlur stdDeviation="1.798"/></filter><filter id="bF" x="-.397" width="1.793" y="-.032" height="1.065" color-interpolation-filters="sRGB"><feGaussianBlur stdDeviation="2.324"/></filter><filter id="aH" x="-.345" width="1.69" y="-.033" height="1.066" color-interpolation-filters="sRGB"><feGaussianBlur stdDeviation="2.167"/></filter><filter height="1.094" y="-.047" width="1.05" x="-.025" id="cn" color-interpolation-filters="sRGB"><feGaussianBlur stdDeviation="2.193"/></filter><filter height="1.108" y="-.054" width="1.217" x="-.109" id="ci" color-interpolation-filters="sRGB"><feGaussianBlur stdDeviation="2.001"/></filter><filter height="1.192" y="-.096" width="1.192" x="-.096" id="bX" color-interpolation-filters="sRGB"><feGaussianBlur stdDeviation="8.074"/></filter><filter id="bU" x="-.01" width="1.02" y="-.015" height="1.03" color-interpolation-filters="sRGB"><feGaussianBlur stdDeviation=".946"/></filter></defs><g transform="translate(-47.997 462)"><circle transform="translate(-14.864 5.24) scale(1.02815)" cx="527.992" cy="-186.151" r="100.921" opacity=".5" fill="none" stroke="#000" stroke-width="9" filter="url(#bX)"/><path d="M282.666 24.756c-37.29 0-67.52 30.228-67.52 67.517h17.14a50.381 50.381 0 0150.38-50.38 50.381 50.381 0 0150.38 50.38h17.14c0-37.29-30.23-67.517-67.52-67.517z" fill="url(#bY)" transform="matrix(2 0 0 2 -37.34 -370.7)"/><path d="M215.146 92.273c0 37.29 30.23 67.52 67.52 67.52 37.29 0 67.52-30.23 67.52-67.52h-17.14a50.381 50.381 0 01-50.38 50.383 50.381 50.381 0 01-50.38-50.383h-17.14z" fill="url(#bZ)" transform="matrix(2 0 0 2 -37.34 -370.7)"/><g fill="#fff" fill-rule="evenodd" stroke="#fff"><path d="M427.192-186.151h-30.783M511.013-285.505l-5.183-30.343M492.231-280.39l-10.92-28.78M474.401-271.521l-16.364-26.072M439.811-234.984l-26.928-14.913" stroke-width="5"/><path d="M527.984-286.944v-30.782" stroke-width="7.4"/><path d="M628.685-186.151h30.782M544.864-285.505l5.183-30.343M563.645-280.39l10.92-28.78M581.475-271.521l16.365-26.072M616.065-234.984l26.929-14.913" stroke-width="5"/></g><circle cx="527.992" cy="-186.15" r="100.921" fill="none" stroke="#000"/></g><path d="M527.991-191.074a4.923 4.923 0 00-4.923 4.922 4.922 4.922 0 002.341 4.185v14.072a18.372 18.372 0 01-6.164-2.023 18.533 18.533 0 01-7.406-7.309c.037.067.084.126.121.192a18.313 18.313 0 01-2.426-9.117v-3.422H463.91v7.25h41.114c.4 2.403 1.17 4.69 2.254 6.799l-.004.002a23.357 23.357 0 002.917 4.382 23.227 23.227 0 0013.657 7.907v22.535h-12.73l-19.971 40.941h-67.807c32.48 35.357 60.087 11.415 104.703 21.106 46.874-4.86 74.045 8.365 107.783-21.106h-70.988l-19.97-40.941h-12.731v-22.535a23.27 23.27 0 0016.574-12.29l-.004-.001a23.229 23.229 0 002.254-6.8h41.113v-7.25h-45.625v3.423c0 3.335-.9 6.455-2.449 9.152.045-.078.1-.148.145-.227a18.476 18.476 0 01-13.57 9.332v-14.07a4.923 4.923 0 002.339-4.187 4.923 4.923 0 00-4.922-4.922zm15.23 15.308c-.095.14-.185.285-.284.422.1-.137.189-.281.285-.422zm-1.456 1.875c-.112.126-.236.241-.352.364.116-.123.24-.238.352-.364zm-27.547.004c.104.117.217.223.324.336-.106-.113-.22-.22-.324-.336zm26.18 1.364zm-24.79.023zm1.551 1.254c.148.107.29.221.442.324-.151-.103-.294-.217-.442-.324zm21.664 0c-.147.107-.29.218-.441.32.15-.102.294-.213.441-.32zm-2.039 1.3c-.14.077-.287.14-.43.212.143-.073.29-.135.43-.211zm-15.855.817c.222.092.449.174.676.258-.227-.084-.454-.166-.676-.258zm14.117 0zm-12.156.68c.185.053.367.112.554.16-.187-.047-.37-.107-.554-.16zm10.199 0c-.184.053-.364.113-.55.16.185-.047.366-.107.55-.16z" filter="url(#cn)" transform="translate(-47.997 462)"/><path d="M525.408-183.762v15.867a18.476 18.476 0 01-13.57-9.332c-2.166.746-2.62.876-4.566 1.703a23.27 23.27 0 0016.574 12.29v28.98h8.289v-28.98a23.27 23.27 0 0016.574-12.29c-1.946-.827-2.4-.957-4.566-1.703a18.476 18.476 0 01-13.57 9.332v-15.867h-5.165z" fill="url(#co)" transform="translate(-47.997 462)"/><path d="M527.99-191.074a4.923 4.923 0 00-4.922 4.922 4.923 4.923 0 004.921 4.923 4.923 4.923 0 004.924-4.923 4.923 4.923 0 00-4.924-4.922zm-64.08 1.5v7.25h41.113c.4 2.404 1.17 4.691 2.253 6.8 1.943-.825 2.399-.957 4.563-1.703.037.067.084.126.121.192a18.313 18.313 0 01-2.426-9.117v-3.422H463.91zm82.538 0v3.422c0 3.335-.9 6.455-2.449 9.152.045-.078.101-.148.145-.227 2.164.746 2.62.878 4.562 1.704a23.23 23.23 0 002.254-6.801h41.113v-7.25h-45.625zm-3.226 13.808c-.096.14-.186.285-.285.422.1-.137.189-.281.285-.422zm-30.395.106c.067.095.128.195.196.289-.069-.094-.13-.194-.196-.29zm28.938 1.77c-.112.125-.236.24-.352.363.116-.123.24-.238.352-.364zm-27.547.003c.104.117.217.223.324.336-.106-.113-.22-.22-.324-.336zm26.18 1.364zm-24.79.023zm1.551 1.254c.148.107.29.221.442.324-.151-.103-.294-.217-.442-.324zm19.625 1.3c-.14.077-.287.14-.43.212.143-.073.29-.135.43-.211zm-17.59.005c.14.075.288.134.43.207-.141-.072-.29-.132-.43-.207zm1.735.812c.222.092.449.174.676.258-.227-.084-.454-.166-.676-.258zm1.96.68c.186.053.368.112.555.16-.187-.047-.37-.107-.554-.16z" fill="url(#cp)" transform="translate(-47.997 462)"/><path d="M479.994 168.8l11.02 34.75h-22.04z" fill="#ff3506"/><path d="M512.242-317.653l4.25 59.14 22.855.005 4.2-59.149c-10.44 0-20.866.004-31.305.004z" fill="url(#cq)" stroke="#fff" transform="translate(-47.997 462)"/><path d="M463.118 321.3l33.75.001 20 41h-73.75z" fill="#2d2d2d" stroke="#000" stroke-width=".5"/><path d="M423.339-99.757h212.485l-42.78 37.369-62.175 15.91-56.972-12.375z" fill="url(#cr)" fill-rule="evenodd" stroke="url(#cs)" stroke-width="2.5" transform="translate(-47.997 462)"/><g style="line-height:125%;text-align:center" font-weight="400" font-size="6.523" font-family="Arial" letter-spacing="0" word-spacing="-45.886" text-anchor="middle" fill="#fff"><path d="M456.614 358.973l-3.618-9.338h1.338l2.427 6.784q.293.815.49 1.528.217-.764.503-1.528l2.523-6.784h1.261l-3.656 9.338h-1.268zM460.665 358.973l3.587-9.338h1.33l3.823 9.338h-1.408l-1.09-2.828h-3.904l-1.025 2.828h-1.313zm2.695-3.835h3.166l-.975-2.586q-.446-1.178-.662-1.936-.179.898-.504 1.783l-1.025 2.74zM477.068 355.699l1.236.312q-.389 1.522-1.402 2.325-1.006.796-2.465.796-1.51 0-2.459-.611-.942-.618-1.44-1.784-.49-1.166-.49-2.503 0-1.46.554-2.542.561-1.09 1.586-1.65 1.032-.567 2.268-.567 1.402 0 2.357.714.956.713 1.331 2.006l-1.216.287q-.325-1.02-.943-1.484-.618-.465-1.554-.465-1.077 0-1.803.516-.72.516-1.013 1.388-.293.867-.293 1.79 0 1.191.344 2.083.35.886 1.083 1.325.733.44 1.586.44 1.038 0 1.758-.6.72-.598.975-1.776zM485.96 349.635h1.236v5.395q0 1.408-.319 2.236-.318.828-1.152 1.35-.829.516-2.179.516-1.312 0-2.147-.452-.834-.452-1.19-1.306-.358-.86-.358-2.344v-5.395h1.236v5.389q0 1.216.223 1.796.23.573.777.885.554.312 1.35.312 1.364 0 1.944-.618.58-.617.58-2.375v-5.39zM495.388 349.635h1.235v5.395q0 1.408-.318 2.236-.319.828-1.153 1.35-.828.516-2.179.516-1.312 0-2.146-.452-.835-.452-1.191-1.306-.357-.86-.357-2.344v-5.395h1.236v5.389q0 1.216.223 1.796.229.573.777.885.554.312 1.35.312 1.363 0 1.943-.618.58-.617.58-2.375v-5.39zM498.649 358.973v-9.338h1.86l2.21 6.612q.306.923.446 1.382.16-.51.497-1.497l2.236-6.497h1.662v9.338h-1.19v-7.816l-2.714 7.816h-1.115l-2.7-7.95v7.95h-1.192z" style="-inkscape-font-specification:Arial"/></g><g transform="matrix(2 0 0 2 221.422 91.266)"><circle r="6.258" cy="33.492" cx="69.508" fill="url(#ct)" stroke="#000" stroke-width=".5"/><path d="M71.277 29.628l-2.186 2.457-2.843-1.172-.525.86 2.288 2.083-1.128 2.977.858.523 2.128-2.367 2.901 1.082.524-.86-2.345-1.992 1.186-3.068z"/></g><g transform="matrix(2 0 0 -2 221.422 461.365)"><circle r="6.258" cy="33.492" cx="69.508" fill="url(#cu)" stroke="#000" stroke-width=".5"/><path d="M71.277 29.628l-2.186 2.457-2.843-1.172-.525.86 2.288 2.083-1.128 2.977.858.523 2.128-2.367 2.901 1.082.524-.86-2.345-1.992 1.186-3.068z"/></g><g transform="matrix(-2 0 0 2 738.565 91.266)"><circle r="6.258" cy="33.492" cx="69.508" fill="url(#cv)" stroke="#000" stroke-width=".5"/><path d="M71.277 29.628l-2.186 2.457-2.843-1.172-.525.86 2.288 2.083-1.128 2.977.858.523 2.128-2.367 2.901 1.082.524-.86-2.345-1.992 1.186-3.068z"/></g><path d="M545.68-80.19v5.09h-34.991v-5.09c0-9.662 7.833-17.495 17.495-17.495 9.663 0 17.495 7.833 17.495 17.496z" fill="url(#cw)" transform="translate(-47.997 462)"/><path d="M479.91 364.31v4.96" fill="none" stroke="#000" stroke-width=".539"/><g fill="none" stroke="#000" stroke-width=".3"><path d="M482.489 364.231v4.96M485.028 364.787v4.96M488.044 366.017v4.96M490.703 367.584v4.96M492.925 369.568v4.96M495.06 372.854v4.96" stroke-width=".538713"/></g><g fill="none" stroke="#000" stroke-width=".3"><path d="M477.292 364.288v5.661M474.752 365.04v5.465M471.736 366.354v5.38M469.078 368.342v4.96M466.856 370.326v4.96M464.72 373.612v4.96" stroke-width=".538713"/></g><path d="M545.21-80.91v4.953h-34.052v-4.954c0-9.403 7.623-17.026 17.027-17.026 9.403 0 17.026 7.623 17.026 17.026z" fill="none" stroke="url(#cx)" stroke-width=".749" transform="translate(-47.997 462)"/><g transform="translate(-129.668 114.584) scale(1.79571)"><circle cx="339.617" cy="151.244" r="9.242" fill="#1a1a1a" stroke="url(#cy)"/><circle cx="339.618" cy="151.243" r="7.942" fill="url(#cz)" stroke="#000" stroke-width=".859"/></g><path d="M527.988-330.602c-79.776 0-144.447 64.672-144.449 144.449 0 79.778 64.671 144.452 144.45 144.453 79.779 0 144.453-64.674 144.452-144.453 0-79.778-64.675-144.45-144.453-144.45zm0 15.656c71.132-.001 128.796 57.661 128.797 128.793.001 71.133-57.664 128.798-128.797 128.797-71.131-.001-128.794-57.666-128.793-128.797.001-71.13 57.663-128.792 128.793-128.793z" fill="url(#cA)" stroke="#000" transform="translate(-47.997 462)"/><g transform="matrix(-2 0 0 -2 738.565 461.365)"><circle cx="69.508" cy="33.492" r="6.258" fill="url(#cB)" stroke="#000" stroke-width=".5"/><path d="M71.277 29.628l-2.186 2.457-2.843-1.172-.525.86 2.288 2.083-1.128 2.977.858.523 2.128-2.367 2.901 1.082.524-.86-2.345-1.992 1.186-3.068z"/></g><g><path d="M478.491 230.693V321h3v-90.307h-3z" fill="#fff"/></g></svg>