<svg xmlns="http://www.w3.org/2000/svg" xmlns:xlink="http://www.w3.org/1999/xlink" width="400.667" height="400.666"><defs><radialGradient gradientTransform="matrix(1.97203 0 0 1.97203 -361.573 26.139)" gradientUnits="userSpaceOnUse" r="2.166" fy="124.899" fx="276.832" cy="124.899" cx="276.832" id="d" xlink:href="#a"/><radialGradient gradientTransform="matrix(1.97203 0 0 1.97203 -329.263 26.14)" gradientUnits="userSpaceOnUse" r="2.166" fy="124.899" fx="276.832" cy="124.899" cx="276.832" id="e" xlink:href="#a"/><radialGradient gradientTransform="matrix(1.97203 0 0 1.97203 -361.573 26.14)" gradientUnits="userSpaceOnUse" r="2.166" fy="124.899" fx="276.832" cy="124.899" cx="276.832" id="f" xlink:href="#a"/><radialGradient gradientTransform="matrix(1.97203 0 0 1.97203 -329.263 26.14)" gradientUnits="userSpaceOnUse" r="2.166" fy="124.899" fx="276.832" cy="124.899" cx="276.832" id="g" xlink:href="#a"/><radialGradient gradientUnits="userSpaceOnUse" gradientTransform="matrix(4.79237 -.005 .00465 4.44776 -403.119 -1005.713)" r="64.548" fy="259.691" fx="129.436" cy="259.691" cx="129.436" id="h" xlink:href="#b"/><linearGradient id="a"><stop offset="0" stop-color="#7d7d7d"/><stop offset="1" stop-opacity=".984"/></linearGradient><linearGradient id="b"><stop offset="0" stop-color="#373737"/><stop offset="1"/></linearGradient><linearGradient gradientUnits="userSpaceOnUse" y2="306.006" x2="182.67" y1="222.214" x1="99.359" id="j" xlink:href="#c" gradientTransform="matrix(2 0 0 2 -40.81 -370.7)"/><linearGradient id="c"><stop offset="0" stop-color="#302f2e"/><stop offset="1" stop-color="#c4c4c4"/></linearGradient><filter height="1.748" y="-.374" width="1.033" x="-.016" id="i" color-interpolation-filters="sRGB"><feGaussianBlur stdDeviation=".916"/></filter><filter height="1.748" y="-.374" width="1.033" x="-.016" id="k" color-interpolation-filters="sRGB"><feGaussianBlur stdDeviation=".916"/></filter></defs><path d="M218.232 237.29c1.25 15.453 1.094 29.597.49 41.526M182.34 237.29c-1.251 15.453-1.094 29.597-.491 41.526" fill="none" stroke="#000" stroke-width="2.22134"/><path d="M218.391 9.274c-70.744.001-138.7 68.664-138.7 139.408 0 70.744 67.956 138.346 138.7 138.347 70.746.001 136.582-67.601 136.583-138.347 0-70.745-65.837-139.409-136.583-139.408zm0 47.86c50.561-.001 91.55 40.987 91.549 91.548 0 50.561-40.988 91.55-91.549 91.549-50.561 0-91.55-40.988-91.549-91.549 0-50.561 40.988-91.55 91.55-91.549z" fill="url(#h)" transform="matrix(1.11067 0 0 1.11067 -42.016 34.945)"/><path d="M150.915 210.42c44.148 6.677 88.861 8.919 135 0" fill="none" stroke="#fff" filter="url(#i)" transform="matrix(1.11067 0 0 1.11067 -42.016 34.945)"/><path d="M218.06 57.133a91.548 91.548 0 0191.548 91.549 91.548 91.548 0 01-91.548 91.549 91.548 91.548 0 01-91.55-91.549 91.548 91.548 0 0191.55-91.549z" fill="none" stroke="url(#j)" stroke-width="2" transform="matrix(1.11067 0 0 1.11067 -42.016 34.945)"/><path fill="#fff" stroke="#fff" stroke-width=".7319315300000001" d="M78.396 196.21H97.08v7.541H78.396zM303.35 196.21h18.684v7.541H303.35zM298.497 229.646l17.79 5.713-1.622 5.05-17.79-5.713zM101.93 229.646l-17.79 5.713 1.622 5.05 17.79-5.713z"/><path d="M91.926 263.696v-18.458h3.757v15.323h9.343v3.135h-13.1zM295.153 263.696v-18.61h7.908q2.984 0 4.33.507 1.358.495 2.17 1.778.812 1.282.812 2.932 0 2.095-1.23 3.466-1.232 1.358-3.682 1.713 1.218.711 2.005 1.562.8.85 2.146 3.021l2.272 3.63h-4.494l-2.716-4.049q-1.448-2.17-1.98-2.73-.534-.57-1.13-.774-.597-.215-1.892-.215h-.762v7.769h-3.757zm3.757-10.74h2.78q2.704 0 3.377-.228.673-.229 1.054-.787.38-.559.38-1.397 0-.94-.507-1.51-.495-.584-1.41-.737-.456-.063-2.741-.063h-2.933v4.722z" style="line-height:125%;-inkscape-font-specification:'Arial Bold'" font-weight="700" font-family="Arial" letter-spacing="0" word-spacing="0" fill="#fff"/><path d="M170.844 315.079v-9.17h1.801l3.754 6.124v-6.124h1.72v9.17h-1.858l-3.697-5.98v5.98h-1.72zM179.708 310.55q0-1.401.419-2.352.312-.7.85-1.257.545-.557 1.189-.826.857-.363 1.976-.363 2.027 0 3.24 1.258 1.22 1.257 1.22 3.496 0 2.221-1.207 3.478-1.207 1.251-3.228 1.251-2.045 0-3.252-1.244-1.207-1.252-1.207-3.44zm1.907-.062q0 1.557.72 2.364.72.8 1.826.8 1.107 0 1.814-.794.713-.8.713-2.396 0-1.576-.694-2.351-.688-.776-1.833-.776-1.144 0-1.845.788-.7.782-.7 2.365zM193.594 315.079v-9.17h2.971q1.69 0 2.202.138.788.206 1.32.9.532.688.532 1.783 0 .844-.307 1.42-.306.575-.782.907-.469.325-.957.432-.663.13-1.92.13h-1.207v3.46h-1.852zm1.852-7.619v2.602h1.013q1.095 0 1.464-.144t.575-.45q.213-.307.213-.713 0-.5-.294-.826-.294-.325-.745-.406-.331-.063-1.332-.063h-.894zM202.095 315.079v-9.17h1.851v9.17h-1.851zM207.768 315.079v-7.619h-2.72v-1.551h7.287v1.551h-2.715v7.619h-1.852zM219.378 311.707l1.795.57q-.413 1.5-1.376 2.233-.957.725-2.433.725-1.827 0-3.003-1.244-1.176-1.252-1.176-3.416 0-2.29 1.183-3.553 1.182-1.27 3.108-1.27 1.683 0 2.734.995.625.588.938 1.689l-1.833.438q-.162-.713-.681-1.126-.513-.413-1.251-.413-1.02 0-1.658.732-.632.732-.632 2.37 0 1.74.626 2.478.625.738 1.626.738.738 0 1.27-.47.532-.469.763-1.476zM222.775 315.079v-9.17h1.851v3.609h3.628v-3.61h1.852v9.17h-1.852v-4.009h-3.628v4.01h-1.851zM156.645 329.073v-9.17h1.851v9.17h-1.851zM160.273 329.073v-9.17h1.801l3.753 6.124v-6.124h1.72v9.17h-1.857l-3.697-5.98v5.98h-1.72zM169.524 329.073v-9.17h6.287v1.551h-4.435v2.171h3.828v1.551h-3.828v3.897h-1.852zM176.968 324.544q0-1.4.419-2.351.313-.701.85-1.258.545-.556 1.19-.825.856-.363 1.976-.363 2.026 0 3.24 1.257 1.22 1.257 1.22 3.497 0 2.22-1.208 3.478-1.207 1.25-3.227 1.25-2.046 0-3.253-1.244-1.207-1.251-1.207-3.44zm1.908-.062q0 1.557.719 2.364.72.801 1.826.801 1.108 0 1.814-.794.714-.801.714-2.396 0-1.576-.695-2.352-.688-.776-1.833-.776-1.144 0-1.845.788-.7.782-.7 2.365zM187.308 329.073v-9.17h3.897q1.47 0 2.133.25.669.244 1.07.876.4.632.4 1.445 0 1.032-.607 1.708-.607.669-1.814.844.6.35.988.77.394.419 1.057 1.488l1.12 1.79h-2.214l-1.339-1.996q-.713-1.07-.976-1.345-.263-.282-.557-.382-.294-.106-.932-.106h-.375v3.828h-1.851zm1.851-5.292h1.37q1.332 0 1.664-.112.331-.113.52-.388.187-.275.187-.688 0-.463-.25-.745-.244-.287-.695-.362-.225-.032-1.35-.032h-1.446v2.327zM196.534 329.073v-9.17h2.771l1.664 6.255 1.645-6.255h2.777v9.17h-1.72v-7.218l-1.82 7.218h-1.783l-1.814-7.218v7.218h-1.72zM215.512 329.073h-2.014l-.8-2.083h-3.666l-.757 2.083h-1.964l3.572-9.17h1.957l3.672 9.17zm-3.409-3.628l-1.263-3.403-1.239 3.403h2.502zM217.639 329.073v-7.619h-2.721v-1.55h7.287v1.55h-2.714v7.62h-1.852zM223.325 329.073v-9.17h1.852v9.17h-1.852zM226.559 324.544q0-1.4.419-2.351.313-.701.85-1.258.545-.556 1.19-.825.856-.363 1.976-.363 2.027 0 3.24 1.257 1.22 1.257 1.22 3.497 0 2.22-1.207 3.478-1.208 1.25-3.228 1.25-2.046 0-3.253-1.244-1.207-1.251-1.207-3.44zm1.908-.062q0 1.557.72 2.364.718.801 1.826.801 1.107 0 1.814-.794.713-.801.713-2.396 0-1.576-.695-2.352-.688-.776-1.832-.776-1.145 0-1.846.788-.7.782-.7 2.365zM236.911 329.073v-9.17h1.802l3.753 6.124v-6.124h1.72v9.17h-1.858l-3.697-5.98v5.98h-1.72z" style="line-height:125%;-inkscape-font-specification:'Arial Bold';text-align:center" font-weight="700" font-size="5.767" font-family="Arial" letter-spacing="0" word-spacing="0" text-anchor="middle" fill="#fff"/><path style="line-height:125%;-inkscape-font-specification:'Arial Bold';text-align:center" d="M155.682 73.984h5.504q1.861 0 2.838.285 1.312.386 2.248 1.373.936.987 1.424 2.421.489 1.424.489 3.52 0 1.841-.458 3.174-.56 1.628-1.597 2.635-.783.763-2.116 1.19-.997.315-2.665.315h-5.667V73.984zm3.011 2.523v9.878h2.249q1.261 0 1.82-.143.733-.183 1.211-.62.488-.438.794-1.435.305-1.007.305-2.736 0-1.73-.305-2.655-.306-.926-.855-1.445-.55-.519-1.394-.702-.63-.142-2.472-.142h-1.353zM169.018 88.897V86.04h2.858v2.858h-2.858zM182.648 83.414l2.92.926q-.672 2.441-2.239 3.632-1.556 1.18-3.957 1.18-2.97 0-4.883-2.025-1.912-2.034-1.912-5.554 0-3.724 1.922-5.778 1.923-2.066 5.056-2.066 2.737 0 4.446 1.618 1.017.956 1.526 2.747l-2.98.712q-.265-1.16-1.11-1.831-.834-.672-2.034-.672-1.658 0-2.696 1.19-1.028 1.19-1.028 3.856 0 2.828 1.018 4.028 1.017 1.2 2.645 1.2 1.2 0 2.065-.762.865-.763 1.24-2.4zM186.43 88.897V86.04h2.86v2.858h-2.86zM193.794 88.897V73.984h11.058v2.523h-8.046v3.306h7.487v2.513h-7.487v4.059h8.331v2.512h-11.343zM206.082 88.897V74.106h3.011v12.279h7.487v2.512h-10.498zM217.027 88.897V73.984h11.058v2.523h-8.047v3.306h7.487v2.513h-7.487v4.059h8.331v2.512h-11.342zM238.775 83.414l2.92.926q-.672 2.441-2.238 3.632-1.557 1.18-3.958 1.18-2.97 0-4.883-2.025-1.912-2.034-1.912-5.554 0-3.724 1.922-5.778 1.923-2.066 5.056-2.066 2.737 0 4.446 1.618 1.017.956 1.526 2.747l-2.98.712q-.265-1.16-1.11-1.831-.834-.672-2.034-.672-1.658 0-2.696 1.19-1.028 1.19-1.028 3.856 0 2.828 1.018 4.028 1.017 1.2 2.645 1.2 1.2 0 2.065-.762.865-.763 1.24-2.4zM242.558 88.897V86.04h2.858v2.858h-2.858z" font-weight="700" font-family="Arial" letter-spacing="-.77" word-spacing="-1.501" text-anchor="middle" fill="#fff"/><path d="M150.988 180.175c44.148 6.678 88.862 8.92 135 0" fill="none" stroke="#fff" filter="url(#k)" transform="matrix(1.11067 0 0 1.11067 -42.016 34.945)"/></svg>