<svg xmlns="http://www.w3.org/2000/svg" xmlns:xlink="http://www.w3.org/1999/xlink" width="400.667" height="400.666"><defs><linearGradient id="b" gradientUnits="userSpaceOnUse" x1="148.108" y1="142.399" x2="163.702" y2="169.408"><stop offset="0" stop-color="#2d2d2d"/><stop offset="1"/></linearGradient><linearGradient id="a"><stop offset="0" stop-color="#7d7d7d"/><stop offset="1" stop-opacity=".984"/></linearGradient><linearGradient gradientTransform="matrix(2 0 0 2 -40.844 -394.45)" gradientUnits="userSpaceOnUse" y2="266.706" x2="161.411" y1="255.706" x1="161.411" id="l" xlink:href="#c"/><linearGradient id="c"><stop offset="0" stop-color="#2c2727"/><stop offset=".515" stop-color="#4b423f"/><stop offset="1" stop-color="#342e2d"/></linearGradient><linearGradient gradientTransform="matrix(2 0 0 2 -40.844 -394.45)" gradientUnits="userSpaceOnUse" y2="267.247" x2="171.954" y1="255.518" x1="153.198" id="m" xlink:href="#d"/><linearGradient id="d"><stop offset="0" stop-color="#282828"/><stop offset="1" stop-color="#5b5a58"/></linearGradient><linearGradient gradientTransform="matrix(2 0 0 2 -40.219 -370.7)" gradientUnits="userSpaceOnUse" y2="295.489" x2="129.286" y1="273.845" x1="129.286" id="n" xlink:href="#e"/><linearGradient id="e"><stop offset="0" stop-color="#0f0f0f"/><stop offset=".545" stop-color="#646464"/><stop offset="1" stop-color="#0f0f0f"/></linearGradient><linearGradient id="f"><stop offset="0" stop-color="#7f818c"/><stop offset="1" stop-color="#d4d4d5"/></linearGradient><radialGradient gradientTransform="matrix(1.97203 0 0 1.97203 -361.573 26.139)" gradientUnits="userSpaceOnUse" r="2.166" fy="124.899" fx="276.832" cy="124.899" cx="276.832" id="g" xlink:href="#a"/><radialGradient gradientTransform="matrix(1.97203 0 0 1.97203 -329.263 26.14)" gradientUnits="userSpaceOnUse" r="2.166" fy="124.899" fx="276.832" cy="124.899" cx="276.832" id="h" xlink:href="#a"/><radialGradient gradientTransform="matrix(1.97203 0 0 1.97203 -361.573 26.14)" gradientUnits="userSpaceOnUse" r="2.166" fy="124.899" fx="276.832" cy="124.899" cx="276.832" id="i" xlink:href="#a"/><radialGradient gradientTransform="matrix(1.97203 0 0 1.97203 -329.263 26.14)" gradientUnits="userSpaceOnUse" r="2.166" fy="124.899" fx="276.832" cy="124.899" cx="276.832" id="j" xlink:href="#a"/><radialGradient gradientTransform="matrix(.31614 1.97485 -2.59073 .41474 792.024 -181.698)" gradientUnits="userSpaceOnUse" r="48.173" fy="250.335" fx="99.441" cy="250.335" cx="99.441" id="k" xlink:href="#b"/><radialGradient gradientUnits="userSpaceOnUse" gradientTransform="matrix(2 0 0 1.25854 -40.219 -159.581)" r="39.875" fy="284.733" fx="129.188" cy="284.733" cx="129.188" id="o" xlink:href="#f"/></defs><g transform="matrix(1.11067 0 0 1.11067 -42.016 34.945)"><circle r="96.347" cy="148.558" cx="218.398" fill="url(#k)" fill-rule="evenodd"/><path fill="url(#l)" stroke="url(#m)" stroke-width="1.6" d="M264.748 118.968h32.838v18.266h-32.838z"/><path style="line-height:125%;-inkscape-font-specification:'Arial Bold';text-align:center" d="M153.628 107.98v-9.156h-2.81v-1.865h7.527v1.865h-2.805v9.156h-1.912zM159.324 96.96h1.912v5.968q0 1.42.071 1.842.123.676.582 1.09.465.406 1.266.406.814 0 1.228-.384.413-.39.497-.954.084-.564.084-1.872v-6.097h1.913v5.789q0 1.984-.155 2.804-.155.819-.575 1.383-.414.563-1.112.902-.697.33-1.822.33-1.356 0-2.06-.36-.698-.369-1.106-.948-.407-.586-.536-1.225-.187-.947-.187-2.796v-5.879zM168.683 107.98V96.96h4.025q1.519 0 2.204.3.691.293 1.105 1.053.413.759.413 1.736 0 1.24-.627 2.052-.626.804-1.873 1.015.62.42 1.02.925.408.503 1.092 1.789l1.157 2.15h-2.287l-1.383-2.398q-.737-1.286-1.008-1.617-.271-.338-.575-.458-.304-.128-.963-.128h-.387v4.6h-1.913zm1.913-6.36h1.415q1.376 0 1.718-.135.343-.135.537-.466.193-.331.193-.827 0-.556-.258-.895-.252-.345-.717-.436-.233-.037-1.396-.037h-1.492v2.796zM178.036 107.98V96.96h1.86l3.878 7.359v-7.36h1.776v11.02h-1.919l-3.818-7.186v7.187h-1.777zM196.865 103.928l1.854.684q-.426 1.804-1.421 2.684-.989.871-2.514.871-1.886 0-3.101-1.495-1.215-1.504-1.215-4.105 0-2.751 1.221-4.27 1.221-1.526 3.211-1.526 1.739 0 2.824 1.196.646.706.97 2.03l-1.894.526q-.168-.857-.704-1.354-.53-.496-1.292-.496-1.054 0-1.713.88-.652.88-.652 2.849 0 2.09.646 2.977t1.68.887q.762 0 1.311-.564.55-.564.789-1.774zM199.756 102.537q0-1.684.433-2.826.323-.842.879-1.511.562-.67 1.228-.992.885-.436 2.041-.436 2.094 0 3.347 1.51 1.26 1.511 1.26 4.203 0 2.668-1.247 4.18-1.247 1.502-3.334 1.502-2.113 0-3.36-1.495-1.247-1.504-1.247-4.135zm1.971-.075q0 1.872.743 2.841.743.963 1.887.963 1.143 0 1.874-.955.736-.962.736-2.88 0-1.894-.717-2.826-.71-.932-1.893-.932t-1.906.947q-.724.94-.724 2.842zM209.82 102.537q0-1.684.433-2.826.323-.842.879-1.511.562-.67 1.227-.992.885-.436 2.042-.436 2.093 0 3.347 1.51 1.26 1.511 1.26 4.203 0 2.668-1.247 4.18-1.247 1.502-3.334 1.502-2.113 0-3.36-1.495-1.247-1.504-1.247-4.135zm1.97-.075q0 1.872.744 2.841.743.963 1.886.963 1.144 0 1.874-.955.737-.962.737-2.88 0-1.894-.717-2.826-.711-.932-1.894-.932-1.182 0-1.906.947-.723.94-.723 2.842zM220.278 107.98V96.96h4.025q1.518 0 2.203.3.692.293 1.105 1.053.414.759.414 1.736 0 1.24-.627 2.052-.627.804-1.874 1.015.62.42 1.021.925.407.503 1.092 1.789l1.157 2.15h-2.288l-1.382-2.398q-.737-1.286-1.008-1.617-.272-.338-.575-.458-.304-.128-.963-.128h-.388v4.6h-1.912zm1.912-6.36h1.415q1.377 0 1.719-.135.342-.135.536-.466t.194-.827q0-.556-.258-.895-.252-.345-.718-.436-.232-.037-1.395-.037h-1.493v2.796zM229.605 96.96h3.495q1.183 0 1.803.21.833.286 1.428 1.015.594.729.904 1.789.31 1.052.31 2.6 0 1.361-.29 2.346-.355 1.203-1.015 1.947-.497.564-1.343.88-.634.233-1.693.233h-3.6V96.96zm1.912 1.864v7.299h1.428q.801 0 1.157-.105.465-.136.769-.459.31-.323.504-1.06.194-.744.194-2.022 0-1.278-.194-1.962-.194-.684-.543-1.067-.349-.384-.885-.52-.4-.104-1.57-.104h-.86zM238.893 107.98V96.96h1.913v11.02h-1.913zM242.418 107.98V96.96h1.86l3.878 7.359v-7.36h1.776v11.02h-1.919l-3.818-7.186v7.187h-1.777zM260.28 107.98h-2.08l-.827-2.504h-3.786l-.782 2.504h-2.029l3.69-11.02h2.022l3.792 11.02zm-3.521-4.36l-1.305-4.09-1.28 4.09h2.585zM262.255 107.98v-9.156h-2.811v-1.865h7.527v1.865h-2.804v9.156h-1.912zM267.343 102.537q0-1.684.433-2.826.323-.842.879-1.511.562-.67 1.227-.992.886-.436 2.042-.436 2.094 0 3.347 1.51 1.26 1.511 1.26 4.203 0 2.668-1.247 4.18-1.247 1.502-3.334 1.502-2.113 0-3.36-1.495-1.247-1.504-1.247-4.135zm1.97-.075q0 1.872.744 2.841.743.963 1.886.963 1.144 0 1.874-.955.737-.962.737-2.88 0-1.894-.717-2.826-.711-.932-1.894-.932-1.182 0-1.906.947-.723.94-.723 2.842zM277.8 107.98V96.96h4.026q1.519 0 2.203.3.692.293 1.105 1.053.414.759.414 1.736 0 1.24-.627 2.052-.627.804-1.874 1.015.62.42 1.021.925.407.503 1.092 1.789l1.157 2.15h-2.288l-1.382-2.398q-.737-1.286-1.008-1.617-.272-.338-.575-.458-.304-.128-.963-.128h-.388v4.6h-1.912zm1.913-6.36h1.415q1.377 0 1.72-.135.342-.135.535-.466.194-.331.194-.827 0-.556-.258-.895-.252-.345-.717-.436-.233-.037-1.396-.037h-1.493v2.796z" font-weight="700" font-size="7.136" font-family="Arial" letter-spacing="-.12" word-spacing="0" text-anchor="middle" fill="#fff"/><path style="line-height:125%;-inkscape-font-specification:'Arial Bold'" d="M205.826 232.833v1.947h-7.348q.12-1.104.717-2.089.596-.992 2.357-2.625 1.417-1.32 1.738-1.79.433-.65.433-1.284 0-.701-.38-1.074-.374-.38-1.038-.38-.656 0-1.044.395t-.448 1.313l-2.088-.21q.186-1.73 1.17-2.483.986-.754 2.463-.754 1.618 0 2.543.873t.925 2.17q0 .74-.268 1.41-.261.665-.836 1.396-.38.485-1.372 1.395-.992.91-1.261 1.208-.261.299-.425.582h4.162zM212.921 234.78v-10.936h3.305l1.984 7.46 1.962-7.46h3.313v10.936h-2.052v-8.609l-2.17 8.61h-2.127l-2.163-8.61v8.61h-2.052zM226.126 234.78v-10.936h2.208v10.936h-2.208zM230.952 234.78v-10.936h2.149l4.476 7.303v-7.303h2.051v10.936h-2.215l-4.41-7.131v7.131h-2.05z" font-weight="700" font-family="Arial" letter-spacing=".25" word-spacing="0" fill="#fff"/><path style="line-height:125%;-inkscape-font-specification:Arial" d="M242.747 234.78v-1.53h1.529v1.53h-1.53z" font-weight="400" font-family="Arial" letter-spacing="-.89" word-spacing="0" fill="#fff"/><rect width="160.68" height="43.288" x="137.711" y="176.99" ry="3.75" fill="url(#n)" stroke="#a5a5a5" stroke-width=".5"/><path d="M290.254 211.78c4.214-2.417 11.111-29.568 5.617-33.024-1.03-.648-2.68-.913-5-.914-10.056 0-32.738 4.942-72.513 4.942-39.775 0-62.858-4.942-72.913-4.942-2.32 0-3.97.266-5 .914-5.495 3.456 1.403 30.607 5.617 33.024 32.543 6.129 50.31 7.912 72.296 7.91 21.985.002 39.353-1.781 71.896-7.91z" fill="url(#o)" fill-rule="evenodd"/></g></svg>