<svg xmlns="http://www.w3.org/2000/svg" xmlns:xlink="http://www.w3.org/1999/xlink" width="700" height="700" viewBox="0 0 185.208 185.208"><defs><linearGradient id="a"><stop offset="0" stop-opacity="0"/><stop offset=".188" stop-opacity="0"/><stop offset=".375" stop-opacity="0"/><stop offset=".75" stop-opacity="0"/><stop offset=".875" stop-opacity="0"/><stop offset=".938" stop-opacity=".196"/><stop offset="1" stop-opacity=".392"/></linearGradient><linearGradient xlink:href="#b" id="f" gradientUnits="userSpaceOnUse" gradientTransform="rotate(45 -152.675 -785.976) scale(1.69465 1.74668)" x1="549.113" y1="265.412" x2="678.933" y2="265.412"/><linearGradient id="b"><stop offset="0" stop-color="#505050"/><stop offset="1" stop-color="#282828"/></linearGradient><linearGradient xlink:href="#c" id="g" gradientUnits="userSpaceOnUse" gradientTransform="rotate(45 -241.042 -702.16) scale(1.556 1.60376)" x1="549.113" y1="265.412" x2="678.933" y2="265.412"/><linearGradient id="c"><stop offset="0" stop-color="#111"/><stop offset="1" stop-color="#646464"/></linearGradient><linearGradient xlink:href="#d" id="h" gradientUnits="userSpaceOnUse" gradientTransform="rotate(45 -182.11 -758.015) scale(1.64843 1.69904)" x1="549.113" y1="265.412" x2="678.933" y2="265.412"/><linearGradient id="d"><stop offset="0" stop-color="#0f0f0f"/><stop offset="1" stop-color="#505050"/></linearGradient><radialGradient xlink:href="#a" id="e" gradientUnits="userSpaceOnUse" gradientTransform="rotate(45 -587.071 -560.256) scale(2.16055 2.16056)" cx="348.858" cy="102.998" fx="348.858" fy="102.998" r="42.813"/></defs><path d="M-192.5 848.847c-23.673 0-47.344 9.032-65.406 27.094-36.124 36.123-36.124 94.689 0 130.812 36.123 36.124 94.689 36.124 130.812 0 36.124-36.123 36.124-94.689 0-130.812-18.061-18.062-41.733-27.094-65.406-27.094zm0 17.5c41.421 0 75 33.579 75 75s-33.579 75-75 75-75-33.579-75-75 33.579-75 75-75z" fill="url(#e)" transform="translate(239.419 -625.335) scale(.76267)"/><path d="M152.465 32.743c-33.06-33.06-86.662-33.06-119.722 0-33.06 33.06-33.06 86.662 0 119.722 33.06 33.06 86.662 33.06 119.722 0 33.06-33.06 33.06-86.662 0-119.722zm-.809.809c32.614 32.614 32.614 85.49 0 118.105-32.613 32.613-85.49 32.613-118.104 0-32.614-32.614-32.614-85.491 0-118.105 32.614-32.614 85.49-32.614 118.104 0z" fill="#323232"/><path d="M-114.718 863.565c-42.958-42.958-112.606-42.958-155.564 0-42.957 42.958-42.957 112.606 0 155.563 42.958 42.958 112.606 42.958 155.564 0 42.957-42.957 42.957-112.606 0-155.563zm-2.475 2.475c41.59 41.59 41.59 109.023 0 150.613-41.591 41.591-109.023 41.591-150.614 0-41.59-41.59-41.59-109.022 0-150.613 41.59-41.591 109.023-41.591 150.614 0z" fill="url(#f)" transform="translate(239.419 -625.335) scale(.76267)"/><path d="M-121.082 869.929c-39.443-39.443-103.393-39.443-142.836 0-39.443 39.443-39.443 103.392 0 142.835 39.443 39.443 103.393 39.443 142.836 0 39.443-39.442 39.443-103.392 0-142.835zm-6.364 6.364c35.928 35.928 35.928 94.18 0 130.107-35.928 35.928-94.18 35.928-130.108 0s-35.928-94.18 0-130.107c35.928-35.928 94.18-35.928 130.108 0z" fill="url(#g)" transform="translate(239.419 -625.335) scale(.76267)"/><path d="M-192.493 834.38c-27.384 0-54.795 10.45-75.688 31.343-38.397 38.398-41.482 98.703-9.312 140.656.072.095.146.187.218.282.273.353.535.712.813 1.062.286.362.553.736.844 1.094.598.735 1.223 1.465 1.843 2.187.02.022.044.043.063.062.573.667 1.158 1.314 1.75 1.97.237.262.479.52.719.78.382.415.766.84 1.156 1.25.142.15.294.29.437.438.494.513.964 1.026 1.47 1.531.098.1.213.184.312.282.356.353.701.714 1.062 1.062.463.447.937.875 1.406 1.313.06.056.128.1.188.156.409.379.806.753 1.219 1.125.618.555 1.244 1.115 1.875 1.656.626.537 1.268 1.071 1.906 1.594.063.05.125.105.187.156.508.414 1.016.814 1.532 1.219.655.514 1.304 1.034 1.968 1.531.202.151.391.319.594.469.048.036.108.058.156.094.697.511 1.416 1.005 2.125 1.5.756.527 1.516 1.057 2.282 1.562.07.046.148.08.218.125a105.77 105.77 0 007.782 4.656c.9.487 1.808.948 2.718 1.407.242.121.477.255.72.375a106.16 106.16 0 004.75 2.218h.03c.79.343 1.58.678 2.375 1 .148.06.29.129.438.188.66.264 1.337.5 2 .75.65.246 1.312.485 1.969.719.26.093.52.19.78.28.715.249 1.436.487 2.157.72.82.265 1.64.535 2.469.78.064.02.124.045.187.063.707.208 1.413.4 2.125.594.884.24 1.769.47 2.657.687.675.165 1.35.317 2.03.469.21.046.418.11.626.156.794.173 1.605.314 2.406.469.757.146 1.519.307 2.281.437.083.014.168.017.25.031.658.111 1.308.214 1.97.313.467.07.937.124 1.405.187 1.412.192 2.822.364 4.25.5.644.061 1.29.107 1.938.157.208.016.417.052.625.062.083.01.167-.01.25 0 .593.04 1.186.094 1.781.125.177.01.354-.01.531 0 .634.03 1.27.013 1.907.03 1.074.033 2.175.063 3.25.063 1.075 0 2.144-.034 3.218-.062.815-.024 1.629-.051 2.438-.094.595-.031 1.189-.084 1.781-.125.083-.01.167.01.25 0 .21-.015.417-.015.625-.031.645-.05 1.293-.095 1.938-.157 1.406-.134 2.797-.28 4.187-.468 1.264-.171 2.532-.38 3.781-.594.743-.128 1.482-.264 2.22-.406.556-.108 1.1-.196 1.655-.313.453-.095.894-.212 1.344-.312 1.512-.339 3.033-.721 4.531-1.125.828-.224 1.65-.445 2.47-.688.838-.249 1.669-.513 2.5-.781.786-.255 1.564-.51 2.343-.781.085-.03.166-.095.25-.125.469-.165.94-.329 1.406-.5.294-.108.583-.234.875-.344.664-.25 1.34-.486 2-.75.148-.06.29-.128.438-.188.138-.056.268-.13.406-.187 1.471-.605 2.938-1.207 4.375-1.875.126-.058.25-.129.375-.188a106.8 106.8 0 002.75-1.343c.534-.27 1.065-.535 1.594-.813.367-.193.728-.396 1.093-.594.406-.22.817-.431 1.22-.656.481-.269.958-.536 1.437-.812.874-.506 1.735-1.033 2.593-1.563a106.062 106.062 0 004.97-3.25c.023-.016.039-.018.062-.03.71-.496 1.428-.99 2.125-1.5.113-.084.23-.167.343-.25.607-.45 1.216-.915 1.813-1.376.198-.153.396-.314.594-.469.515-.404 1.023-.805 1.53-1.218.04-.033.086-.061.126-.094.659-.539 1.292-1.103 1.937-1.657.634-.543 1.255-1.098 1.875-1.656.061-.054.128-.102.188-.156.402-.364.79-.723 1.187-1.094.27-.251.546-.496.813-.75.454-.432.927-.871 1.375-1.312.209-.206.418-.418.625-.625.51-.511 1.002-1.013 1.5-1.532.14-.144.268-.292.406-.437.547-.575 1.094-1.166 1.625-1.75l.25-.281c.592-.656 1.177-1.303 1.75-1.97.02-.021.044-.011.063-.03.635-.74 1.263-1.497 1.875-2.25a108.32 108.32 0 001.562-1.969l.313-.406c32.17-41.953 29.054-102.259-9.344-140.656-20.893-20.893-48.273-31.344-75.656-31.344zm0 6.468c.804 0 1.606.013 2.406.031.062.001.125-.002.187 0 .741.02 1.479.059 2.22.094 1.609.076 3.223.193 4.812.344.218.02.438.04.656.062a99.73 99.73 0 0122.969 5.125 99.936 99.936 0 014.562 1.72c.756.306 1.532.61 2.281.937.107.046.207.11.313.156a99.241 99.241 0 014.125 1.937c.742.368 1.487.74 2.219 1.125.721.38 1.445.76 2.156 1.157.723.403 1.444.829 2.156 1.25 1.041.615 2.071 1.25 3.094 1.906.568.364 1.156.717 1.719 1.094.105.07.207.147.312.218.935.632 1.87 1.276 2.781 1.938.392.284.768.584 1.157.875.219.164.439.334.656.5.22.167.437.33.656.5.676.522 1.338 1.054 2 1.594.66.537 1.323 1.07 1.969 1.625.123.105.252.206.375.312a102.318 102.318 0 013.562 3.25c.588.56 1.146 1.145 1.72 1.719a101.854 101.854 0 013.343 3.469c.54.595 1.067 1.173 1.594 1.78.033.04.06.087.093.126.492.57.99 1.138 1.47 1.719 1.043 1.262 2.027 2.574 3 3.875l.093.125c.463.622.926 1.241 1.375 1.875.444.626.884 1.24 1.312 1.875a100.332 100.332 0 018.094 14.437c.326.712.628 1.435.938 2.156.242.567.487 1.118.718 1.688.097.237.187.481.282.719a99.778 99.778 0 011.5 3.968c.032.093.061.189.093.282.12.347.228.713.344 1.062.205.614.4 1.225.594 1.844.342 1.096.696 2.176 1 3.281.04.145.054.293.094.438.382 1.413.74 2.843 1.062 4.28.336 1.5.639 3.009.906 4.532.331 1.88.62 3.763.844 5.656.14 1.185.246 2.397.344 3.594.099 1.21.194 2.412.25 3.625.021.47.016.934.031 1.406.038 1.204.068 2.42.063 3.625-.002.314-.028.625-.032.938a101.227 101.227 0 01-.25 6.25c-.067.886-.16 1.802-.25 2.687-.064.637-.142 1.274-.218 1.907a98.555 98.555 0 01-.25 1.875c-.027.187-.036.375-.063.562a99.588 99.588 0 01-1.187 6.594 99.685 99.685 0 01-1.563 6.281l-.062.219c-.12.418-.25.834-.375 1.25-.119.395-.252.793-.375 1.187-.231.735-.472 1.46-.72 2.188-.25.74-.48 1.483-.75 2.219a99.657 99.657 0 01-1.5 3.812c-.193.469-.392.941-.593 1.406-.363.844-.737 1.696-1.125 2.532a99.9 99.9 0 01-1.687 3.437c-.266.519-.538 1.047-.813 1.563-.022.04-.04.084-.062.125-.236.44-.477.875-.72 1.312-.173.313-.353.626-.53.938a99.142 99.142 0 01-1.282 2.187c-.314.52-.644 1.047-.968 1.563-.199.315-.392.624-.594.937a99.55 99.55 0 01-1.188 1.813c-.275.408-.562.814-.843 1.218-.353.506-.7 1-1.063 1.5-.649.896-1.323 1.784-2 2.657-.613.789-1.235 1.6-1.875 2.375-.305.37-.627.728-.937 1.093-18.435 21.701-45.921 35.47-76.625 35.47-30.705 0-58.19-13.769-76.625-35.47-.004 0-.027.01-.032 0-.187-.22-.377-.434-.562-.656-.333-.4-.642-.814-.969-1.219-.293-.361-.588-.729-.875-1.093-.128-.163-.248-.337-.375-.5a100.16 100.16 0 01-1.094-1.438c-.196-.262-.4-.517-.593-.781-.213-.29-.417-.584-.625-.875-.1-.139-.214-.267-.313-.406-.435-.615-.86-1.254-1.281-1.875a99.41 99.41 0 01-5.031-8.282 99.904 99.904 0 01-1.125-2.156c-.091-.177-.192-.353-.282-.531-.277-.552-.545-1.1-.812-1.656-.071-.148-.148-.29-.219-.438-.128-.27-.25-.542-.375-.812-.203-.438-.396-.871-.594-1.313a101.49 101.49 0 01-.812-1.875c-.04-.094-.086-.187-.125-.281-.253-.603-.51-1.206-.75-1.813-.03-.073-.065-.145-.094-.218-.065-.167-.123-.334-.187-.5-.23-.593-.438-1.184-.657-1.782-.28-.766-.552-1.54-.812-2.312a99.88 99.88 0 01-1.344-4.281c-.033-.115-.061-.23-.093-.344-.04-.137-.087-.27-.125-.406-.166-.592-.315-1.188-.47-1.782a100.57 100.57 0 01-.374-1.5c-.046-.188-.112-.374-.156-.562-.168-.704-.317-1.416-.47-2.125-.069-.324-.152-.644-.218-.969-.062-.301-.129-.604-.187-.906-.072-.364-.121-.729-.188-1.094-.046-.25-.081-.5-.125-.75a101.183 101.183 0 01-.437-2.719c-.036-.24-.06-.478-.094-.718a100.869 100.869 0 01-.5-4.157c-.07-.72-.164-1.466-.219-2.187-.003-.041.003-.084 0-.125-.092-1.225-.14-2.451-.187-3.688-.017-.439-.052-.873-.063-1.312-.015-.613-.027-1.228-.031-1.844-.002-.248 0-.502 0-.75 0-.861.009-1.733.031-2.594.01-.42.016-.83.031-1.25l.031-.78c.023-.503.064-1 .094-1.5.033-.533.053-1.063.094-1.595.013-.176.048-.354.062-.53.056-.679.118-1.355.188-2.032.014-.135.017-.272.031-.406.041-.385.08-.773.125-1.157.044-.375.108-.75.156-1.125.101-.779.194-1.567.313-2.343.113-.738.246-1.455.375-2.188a99.84 99.84 0 01.906-4.531c.322-1.438.68-2.868 1.063-4.281.038-.144.054-.295.093-.438.183-.662.398-1.312.594-1.969.115-.388.224-.769.344-1.156.108-.347.232-.685.344-1.031.139-.432.26-.882.406-1.313.094-.279.184-.565.281-.843.018-.053.044-.104.063-.157.24-.689.494-1.38.75-2.062.193-.517.391-1.049.593-1.563.046-.116.11-.227.157-.343.095-.24.184-.48.28-.72.23-.563.48-1.128.72-1.687.309-.72.611-1.444.937-2.156.279-.61.552-1.207.844-1.812.046-.097.11-.186.156-.282.31-.638.613-1.272.938-1.906l.03-.062c.066-.128.153-.248.22-.375.32-.617.636-1.235.968-1.844.364-.668.714-1.339 1.094-2 .011-.02.02-.043.031-.063.393-.681.81-1.357 1.219-2.03.412-.68.822-1.333 1.25-2 .008-.013.023-.02.031-.032.423-.66.843-1.32 1.281-1.969.013-.02.019-.043.032-.062.425-.63.872-1.255 1.312-1.875.45-.634.912-1.253 1.375-1.875l.094-.125c.464-.623.927-1.264 1.406-1.875.032-.041.062-.085.094-.125 1.478-1.88 3.019-3.669 4.625-5.438.015-.016.016-.046.03-.062.527-.579 1.087-1.153 1.626-1.72.015-.015.016-.046.031-.062.55-.576 1.125-1.124 1.688-1.687.573-.574 1.131-1.16 1.718-1.719.027-.025.067-.037.094-.062.567-.54 1.111-1.07 1.688-1.594.038-.035.086-.059.125-.094a100.267 100.267 0 015.687-4.781c.535-.418 1.084-.845 1.625-1.25.114-.085.23-.166.344-.25 1.18-.875 2.375-1.74 3.594-2.563.081-.055.168-.101.25-.156a100.126 100.126 0 013.562-2.281c.117-.071.227-.148.344-.219.51-.309 1.017-.607 1.531-.906.189-.11.373-.235.563-.344.298-.171.606-.332.906-.5.495-.277 1-.543 1.5-.812a97.1 97.1 0 011.781-.938c.103-.053.21-.104.313-.156.62-.315 1.25-.637 1.875-.938.093-.044.187-.08.28-.125.638-.304 1.265-.616 1.907-.906.08-.036.17-.057.25-.094.664-.297 1.331-.592 2-.875.06-.025.127-.037.188-.062.699-.294 1.389-.597 2.093-.875.031-.012.063-.02.094-.031.726-.285 1.456-.576 2.188-.844.665-.244 1.359-.458 2.03-.687.076-.026.144-.069.22-.094.746-.254 1.495-.483 2.25-.719.063-.02.124-.043.187-.062.59-.184 1.187-.359 1.781-.532.095-.027.187-.066.282-.093a98.507 98.507 0 012.28-.625c.754-.198 1.522-.383 2.282-.563.748-.177 1.495-.37 2.25-.531.519-.11 1.04-.21 1.563-.313.487-.095.98-.192 1.468-.28.135-.025.271-.04.407-.063.686-.122 1.374-.237 2.062-.344.146-.023.291-.04.438-.063.584-.088 1.164-.172 1.75-.25.415-.055.832-.106 1.25-.156.501-.06.997-.103 1.5-.156.093-.01.187-.022.28-.031.449-.046.896-.085 1.345-.125.62-.055 1.251-.113 1.875-.157.632-.044 1.273-.092 1.906-.125.146-.007.29-.024.437-.03.536-.026 1.058-.015 1.594-.032.24-.007.478-.026.719-.031.8-.019 1.601-.031 2.406-.031z" fill="url(#h)" transform="translate(239.419 -625.335) scale(.76267)"/></svg>