<svg xmlns="http://www.w3.org/2000/svg" width="700" height="700" viewBox="0 0 185.208 185.208"><g transform="translate(-187.153 -619.544) scale(.76267)"><path fill="#1e1e1e" stroke="#323232" stroke-width=".3" d="M369.878 924.556v9.198h-6.132v-9.198z"/><path d="M373.864 970.546c0-2.791-1.633-5.2-3.986-6.343v-27.9c.578-.692.92-1.577.92-2.55a3.986 3.986 0 10-7.972 0c0 .973.34 1.858.92 2.55v27.9c-2.353 1.143-3.986 3.552-3.986 6.343a7.052 7.052 0 1014.104 0z" fill="#1e1e1e" stroke="#323232" stroke-width=".3"/><ellipse transform="matrix(0 .54675 -.57278 0 494.096 812.729)" cx="221.355" cy="222.221" rx="1.122" ry="1.071" fill="#323232"/><path d="M366.815 847.618l-3.062 5.313v71.625h6.125v-56.22h.03v-15.374l-3.093-5.344z" fill="#fff" stroke="#323232" stroke-width=".3"/></g></svg>