<svg xmlns="http://www.w3.org/2000/svg" xmlns:xlink="http://www.w3.org/1999/xlink" height="400.666" width="400.667"><defs><linearGradient id="a"><stop offset="0" stop-color="#969696"/><stop offset="1"/></linearGradient><linearGradient id="b"><stop offset="0" stop-color="#bcb8ae"/><stop offset="1" stop-color="#5f5a4f"/></linearGradient><linearGradient id="j"><stop offset="0" stop-color="#373737" stop-opacity=".369"/><stop offset="1" stop-color="#e1e1e1" stop-opacity=".235"/></linearGradient><linearGradient id="k"><stop offset="0" stop-color="#4b4b4b"/><stop offset=".567" stop-color="#7d7d7d"/><stop offset="1" stop-color="#4b4b4b"/></linearGradient><linearGradient id="c"><stop offset="0" stop-color="#7d7d7d"/><stop offset="1" stop-opacity=".984"/></linearGradient><linearGradient id="d"><stop offset="0" stop-color="#ff3506"/><stop offset=".5" stop-color="#c22500"/><stop offset="1" stop-color="#ff3506"/></linearGradient><linearGradient id="l"><stop offset="0" stop-color="#191919"/><stop offset="1" stop-color="#2d2d2d"/></linearGradient><linearGradient id="m"><stop offset="0" stop-color="#4c4c4c"/><stop offset="1" stop-opacity="0"/></linearGradient><linearGradient id="e"><stop offset="0" stop-color="#5e5e5e"/><stop offset="1" stop-color="#272727"/></linearGradient><linearGradient id="i"><stop offset="0" stop-color="#202020"/><stop offset="1" stop-color="#5d5d5d"/></linearGradient><linearGradient id="f"><stop offset="0" stop-color="#191919"/><stop offset="1" stop-opacity="0"/></linearGradient><linearGradient id="g"><stop offset="0" stop-color="#9fa5d3"/><stop offset="1" stop-color="#5c6994"/></linearGradient><linearGradient id="h"><stop offset="0" stop-color="#5d4625"/><stop offset="1" stop-color="#af814b"/></linearGradient><linearGradient y2="151.244" x2="349.359" y1="151.244" x1="329.876" gradientUnits="userSpaceOnUse" id="u" xlink:href="#i"/><linearGradient y2="56.184" x2="284.105" y1="26.684" x1="284.105" gradientTransform="matrix(2 0 0 2 -88.216 -324.7)" gradientUnits="userSpaceOnUse" id="o" xlink:href="#j"/><linearGradient y2="138.363" x2="284.105" y1="160.637" x1="284.105" gradientTransform="matrix(2 0 0 2 -40.22 -370.7)" gradientUnits="userSpaceOnUse" id="q" xlink:href="#l"/><linearGradient y2="165" x2="272.138" y1="134.424" x1="272.138" gradientTransform="matrix(2 0 0 2 -40.22 -370.7)" gradientUnits="userSpaceOnUse" id="r" xlink:href="#m"/><radialGradient gradientUnits="userSpaceOnUse" gradientTransform="matrix(1.28234 -.97488 .93533 1.23032 -46.924 39.192)" r="9.743" fy="156.935" fx="334.201" cy="156.935" cx="334.201" id="s" xlink:href="#e"/><radialGradient gradientUnits="userSpaceOnUse" gradientTransform="matrix(1.74762 0 0 1.12804 -68.764 -254.303)" r="9.743" fy="148.36" fx="341.579" cy="148.36" cx="341.579" id="t" xlink:href="#e"/><radialGradient gradientTransform="translate(55.5 5.5)" gradientUnits="userSpaceOnUse" r="8.372" fy="145.743" fx="284.118" cy="145.743" cx="284.118" id="v" xlink:href="#f"/><filter height="1.293" y="-.146" width="1.075" x="-.038" id="p" color-interpolation-filters="sRGB"><feGaussianBlur stdDeviation="3.34"/></filter><filter height="1.073" y="-.037" width="1.139" x="-.069" id="n" color-interpolation-filters="sRGB"><feGaussianBlur stdDeviation=".905"/></filter></defs><path d="M464.245-271.653l4.25 59.14 22.855.005 4.2-59.149c-10.44 0-20.866.004-31.305.004z" fill="none" stroke="#000" filter="url(#n)" transform="matrix(1.11067 0 0 1.11067 -332.614 355.635)"/><path d="M200.503 81.076l12.24 38.596h-24.479z" fill="#ff3506" stroke="#000" stroke-width=".5553375"/><path d="M464.245-271.653l4.25 59.14 22.855.005 4.2-59.149c-10.44 0-20.866.004-31.305.004z" fill="url(#o)" stroke="#fff" transform="matrix(1.11067 0 0 1.11067 -332.614 355.635)"/><path transform="matrix(1.11067 0 0 1.11067 702.488 1.981)" d="M-468.838 229.164l-19.971 35.492h-67.807c32.481 35.356 69.092 11.152 104.703 11.206 35.61.054 74.045 18.264 107.784-11.206h-70.989l-19.97-35.492z" filter="url(#p)"/><g><path d="M181.76 256.507h37.485l22.214 39.485h-81.912z" fill="#2d2d2d" stroke="#000" stroke-width=".555335"/><g style="line-height:125%;text-align:center" font-weight="400" font-size="6.523" font-family="Arial" letter-spacing="0" word-spacing="-45.886" text-anchor="middle" fill="#fff"><path style="-inkscape-font-specification:Arial" d="M174.27 291.497l-4.008-10.345h1.482l2.688 7.516q.325.903.544 1.693.24-.847.557-1.693l2.795-7.516h1.397l-4.05 10.345h-1.405zM178.758 291.497l3.973-10.345h1.475l4.234 10.345h-1.56l-1.206-3.133h-4.326l-1.136 3.133h-1.454zm2.985-4.248h3.507l-1.08-2.865q-.493-1.305-.733-2.145-.198.995-.558 1.976l-1.136 3.034zM196.929 287.87l1.369.346q-.43 1.687-1.553 2.576-1.114.882-2.73.882-1.673 0-2.724-.678-1.045-.684-1.595-1.975-.543-1.292-.543-2.774 0-1.616.613-2.815.621-1.207 1.758-1.828 1.143-.628 2.512-.628 1.552 0 2.61.79 1.06.79 1.476 2.223l-1.348.318q-.36-1.13-1.045-1.644-.684-.516-1.721-.516-1.193 0-1.998.572-.797.572-1.122 1.538-.324.96-.324 1.983 0 1.32.381 2.308.388.98 1.2 1.468.811.486 1.757.486 1.15 0 1.947-.663.798-.663 1.08-1.969zM206.78 281.152h1.369v5.977q0 1.56-.353 2.477-.353.918-1.277 1.496-.917.572-2.414.572-1.453 0-2.378-.501-.924-.501-1.32-1.447-.394-.952-.394-2.597v-5.977h1.369v5.97q0 1.348.247 1.99.254.635.86.981.614.346 1.497.346 1.51 0 2.152-.685.642-.684.642-2.632v-5.97zM217.224 281.152h1.369v5.977q0 1.56-.353 2.477-.353.918-1.277 1.496-.918.572-2.414.572-1.453 0-2.378-.501-.924-.501-1.32-1.447-.395-.952-.395-2.597v-5.977h1.37v5.97q0 1.348.246 1.99.254.635.861.981.614.346 1.496.346 1.51 0 2.153-.685.642-.684.642-2.632v-5.97zM220.837 291.497v-10.345h2.06l2.449 7.325q.339 1.023.494 1.531.176-.564.55-1.658l2.477-7.198h1.842v10.345h-1.32v-8.658l-3.006 8.658h-1.235l-2.992-8.806v8.806h-1.32z"/></g></g><g><path d="M423.339-99.757h212.485l-42.78 37.369-62.175 15.91-56.972-12.375z" fill="url(#q)" fill-rule="evenodd" stroke="url(#r)" stroke-width="2.5" transform="matrix(1.11067 0 0 1.11067 -385.923 406.726)"/><path d="M545.68-80.19v5.09h-34.991v-5.09c0-9.662 7.833-17.495 17.495-17.495 9.663 0 17.495 7.833 17.495 17.496z" fill="url(#s)" transform="matrix(1.11067 0 0 1.11067 -385.923 406.726)"/><path d="M200.41 298.225v5.509" fill="none" stroke="#000" stroke-width=".59865113"/><g fill="none" stroke="#000" stroke-width=".3"><path d="M203.274 298.136v5.51M206.095 298.753v5.51M209.444 300.12v5.509M212.397 301.86v5.51M214.865 304.064v5.509M217.237 307.714v5.508" stroke-width=".598335"/></g><g fill="none" stroke="#000" stroke-width=".3"><path d="M197.502 298.2v6.287M194.681 299.034v6.07M191.332 300.494v5.977M188.38 302.702l-.001 5.51M185.911 304.906v5.509M183.54 308.555v5.51" stroke-width=".598335"/></g><path d="M545.21-80.91v4.953h-34.052v-4.954c0-9.403 7.623-17.026 17.027-17.026 9.403 0 17.026 7.623 17.026 17.026z" fill="none" stroke="url(#t)" stroke-width=".749" transform="matrix(1.11067 0 0 1.11067 -385.923 406.726)"/><g transform="matrix(1.99445 0 0 1.99445 -476.632 20.86)"><circle cx="339.617" cy="151.244" r="9.242" fill="#1a1a1a" stroke="url(#u)"/><circle cx="339.618" cy="151.243" r="7.942" fill="url(#v)" stroke="#000" stroke-width=".859"/></g></g></svg>