<svg xmlns="http://www.w3.org/2000/svg" xmlns:xlink="http://www.w3.org/1999/xlink" height="400.666" width="400.667"><defs><linearGradient id="a"><stop offset="0" stop-color="#969696"/><stop offset="1"/></linearGradient><linearGradient id="b"><stop offset="0" stop-color="#7d7d7d"/><stop offset="1" stop-opacity=".984"/></linearGradient><linearGradient id="c"><stop offset="0" stop-color="#ff3506"/><stop offset=".5" stop-color="#c22500"/><stop offset="1" stop-color="#ff3506"/></linearGradient><linearGradient id="d"><stop offset="0" stop-color="#bcb8ae"/><stop offset="1" stop-color="#5f5a4f"/></linearGradient><linearGradient id="e"><stop offset="0" stop-color="#5e5e5e"/><stop offset="1" stop-color="#272727"/></linearGradient><linearGradient id="f"><stop offset="0" stop-color="#191919"/><stop offset="1" stop-opacity="0"/></linearGradient><linearGradient y2="25.104" x2="282.666" y1="92.274" x1="282.666" gradientUnits="userSpaceOnUse" id="l" xlink:href="#g"/><linearGradient id="g"><stop offset="0" stop-color="#e3e4f3"/><stop offset="1" stop-color="#8491b4"/></linearGradient><linearGradient y2="25.104" x2="282.666" y1="92.274" x1="282.666" gradientTransform="matrix(1 0 0 -1 0 184.548)" gradientUnits="userSpaceOnUse" id="m" xlink:href="#h"/><linearGradient id="h"><stop offset="0" stop-color="#987440"/><stop offset="1" stop-color="#d5bb9b"/></linearGradient><linearGradient id="i"><stop offset="0" stop-color="#9fa5d3"/><stop offset="1" stop-color="#5c6994"/></linearGradient><linearGradient id="j"><stop offset="0" stop-color="#5d4625"/><stop offset="1" stop-color="#af814b"/></linearGradient><radialGradient gradientTransform="translate(-815.904 80.323) scale(1.77552)" gradientUnits="userSpaceOnUse" r="2.166" fy="124.899" fx="276.832" cy="124.899" cx="276.832" id="n" xlink:href="#b"/><radialGradient gradientTransform="translate(-786.813 80.323) scale(1.77552)" gradientUnits="userSpaceOnUse" r="2.166" fy="124.899" fx="276.832" cy="124.899" cx="276.832" id="o" xlink:href="#b"/><radialGradient gradientTransform="translate(-815.904 80.323) scale(1.77552)" gradientUnits="userSpaceOnUse" r="2.166" fy="124.899" fx="276.832" cy="124.899" cx="276.832" id="p" xlink:href="#b"/><radialGradient gradientTransform="translate(-786.814 80.324) scale(1.77552)" gradientUnits="userSpaceOnUse" r="2.166" fy="124.899" fx="276.832" cy="124.899" cx="276.832" id="q" xlink:href="#b"/><filter id="k" x="-.096" width="1.192" y="-.096" height="1.192" color-interpolation-filters="sRGB"><feGaussianBlur stdDeviation="8.074"/></filter></defs><g transform="matrix(1.11067 0 0 1.11067 -385.923 406.725)"><circle r="100.921" cy="-186.151" cx="527.992" transform="translate(-14.864 5.24) scale(1.02815)" opacity=".5" fill="none" stroke="#000" stroke-width="9" filter="url(#k)"/><path d="M282.666 24.756c-37.29 0-67.52 30.228-67.52 67.517h17.14a50.381 50.381 0 0150.38-50.38 50.381 50.381 0 0150.38 50.38h17.14c0-37.29-30.23-67.517-67.52-67.517z" fill="url(#l)" transform="matrix(2 0 0 2 -37.34 -370.7)"/><path d="M215.146 92.273c0 37.29 30.23 67.52 67.52 67.52 37.29 0 67.52-30.23 67.52-67.52h-17.14a50.381 50.381 0 01-50.38 50.383 50.381 50.381 0 01-50.38-50.383h-17.14z" fill="url(#m)" transform="matrix(2 0 0 2 -37.34 -370.7)"/><g fill="#fff" fill-rule="evenodd" stroke="#fff"><path d="M427.192-186.151h-30.783M511.013-285.505l-5.183-30.343M492.231-280.39l-10.92-28.78M474.401-271.521l-16.364-26.072M439.811-234.984l-26.928-14.913" stroke-width="5"/><path d="M527.984-286.944v-30.782" stroke-width="7.4"/><path d="M628.685-186.151h30.782M544.864-285.505l5.183-30.343M563.645-280.39l10.92-28.78M581.475-271.521l16.365-26.072M616.065-234.984l26.929-14.913" stroke-width="5"/></g><circle r="100.921" cy="-186.15" cx="527.992" fill="none" stroke="#000"/></g></svg>