<svg xmlns="http://www.w3.org/2000/svg" height="400.666" width="400.667"><defs><linearGradient id="a"><stop offset="0" stop-color="#969696"/><stop offset="1"/></linearGradient><filter id="b" x="-.064" width="1.127" y="-.057" height="1.114" color-interpolation-filters="sRGB"><feGaussianBlur stdDeviation="1.497"/></filter></defs><path d="M200.5 76.133l-5.631-15.741 11.232-.012-5.6 15.753zM288.067 112.403l7.149-15.113 7.95 7.934-15.099 7.179zM324.34 199.969l15.74-5.632.012 11.232-15.753-5.6zM288.07 287.535l15.113 7.149-7.935 7.95-7.178-15.1zM200.504 323.807l5.632 15.742-11.232.01 5.6-15.752zM112.937 287.537l-7.148 15.113-7.95-7.934 15.098-7.179zM76.665 199.971l-15.741 5.632-.011-11.232 15.752 5.6zM112.935 112.405l-15.113-7.149 7.934-7.95 7.179 15.1z" fill="#ff3506" fill-rule="evenodd"/><g fill="none" stroke-width="1.949"><path d="M285.354 285.235l11.734 3.228c.027-2.603.246-3.857-.34-4.384-1.043-.938-8.771-7.012-8.771-7.012s-.884-.947-1.074-1.536c-.19-.59-.028-1.84-.028-1.84l.428-14.112s21.678 7.138 22.607 7.449c.93.31 2.263.832 2.288-.676.048-1.64.45-3.337-.84-4.361-6.964-5.532-17.183-13.451-23.525-18.168 0-6.732.125-13.856-3.851-18.58-3.965 4.722-3.843 11.848-3.843 18.58-6.325 4.717-16.515 12.638-23.46 18.17-1.287 1.024-.885 2.72-.837 4.36.025 1.508 1.355.987 2.282.676.927-.31 22.545-7.45 22.545-7.45l.426 14.113s.163 1.251-.028 1.84c-.19.59-1.07 1.537-1.07 1.537s-7.707 6.073-8.747 7.011c-.584.527-.367 1.781-.34 4.384l11.702-3.227 1.37 1.93z" stroke="#000" filter="url(#b)" transform="matrix(1.98098 0 0 1.98098 -362.36 -315.043)"/><path d="M203.219 250.003l23.245 6.394c.054-5.157.487-7.641-.673-8.685-2.066-1.858-17.376-13.89-17.376-13.89s-1.75-1.877-2.128-3.043c-.378-1.167-.055-3.646-.055-3.646l.847-27.955s42.944 14.14 44.785 14.756c1.841.616 4.483 1.648 4.533-1.339.094-3.249.891-6.609-1.664-8.639-13.797-10.957-34.04-26.646-46.603-35.99 0-13.335.246-27.449-7.63-36.807-7.854 9.355-7.612 23.471-7.612 36.808-12.53 9.344-32.716 25.034-46.474 35.992-2.549 2.03-1.753 5.39-1.658 8.639.05 2.987 2.684 1.955 4.52 1.339 1.836-.616 44.662-14.76 44.662-14.76l.845 27.96s.321 2.478-.056 3.645c-.376 1.166-2.122 3.043-2.122 3.043s-15.266 12.032-17.326 13.89c-1.157 1.044-.727 3.528-.673 8.685l23.18-6.394 2.715 3.825z" stroke="#fff" stroke-width="3.86093002"/></g><path d="M341.224 200.15c0 77.72-63.004 140.724-140.724 140.724S59.776 277.87 59.776 200.15 122.781 59.427 200.5 59.427c77.72 0 140.724 63.004 140.724 140.723z" fill="none" stroke="#fff" stroke-width="2.2346781"/></svg>