<svg xmlns="http://www.w3.org/2000/svg" width="400.667" height="400.666"><defs><filter height="1.484" y="-.242" width="1.12" x="-.06" id="a" color-interpolation-filters="sRGB"><feGaussianBlur stdDeviation="4.452"/></filter></defs><path d="M214.82 114.48v17.271h-29.884v4.235l23.873.904.027.187a12.9 12.9 0 00-3.344 7.729l-76.368 1.294v3.7l78.421 2.966a12.903 12.903 0 0010.81 5.88 12.893 12.893 0 0010.805-5.88l78.421-2.966v-3.7l-76.367-1.294a12.895 12.895 0 00-3.34-7.73l.028-.186 23.868-.904v-4.235h-29.88v-17.27h-7.07z" filter="url(#a)" transform="matrix(1.11067 0 0 1.11067 -42.016 34.945)"/><path d="M196.58 162.096v19.182h-33.193v4.703l26.516 1.005.03.207a14.328 14.328 0 00-3.714 8.584l-84.82 1.438v4.11l87.1 3.294a14.33 14.33 0 0012.007 6.53 14.32 14.32 0 0012-6.53l87.101-3.295v-4.11l-84.82-1.437a14.322 14.322 0 00-3.709-8.584l.03-.207 26.51-1.005v-4.703h-33.186v-19.182h-7.853z" fill="#fff"/></svg>