<svg xmlns="http://www.w3.org/2000/svg" xmlns:xlink="http://www.w3.org/1999/xlink" width="400.667" height="400.666"><defs><linearGradient id="a"><stop offset="0" stop-color="#191919"/><stop offset="1" stop-color="#232323"/></linearGradient><linearGradient xlink:href="#a" id="d" x1="830.47" y1="-186.153" x2="881.389" y2="-189.512" gradientUnits="userSpaceOnUse"/><linearGradient xlink:href="#a" id="e" x1="830.764" y1="-137.189" x2="840.947" y2="-134.126" gradientUnits="userSpaceOnUse"/><linearGradient xlink:href="#a" id="c" gradientUnits="userSpaceOnUse" gradientTransform="matrix(1.28163 0 0 .99933 -174.297 -461.836)" x1="789.327" y1="290.616" x2="789.327" y2="326.74"/><filter id="b" x="-.345" width="1.69" y="-.033" height="1.066" color-interpolation-filters="sRGB"><feGaussianBlur stdDeviation="2.167"/></filter></defs><path transform="rotate(-90 299.512 777.161) scale(1.11066)" d="M789.326 507.42l-4.6 12.174v78.957h-.001v7.584a6.38 6.38 0 00-1.801 4.447c0 1.728.688 3.293 1.8 4.445v37.186a7.534 7.534 0 00-2.931 5.957 7.534 7.534 0 007.535 7.535 7.534 7.534 0 007.533-7.535 7.534 7.534 0 00-2.931-5.951v-37.192a6.376 6.376 0 001.8-4.445 6.377 6.377 0 00-1.8-4.445v-86.541l-4.604-12.176z" filter="url(#b)"/><g transform="rotate(-90 768.617 361.365) scale(1.11066)" stroke-width=".75" stroke-linejoin="round"><path d="M837.324-289.315l-4.6 12.174v79.94h9.202v-79.938z" fill="#fff" stroke="#2d2d2d"/><path d="M832.722-198.183v57.286h9.204v-57.286h-9.204z" fill="url(#c)" stroke="#232323"/><path d="M843.727-186.153a6.403 6.403 0 11-12.806 0 6.403 6.403 0 0112.806 0z" fill="url(#d)" stroke="#232323"/><circle cx="837.324" cy="-138.564" r="7.534" fill="url(#e)" stroke="#232323"/></g></svg>