<svg xmlns="http://www.w3.org/2000/svg" xmlns:xlink="http://www.w3.org/1999/xlink" height="400.666" width="400.667"><defs><radialGradient xlink:href="#a" id="b" cx="421.536" cy="246.206" fx="421.536" fy="246.206" r="68.25" gradientUnits="userSpaceOnUse" gradientTransform="matrix(.49239 .87038 -.87029 .49233 428.14 -241.905)"/><linearGradient y2="169.408" x2="163.702" y1="142.399" x1="148.108" gradientUnits="userSpaceOnUse" id="a"><stop offset="0" stop-color="#2d2d2d"/><stop offset="1" stop-color="#0f0f0f"/></linearGradient></defs><g transform="matrix(2.22135 0 0 2.22135 -774.904 -376.781)"><circle r="68.25" cy="259.641" cx="439.106" fill="url(#b)" fill-rule="evenodd"/><g font-weight="400" font-size="11" font-family="Sans" letter-spacing="0" word-spacing="0" fill="#fff"><path style="line-height:125%" d="M439.123 237.283l-1.515-3.909h.56l1.016 2.84c.082.228.15.44.205.64.06-.213.131-.427.211-.64l1.056-2.84h.528l-1.53 3.91zM441.664 237.283v-3.909h2.827v.461h-2.31v1.198h2.163v.458h-2.163v1.331h2.4v.461zM445.31 237.283v-3.909h1.733c.348 0 .613.035.794.105.182.07.326.195.435.372.108.178.163.375.163.59 0 .277-.09.51-.27.701-.18.19-.457.311-.832.363.137.066.241.13.312.194.151.14.294.312.43.52l.68 1.064h-.651l-.517-.813a7.416 7.416 0 00-.374-.539 1.174 1.174 0 00-.262-.26.776.776 0 00-.236-.105 1.549 1.549 0 00-.288-.019h-.6v1.736zm.517-2.184h1.112c.236 0 .42-.024.554-.073a.59.59 0 00.304-.235.635.635 0 00.104-.35.583.583 0 00-.201-.456c-.134-.12-.346-.179-.636-.179h-1.237zM450.242 237.283v-3.448h-1.287v-.46h3.098v.46h-1.293v3.448zM452.674 237.283v-3.909h.518v3.91zM456.89 235.913l.518.13c-.109.425-.304.75-.586.972-.282.223-.626.335-1.033.335-.421 0-.764-.086-1.028-.257a1.607 1.607 0 01-.603-.746 2.66 2.66 0 01-.206-1.048c0-.407.077-.762.233-1.065.156-.303.377-.533.664-.69a1.94 1.94 0 01.948-.237c.391 0 .72.1.987.3.266.198.452.478.557.84l-.51.12c-.09-.285-.222-.492-.394-.622a1.052 1.052 0 00-.65-.195c-.301 0-.552.072-.754.216a1.14 1.14 0 00-.425.58 2.334 2.334 0 00-.123.75c0 .333.049.623.145.871.097.248.248.434.452.556.205.123.426.184.664.184.29 0 .535-.083.736-.25.201-.167.337-.415.408-.744zM457.618 237.283l1.502-3.909h.557l1.6 3.91h-.59l-.455-1.185h-1.635l-.43 1.184zm1.128-1.605h1.326l-.408-1.083c-.125-.328-.217-.599-.278-.81-.05.25-.12.5-.21.746zM461.674 237.283v-3.909h.517v3.448h1.926v.461z"/><g><path style="line-height:125%" d="M437.608 240.82l.488-.043c.023.196.077.356.161.482a.88.88 0 00.394.304c.178.077.378.116.6.116.197 0 .371-.03.522-.088a.725.725 0 00.338-.242.56.56 0 00.11-.334.508.508 0 00-.106-.322.79.79 0 00-.352-.23 6.877 6.877 0 00-.696-.191c-.36-.086-.61-.168-.755-.244a1.058 1.058 0 01-.417-.364.892.892 0 01-.137-.487c0-.197.056-.382.168-.553a1.04 1.04 0 01.49-.39c.215-.09.454-.134.717-.134.29 0 .546.047.767.14.221.093.392.23.51.412.12.181.184.387.193.616l-.496.037c-.027-.247-.117-.434-.27-.56-.155-.126-.382-.19-.682-.19-.313 0-.541.058-.684.173a.516.516 0 00-.215.415c0 .14.05.256.152.346.1.09.36.184.78.279.42.095.709.178.865.25.228.104.396.237.504.398.109.16.163.346.163.556 0 .208-.06.404-.179.588-.119.184-.29.327-.513.43a1.788 1.788 0 01-.753.152c-.354 0-.65-.051-.89-.154a1.245 1.245 0 01-.562-.466 1.32 1.32 0 01-.215-.702zM441.432 242.076v-3.91h1.475c.26 0 .457.013.594.038.192.032.353.093.483.183s.234.215.313.377c.08.162.119.34.119.533 0 .333-.106.614-.317.844-.212.23-.594.346-1.147.346h-1.003v1.589zm.517-2.05h1.011c.334 0 .572-.063.712-.187.14-.125.21-.3.21-.526a.707.707 0 00-.123-.42.58.58 0 00-.327-.23 2.212 2.212 0 00-.483-.035h-1zM445.09 242.076v-3.91h2.827v.462h-2.31v1.197h2.164v.459h-2.163v1.33h2.4v.462zM448.739 242.076v-3.91h2.826v.462h-2.31v1.197h2.163v.459h-2.162v1.33h2.4v.462zM452.376 242.076v-3.91h1.346c.304 0 .536.02.696.057.224.051.415.145.574.28.206.174.36.397.462.668.103.27.154.58.154.929 0 .297-.035.56-.104.79-.07.229-.159.418-.267.569-.108.15-.227.268-.356.354a1.452 1.452 0 01-.467.196 2.666 2.666 0 01-.628.067zm.517-.461h.835c.257 0 .46-.024.606-.072a.868.868 0 00.351-.203c.123-.123.218-.288.287-.495a2.42 2.42 0 00.102-.753c0-.409-.067-.723-.201-.943-.134-.22-.297-.366-.49-.441-.138-.053-.361-.08-.669-.08h-.82z"/></g></g><g font-weight="400" font-size="11" font-family="Sans" letter-spacing="0" word-spacing="0" fill="#fff"><path style="line-height:125%;-inkscape-font-specification:Sans" d="M439.066 281.114h-.486v-3.098c-.117.112-.27.223-.46.335-.19.112-.36.195-.512.251v-.47c.272-.128.51-.282.713-.464.204-.182.348-.358.432-.53h.313zM440.314 279.161c0-.468.048-.845.144-1.13.097-.285.24-.505.43-.66.19-.155.429-.232.717-.232.212 0 .399.042.559.128.16.085.292.209.397.37.104.16.186.357.245.588.06.232.09.544.09.936 0 .465-.048.84-.144 1.125-.095.285-.238.506-.428.661-.19.156-.43.234-.72.234-.38 0-.68-.137-.898-.41-.261-.33-.392-.866-.392-1.61zm.5 0c0 .65.076 1.083.228 1.298.152.215.34.322.563.322.223 0 .41-.108.563-.324.152-.216.228-.648.228-1.296 0-.652-.076-1.085-.228-1.299-.152-.214-.342-.321-.569-.321a.623.623 0 00-.534.283c-.168.242-.251.687-.251 1.337zM443.392 279.161c0-.468.049-.845.145-1.13.096-.285.24-.505.43-.66.19-.155.428-.232.716-.232.213 0 .399.042.56.128.16.085.292.209.396.37.105.16.187.357.246.588.06.232.09.544.09.936-.001.465-.049.84-.144 1.125-.095.285-.238.506-.428.661-.19.156-.43.234-.72.234-.381 0-.681-.137-.899-.41-.261-.33-.392-.866-.392-1.61zm.5 0c0 .65.076 1.083.228 1.298.152.215.34.322.563.322.223 0 .411-.108.563-.324.152-.216.228-.648.228-1.296 0-.652-.076-1.085-.228-1.299-.152-.214-.341-.321-.568-.321a.623.623 0 00-.535.283c-.167.242-.251.687-.251 1.337zM448.229 281.114v-3.96h2.67v.468h-2.146v1.226h1.858v.467h-1.858v1.799zM451.594 281.114v-3.96h2.862v.468h-2.339v1.212h2.19v.465h-2.19v1.347h2.43v.468zM455.288 281.114v-3.96h2.862v.468h-2.338v1.212h2.19v.465h-2.19v1.347h2.43v.468zM459.978 281.114v-3.492h-1.304v-.467h3.138v.467h-1.31v3.492z"/><g><path style="line-height:125%;-inkscape-font-specification:Sans" d="M437.608 285.906v-3.975h1.5c.263 0 .465.013.604.038.195.032.359.094.49.186.133.091.239.219.32.383.08.165.12.346.12.543 0 .338-.107.624-.323.858-.215.234-.603.35-1.165.35h-1.02v1.617zm.526-2.085h1.028c.34 0 .58-.063.724-.19.142-.127.214-.305.214-.534a.718.718 0 00-.126-.427.59.59 0 00-.332-.235 2.247 2.247 0 00-.491-.035h-1.017zM441.328 285.906v-3.975h2.874v.47h-2.348v1.216h2.199v.467h-2.199v1.353h2.44v.469zM445.034 285.906v-3.975h1.763c.354 0 .623.036.808.107a.883.883 0 01.442.378c.11.181.165.38.165.6a1 1 0 01-.274.713c-.182.193-.464.316-.846.368.14.067.245.133.317.198.154.141.3.317.437.529l.691 1.082h-.661l-.526-.827a7.537 7.537 0 00-.38-.548 1.194 1.194 0 00-.267-.266.79.79 0 00-.24-.105 1.575 1.575 0 00-.293-.02h-.61v1.766zm.526-2.22h1.131c.24 0 .428-.026.564-.075a.6.6 0 00.309-.239.646.646 0 00.106-.356.592.592 0 00-.205-.464c-.136-.121-.352-.182-.647-.182h-1.258zM450.563 285.906v-3.975h.791l.941 2.814c.087.262.15.459.19.589.045-.145.116-.357.211-.637l.952-2.766h.708v3.975h-.507v-3.327l-1.155 3.327h-.475l-1.15-3.384v3.384zM455.3 285.906v-3.975h.525v3.975zM456.744 285.906v-3.975h.54l2.088 3.12v-3.12h.504v3.975h-.54l-2.087-3.124v3.124zM463.37 281.931h.527v2.296c0 .4-.045.717-.136.952-.09.235-.253.426-.49.574-.235.147-.545.22-.928.22-.372 0-.677-.064-.914-.192a1.099 1.099 0 01-.507-.557c-.1-.243-.151-.575-.151-.997v-2.296h.526v2.294c0 .345.032.6.096.763a.73.73 0 00.33.378c.157.089.348.133.574.133.387 0 .663-.088.827-.263.165-.175.247-.512.247-1.011zM465.786 285.906V282.4h-1.31v-.469h3.151v.47h-1.315v3.505zM468.18 285.906v-3.975h2.874v.47h-2.347v1.216h2.198v.467h-2.198v1.353h2.44v.469z"/></g></g><g font-weight="400" font-size="11" font-family="Sans" letter-spacing="0" word-spacing="0" fill="#fff"><path d="M413.244 239.663h.678v2.96c0 .515-.058.924-.175 1.227-.116.303-.327.55-.63.74-.305.19-.704.284-1.198.284-.48 0-.872-.082-1.178-.248a1.417 1.417 0 01-.653-.718c-.13-.313-.196-.742-.196-1.285v-2.96h.678v2.957c0 .445.041.773.124.984.083.21.225.373.426.487.202.115.448.172.74.172.498 0 .854-.113 1.066-.34.212-.225.318-.66.318-1.303zM415.054 244.787v-5.124h1.933c.34 0 .6.016.78.049.251.042.462.122.632.24.17.117.307.282.41.494.105.212.156.445.156.699 0 .436-.138.804-.415 1.106-.278.302-.779.453-1.503.453h-1.315v2.083zm.678-2.688h1.325c.438 0 .75-.081.933-.245.184-.163.276-.392.276-.688a.926.926 0 00-.162-.55.76.76 0 00-.428-.303c-.114-.03-.325-.045-.633-.045h-1.31zM409.892 278.787v-5.124h1.765c.398 0 .703.025.912.074.294.067.544.19.752.367.27.228.472.52.606.875.134.356.201.762.201 1.218 0 .39-.045.734-.136 1.035-.091.3-.208.55-.35.746a1.857 1.857 0 01-.466.465 1.902 1.902 0 01-.612.257 3.494 3.494 0 01-.823.087zm.678-.604h1.094c.338 0 .603-.032.795-.095.192-.063.346-.151.46-.265.16-.161.286-.377.376-.649.09-.271.134-.6.134-.987 0-.536-.088-.948-.264-1.236-.176-.288-.39-.48-.641-.578-.182-.07-.474-.105-.877-.105h-1.077zM415.058 278.787v-5.124h.695l2.692 4.023v-4.023h.65v5.124h-.696l-2.691-4.026v4.026z" style="line-height:125%;-inkscape-font-specification:Sans"/></g><g font-weight="700" font-size="20" font-family="Sans" letter-spacing="0" word-spacing="0" text-anchor="middle" fill="#fff"><path d="M397.48 254.91c.902 0 1.607.322 2.116.966.605.763.908 2.028.908 3.794 0 1.763-.305 3.03-.915 3.8-.504.636-1.207.954-2.11.954-.906 0-1.637-.349-2.192-1.046-.555-.697-.833-1.939-.833-3.727 0-1.754.305-3.016.916-3.787.504-.636 1.207-.954 2.11-.954zm0 1.481a.892.892 0 00-.579.207c-.17.137-.3.384-.394.74-.123.462-.184 1.24-.184 2.332 0 1.093.055 1.844.165 2.253.11.409.249.681.416.817a.888.888 0 00.575.203.892.892 0 00.579-.207c.17-.137.3-.384.394-.74.123-.457.184-1.233.184-2.326s-.055-1.844-.165-2.253c-.11-.408-.25-.682-.417-.82a.88.88 0 00-.575-.206zM406.168 234.987l1.78-.184c.05.402.2.721.45.956a1.224 1.224 0 001.812-.101c.258-.303.387-.76.387-1.37 0-.572-.128-1-.384-1.287-.257-.286-.59-.429-1.001-.429-.513 0-.973.227-1.38.68l-1.448-.21.915-4.848h4.722v1.671h-3.368l-.28 1.582a2.7 2.7 0 011.22-.298c.792 0 1.464.288 2.015.864.55.576.826 1.324.826 2.243 0 .767-.223 1.451-.668 2.053-.605.822-1.446 1.233-2.522 1.233-.86 0-1.562-.231-2.104-.693-.542-.462-.866-1.082-.972-1.862zM432.264 224.683h-1.786v-6.73a6.156 6.156 0 01-2.307 1.354v-1.62c.466-.153.973-.442 1.52-.868.546-.426.92-.922 1.124-1.49h1.449zM437.958 215.329c.902 0 1.608.322 2.116.966.606.762.909 2.027.909 3.794 0 1.762-.305 3.029-.915 3.8-.504.635-1.208.953-2.11.953-.907 0-1.637-.348-2.192-1.045-.555-.697-.833-1.94-.833-3.727 0-1.754.305-3.017.915-3.788.504-.635 1.208-.953 2.11-.953zm0 1.48a.892.892 0 00-.578.207c-.17.138-.301.385-.394.74-.123.462-.185 1.24-.185 2.333 0 1.093.056 1.844.166 2.253.11.408.249.68.416.816a.888.888 0 00.575.204.892.892 0 00.578-.207c.17-.138.301-.384.394-.74.123-.458.185-1.233.185-2.326s-.055-1.844-.166-2.253c-.11-.409-.249-.682-.416-.82a.88.88 0 00-.575-.206zM458.005 230.9h-1.785v-6.73a6.156 6.156 0 01-2.307 1.354v-1.62c.466-.153.972-.442 1.519-.868.546-.426.921-.923 1.125-1.49h1.448zM460.706 228.504l1.78-.184c.05.403.2.721.45.956a1.224 1.224 0 001.812-.101c.258-.303.388-.76.388-1.37 0-.572-.129-1-.385-1.287-.256-.286-.59-.429-1-.429-.513 0-.973.227-1.38.68l-1.449-.21.915-4.848h4.722v1.671h-3.368l-.28 1.583a2.7 2.7 0 011.22-.299c.793 0 1.464.288 2.015.864.55.576.826 1.324.826 2.244 0 .766-.222 1.45-.667 2.052-.606.822-1.447 1.233-2.523 1.233-.86 0-1.561-.23-2.103-.693-.543-.461-.867-1.082-.973-1.862zM473.95 249.981v1.659h-6.26a4.311 4.311 0 01.61-1.783c.34-.561 1.009-1.306 2.009-2.233.805-.75 1.298-1.259 1.48-1.526.246-.368.37-.733.37-1.093 0-.398-.108-.704-.322-.918-.214-.214-.51-.32-.886-.32-.373 0-.67.111-.89.336-.22.224-.347.597-.381 1.118l-1.78-.178c.106-.982.439-1.688.998-2.116.56-.428 1.258-.642 2.097-.642.92 0 1.642.248 2.167.744.526.496.788 1.112.788 1.85 0 .419-.075.818-.225 1.197-.15.38-.39.777-.715 1.192-.216.275-.606.671-1.17 1.188-.563.517-.92.86-1.07 1.03-.15.169-.273.334-.366.495zM478.183 242.285c.902 0 1.607.322 2.116.966.606.763.909 2.028.909 3.794 0 1.763-.306 3.03-.916 3.8-.504.636-1.207.954-2.11.954-.906 0-1.637-.349-2.192-1.046-.555-.697-.832-1.939-.832-3.727 0-1.754.305-3.016.915-3.787.504-.636 1.207-.954 2.11-.954zm0 1.481a.892.892 0 00-.579.207c-.17.137-.3.384-.394.74-.123.462-.184 1.24-.184 2.332 0 1.093.055 1.844.165 2.253.11.409.25.681.416.817a.888.888 0 00.576.203.892.892 0 00.578-.206c.17-.138.3-.385.394-.74.123-.458.184-1.234.184-2.327s-.055-1.844-.165-2.253c-.11-.408-.249-.682-.416-.82a.88.88 0 00-.575-.206zM406.167 288.467l1.78-.184c.05.402.2.721.45.956a1.224 1.224 0 001.812-.102c.258-.302.388-.759.388-1.369 0-.572-.128-1-.385-1.287-.256-.286-.59-.429-1-.429-.513 0-.973.227-1.38.68l-1.449-.21.915-4.848h4.722v1.671h-3.368l-.28 1.582a2.7 2.7 0 011.22-.298c.793 0 1.464.288 2.015.864.55.576.826 1.324.826 2.243 0 .767-.222 1.451-.667 2.053-.606.822-1.447 1.233-2.523 1.233-.86 0-1.561-.231-2.103-.693-.543-.462-.867-1.082-.973-1.862zM432.264 303.728h-1.786v-6.73a6.156 6.156 0 01-2.307 1.353v-1.62c.466-.153.972-.442 1.519-.868.546-.425.921-.922 1.125-1.49h1.449zM437.958 294.373c.902 0 1.607.322 2.116.966.606.763.908 2.027.908 3.794 0 1.762-.305 3.03-.915 3.8-.504.636-1.207.954-2.11.954-.906 0-1.637-.349-2.192-1.046-.555-.697-.832-1.94-.832-3.727 0-1.754.305-3.016.915-3.788.504-.635 1.207-.953 2.11-.953zm0 1.48a.892.892 0 00-.579.207c-.17.138-.3.385-.394.74-.123.463-.184 1.24-.184 2.333 0 1.093.055 1.844.165 2.253.11.409.25.68.416.816a.888.888 0 00.576.204.892.892 0 00.578-.207c.17-.137.3-.384.394-.74.123-.458.184-1.233.184-2.326s-.055-1.844-.165-2.253c-.11-.409-.249-.682-.416-.82a.88.88 0 00-.575-.206zM458.005 297.511h-1.786v-6.73a6.156 6.156 0 01-2.307 1.354v-1.62c.466-.153.973-.442 1.52-.868.546-.426.92-.923 1.124-1.49h1.449zM460.706 295.115l1.78-.184c.05.403.2.721.45.956a1.224 1.224 0 001.812-.101c.258-.303.387-.76.387-1.37 0-.572-.128-1-.384-1.287-.257-.286-.59-.429-1.001-.429-.513 0-.973.227-1.38.68l-1.448-.21.915-4.848h4.722v1.671h-3.368l-.28 1.583a2.7 2.7 0 011.22-.299c.792 0 1.464.288 2.015.864.55.576.826 1.324.826 2.244 0 .766-.223 1.45-.668 2.052-.605.822-1.446 1.233-2.522 1.233-.86 0-1.562-.23-2.104-.693-.542-.461-.866-1.082-.972-1.862zM473.95 275.113v1.658h-6.26a4.311 4.311 0 01.61-1.782c.34-.562 1.009-1.306 2.008-2.234.805-.75 1.299-1.258 1.481-1.525.246-.369.369-.733.369-1.093 0-.399-.107-.705-.321-.919-.214-.214-.51-.32-.887-.32-.373 0-.67.112-.89.336-.22.225-.347.598-.38 1.119l-1.78-.178c.106-.983.438-1.688.998-2.116.559-.428 1.258-.642 2.097-.642.92 0 1.641.248 2.167.743.525.496.788 1.112.788 1.85 0 .419-.075.818-.226 1.197-.15.38-.389.777-.715 1.192-.216.275-.606.672-1.17 1.188-.563.517-.92.86-1.07 1.03-.15.17-.272.335-.365.496zM478.182 267.417c.903 0 1.608.322 2.116.966.606.762.909 2.027.909 3.794 0 1.762-.305 3.029-.915 3.8-.504.635-1.207.953-2.11.953-.907 0-1.637-.348-2.192-1.045-.555-.697-.833-1.94-.833-3.727 0-1.754.305-3.017.915-3.788.504-.635 1.208-.953 2.11-.953zm0 1.48a.892.892 0 00-.578.207c-.17.138-.301.384-.394.74-.123.462-.184 1.24-.184 2.333 0 1.093.055 1.844.165 2.252.11.41.249.681.416.817a.888.888 0 00.575.203.892.892 0 00.578-.206c.17-.138.301-.385.394-.74.123-.458.185-1.233.185-2.326s-.055-1.844-.166-2.253c-.11-.41-.248-.682-.416-.82a.88.88 0 00-.575-.207z" style="line-height:125%;-inkscape-font-specification:'Sans Bold';text-align:center"/></g><g fill-rule="evenodd"><path d="M406.314 241.015c-3.641 6.307-3.6 16.172-3.6 16.172h3.6c.036-3.776 0-10.373 0-16.172z" fill="#59a4ac"/><path d="M406.314 278.274c-3.608-6.25-3.6-16.172-3.6-16.172h3.6c.037 3.776 0 10.392 0 16.172z" fill="#ac874b"/></g><g fill="#fff" stroke="#fff" fill-rule="evenodd"><path d="M379.147 259.64h13.024M393.854 220.305l9.829 8.544M430.76 200.267l1.812 12.897M471.76 209.356l-7.094 10.923M496.739 243.114l-12.52 3.59M393.854 298.976l9.829-8.544M430.76 319.014l1.812-12.897M471.76 309.925l-7.094-10.923M496.739 276.167l-12.52-3.59" stroke-width="1.35"/><path d="M379.76 251.089l8.757 1.262M381.587 242.712l8.487 2.498M384.59 234.682l8.043 3.683M388.706 227.161l7.437 4.793M399.927 214.254l5.78 6.697M406.801 209.13l4.767 7.453M414.336 205.039l3.654 8.057M422.377 202.064l2.468 8.496M379.76 268.192l8.757-1.262M381.587 276.569l8.487-2.498M384.59 284.6l8.043-3.684M388.706 292.12l7.437-4.793M399.927 305.027l5.78-6.697M406.801 310.151l4.767-7.453M414.336 314.242l3.654-8.057M422.377 317.217l2.468-8.496" stroke-width=".85"/></g></g></svg>